<svg
   xmlns:dc="http://purl.org/dc/elements/1.1/"
   xmlns:cc="http://creativecommons.org/ns#"
   xmlns:rdf="http://www.w3.org/1999/02/22-rdf-syntax-ns#"
   xmlns:svg="http://www.w3.org/2000/svg"
   xmlns="http://www.w3.org/2000/svg"
   xmlns:sodipodi="http://sodipodi.sourceforge.net/DTD/sodipodi-0.dtd"
   xmlns:inkscape="http://www.inkscape.org/namespaces/inkscape"
   version="1.1"
   id="mySVG"
   xml:space="preserve"
   width="10240"
   height="3413.3333"
   viewBox="0 0 10240 3413.3333"
   sodipodi:docname="avocado.svg"
   inkscape:version="0.92.4 (5da689c313, 2019-01-14)"><metadata
     id="metadata8"><rdf:RDF><cc:Work
         rdf:about=""><dc:format>image/svg+xml</dc:format><dc:type
           rdf:resource="http://purl.org/dc/dcmitype/StillImage" /><dc:title></dc:title></cc:Work></rdf:RDF></metadata><defs
     id="defs6" /><sodipodi:namedview
     pagecolor="#ffffff"
     bordercolor="#666666"
     borderopacity="1"
     objecttolerance="10"
     gridtolerance="10"
     guidetolerance="10"
     inkscape:pageopacity="0"
     inkscape:pageshadow="2"
     inkscape:window-width="1920"
     inkscape:window-height="986"
     id="namedview4"
     showgrid="false"
     inkscape:zoom="0.045898438"
     inkscape:cx="5120"
     inkscape:cy="1706.6666"
     inkscape:window-x="-11"
     inkscape:window-y="-11"
     inkscape:window-maximized="1"
     inkscape:current-layer="g12" /><g
     id="g10"
     inkscape:groupmode="layer"
     inkscape:label="ink_ext_XXXXXX"
     transform="matrix(1.3333333,0,0,-1.3333333,0,3413.3333)"><g
       id="g12"
       transform="scale(0.1)"><path
         d="m 35294.8,8028.7 c -23.8,0 -47.9,-2.9 -63.8,-15.8 -13.2,-10.8 -18.8,-23.5 -17.9,-40.1 2.8,-47.4 56.6,-109 107,-141.1 311.9,-198.9 650,-352.7 1004.8,-457.1 48.4,-14.2 96.4,-26.8 143.8,-37.7 -144.3,161.1 -316,309.6 -512.4,442.3 -236.6,159.9 -448.1,241.4 -646.5,249.2 -4.9,0.2 -9.9,0.3 -15,0.3 z m 663.9,6621.6 c -307.3,0 -603.2,-76.5 -880.7,-227.8 -265.1,-144.5 -515.1,-357.9 -743.2,-634.3 -516.8,-626.2 -777.2,-1385.7 -886.5,-1782.7 -212.4,-772 -201.2,-1582 32.5,-2342.3 235,-764.4 683.3,-1439.3 1296.4,-1951.6 315.2,-263.4 707.2,-472.6 1198.2,-639.6 190.8,-64.9 397.1,-106 596.6,-145.9 70.7,-14.1 142.1,-28.4 213.4,-43.8 -68.6,132.1 -153,259 -252.2,379.4 -73.8,14.5 -148.9,32.9 -225.3,55.4 -360.2,106 -703.4,262.1 -1020,464 -61.9,39.4 -130.4,115.2 -134.7,188.2 -2.1,36 11.7,67.1 39.9,90.1 34.7,28.2 79.7,30.4 119,28.9 210,-8.2 431.7,-93 677.8,-259.4 224.7,-151.8 417.8,-324.1 575.7,-512.2 516.4,-95.7 967.3,12.3 1343.1,322.2 801.9,661.2 1113.3,2148.2 1006.4,3275.2 -75.1,792.1 -405.3,1711.2 -861.7,2398.5 -393.2,592 -1065,1304.5 -2032.7,1336.7 -20.7,0.7 -41.4,1 -62,1 z M 35375,21744 c -641.8,0 -1281.6,-232.6 -1768.2,-653.8 -573,-496.1 -1025.4,-1211.3 -1241,-1962.1 -221.5,-771.6 -296.4,-1589.8 -368.8,-2381.1 -65.2,-712.6 -132.6,-1449.4 -306.7,-2153.1 -162.2,-655.8 -457.6,-1228.9 -743.3,-1783.2 -249.5,-484.1 -507.5,-984.8 -679.4,-1543.1 -183,-594.4 -272.4,-1277.7 -258.6,-1976 14.2,-711.6 135.4,-1388 350.6,-1955.9 272.8,-719.7 769,-1352.8 1474.8,-1881.7 620.3,-464.8 1390.4,-833.7 2226.9,-1066.6 542.7,-151.1 1111.4,-283 1710.7,-396.4 15.6,7.6 31.1,15.4 46.4,23.4 406.5,211.9 723.6,570.2 969.4,1095.4 233.9,499.7 274.8,1013.9 118.4,1487 -24.3,73.4 -53.3,145.7 -86.7,216.5 -86.3,19.5 -173.3,36.8 -259.2,54 -201.4,40.2 -409.7,81.8 -604.2,147.9 -498.2,169.4 -896.4,382.1 -1217.3,650.3 -622.1,519.8 -1076.9,1204.5 -1315.3,1980.1 -237.1,771.2 -248.5,1592.7 -33,2375.8 110.5,401.7 374.1,1170.2 898,1805 233,282.3 489,500.6 760.8,648.8 305.6,166.6 633.1,245.4 973.4,234.1 414,-13.8 811.6,-151.9 1181.6,-410.3 329.2,-229.9 631.7,-550.6 899,-953.2 237.2,-357.1 443.6,-778.1 597.1,-1217.5 143.5,-411.2 238.5,-829.1 274.5,-1208.5 54.3,-573.1 -2.8,-1230.9 -156.7,-1804.7 -181.2,-675.4 -482.5,-1201.9 -871.3,-1522.5 -298.7,-246.3 -642.6,-369.9 -1026.9,-369.9 -96.7,0 -195.8,7.8 -297.5,23.4 94.1,-121.2 173.9,-248.4 238.6,-380.7 145.4,-33.5 289.2,-73.4 424.2,-128.4 522.3,-212.9 444.5,-779.2 375.7,-1278.9 -24.6,-179.6 -48,-349.3 -42,-490.8 3.2,-75.3 14.4,-169 74,-226 269.7,-257.9 1073.7,229.8 1417.1,438 43.5,26.5 81.2,49.3 111.9,67.2 465.6,271.6 883.5,615.6 1242.1,1022.4 626,710.3 1065,1599.1 1269.4,2570.4 112.3,533.7 145,1042.5 97.1,1512.4 -61.9,606.9 -231.5,1235.8 -518.4,1922.7 -266.6,638.1 -597.8,1242.6 -916,1800.7 -94.8,166.3 -192.2,335.2 -286.4,498.6 -673.8,1168.6 -1370.6,2376.9 -1737.9,3692.2 -53,190.1 -100.4,386.3 -146.2,576 -136.9,567 -278.4,1153.4 -590.7,1649.2 -411.3,653.3 -1112.8,1111.2 -1876.5,1224.8 -127.1,18.9 -255.3,28.1 -383.5,28.1 z m 493.4,-17771 c 667.7,-123.4 1373.5,-224.2 2123.7,-303.4 508.3,166.5 962.2,368.9 1402,623.4 517.4,299.5 1033.2,684.3 1623.3,1210.9 453.7,404.9 831.9,896 1124,1459.5 279.4,539.1 473.9,1131.4 578,1760.7 206.6,1247.7 40.8,2556.3 -466.7,3684.7 -320.6,712.9 -764.8,1376.4 -1194.4,2018.1 -442.3,660.6 -899.7,1343.8 -1224.2,2083.3 -248.6,566.3 -421.3,1170.6 -588.3,1755 -107.5,376.1 -218.7,764.9 -348.9,1139.7 -408.6,1175.7 -956,1977.6 -1673.4,2451.5 -549,362.7 -1245.7,549.2 -1961.7,525.5 -1313.6,-43.6 -2579.4,-811.7 -3224.6,-1956.9 -248.9,-441.7 -425,-956 -538.5,-1572.4 -101.5,-551.5 -144.9,-1134.3 -187,-1698 -54.9,-736.7 -111.7,-1498.5 -298,-2215.4 -181.6,-699.2 -490.1,-1366.5 -788.4,-2011.9 -284.1,-614.5 -577.9,-1250 -760.6,-1910.4 -453.7,-1640.1 -190.3,-3439.9 704.7,-4814.4 927.1,-1423.7 2523.5,-2357.9 4166.1,-2437.9 551.9,-26.9 983.5,31.6 1342,183.4 -570.5,110.1 -1113.2,237 -1632.3,381.6 -843.6,234.9 -1620.6,607.1 -2246.8,1076.4 -715.1,535.8 -1218,1177.9 -1494.9,1908.4 -217.6,574.3 -340.2,1257.6 -354.4,1976 -14,704.6 76.3,1394.4 261.1,1994.9 173.5,563.4 432.8,1066.4 683.5,1552.9 284.1,551.2 577.8,1121.2 738.4,1770.1 173,699.3 240.2,1433.8 305.2,2144.2 72.6,794.1 147.7,1615.2 370.8,2392.1 218.8,761.7 677.8,1487.4 1259.5,1991 596.7,516.6 1419,755.7 2199.8,639.6 780.7,-116.1 1497.8,-584.2 1918.4,-1252.1 317.5,-504.2 460.2,-1095.4 598.2,-1667.2 45.7,-189.2 92.9,-384.8 145.7,-573.8 365.3,-1308.1 1060.1,-2513.1 1732,-3678.4 94.3,-163.5 191.8,-332.5 286.6,-498.9 319.2,-559.8 651.4,-1166.2 919.2,-1807.3 289.2,-692.4 460.2,-1326.9 522.8,-1939.7 48.5,-476 15.5,-991.1 -98.1,-1530.9 -206.5,-981.3 -650.2,-1879.6 -1283.1,-2597.7 -362.8,-411.6 -785.7,-759.7 -1256.9,-1034.5 -30.2,-17.7 -67.7,-40.4 -111,-66.7 -385.2,-233.6 -1186.8,-719.7 -1489.6,-430.1 -75.1,71.9 -88.9,180.4 -92.6,266.9 -6.1,146.9 17.5,319.1 42.6,501.5 34,246.9 69.1,502.3 34.6,722.7 -38.3,244.5 -160.5,405.6 -373.5,492.4 -117.3,47.8 -242.2,84.1 -369.3,114.8 26.3,-59.3 49.5,-119.5 69.7,-180.6 161.4,-487.8 119.6,-1017.4 -121,-1531.3 -247.1,-527.9 -565.8,-891.7 -973.7,-1111.3 z m -750.5,-817.5 c -409.5,0 -831.9,24.6 -1273.1,73.3 -1200.7,132.7 -2375.9,425.4 -3620.1,735.2 -146.2,36.4 -293,73 -440.6,109.5 -924.6,228.5 -1920.7,297.8 -3045.2,211.7 -1005.2,-77 -2023.4,-268.7 -3008.1,-454.1 -704.3,-132.7 -1432.6,-269.8 -2157.7,-365.8 -456.1,-60.4 -912.2,-86.5 -1367.1,-86.5 -1464.8,-0.1 -2918.9,270.1 -4336.5,533.4 -796.4,147.9 -1619.9,300.9 -2430.9,403 -964.4,121.5 -1944.3,-32.1 -2981.7,-194.6 -998.58,-156.5 -2031.19,-318.3 -3129.3,-245.4 -1245.45,82.7 -2390.59,464.8 -3500.85,1167.9 -14,8.9 -18.17,27.4 -9.3,41.4 8.87,14 27.41,18.2 41.4,9.3 1101.59,-697.7 2237.53,-1076.7 3472.73,-1158.7 1091.4,-72.5 2120.69,88.8 3116.12,244.8 1041.7,163.2 2025.6,317.3 2998.4,194.8 812.7,-102.3 1637.1,-255.4 2434.4,-403.5 926.7,-172.1 1885,-350.1 2831.7,-449.7 1060.8,-111.6 1994.1,-110.5 2853.1,3.2 723.4,95.8 1450.9,232.8 2154.4,365.3 986.3,185.8 2006.1,377.8 3014.7,455 1130.9,86.6 2133.1,16.8 3064.1,-213.3 147.6,-36.5 294.4,-73 440.7,-109.5 1242.2,-309.3 2415.5,-601.5 3612.2,-733.7 1345.3,-148.6 2514,-71.3 3677.9,243.2 109.6,29.6 216.5,60.5 321.1,92.8 -730.2,80.2 -1418.4,181.2 -2070.1,303.9 -382.7,-181.9 -845.3,-253.1 -1447.8,-223.7 -1661.4,80.9 -3275.9,1025.5 -4213.3,2465.1 -904.3,1388.7 -1170.6,3206.7 -712.3,4863.1 184,665.1 478.8,1302.9 763.9,1919.6 297.2,643 604.6,1307.8 784.9,2001.8 184.8,711.6 241.4,1470.7 296.2,2204.8 84.3,1130.1 171.4,2298.7 733,3295.4 655.3,1163 1940.8,1943.1 3274.9,1987.4 728.3,24.1 1437.5,-166 1996.8,-535.4 728.8,-481.4 1283.9,-1293.3 1697,-2481.9 130.8,-376.4 242.2,-766.1 349.9,-1142.9 166.4,-582.5 338.6,-1184.8 585.5,-1747.4 322.4,-734.7 778.3,-1415.6 1219.2,-2074.1 430.9,-643.7 876.6,-1309.3 1199.3,-2026.8 512.3,-1139.1 679.6,-2459.9 471.1,-3719.1 -105.2,-635.5 -301.6,-1233.9 -583.9,-1778.5 -295.5,-570 -678.2,-1066.9 -1137.4,-1476.7 -593.2,-529.4 -1112.2,-916.4 -1633.2,-1218 -407,-235.6 -825.9,-426.8 -1288,-586.4 326.7,-33 661.7,-62.1 1005.8,-87.2 1524.3,-111.1 3164.4,-142.5 5161.4,-98.6 1222.5,26.9 2439.8,287.3 3617,539.1 1085,232.1 2207,472.1 3338,531.8 1285.2,67.8 2706,-197.6 4080,-454.4 1392,-260.1 2831.4,-529.1 4128.6,-451.2 990.8,59.5 1876.1,183.1 2732.3,302.6 1194.9,166.8 2323.8,324 3681.3,313.8 747.3,-5.8 1522.2,-235.8 2342.6,-479.2 790.7,-234.6 1608.2,-477.2 2470.1,-539.9 975.7,-71 1861.6,107.1 2708.3,544.5 14.7,7.5 32.8,1.8 40.4,-12.9 7.6,-14.8 1.8,-32.8 -12.9,-40.4 -735,-379.7 -1499.2,-566.3 -2324.7,-566.4 -136.8,0 -275.1,5.1 -415.5,15.4 -868.3,63.2 -1689.1,306.7 -2482.8,542.2 -816.2,242.2 -1587.1,470.9 -2325.9,476.7 -1353.3,10.8 -2479.9,-146.7 -3672.6,-313.2 -857.3,-119.7 -1743.8,-243.4 -2737,-303.1 -156.4,-9.4 -315,-13.8 -475.2,-13.8 -1174.9,0 -2439.8,236.4 -3668,465.9 -1370.6,256.1 -2787.8,520.9 -4065.8,453.5 C 50135.2,4420.4 49015.6,4181 47932.9,3949.4 46752.9,3697 45532.8,3436 44304.6,3409 c -1998.9,-44 -3640.8,-12.6 -5167.1,98.7 -390.8,28.5 -770.3,62.1 -1138.9,100.9 -146.4,-47.8 -297.3,-92.6 -453.7,-134.8 -789.3,-213.3 -1580.7,-318.3 -2427,-318.3"
         style="fill:none;stroke:#040606;stroke-width:50;stroke-linecap:round;stroke-linejoin:round;stroke-miterlimit:10;stroke-dasharray:none;stroke-opacity:1"
         id="drawing"
         inkscape:connector-curvature="0" /></g></g></svg>