<!-- Generator: Adobe Adobe Illustrator 24.2.0, SVG Export Plug-In . SVG Version: 6.00 Build 0)  -->
<svg version="1.1" id="mySVG" xmlns="http://www.w3.org/2000/svg" xmlns:xlink="http://www.w3.org/1999/xlink" x="0px" y="0px"
	 width="7680px" height="2560px" viewBox="0 0 7680 2560" style="enable-background:new 0 0 7680 2560;" xml:space="preserve">
<style type="text/css">
	.st0{fill:none;stroke:#000000;stroke-width:7;stroke-miterlimit:10;}
</style>
<path class="st0" d="M385.88,2050.62c104.41,97.25,301.58,110.59,444.26,109.52c142.68-1.07,283.79-30.25,426.36-35.88
	c277.94-10.97,485.98,101.89,764.1,97.86c246.75-3.57,557.38-106.39,803.94-96.19c261.89,10.84,448.71,136.49,709.71,112.26
	c169.32-15.72,392.87-79.28,522.16-189.73c158.8-135.67,252.72-372.66,214.73-578.04c-17.98-97.21-140.28-402.17-187.65-488.93
	C3952.22,741.02,3920.11,633.62,3840,506.82c-24.57-38.89-70.25-97.16-98.13-125.99c-96.94-100.26-293.98-96.69-402.72-9.37
	c-108.74,87.32-161.88,166.54-189.28,303.28s-34,337.95-73.01,471.85c-64.75,222.23-207.16,363.66-141.85,585.72
	c37.63,127.95,102.22,288.52,219.84,351.38c96.06,51.33,237.19,99.6,344.39,80.32c107.2-19.28,180.35-39.5,198.08-146.96
	s-165.85-293.39-182-253.97c-21.25,51.87,222.85,72.14,303.91,4.36c81.06-67.78,71.78-140.75,74.24-246.38
	c4.33-186.18-105.2-429.55-291.4-425.98c-176.54,3.39-265.04,218.64-271.95,395.08c-6.96,177.95,110.36,364.91,288.37,370.35
	c53.91,1.65,115.19,35.74,145.13,80.6c37.51,56.2-23.79,144.04,43.49,150.25c15.36,1.42-22.63,13.18-8.34,7.37
	c341.97-138.98,402.51-422.88,364.09-662.97c-44.93-280.7-258.05-583.8-345.68-806.44c-23.38-59.4-66.15-128.3-105.66-178.44
	c-76.34-96.89-253.65-75.09-354.75-4.42s-114.7,210.73-141.44,331.15c-26.75,120.42-31.92,245.04-62.17,364.63
	c-47.64,188.35-179.28,339.06-156.04,531.95c41.77,346.6,380.11,509.05,916.64,535.07c538.49,26.11,589.93,6.28,1255.96-96.18
	c311.88-47.98,489.28,130.17,944.15,60.19c169.17-26.03,342.05-32.49,512.69-19.15c271.87,21.25,542.19,145.11,808.03,84.38" id="drawing"/>
</svg>
