<?xml version="1.0" encoding="UTF-8" standalone="no"?>
<!-- Generator: Adobe Adobe Illustrator 24.2.0, SVG Export Plug-In . SVG Version: 6.00 Build 0)  -->

<svg
   xmlns:dc="http://purl.org/dc/elements/1.1/"
   xmlns:cc="http://creativecommons.org/ns#"
   xmlns:rdf="http://www.w3.org/1999/02/22-rdf-syntax-ns#"
   xmlns:svg="http://www.w3.org/2000/svg"
   xmlns="http://www.w3.org/2000/svg"
   xmlns:sodipodi="http://sodipodi.sourceforge.net/DTD/sodipodi-0.dtd"
   xmlns:inkscape="http://www.inkscape.org/namespaces/inkscape"
   version="1.1"
   id="mySVG"
   x="0px"
   y="0px"
   width="4859.2852"
   height="1955.4977"
   viewBox="0 0 4859.2851 1955.4977"
   xml:space="preserve"
   sodipodi:docname="avocado.svg"
   inkscape:version="0.92.4 (5da689c313, 2019-01-14)"><metadata
   id="metadata10"><rdf:RDF><cc:Work
       rdf:about=""><dc:format>image/svg+xml</dc:format><dc:type
         rdf:resource="http://purl.org/dc/dcmitype/StillImage" /><dc:title></dc:title></cc:Work></rdf:RDF></metadata><defs
   id="defs8" /><sodipodi:namedview
   pagecolor="#ffffff"
   bordercolor="#666666"
   borderopacity="1"
   objecttolerance="10"
   gridtolerance="10"
   guidetolerance="10"
   inkscape:pageopacity="0"
   inkscape:pageshadow="2"
   inkscape:window-width="1920"
   inkscape:window-height="986"
   id="namedview6"
   showgrid="false"
   fit-margin-top="0"
   fit-margin-left="0"
   fit-margin-right="0"
   fit-margin-bottom="0"
   inkscape:zoom="0.15394304"
   inkscape:cx="2856.5782"
   inkscape:cy="452.7778"
   inkscape:window-x="-11"
   inkscape:window-y="-11"
   inkscape:window-maximized="1"
   inkscape:current-layer="mySVG" />
<style
   type="text/css"
   id="style2">
	.st0{fill:none;stroke:#000000;stroke-width:20;stroke-miterlimit:10;}
</style>
<path
   class="st0"
   d="m 0.39438245,1828.4745 c 277.93998755,-10.97 485.97998755,101.89 764.09998755,97.86 246.75003,-3.57 557.38003,-106.39 803.94003,-96.19 261.89,10.84 448.71,136.49 709.71,112.26 169.32,-15.72 392.87,-79.28 522.16,-189.73 158.8,-135.67 252.72,-372.66 214.73,-578.04 -17.98,-97.21 -140.28,-402.17003 -187.65,-488.93003 -131.27,-240.47 -163.38,-347.87 -243.49,-474.67 -24.57,-38.89 -70.25,-97.16 -98.13,-125.989996 -96.94,-100.26 -293.98,-96.69 -402.72,-9.37 -108.74,87.319996 -161.88,166.539996 -189.28,303.279996 -27.4,136.74 -34,337.95 -73.01,471.85 -64.75,222.23003 -207.16,363.66003 -141.85,585.72003 37.63,127.95 102.22,288.52 219.84,351.38 96.06,51.33 237.19,99.6 344.39,80.32 107.2,-19.28 180.35,-39.5 198.08,-146.96 17.73,-107.46 -165.85,-293.39 -182,-253.97 -21.25,51.87 222.85,72.14 303.91,4.36 81.06,-67.78 71.78,-140.75 74.24,-246.38 4.33,-186.18 -105.2,-429.55003 -291.4,-425.98003 -176.54,3.39 -265.04,218.64003 -271.95,395.08003 -6.96,177.95 110.36,364.91 288.37,370.35 53.91,1.65 115.19,35.74 145.13,80.6 37.51,56.2 -23.79,144.04 43.49,150.25 15.36,1.42 -22.63,13.18 -8.34,7.37 341.97,-138.98 402.51,-422.88 364.09,-662.97 -44.93,-280.70003 -258.05,-583.80003 -345.68,-806.44003 -23.38,-59.4 -66.15,-128.3 -105.66,-178.44 -76.34,-96.889996 -253.65,-75.089996 -354.75,-4.42 -101.1,70.67 -114.7,210.73 -141.44,331.15 -26.75,120.42 -31.92,245.04 -62.17,364.63 -47.64,188.35003 -179.28,339.06003 -156.04,531.95003 41.77,346.6 380.11,509.05 916.64,535.07 538.49,26.11 589.93,6.28 1255.96,-96.18 311.88,-47.98 489.28,130.17 944.15,60.19"
   id="drawing"
   inkscape:connector-curvature="0"
   style="fill:none;stroke:#000000;stroke-width:20;stroke-miterlimit:10"
   sodipodi:nodetypes="cccccccscsscccsscsccccccccccscccccc" />
</svg>