<svg
   xmlns:dc="http://purl.org/dc/elements/1.1/"
   xmlns:cc="http://creativecommons.org/ns#"
   xmlns:rdf="http://www.w3.org/1999/02/22-rdf-syntax-ns#"
   xmlns:svg="http://www.w3.org/2000/svg"
   xmlns="http://www.w3.org/2000/svg"
   xmlns:sodipodi="http://sodipodi.sourceforge.net/DTD/sodipodi-0.dtd"
   xmlns:inkscape="http://www.inkscape.org/namespaces/inkscape"
   version="1.1"
   id="mySVG"
   xml:space="preserve"
   width="1600"
   height="1066.6667"
   viewBox="0 0 1600 1066.6667"
   sodipodi:docname="banana.svg"
   inkscape:version="0.92.4 (5da689c313, 2019-01-14)"><metadata
     id="metadata8"><rdf:RDF><cc:Work
         rdf:about=""><dc:format>image/svg+xml</dc:format><dc:type
           rdf:resource="http://purl.org/dc/dcmitype/StillImage" /><dc:title></dc:title></cc:Work></rdf:RDF></metadata><defs
     id="defs6" /><sodipodi:namedview
     pagecolor="#ffffff"
     bordercolor="#666666"
     borderopacity="1"
     objecttolerance="10"
     gridtolerance="10"
     guidetolerance="10"
     inkscape:pageopacity="0"
     inkscape:pageshadow="2"
     inkscape:window-width="1920"
     inkscape:window-height="986"
     id="namedview4"
     showgrid="false"
     inkscape:zoom="0.22124998"
     inkscape:cx="800"
     inkscape:cy="533.33337"
     inkscape:window-x="-11"
     inkscape:window-y="-11"
     inkscape:window-maximized="1"
     inkscape:current-layer="g12" /><g
     id="g10"
     inkscape:groupmode="layer"
     inkscape:label="ink_ext_XXXXXX"
     transform="matrix(1.3333333,0,0,-1.3333333,0,1066.6667)"><g
       id="g12"
       transform="scale(0.1)"><path
         d="m 4543.2,4840.46 c 19.01,-72.26 52.16,-104.54 102.32,-153.39 30.96,-30.16 69.5,-67.68 115.73,-126.09 14.95,-18.9 33.69,-47.39 57.41,-83.46 122.1,-185.69 376.18,-572.09 891.19,-795.26 483.68,-209.61 928.62,-232.93 1102.03,-232.93 1.49,0 2.99,0 4.45,0.01 96.46,0.22 170.91,5.75 257.11,12.16 122.51,9.11 261.23,19.46 505.9,16.81 278.04,-2.98 414.97,-75.76 482.24,-143.53 -6.15,-19.24 -9.8,-40.85 -9.34,-63.84 -893.72,-163.94 -1365.13,-155.28 -2063.56,20.45 -515.95,129.81 -1003.28,252.42 -1325.76,700.2 -152.01,211.09 -392.79,625.95 -297.36,1032.76 7.85,33.46 8.06,75.5 8.29,120.02 0.44,85.23 0.89,173.38 57.96,185.41 19.85,4.18 38.08,5.99 54.71,5.99 71.53,0 113.54,-33.41 127.3,-55.03 23.29,-36.6 9.79,-60.59 -20.45,-107.13 -41.4,-63.71 -98.1,-150.96 -50.17,-333.15 z M 5611.08,2174.77 c -491.99,76.02 -874.61,174.48 -1099.15,256.45 -428.45,156.4 -863.46,362.32 -1143.04,806.18 -167.43,265.82 -252.93,588.31 -240.77,908.09 10.14,266.47 90.63,505.39 205.07,608.69 127.93,115.47 207.74,128.69 284.93,141.47 59.71,9.88 121.44,20.1 199.59,78.88 74.62,56.12 119.01,144.24 154.67,215.05 6.09,12.08 11.89,23.6 17.52,34.29 99.39,188.77 78.72,301.27 63.62,383.42 -10.37,56.42 -16.63,90.47 18.75,125.68 42.71,42.52 116.18,55.34 187.23,67.73 49.94,8.71 101.58,17.72 143.75,37.07 57.85,26.56 96.7,54.44 125.06,74.8 30.07,21.58 48.4,34.74 68.89,34.74 3.1,0 6.25,-0.3 9.5,-0.92 17.4,-3.32 34.27,-15.58 49.31,-35.25 -38.59,-18.26 -68.76,-37.09 -95.72,-53.92 -38.46,-24.01 -71.69,-44.75 -116.53,-55.72 -27.11,-6.64 -50.82,-11.92 -71.74,-16.58 -51.71,-11.53 -92.54,-20.63 -151.57,-41.96 -69.73,-25.21 -86.62,-99.72 -79.18,-161.04 7.72,-63.61 101.12,-136.57 217.25,-169.71 132.97,-37.91 251.29,-12.05 316.56,69.22 78.59,97.87 77.93,267.62 37.41,377.65 -5.13,13.94 -10.82,26.74 -16.99,38.32 6.8,0.02 12.66,-1.94 18.83,-6.1 68.76,-46.33 106.44,-330.58 98.48,-566.99 -9.36,-278.24 79.49,-330.22 226.93,-382.78 234.96,-83.74 389.91,-254 492.45,-366.67 8.05,-8.84 15.78,-17.34 23.23,-25.44 321.08,-349.29 904.5,-521.12 1734.4,-510.8 262.58,3.27 644.23,61.86 980.96,113.55 253.37,38.89 492.69,75.63 647.47,83.89 113.24,6.07 194.93,-8.35 250.69,-44.91 -3.71,-3.86 -7.17,-8.1 -10.36,-12.72 -27.91,-40.51 -27.33,-99.15 1.53,-156.88 21.61,-43.22 44.62,-65.24 68.37,-65.45 15.88,0.06 29.14,9.39 38.23,26.81 20.45,39.19 16.4,115.19 -25.77,174.52 -8.22,11.56 -17.4,22.15 -27.58,31.78 5.88,1.72 11.94,2.33 17.98,1.73 21.02,-2.1 39.13,-18.49 50.97,-46.16 47.72,-111.42 7.26,-220.64 -35.07,-292.63 -172.9,-293.95 -825.78,-509.63 -985.67,-541.24 -8.57,-1.7 -17.19,-3.39 -25.69,-5.06 0.71,24.25 -2.73,47.69 -10.27,70.34 -13.66,40.97 -37.18,52.78 -54.52,55.48 -28.39,4.43 -59.81,-12.72 -84.03,-45.87 -5.2,-7.13 -10.16,-15.24 -14.61,-24.2 -84.79,77.7 -241.25,140.01 -492.84,142.71 -245.5,2.64 -385.07,-7.74 -508.1,-16.88 -85.7,-6.38 -159.71,-11.87 -255.24,-12.1 -168.5,-0.07 -612.72,21.31 -1096.08,230.77 -507.89,220.1 -759.09,602.12 -879.81,785.71 -24.07,36.6 -43.08,65.51 -58.74,85.3 -47.27,59.73 -86.47,97.91 -117.98,128.58 -48.73,47.46 -78.14,76.1 -95.32,141.39 -45,171.05 8.08,252.73 46.84,312.36 28.91,44.5 53.88,82.92 20.58,135.26 -20.32,31.91 -90.22,85.63 -209.31,60.52 -77.6,-16.36 -78.13,-119.62 -78.6,-210.72 -0.22,-43 -0.42,-83.62 -7.6,-114.21 -97.78,-416.84 146.98,-839.22 301.58,-1053.89 328.02,-455.48 819.83,-579.22 1340.51,-710.23 702.04,-176.64 1175.77,-185.54 2072.16,-21.25 3.03,-19.45 9.16,-39.56 19.28,-59.79 20.63,-41.28 43.04,-39.38 51.72,-36.63 21.35,6.73 31.82,37.35 26.05,76.19 -1.78,12.04 -4.87,24.29 -9.31,36.6 21.12,4.01 42.44,8.1 64.03,12.29 -19.42,-101.55 -114.95,-220.42 -288.83,-360.19 -296.41,-238.29 -722.92,-264.79 -1100.95,-259.19 -30.4,0.45 -64.49,1.43 -101.62,2.96 6.37,14.48 11.41,29.01 15.04,43.54 14.61,58.41 4.12,111.07 -30.34,152.29 -24.61,29.45 -55.09,38.65 -86.15,26.92 -115.77,127.35 -396.93,167.7 -790.78,208.94 -624.79,65.41 -1121.99,277.04 -1437.85,612.02 -180.52,191.44 -195.9,350.22 -217.19,569.98 -11.12,114.81 -23.73,244.94 -62.92,402.18 -3.82,15.32 -9.36,29.99 -15.23,45.51 -11.89,31.46 -24.19,63.99 -23.02,105.54 3.48,123.87 78.28,196.82 150.62,267.38 68.37,66.67 132.94,129.64 123.27,227.21 -8.94,90.23 -84.77,90.15 -145.53,89.99 l -8.27,-0.01 c -0.05,0 -0.09,0 -0.14,0 -57.37,0 -70.01,-35.08 -92.93,-98.69 -23.37,-64.84 -62.47,-173.36 -176.19,-333.07 -180.36,-253.28 -197.5,-409.99 -214.07,-561.53 l -2.07,-18.79 c -23.22,-208.84 28.7,-429.89 154.34,-657.02 97.69,-176.62 211.46,-301.72 247.05,-335.02 l 9.73,-9.11 c 270.6,-253.24 394.1,-368.83 1390.5,-610.98 300.37,-72.98 712.33,-120.73 1024.05,-142.63 19.16,-26.97 49.07,-39.28 79.52,-32.24 16.36,3.77 30.55,12.48 41.43,24.75 8.29,-0.44 16.46,-0.86 24.52,-1.25 -54.01,-88.02 -169.75,-190.87 -368.29,-271.13 -224.28,-90.66 -461.18,-149.8 -692.89,-187.17 z m -940.73,3714.38 c 6.46,-11.54 12.42,-24.61 17.74,-39.06 38.59,-104.78 36.69,-265.24 -33.29,-352.38 -58.49,-72.85 -166.57,-95.47 -289.15,-60.49 -104.92,29.93 -192.14,94.87 -198.57,147.83 -3.02,24.94 -7.48,108.27 62.21,133.46 57.46,20.77 97.59,29.71 148.39,41.03 21.04,4.69 44.89,10.01 72.27,16.71 48.88,11.96 83.75,33.72 124.11,58.92 27.07,16.9 57.47,35.87 96.29,53.98 z M 9189.89,4175.32 c 11.27,-9.79 21.19,-20.76 29.86,-32.95 39.65,-55.81 37.71,-120.97 23.91,-147.44 -2.51,-4.79 -7.76,-12.83 -14.87,-12.83 -0.03,0 -0.06,0 -0.09,0 -9.61,0.09 -26.57,13.54 -45.33,51.08 -24.57,49.12 -25.83,97.91 -3.38,130.5 3.01,4.35 6.33,8.25 9.9,11.64 z m -1111.72,-899.6 c 0.05,12.58 1.51,24.63 4.01,35.94 8.67,-10.9 15.64,-21.43 21.25,-31.23 -8.48,-1.59 -16.86,-3.14 -25.26,-4.71 z m 37.2,-19.5 c 7.25,-17.41 9.71,-30.27 10.46,-35.35 4.55,-30.62 -3.88,-46.23 -8.15,-47.58 -1.5,-0.46 -10.02,2.22 -20.64,23.46 -8.96,17.93 -14.35,35.72 -16.96,52.88 11.71,2.17 23.45,4.36 35.29,6.59 z m 94.31,44.51 c -26.33,-5.12 -52.45,-10.14 -78.09,-15 -9.71,19.05 -22.82,38 -39.6,56.34 4.65,10.75 10.17,20.32 16.07,28.4 18.09,24.75 40.84,38.41 59.03,35.51 18.47,-2.87 28.59,-22.26 33.85,-38.01 7.17,-21.5 10.09,-43.89 8.74,-67.24 z M 6513.87,2668.78 c -308.57,22.25 -710.7,69.41 -1004.99,140.94 -989.76,240.52 -1111.7,354.65 -1378.87,604.68 l -9.74,9.12 c -4.54,4.24 -451.36,448.18 -393.31,970.18 l 2.07,18.83 c 16.21,148.23 32.98,301.51 209.41,549.29 115.78,162.6 155.65,273.22 179.47,339.32 23.74,65.9 30.8,81.51 68.45,81.51 0.05,0 0.1,0 0.14,0 l 8.33,0.01 c 70.51,-0.15 113.45,-4.3 119.62,-66.55 8.43,-85.12 -49.03,-141.16 -115.55,-206.04 -72.5,-70.71 -154.68,-150.86 -158.46,-285.26 -1.31,-46.67 12.5,-83.21 24.69,-115.46 5.59,-14.79 10.88,-28.76 14.33,-42.61 38.72,-155.37 51.23,-284.48 62.26,-398.4 20.97,-216.44 37.53,-387.39 224.15,-585.3 320.19,-339.57 823,-553.99 1454.06,-620.05 383.01,-40.11 656.28,-78.75 768.91,-196.69 -52.75,-38.77 -92.86,-134.67 -74.97,-197.52 z m 92.51,-32.14 c -1.92,-0.69 -3.89,-1.27 -5.91,-1.74 -11.48,-2.63 -22.74,-1.11 -32.7,4.14 13.08,-0.85 25.96,-1.65 38.61,-2.4 z m -64.21,30.15 c -23.02,49.7 15.25,145.05 62.99,179.23 0.18,0.13 0.38,0.27 0.56,0.4 31.25,-41.68 44.86,-92.42 38.97,-155.04 -1.07,-11.35 -4.43,-21.67 -9.57,-30.35 -29.68,1.64 -60.77,3.56 -92.95,5.76 z m 162.52,40.22 c -3.82,-15.24 -9.88,-31.55 -18.35,-48.59 -7.53,0.35 -15.2,0.72 -22.94,1.11 3.73,9.02 6.18,18.91 7.17,29.41 6.43,68.43 -7.36,123.73 -39.46,169.01 17.46,3.25 33.72,-3.96 48.52,-21.64 28.91,-34.57 37.57,-79.28 25.06,-129.3 z m 4672.11,531.19 c -4.3,5.77 -12.4,6.98 -18.2,2.74 -636.8,-470.66 -1071.8,-718.51 -1454.57,-828.76 -1275.66,-367.43 -2502.85,-388.33 -3307.71,-341.14 -327.14,19.18 -630.83,51.71 -903.3,91.43 208.43,37.92 419.58,94.07 620.7,175.37 188.1,76.04 327.24,182.37 388.54,293.84 41.88,-1.83 80.12,-2.98 113.84,-3.48 382.73,-5.61 814.79,21.46 1117.63,264.92 183.91,147.85 283,275.08 299.7,385.76 11.02,2.16 22.04,4.31 33.18,6.52 169.05,33.42 823.2,247.82 1003.03,553.56 45.39,77.17 88.57,194.64 36.58,316.05 -21.24,49.61 -54.41,60.01 -72.3,61.8 -14.97,1.48 -29.82,-1.72 -43.21,-8.95 -60.71,43.43 -149.89,60.77 -273.84,54.17 -156.08,-8.34 -396.01,-45.17 -650.02,-84.16 -335.89,-51.56 -716.6,-110 -977.36,-113.26 -822.01,-10.18 -1399.06,158.79 -1714.93,502.41 -7.42,8.06 -15.13,16.53 -23.14,25.34 -104.28,114.58 -261.87,287.74 -502.95,373.67 -122.4,43.62 -219.07,78.08 -209.67,357.41 7.03,209.24 -22.42,530.44 -109.95,589.42 -14.87,10.03 -31.3,12.89 -48.04,8.52 -19.94,28.2 -43.54,45.64 -69.24,50.54 -35.68,6.83 -61.99,-12.08 -98.42,-38.23 -29.03,-20.84 -65.17,-46.78 -120.75,-72.29 -39.1,-17.95 -89.06,-26.66 -137.37,-35.09 -75.02,-13.09 -152.58,-26.62 -201.1,-74.91 -45.08,-44.87 -36.65,-90.74 -25.98,-148.82 14.41,-78.41 34.14,-185.79 -61.06,-366.6 -5.69,-10.82 -11.57,-22.48 -17.73,-34.71 -34.44,-68.38 -77.31,-153.49 -147.08,-205.96 -73.05,-54.94 -128.99,-64.21 -188.21,-74.01 -80.88,-13.39 -164.52,-27.24 -298.1,-147.82 -121.22,-109.42 -203.08,-349.67 -213.63,-627 -12.36,-324.96 74.56,-652.73 244.74,-922.94 283.75,-450.47 723.35,-658.76 1156.13,-816.74 213.19,-77.83 568.04,-170.44 1023.1,-244.82 -317.77,-44.44 -621.33,-49.65 -863.36,-41.24 -476.05,16.54 -814.67,85.86 -829.45,88.92 -1063.7,170.25 -2138.73,449.57 -3195.234,830.18 -6.757,2.45 -14.203,-1.05 -16.64,-7.82 -2.434,-6.76 1.07,-14.2 7.828,-16.63 1058.026,-381.17 2134.636,-660.9 3199.356,-831.31 14.27,-2.96 355,-72.71 833.24,-89.31 263.83,-9.15 600.42,-2.21 949.34,53.71 292.89,-45.14 624.2,-82.33 983.6,-103.39 189.02,-11.09 401.25,-18.42 631.92,-18.42 754.04,0.01 1704.97,78.39 2684.51,360.53 385.98,111.15 823.38,360.22 1462.88,832.82 5.7,4.28 7,12.41 2.7,18.18"
         style="fill:none;stroke:#040606;stroke-width:20;stroke-linecap:round;stroke-linejoin:round;stroke-miterlimit:10;stroke-dasharray:none;stroke-opacity:1"
         id="drawing"
         inkscape:connector-curvature="0" /></g></g></svg>