<?xml version="1.0" encoding="UTF-8" standalone="no"?>
<svg
   xmlns:dc="http://purl.org/dc/elements/1.1/"
   xmlns:cc="http://creativecommons.org/ns#"
   xmlns:rdf="http://www.w3.org/1999/02/22-rdf-syntax-ns#"
   xmlns:svg="http://www.w3.org/2000/svg"
   xmlns="http://www.w3.org/2000/svg"
   xmlns:sodipodi="http://sodipodi.sourceforge.net/DTD/sodipodi-0.dtd"
   xmlns:inkscape="http://www.inkscape.org/namespaces/inkscape"
   version="1.1"
   id="mySVG"
   xml:space="preserve"
   width="1439.6212"
   height="527.4837"
   viewBox="0 0 1439.6212 527.48368"
   sodipodi:docname="banana.svg"
   inkscape:version="0.92.4 (5da689c313, 2019-01-14)"><metadata
     id="metadata8"><rdf:RDF><cc:Work
         rdf:about=""><dc:format>image/svg+xml</dc:format><dc:type
           rdf:resource="http://purl.org/dc/dcmitype/StillImage" /><dc:title></dc:title></cc:Work></rdf:RDF></metadata><defs
     id="defs6"><clipPath
       clipPathUnits="userSpaceOnUse"
       id="clipPath20"><path
         d="M 0,800 H 1200 V 0 H 0 Z"
         id="path18"
         inkscape:connector-curvature="0" /></clipPath><clipPath
       clipPathUnits="userSpaceOnUse"
       id="clipPath32"><path
         d="M 0,800 H 1200 V 0 H 0 Z"
         id="path30"
         inkscape:connector-curvature="0" /></clipPath></defs><sodipodi:namedview
     pagecolor="#ffffff"
     bordercolor="#666666"
     borderopacity="1"
     objecttolerance="10"
     gridtolerance="10"
     guidetolerance="10"
     inkscape:pageopacity="0"
     inkscape:pageshadow="2"
     inkscape:window-width="1920"
     inkscape:window-height="986"
     id="namedview4"
     showgrid="false"
     inkscape:zoom="0.44249997"
     inkscape:cx="597.17819"
     inkscape:cy="96.187113"
     inkscape:window-x="-11"
     inkscape:window-y="-11"
     inkscape:window-maximized="1"
     inkscape:current-layer="g10"
     fit-margin-top="0"
     fit-margin-left="0"
     fit-margin-right="0"
     fit-margin-bottom="0" /><g
     id="g10"
     inkscape:groupmode="layer"
     inkscape:label="banana"
     transform="matrix(1.3333333,0,0,-1.3333333,-82.523641,789.88106)"><g
       id="g26"><g
         id="g28"
         clip-path="url(#clipPath32)"><g
           id="g34"
           transform="translate(63.4131,303.0986)"><path
             d="m 0,0 c 76.464,-24.293 153.009,-48.608 231.034,-67.291 60.851,-14.571 122.977,-25.733 185.545,-25.095 62.568,0.64 125.922,13.571 180.238,44.633 8.795,5.029 18.507,15.414 12.611,23.653 -5.953,8.321 -20.377,0.95 -22.487,-9.061 1.113,-7.307 14.237,-4.143 14.671,3.235 0.435,7.378 -6.507,12.996 -13.208,16.114 -26.319,12.247 -57.125,6.623 -85.884,10.577 -24.954,3.429 -48.269,14.107 -70.887,25.192 -27.766,13.609 -56.69,29.508 -71.527,56.639 -8.958,16.379 -11.837,35.289 -14.573,53.757 -3.815,25.763 -6.823,54.823 9.289,75.287 3.722,4.728 8.446,8.948 10.325,14.665 1.879,5.716 -0.897,13.569 -6.892,14.096 -5.724,0.504 -9.619,-5.505 -12.079,-10.699 -10.722,-22.641 -20.458,-45.749 -29.17,-69.238 -4.471,-12.052 -8.714,-24.416 -9.332,-37.256 -2.099,-43.666 36.812,-77.822 74.989,-99.122 66.799,-37.271 142.946,-57.63 219.433,-58.67 48.943,-0.666 100.562,7.565 138.718,38.224 6.997,5.621 13.863,12.764 14.61,21.708 0.748,8.943 -8.219,18.603 -16.529,15.215 -5.535,-2.256 -7.923,-10.002 -4.621,-14.984 3.302,-4.98 11.367,-5.797 15.6,-1.579 -38.3,32.635 -95.307,21.985 -145.587,23.939 -81.828,3.18 -161.025,47.483 -206.556,115.547 -7.121,10.646 -13.699,23.313 -10.578,35.735 1.759,6.998 6.499,13.209 6.904,20.414 0.406,7.205 -7.711,15.174 -13.41,10.748 -14.775,-28.381 -11.971,-63.774 2.175,-92.473 14.145,-28.7 38.432,-51.337 65.137,-68.961 97.767,-64.52 227.4,-64.971 338.142,-26.796 28.482,9.819 57.519,23.042 75.266,47.387 4.149,5.689 7.702,12.325 7.364,19.359 -0.337,7.033 -5.879,14.177 -12.919,14.048 -6.961,-0.128 -12.373,-8.439 -9.674,-14.856 2.698,-6.418 12.423,-8.363 17.383,-3.48 -4.993,14.215 -24.24,15.719 -39.244,14.358 -53.948,-4.895 -107.7,-13.665 -161.87,-13.39 -54.169,0.274 -109.859,10.3 -155.217,39.916 -17.328,11.314 -32.788,25.237 -49.508,37.431 -7.244,5.282 -14.773,10.282 -21.048,16.685 -22.062,22.511 -0.186,66.756 -24.633,86.652 -13.559,11.036 -35.036,-6.402 -50.688,-14.191 -2.982,-1.485 -6.064,-3.181 -7.811,-6.018 -5.289,-8.593 5.3,-18.585 15.071,-21.101 10.787,-2.778 22.96,-2.081 32.111,4.27 9.151,6.351 14.126,19.145 9.49,29.273 -5.153,11.255 -19.891,15.349 -31.907,12.375 -12.016,-2.974 -21.915,-11.229 -31.351,-19.241 -2.569,-2.181 -5.281,-4.588 -6.062,-7.865 -0.973,-4.082 1.316,-8.129 2.478,-12.161 4.112,-14.285 -6.415,-28.974 -18.924,-37.005 -12.509,-8.032 -27.313,-12.057 -39.519,-20.541 -19.774,-13.745 -30.359,-37.822 -33.212,-61.734 -2.853,-23.912 -5.939,-34.055 -2.036,-57.819 1.901,-11.57 10.879,-37.378 16.391,-47.727 6.114,-11.476 16.132,-20.328 26.334,-28.39 77.446,-61.21 176.402,-90.859 274.89,-97.562 98.487,-6.704 197.204,8.207 293.818,28.465 77.56,16.263 158.081,37.958 215.606,92.463"
             style="fill:none;stroke:#000000;stroke-width:3;stroke-linecap:round;stroke-linejoin:round;stroke-miterlimit:10;stroke-dasharray:none;stroke-opacity:1"
             id="drawing"
             inkscape:connector-curvature="0" /></g></g></g></g></svg>