<svg
   xmlns:dc="http://purl.org/dc/elements/1.1/"
   xmlns:cc="http://creativecommons.org/ns#"
   xmlns:rdf="http://www.w3.org/1999/02/22-rdf-syntax-ns#"
   xmlns:svg="http://www.w3.org/2000/svg"
   xmlns="http://www.w3.org/2000/svg"
   xmlns:sodipodi="http://sodipodi.sourceforge.net/DTD/sodipodi-0.dtd"
   xmlns:inkscape="http://www.inkscape.org/namespaces/inkscape"
   version="1.1"
   id="mySVG"
   xml:space="preserve"
   width="7432.1187"
   height="2949.3914"
   viewBox="0 0 7432.1187 2949.3914"
   sodipodi:docname="bird.svg"
   inkscape:version="0.92.4 (5da689c313, 2019-01-14)"><metadata
     id="metadata8"><rdf:RDF><cc:Work
         rdf:about=""><dc:format>image/svg+xml</dc:format><dc:type
           rdf:resource="http://purl.org/dc/dcmitype/StillImage" /><dc:title></dc:title></cc:Work></rdf:RDF></metadata><defs
     id="defs6" /><sodipodi:namedview
     pagecolor="#ffffff"
     bordercolor="#666666"
     borderopacity="1"
     objecttolerance="10"
     gridtolerance="10"
     guidetolerance="10"
     inkscape:pageopacity="0"
     inkscape:pageshadow="2"
     inkscape:window-width="1920"
     inkscape:window-height="986"
     id="namedview4"
     showgrid="false"
     fit-margin-top="0"
     fit-margin-left="0"
     fit-margin-right="0"
     fit-margin-bottom="0"
     inkscape:zoom="0.05875"
     inkscape:cx="3716.0628"
     inkscape:cy="1474.6889"
     inkscape:window-x="-11"
     inkscape:window-y="-11"
     inkscape:window-maximized="1"
     inkscape:current-layer="g12" /><g
     id="g10"
     inkscape:groupmode="layer"
     inkscape:label="ink_ext_XXXXXX"
     transform="matrix(1.3333333,0,0,-1.3333333,-283.93723,3474.7023)"><g
       id="g12"
       transform="scale(0.1)"><path
         d="m 2165,3975 c 3165.95,1108.1 3592.99,3477 7590,5060 3275.2,1297.1 4416.9,-91.2 8213.9,1142.9 4221.3,1371.9 5466,3994.4 7717,3706.8 2374.5,-303.5 3355.3,-1124.2 1780.9,-1292.8 -2211.8,-236.9 -1539.2,-915.3 -396.4,-1500.9 1904.6,-976 1945.3,186.3 3364.6,394 820,120 2585.4,856.3 2954.7,1304.8 369.4,448.5 387,1422.3 659.6,1609.3 190.7,130.9 350.8,321.5 500.7,160.9 140,-150 -316,-61.9 -546.9,182.1 -230.8,244 -745.3,230.8 -1207,-145.1 -461.7,-376 -1596.2,593.6 -1701.7,1965.5 -105.5,1371.9 -2928.5,2902.1 -3377,4353.2 -448.5,1451.1 -580.4,-158.3 633.2,-1662.1 1213.6,-1503.8 -735.4,253.9 -963,580.4 -382.8,549.3 -138.5,-2236 1088.3,-2394.2 1226.8,-158.3 -1273,903.6 -1224.9,300.2 49,-615.7 651.1,-2001.9 1541.5,-1942.6 890.4,59.4 -850.8,662.5 -751.9,-173.3 98.9,-835.8 903.6,-1436 1418.1,-1238.2 514.4,197.9 -1101.5,646.4 -883.9,-145.1 217.7,-791.5 551.6,-1296.5 1131.5,-824 356.2,290.2 -189.7,478.6 -366.4,223.8 -176.6,-254.8 184,-1299.1 -112.1,-1088.3 -389.1,277 1761.1,1009.2 2631.7,1266.4 870.6,257.2 1922.6,-1058.2 3390.2,-1319.1 1780.9,-316.6 2763.2,-1485.9 3851.9,-1470.9 1009.2,13.9 1247.1,183.2 1326.3,64.5 79.1,-118.7 -709.7,-439.5 -1702.2,-381.1 -784.9,46.2 -1088.3,380 -1721.5,376 -479.2,-3.1 550.8,-603.1 820.8,-913.1 137.9,-158.3 -1456.8,-572.4 -2087.2,319.5 -270.4,382.5 329.8,455.1 494.7,-59.4 93.5,-291.9 -1015.8,-890.4 -1800.7,-138.5 -694.4,665.2 -277,1200.4 59.4,653 248.7,-404.7 -296.8,-910.3 -969.6,-613.4 -337.4,148.8 -635.4,366.9 -765.1,600.2 -128.8,231.8 85.8,481.5 316.6,151.7 347.9,-497 -6.6,-534.3 -758.5,-415.6 -751.9,118.8 -1012.8,677.6 -169.6,882.5 1255,305 3876.5,2438.8 5600,4890 2250,3200 5202.2,1654 8070,3290 2449.6,1397.4 2893.6,3028.2 5070,4360 2350,1438 5070,740 6950,1930"
         style="fill:none;stroke:#040606;stroke-width:200;stroke-linecap:round;stroke-linejoin:round;stroke-miterlimit:10;stroke-dasharray:none;stroke-opacity:1"
         id="drawing"
         inkscape:connector-curvature="0" /></g></g></svg>