<svg
   xmlns:dc="http://purl.org/dc/elements/1.1/"
   xmlns:cc="http://creativecommons.org/ns#"
   xmlns:rdf="http://www.w3.org/1999/02/22-rdf-syntax-ns#"
   xmlns:svg="http://www.w3.org/2000/svg"
   xmlns="http://www.w3.org/2000/svg"
   xmlns:sodipodi="http://sodipodi.sourceforge.net/DTD/sodipodi-0.dtd"
   xmlns:inkscape="http://www.inkscape.org/namespaces/inkscape"
   version="1.1"
   id="mySVG"
   xml:space="preserve"
   width="7433.3335"
   height="2950.6667"
   viewBox="0 0 7433.3335 2950.6667"
   sodipodi:docname="bird2.svg"
   inkscape:version="0.92.4 (5da689c313, 2019-01-14)"><metadata
     id="metadata8"><rdf:RDF><cc:Work
         rdf:about=""><dc:format>image/svg+xml</dc:format><dc:type
           rdf:resource="http://purl.org/dc/dcmitype/StillImage" /><dc:title></dc:title></cc:Work></rdf:RDF></metadata><defs
     id="defs6" /><sodipodi:namedview
     pagecolor="#ffffff"
     bordercolor="#666666"
     borderopacity="1"
     objecttolerance="10"
     gridtolerance="10"
     guidetolerance="10"
     inkscape:pageopacity="0"
     inkscape:pageshadow="2"
     inkscape:window-width="1920"
     inkscape:window-height="986"
     id="namedview4"
     showgrid="false"
     inkscape:zoom="0.063228698"
     inkscape:cx="3716.6667"
     inkscape:cy="1475.3334"
     inkscape:window-x="-11"
     inkscape:window-y="-11"
     inkscape:window-maximized="1"
     inkscape:current-layer="g10" /><g
     id="g10"
     inkscape:groupmode="layer"
     inkscape:label="ink_ext_XXXXXX"
     transform="matrix(1.3333333,0,0,-1.3333333,0,2950.6667)"><g
       id="g12"
       transform="scale(0.1)"><path
         d="M 35.4688,44.7305 C 3201.41,1152.85 3628.48,3521.72 7625.47,5104.73 c 3275.23,1297.11 4416.93,-91.21 8213.93,1142.89 4221.3,1371.91 5466,3994.38 7717,3706.79 2374.5,-303.47 3355.3,-1124.18 1780.9,-1292.77 -2211.8,-236.91 -1539.2,-915.31 -396.4,-1500.9 1904.6,-976.01 1945.3,186.29 3364.6,393.99 820,120 2585.4,856.29 2954.7,1304.8 369.4,448.52 387,1422.27 659.6,1609.27 190.7,130.9 350.8,321.6 500.7,160.9 140,-150 -316,-61.8 -546.9,182.1 -230.8,244 -745.3,230.8 -1207,-145.1 -461.7,-376 -1596.2,593.7 -1701.7,1965.5 -105.5,1371.9 -2928.5,2902.1 -3377,4353.2 -448.5,1451.1 -580.4,-158.2 633.2,-1662.1 1213.6,-1503.8 -735.4,253.9 -963,580.5 -382.8,549.3 -138.5,-2236.1 1088.3,-2394.3 1226.8,-158.2 -1273,903.6 -1224.9,300.2 49,-615.7 651.1,-2001.8 1541.5,-1942.6 890.4,59.4 -850.8,662.6 -751.9,-173.3 98.9,-835.7 903.6,-1435.9 1418.1,-1238.2 514.4,197.9 -1101.5,646.4 -883.9,-145 217.7,-791.58 551.6,-1296.58 1131.5,-824.08 356.2,290.2 -189.7,478.6 -366.4,223.83 -176.6,-254.8 184,-1299.1 -112.1,-1088.32 -389.1,276.99 1761.1,1009.22 2631.7,1266.41 870.6,257.16 1922.6,-1058.21 3390.2,-1319.1 1780.9,-316.61 2763.2,-1485.9 3851.9,-1470.9 1009.2,13.9 1247.1,183.2 1326.3,64.49 79.1,-118.71 -709.7,-439.49 -1702.2,-381.09 -784.9,46.21 -1088.4,380 -1721.5,376.01 -479.2,-3.12 550.8,-603.12 820.8,-913.12 137.9,-158.28 -1456.8,-572.39 -2087.2,319.49 -270.5,382.5 329.8,455.12 494.7,-59.38 93.5,-291.91 -1015.8,-890.43 -1800.7,-138.51 -694.4,665.19 -277,1200.39 59.4,653.01 248.7,-404.69 -296.8,-910.32 -969.6,-613.4 -337.4,148.79 -635.4,366.91 -765.1,600.19 -128.8,231.8 85.8,481.49 316.6,151.72 347.9,-497.03 -6.6,-534.33 -758.5,-415.62 -751.9,118.79 -1012.8,677.61 -169.6,882.5 1255,305 3876.4,2438.77 5600,4889.97 2250,3200 5202.2,1654.1 8070,3290 2449.6,1397.5 2893.6,3028.2 5070,4360 2350,1438 5070,740 6950,1930"
         style="fill:none;stroke:#040606;stroke-width:70;stroke-linecap:round;stroke-linejoin:round;stroke-miterlimit:10;stroke-dasharray:none;stroke-opacity:1"
         id="drawing"
         inkscape:connector-curvature="0" /></g></g></svg>