<svg
   xmlns:dc="http://purl.org/dc/elements/1.1/"
   xmlns:cc="http://creativecommons.org/ns#"
   xmlns:rdf="http://www.w3.org/1999/02/22-rdf-syntax-ns#"
   xmlns:svg="http://www.w3.org/2000/svg"
   xmlns="http://www.w3.org/2000/svg"
   xmlns:sodipodi="http://sodipodi.sourceforge.net/DTD/sodipodi-0.dtd"
   xmlns:inkscape="http://www.inkscape.org/namespaces/inkscape"
   width="1200pt"
   height="800pt"
   viewBox="0 0 1200 800"
   version="1.2"
   id="mySVG"
   sodipodi:docname="blueberries.svg"
   inkscape:version="0.92.4 (5da689c313, 2019-01-14)">
  <metadata
     id="metadata13">
    <rdf:RDF>
      <cc:Work
         rdf:about="">
        <dc:format>image/svg+xml</dc:format>
        <dc:type
           rdf:resource="http://purl.org/dc/dcmitype/StillImage" />
        <dc:title></dc:title>
      </cc:Work>
    </rdf:RDF>
  </metadata>
  <defs
     id="defs11" />
  <sodipodi:namedview
     pagecolor="#ffffff"
     bordercolor="#666666"
     borderopacity="1"
     objecttolerance="10"
     gridtolerance="10"
     guidetolerance="10"
     inkscape:pageopacity="0"
     inkscape:pageshadow="2"
     inkscape:window-width="1920"
     inkscape:window-height="986"
     id="namedview9"
     showgrid="false"
     inkscape:zoom="0.22125"
     inkscape:cx="800"
     inkscape:cy="533.33333"
     inkscape:window-x="-11"
     inkscape:window-y="-11"
     inkscape:window-maximized="1"
     inkscape:current-layer="surface100" />
  <g
     id="surface100">
    <path
       id="drawing"
       style="fill:none;stroke:#040606;stroke-width:5 ;stroke-linecap:round;stroke-linejoin:round;stroke-miterlimit:10;stroke-dasharray:none;stroke-opacity:1"
       d="m 802.75781,388.75391 c -9.22265,-12.88672 -7.70703,-14.97657 -7.6914,-14.99219 0.0273,-0.0312 0.30078,-0.32422 1.49609,-0.32422 1.84766,0 5.90625,0.69922 14.65625,4.12891 10.14062,3.98046 24.16016,10.60156 40.39062,18.26953 5.54688,2.62109 11.38672,5.3789 17.48438,8.22656 -29.30469,7.82812 -53.71094,2.33984 -66.33594,-15.30859 z m 0.19141,-64.22657 c -14.02344,15.82032 -37.48828,26.57813 -48.28516,22.13282 -4.42578,-1.82032 -6.47656,-6.24219 -6.08984,-13.14063 1.30859,-23.47656 28.23047,-49.41797 52.90234,-61.91016 9.6836,-4.90234 20.74219,-7.77734 32.52344,-9.13281 -3.98828,22.07031 -14.38672,43.25 -31.05078,62.05078 z m -56.51563,-92.58203 c 7.01563,20.40625 7.34766,42.15235 0.89063,58.17578 -9.14063,22.67969 -21.97266,34.80078 -36.67969,42.47266 13.05859,-13.83203 23.87891,-30.51172 27.31641,-47.95703 3.30468,-16.77735 0.25781,-30.44922 -6.1836,-40.63281 0.48438,-1.19922 0.98438,-2.38672 1.50391,-3.5586 2.98828,-6.72265 6.14062,-12.49609 9.57812,-17.55078 1.31641,2.9375 2.51172,5.95703 3.57422,9.05078 z m -35.35937,46.27735 c -1.36328,1.65625 -2.8711,3.21875 -4.55078,4.67187 -7.10157,6.15234 -15.60938,8.9375 -22.7461,7.45313 -5.48437,-1.14063 -9.8164,-4.73047 -12.53515,-10.39063 -2.67578,-5.57812 -1.28125,-12.47266 3.73437,-18.4375 4.09766,-4.87891 10.78906,-9.07031 17.73438,-9.07031 1.48828,0 2.98828,0.19531 4.47656,0.61328 6.00781,1.69531 10.69141,6.58984 12.85156,13.42969 1.20703,3.8164 1.52735,7.86328 1.03516,11.73047 z M 698.4375,248.63672 c -10.41016,-2.9336 -21.05078,2.86719 -26.98438,9.92187 -6.21093,7.39063 -7.83984,16.13282 -4.35546,23.39063 3.35937,7 8.80078,11.46094 15.74218,12.90234 7.9961,1.66406 17.26172,-1.01562 25.12891,-7.1875 -0.59375,1.03516 -1.26563,2.01172 -2.00781,2.92578 -11.15235,13.67578 -25.55469,17.67188 -38.52344,10.6875 -11.75,-6.32422 -20.74219,-21.98437 -15.19922,-39.66797 7.65625,-24.41796 24.74219,-34.37109 41.01172,-34.37109 3.375,0 6.71875,0.42969 9.93359,1.24609 8.875,2.25782 17.44922,7.73438 23.41016,16.13282 -1,2.58984 -1.92969,5.18359 -2.84375,7.72656 -2.41016,6.72266 -4.74609,13.23047 -8.03125,19.04297 -0.21875,-2.1211 -0.64453,-4.23047 -1.29297,-6.28125 -2.63672,-8.34375 -8.46484,-14.34766 -15.98828,-16.46875 z m -0.0586,89.30859 c -7.48829,2.7461 -15.30079,4.84766 -23.23047,6.98047 -16.54688,4.45313 -33.50391,9.01953 -48.25391,20.07813 -7.14453,-1.05469 -13.90234,-3.09375 -20.19141,-5.8711 -1.01562,-2.57031 -2.11328,-5.08594 -3.30078,-7.54687 -9.72265,-20.15235 -25.88281,-38.35938 -47.03906,-49.92578 -4.05859,-13.66407 -9.37109,-39.83594 -1.41406,-66.44141 5.30859,-17.76172 20.57031,-49.73047 63.1289,-64.27734 30.76563,-10.51172 60.26172,-7.46094 87.66407,9.07031 14.59375,8.80469 26.64062,22.07422 34.85156,38.16015 -4.19922,5.77344 -7.98828,12.46485 -11.51563,20.40625 -0.15234,0.34375 -0.30468,0.6875 -0.45312,1.03516 -6.49609,-8.00781 -15.26563,-13.28516 -24.30859,-15.58594 -11.19532,-2.84765 -22.79688,-1.29687 -32.67188,4.36328 -11.01562,6.3125 -19.24609,17.32422 -23.79297,31.83985 -6.29297,20.0664 3.9961,37.875 17.40625,45.09765 11.62891,6.26563 29.36719,6.44141 44.26953,-11.83203 3.04297,-3.73437 5.04688,-8.40234 5.89453,-13.36328 6.03516,-7.77734 9.39063,-17.1289 12.66016,-26.23828 0.50781,-1.41406 1.02344,-2.84766 1.55078,-4.28125 4.60938,8.91406 6.52344,20.37109 3.8125,34.13672 -4.03906,20.51172 -18.91015,39.71484 -35.0664,54.19531 z m -41.36719,25.5586 c -8.05078,1.94921 -15.78516,2.60156 -23.15625,2.20312 12.8789,-8.37109 27.40625,-12.28125 42.48828,-16.33984 4.13672,-1.10938 8.28906,-2.22657 12.42578,-3.45313 -12.28516,9.41406 -24.23047,15.76563 -31.75781,17.58985 z m -44.52344,15.58593 c -0.90625,-4.76172 -2.12891,-9.44531 -3.63281,-14 4.08984,1.56641 8.5039,2.89063 13.23047,3.83594 -3.35157,2.96094 -6.5586,6.32031 -9.59766,10.16406 z m -19.66016,71.33594 c -2.83593,-23.46484 7.625,-45.27344 16.62891,-59.16016 1.51953,20.28125 -3.18359,41.26563 -16.62891,59.16016 z m 9.39454,34.62891 c 2.21875,2.97265 4.70312,5.79297 7.42187,8.46093 -2.65234,-0.48437 -5.30469,-0.96875 -7.96875,-1.46093 -13.99219,-2.57032 -28.20312,-5.17969 -42.34375,-7.26953 4.27344,-3.0625 8.74609,-6.16797 13.41016,-9.3086 6.67968,-4.49609 12.45312,-9.42969 17.39843,-14.6914 2.21875,8.05468 6.07813,16.21484 12.08204,24.26953 z m -43.6836,-176.76953 c 18.14453,11.10937 32.08594,27.40625 40.71875,45.30078 0.39063,0.80468 0.76563,1.61328 1.13672,2.43359 -20.55469,-11.23047 -35.35156,-30.26562 -41.63281,-47.125 -0.0703,-0.19141 -0.14453,-0.39453 -0.22266,-0.60937 z m -5.75781,175.57421 c -11.86328,-1.60937 -23.64453,-2.78515 -35.17969,-3.19921 4.1211,-1.64454 8.13281,-3.59766 11.9961,-5.84375 17.82031,-10.3711 31.33593,-26.34766 38.05468,-44.99219 11.40625,-31.63672 6.44532,-68.77344 -12.34765,-92.40625 -11.27735,-14.1836 -32.51172,-30.16016 -69.61719,-25.73438 -29.92188,3.57032 -51.53125,16.04688 -59.28906,34.23047 -4.01172,9.40235 -3.71875,19.34766 0.65625,27.35938 -12.96094,16.33203 -18.10157,33.79687 -15.32032,52.26562 4.38282,29.09766 29.8711,49.91016 67.51172,56.94922 -3.02343,-0.14453 -6.0664,-0.44922 -9.10156,-0.92187 -46.36328,-7.23438 -75.90625,-36.11719 -79.02734,-77.26563 -2.875,-37.90625 20.01172,-86.91797 77.05859,-104.94922 32.72656,-10.34765 61.48828,-6.42969 84.36328,5.53125 0.73047,2.33985 1.39844,4.23828 1.91406,5.61719 4.79297,12.87109 16.60547,31.30078 35.37891,44.42969 3.80078,2.65625 8.24219,5.34375 13.28906,7.71484 2.57422,6.90625 4.46875,14.16016 5.55469,21.57031 -10.39844,14.71485 -25.27344,41.8711 -19.80078,71.08985 -5.15234,5.90234 -11.35547,11.40625 -18.70313,16.35547 -6.11718,4.12109 -11.91406,8.1875 -17.39062,12.19921 z M 432.72266,373.64062 c 12.125,-14.26953 30.66796,-27.70703 55.55859,-40.21875 6.53516,-3.28906 11.52734,-2.69921 14.05859,1.64454 4.47266,7.67968 -0.0625,25.58203 -17.59765,37.29296 -9.20703,6.14454 -18.0625,9.78125 -26.32422,10.8086 -10.75781,1.33984 -20.0586,-2.03906 -25.5,-9.26563 -0.0664,-0.0859 -0.12891,-0.17578 -0.19531,-0.26172 z m 69.92578,106.75 c -47.85157,-1.67968 -81.47657,-23.10156 -86.36328,-55.53906 -2.51172,-16.66797 2.0039,-32.54297 13.46484,-47.52734 6.51562,8.125 17.11719,11.91406 29.23828,10.40625 8.97656,-1.11328 18.5,-5 28.30859,-11.54688 19.08204,-12.74218 25.24219,-32.74218 19.01954,-43.42968 -3.82422,-6.5625 -11.33594,-7.85157 -20.10157,-3.44141 -24.71875,12.42578 -43.38281,25.82031 -55.9375,40.10547 -2.89062,-6.47656 -2.82031,-14.26172 0.35157,-21.69922 7.09375,-16.62891 27.35937,-28.09766 55.60156,-31.46875 35,-4.17188 54.92578,10.76172 65.47265,24.02734 17.83594,22.4375 22.50782,57.79297 11.625,87.98828 -9.55859,26.51563 -33.19921,45.84375 -60.67968,52.125 z m 259.61328,-6.46875 c 13.11719,-18.28906 15.25,-43.20312 5.43359,-63.46875 -7.08203,-14.625 -18.97656,-24.58203 -33.53906,-28.42968 1.23437,-2.58203 1.50391,-5.26563 0.80859,-8.01172 -0.72656,-2.85938 -3.21093,-6.67578 -10.93359,-8.63281 -17.52734,-4.44141 -50.83203,2.86718 -60.40234,13.25 -2.89063,3.13281 -6.48829,7.71875 -4.42579,11.375 3.15625,5.59765 16.55079,3.18359 38.14454,-1.21485 9.94531,-2.02344 20.22265,-4.12109 25.33593,-3.88281 0.99219,0.0469 1.96875,0.12109 2.94141,0.22266 -12.00781,9.58984 -41,14.98828 -50.91797,15.84765 -24.80078,2.13672 -29.78906,-3.09375 -30.78516,-5.4414 -1.44531,-3.39844 1.64844,-8.88282 8.28125,-14.66797 21.65625,-18.88282 71.49219,-35.16016 104.95313,-15.19141 24.94922,14.89063 38.26562,43.20313 34.76172,73.89063 -3.92969,34.40234 -28.08203,62.74218 -63.03516,73.96093 -21.21875,6.8125 -45.76562,7.32422 -69.11328,1.4375 -12.31641,-3.10156 -23.44141,-7.78125 -32.87109,-13.72265 55.96093,9.47656 106.625,12.7539 135.36328,-27.32032 z m -32.78906,-92.91015 c -2.14454,-0.35938 -4.33985,-0.59375 -6.57422,-0.69922 -5.67578,-0.26953 -15.77735,1.79297 -26.46875,3.96875 -7.99219,1.62891 -16.25,3.3125 -22.74219,4.02734 -9.45703,1.04297 -10.46875,-0.55078 -10.47656,-0.5664 -0.008,-0.0117 -0.39453,-1.44532 3.80078,-5.9961 6.69922,-7.26562 28.42578,-13.0625 44.86719,-13.0625 4.10937,0 7.89062,0.35938 11.02343,1.15625 3.05078,0.76953 6.84375,2.31641 7.60547,5.30469 0.50781,2.00781 0.17188,3.93359 -1.03515,5.86719 z M 556.76953,502.30859 c 40.17969,12.80469 62.33203,31.72657 65.83594,56.23047 4.6914,32.79688 -25.53906,65.6875 -40.90625,76.47656 -56.74219,-13.86718 -87.72656,-33.24609 -92.10156,-57.60156 -3.94141,-21.95312 13.52734,-48.53515 51.99218,-79.23828 5.1211,1.16406 10.19141,2.54297 15.17969,4.13281 z m -78.625,27.875 c 0.89453,9.70313 -6.66406,17.87891 -22.47266,24.3086 -35.08203,14.26953 -66.90234,6.41406 -107.17578,-3.55078 28.13672,-26.89844 65.10938,-45.17579 104.05469,-53.14454 15.71875,11.64454 24.71094,22.84375 25.59375,32.38672 z m 678.82427,-79.03515 c -0.5391,-1.15235 -1.9102,-1.64453 -3.0469,-1.10938 -38.3828,17.96094 -90.2735,18.00781 -154.23831,0.13672 -42.21093,-11.79297 -83.49609,-29.45703 -117.92968,-45.30859 23.93359,-8.79297 47.05468,-24.86328 63.75781,-44.38672 19.71875,-23.04688 29.5039,-49.04688 28.29687,-75.19531 -0.0391,-0.91407 -0.62109,-1.71485 -1.47656,-2.04297 -26.92969,-10.27735 -84.62109,-29.38672 -133.0625,-25.83594 0.17969,-1.35938 0.33594,-2.72266 0.46484,-4.08984 2.625,-27.20704 -3.97265,-55.08985 -19.08593,-80.64063 -0.57422,-0.97656 -1.77735,-1.38281 -2.83203,-0.96484 l -2.92579,1.17187 c -34.02343,13.57422 -55.46093,22.12891 -71.20312,41.28125 -8.56641,-15.98828 -20.82422,-29.19531 -35.57031,-38.09375 -28.6211,-17.26172 -59.41407,-20.45312 -91.52735,-9.48047 -44.50781,15.21094 -60.48437,48.69922 -66.05078,67.3086 -7.53515,25.21484 -3.66797,49.98437 0.25781,64.93359 -23.17578,-10.94531 -51.75,-14.06641 -84.00781,-3.86719 -59.43359,18.78907 -83.26953,70.02735 -80.25781,109.6836 1.51172,19.94531 9.34375,37.93359 22.64844,52.01562 14.52734,15.38281 35.36328,25.5625 60.25781,29.44531 11.35937,1.77344 22.91016,1.3711 34.00781,-1.08984 1.75781,0.0508 3.53516,0.0781 5.32813,0.0781 12.58203,0 25.5664,1.05859 38.69922,2.70703 -2.40625,1.8164 -4.74219,3.62109 -7.01172,5.41406 -28.14844,-6.05859 -57.95703,-5.94531 -86.78516,-0.3125 -9.51562,-6.87891 -21.24609,-13.85156 -35.01953,-20.76172 -37.85547,-18.99219 -87.78906,-35.65625 -136.99609,-45.71875 -53.7461,-10.98828 -103.25391,-13.74609 -143.16407,-7.97266 -47.437496,6.86329 -79.539059,25.22657 -95.410152,54.57813 -0.605469,1.11719 -0.1875,2.51172 0.929687,3.11719 1.117188,0.60547 2.511719,0.1875 3.117188,-0.92969 28.066406,-51.90625 115.394527,-68.46094 233.605467,-44.28516 48.82813,9.98438 98.34375,26.50391 135.85547,45.32422 11.87891,5.96094 22.24609,11.9961 30.91406,17.94141 -39.66797,8.88281 -77.07812,28.23828 -105.19531,56.35937 -0.58984,0.58594 -0.8125,1.44532 -0.58984,2.24219 0.22265,0.80078 0.85937,1.41797 1.66406,1.61719 l 3.91797,0.96875 c 41.125,10.17187 73.60156,18.21094 110.09765,3.37109 17.91016,-7.28515 26.42578,-17.03906 25.32032,-29 -0.94141,-10.16797 -9.25782,-21.46875 -24.08985,-33.12109 25.67578,-4.52735 52.05078,-4.57813 77.17188,0.32031 -15.08203,12.30469 -26.87891,24.01172 -35.25782,35 -12.77343,16.75 -17.98046,32.31641 -15.47656,46.26953 4.75,26.46094 37.23438,47.15235 96.54688,61.5 0.17578,0.043 0.35937,0.0625 0.53906,0.0625 0.45312,0 0.90234,-0.13281 1.28516,-0.39062 8.21484,-5.53516 20.48828,-16.87891 30.28906,-32.125 7.64844,-11.89063 16.18359,-30.11328 13.42969,-49.38282 -3.77735,-26.40234 -26.98829,-46.57812 -68.9961,-59.96484 -3.9414,-1.25781 -7.92969,-2.38281 -11.95312,-3.37891 2.51172,-1.9414 5.10547,-3.90234 7.78125,-5.875 15.60547,2.16797 31.36328,5.0625 46.85156,7.90625 5.19531,0.95704 10.36328,1.90625 15.5,2.82032 28.50781,22.52343 75.24219,30.9375 113.94531,18.50781 36.69531,-11.77734 62.0625,-41.59766 66.19922,-77.81641 3.71094,-32.50781 -10.45703,-62.53515 -36.97266,-78.36328 -35.30078,-21.07031 -87.64843,-4.10937 -110.33593,15.67578 -8.44922,7.36719 -11.82422,14.44922 -9.49219,19.9336 3.06641,7.21875 14.98047,9.98437 35.41406,8.22265 8.60938,-0.74218 44.2461,-6.47656 56.2461,-19.48437 14.0039,3.1914 25.47656,12.48047 32.21093,26.38281 9.08985,18.76953 7.11328,41.84375 -5.03515,58.78516 -28.73438,40.0625 -82.0586,34.17968 -140.24219,23.83203 -4.77734,-3.88672 -8.93359,-8.16406 -12.37109,-12.76953 -6.35938,-8.53125 -10.14063,-17.20703 -12.03516,-25.7461 17.56641,-21.14062 22.76172,-46.89062 19.61719,-71.16797 0.60937,-0.83593 1.19531,-1.62109 1.7539,-2.35546 3.98828,-5.23047 8.27735,-9.53907 12.8086,-13.15235 9.04297,1.09766 19.09375,0.74219 30.04297,-1.91015 10.88281,-2.63672 27.65234,-12.33985 43.12109,-26.20313 19.96484,-7.59766 38.40234,-20.23437 50.37109,-49.92969 6.96485,-17.27343 6.67188,-39.64843 -0.80468,-61.39062 -1.39844,-4.06641 -3.01172,-8.00781 -4.83204,-11.8125 14.98047,-19.27344 35.53907,-27.47656 70.64063,-41.48438 l 1.08984,-0.43359 c 15.17969,26.42969 20.78907,54.33203 17.0625,81.08984 -12.78906,1.33985 -24.82422,4.3711 -35.34765,9.69922 -25.82032,13.07031 -54.01563,40.5586 -55.41797,65.75781 -0.62891,11.28907 4.51172,15.82813 8.93359,17.64844 14.16016,5.82813 39.54688,-7.62109 53.47656,-23.33594 17.13282,-19.32812 28.15625,-41.83593 32.1836,-65.54687 46.76172,-3.80859 103.3164,14.625 130.69531,24.97266 1.53906,53.1914 -45.68359,98.52343 -91.37891,114.35546 -0.71875,0.25 -1.4375,0.49219 -2.14843,0.72657 -7.80469,-3.625 -15.21485,-7.125 -22.16797,-10.41016 -40.53906,-19.14844 -57.1836,-26.68359 -62.03906,-20.86328 -2.78125,3.33203 -0.61329,9.30469 7.48046,20.61719 14.55469,20.34375 42.92579,26.05078 76.41797,15.58593 35.4375,16.42188 78.66016,35.19922 123.01172,47.58985 65.05469,18.17578 118.01559,18.03906 157.41409,-0.39844 1.1523,-0.53906 1.6523,-1.90625 1.1094,-3.05859" />
  </g>
</svg>
