<!-- Generator: Adobe Adobe Illustrator 24.2.0, SVG Export Plug-In . SVG Version: 6.00 Build 0)  -->

<svg
   xmlns:dc="http://purl.org/dc/elements/1.1/"
   xmlns:cc="http://creativecommons.org/ns#"
   xmlns:rdf="http://www.w3.org/1999/02/22-rdf-syntax-ns#"
   xmlns:svg="http://www.w3.org/2000/svg"
   xmlns="http://www.w3.org/2000/svg"
   xmlns:sodipodi="http://sodipodi.sourceforge.net/DTD/sodipodi-0.dtd"
   xmlns:inkscape="http://www.inkscape.org/namespaces/inkscape"
   version="1.1"
   id="mySVG"
   x="0px"
   y="0px"
   width="1115.0886"
   height="485.70966"
   viewBox="0 0 1115.0886 485.70966"
   xml:space="preserve"
   sodipodi:docname="blueberries.svg"
   inkscape:version="0.92.4 (5da689c313, 2019-01-14)"><metadata
   id="metadata10"><rdf:RDF><cc:Work
       rdf:about=""><dc:format>image/svg+xml</dc:format><dc:type
         rdf:resource="http://purl.org/dc/dcmitype/StillImage" /><dc:title></dc:title></cc:Work></rdf:RDF></metadata><defs
   id="defs8" /><sodipodi:namedview
   pagecolor="#ffffff"
   bordercolor="#666666"
   borderopacity="1"
   objecttolerance="10"
   gridtolerance="10"
   guidetolerance="10"
   inkscape:pageopacity="0"
   inkscape:pageshadow="2"
   inkscape:window-width="1920"
   inkscape:window-height="986"
   id="namedview6"
   showgrid="false"
   fit-margin-top="0"
   fit-margin-left="0"
   fit-margin-right="0"
   fit-margin-bottom="0"
   inkscape:zoom="4.72"
   inkscape:cx="711.86647"
   inkscape:cy="413.34113"
   inkscape:window-x="-11"
   inkscape:window-y="-11"
   inkscape:window-maximized="1"
   inkscape:current-layer="mySVG" />
<style
   type="text/css"
   id="style2">
	.st0{fill:none;stroke:#000000;stroke-width:5;stroke-miterlimit:10;}
</style>
<path
   class="st0"
   d="m 2.0799038,313.53569 c 28.8500002,-43.26 87.5600002,-54.08 139.5599962,-53.48 88.98,1.03 177.62,24.46 255.48,67.54 11.63,6.43 23.43,13.68 30.62,24.85 7.19,11.17 8.34,27.32 -0.81,36.95 -7.37,7.75 -33.7,19.97 -44.37,20.69 -32.1,2.16 -49.74,-10.03 -81.49,-15.24 51.77,-52.82 132.4,-75.38 204.06,-57.11 20.91,5.33 41.61,14.29 56.37,30.03 14.77,15.74 22.51,39.28 15.32,59.62 -6.99,19.78 -21.89,39 -34.84,55.5 -23.13,-5.88 -49.35,-21.3 -70.13,-33.03 -4.19,-2.37 -8.38,-4.89 -11.73,-8.34 -5.24,-5.39 -8.09,-12.73 -9.37,-20.14 -6.69,-38.9 26.18,-72.42 56.92,-97.19 30.74,-24.77 65.47,-54.62 64.35,-94.07 -0.53,-18.78 -9.63,-36.44 -21.42,-51.07 -30.08,-37.32 -81.41,-58.09 -127.97,-46.72 -46.56,11.38 -83.78,57.42 -80.01,105.2 2.2,27.92 17.81,54.49 41.12,70 23.31,15.51 53.85,19.65 80.45,10.89 25.21,-8.3 46.56,-28.14 55.86,-53 9.76,-26.12 5.67,-56.98 -10.57,-79.64 -16.24,-22.66 -44.14,-36.46 -72.01,-35.62 -17.54,0.53 -35.91,7.44 -45.58,22.09 -9.67,14.65 -7.05,37.55 8.2,46.23 19.14,10.88 42.82,-5.1 55.29,-23.24 3.46,-5.03 6.68,-11.33 4.37,-16.98 -4.09,-10 -19.1,-6.97 -28.29,-1.29 -20.7,12.8 -38.34,30.53 -51.03,51.3 -6.16,10.08 -11.29,21.55 -10.04,33.29 2.78,26.01 32.94,38.27 58.33,44.55 71.47,17.66 144.63,30.7 218.25,29.67 18.17,-0.25 36.85,-1.49 53.32,-9.17 16.47,-7.69 30.43,-23.16 31.43,-41.31 1.07,-19.48 -6.97,-43.94 -24.16,-53.17 -17.19,-9.23 -51.58,0.62 -51.58,0.62 0,0 -31.68,5.6 -34.22,-1.54 -8.7,-24.48 71.76,-30.65 71.76,-13.73 0,25.94 -46.46,25.57 -72.12,21.77 -5.91,-0.87 -12.62,-3.11 -14.58,-8.75 -2.47,-7.1 4.2,-13.91 10.5,-18.01 27.76,-18.1 63.92,-25.02 94.84,-13.11 30.92,11.91 54.07,44.67 49.99,77.56 -3.35,26.91 -23.65,49.66 -48.08,61.42 -24.43,11.76 -52.47,13.88 -79.53,12.15 -27.18,-1.74 -56.44,-8.49 -73.6,-29.64 -15.68,-19.33 -17.51,-47.67 -8.02,-70.68 9.49,-23.01 28.94,-40.91 50.96,-52.51 25.29,-13.32 54.9,-19.62 75.94,-38.96 27.3,-25.09 32.98,-69.36 15.87,-102.26 -17.11,-32.9 -54.13,-53.3200005 -91.21,-53.9400005 -17.85,-0.3 -36,3.7 -51.2,13.0600005 -28.44,17.51 -43.11,51.56 -46.49,84.79 -2.86,28.14 2.04,58.75 21.25,79.51 13.65,14.74 33.42,23.05 53.43,24.8 49.67,4.34 99.19,-35.04 106.14,-84.41 1.48,-10.53 1.18,-21.61 -3.13,-31.34 -8.35,-18.88 -32.68,-28.85 -51.88,-21.25 -19.2,7.6 -30.13,31.51 -23.3,51 4.55,12.99 16.85,23.5 30.61,23.86 13.75,0.37 27.39,-11.03 27.61,-24.79 0.22,-13.76 -15.2,-25.93 -28.03,-20.97 -12.83,4.96 -14.75,26.57 -2.32,32.47 9.41,4.46 20.98,-1.12 27.26,-9.42 6.28,-8.3 7.8,-19.19 12.49,-28.48 29.55,-58.6 96.74,-75.7 96.74,-75.7 0,0 16.24,13.38 19.4,36.69 3.11,22.95 -0.5,43.4 -7.05,77.33 -5.57,28.83 -31.75,56.98 -60.38,63.48 -5.72,1.3 -12.9,1.53 -16.17,-3.34 -2.3,-3.41 -2.55,-15.58 -1.53,-19.56 8.15,-31.76 32.7,-56.29 64.2,-65.37 48.83,-14.08 100.37,9.65 155.73,25.61 0,84.64 -75.01,121.78 -145.35,117.71 -11.74,-0.68 -20.43,-8.44 -27.51,-17.83 -7.08,-9.39 -3.55,-11.81 8.09,-13.44 5.89,-0.83 107.81,45.14 113.3,47.41 124.84,51.61 156.81,54.83 238.06,33.36"
   id="drawing"
   inkscape:connector-curvature="0"
   style="fill:none;stroke:#000000;stroke-width:5;stroke-miterlimit:10" />
</svg>