<!-- Generator: Adobe Adobe Illustrator 24.2.0, SVG Export Plug-In . SVG Version: 6.00 Build 0)  -->
<svg version="1.1" id="mySVG" xmlns="http://www.w3.org/2000/svg" xmlns:xlink="http://www.w3.org/1999/xlink" x="0px" y="0px"
	 width="1200px" height="800px" viewBox="0 0 1200 800" style="enable-background:new 0 0 1200 800;" xml:space="preserve">
<style type="text/css">
	.st0{fill:none;stroke:#000000;stroke-width:5;stroke-miterlimit:10;}
</style>
<path class="st0" d="M43.55,470.05c28.85-43.26,87.56-54.08,139.56-53.48c88.98,1.03,177.62,24.46,255.48,67.54
	c11.63,6.43,23.43,13.68,30.62,24.85c7.19,11.17,8.34,27.32-0.81,36.95c-7.37,7.75-33.7,19.97-44.37,20.69
	c-32.1,2.16-49.74-10.03-81.49-15.24c51.77-52.82,132.4-75.38,204.06-57.11c20.91,5.33,41.61,14.29,56.37,30.03
	c14.77,15.74,22.51,39.28,15.32,59.62c-6.99,19.78-21.89,39-34.84,55.5c-23.13-5.88-49.35-21.3-70.13-33.03
	c-4.19-2.37-8.38-4.89-11.73-8.34c-5.24-5.39-8.09-12.73-9.37-20.14c-6.69-38.9,26.18-72.42,56.92-97.19s65.47-54.62,64.35-94.07
	c-0.53-18.78-9.63-36.44-21.42-51.07c-30.08-37.32-81.41-58.09-127.97-46.72c-46.56,11.38-83.78,57.42-80.01,105.2
	c2.2,27.92,17.81,54.49,41.12,70s53.85,19.65,80.45,10.89c25.21-8.3,46.56-28.14,55.86-53c9.76-26.12,5.67-56.98-10.57-79.64
	c-16.24-22.66-44.14-36.46-72.01-35.62c-17.54,0.53-35.91,7.44-45.58,22.09s-7.05,37.55,8.2,46.23
	c19.14,10.88,42.82-5.1,55.29-23.24c3.46-5.03,6.68-11.33,4.37-16.98c-4.09-10-19.1-6.97-28.29-1.29
	c-20.7,12.8-38.34,30.53-51.03,51.3c-6.16,10.08-11.29,21.55-10.04,33.29c2.78,26.01,32.94,38.27,58.33,44.55
	c71.47,17.66,144.63,30.7,218.25,29.67c18.17-0.25,36.85-1.49,53.32-9.17c16.47-7.69,30.43-23.16,31.43-41.31
	c1.07-19.48-6.97-43.94-24.16-53.17c-17.19-9.23-51.58,0.62-51.58,0.62s-31.68,5.6-34.22-1.54c-8.7-24.48,71.76-30.65,71.76-13.73
	c0,25.94-46.46,25.57-72.12,21.77c-5.91-0.87-12.62-3.11-14.58-8.75c-2.47-7.1,4.2-13.91,10.5-18.01
	c27.76-18.1,63.92-25.02,94.84-13.11c30.92,11.91,54.07,44.67,49.99,77.56c-3.35,26.91-23.65,49.66-48.08,61.42
	s-52.47,13.88-79.53,12.15c-27.18-1.74-56.44-8.49-73.6-29.64c-15.68-19.33-17.51-47.67-8.02-70.68
	c9.49-23.01,28.94-40.91,50.96-52.51c25.29-13.32,54.9-19.62,75.94-38.96c27.3-25.09,32.98-69.36,15.87-102.26
	s-54.13-53.32-91.21-53.94c-17.85-0.3-36,3.7-51.2,13.06c-28.44,17.51-43.11,51.56-46.49,84.79c-2.86,28.14,2.04,58.75,21.25,79.51
	c13.65,14.74,33.42,23.05,53.43,24.8c49.67,4.34,99.19-35.04,106.14-84.41c1.48-10.53,1.18-21.61-3.13-31.34
	c-8.35-18.88-32.68-28.85-51.88-21.25c-19.2,7.6-30.13,31.51-23.3,51c4.55,12.99,16.85,23.5,30.61,23.86
	c13.75,0.37,27.39-11.03,27.61-24.79c0.22-13.76-15.2-25.93-28.03-20.97c-12.83,4.96-14.75,26.57-2.32,32.47
	c9.41,4.46,20.98-1.12,27.26-9.42c6.28-8.3,7.8-19.19,12.49-28.48c29.55-58.6,96.74-75.7,96.74-75.7s16.24,13.38,19.4,36.69
	c3.11,22.95-0.5,43.4-7.05,77.33c-5.57,28.83-31.75,56.98-60.38,63.48c-5.72,1.3-12.9,1.53-16.17-3.34
	c-2.3-3.41-2.55-15.58-1.53-19.56c8.15-31.76,32.7-56.29,64.2-65.37c48.83-14.08,100.37,9.65,155.73,25.61
	c0,84.64-75.01,121.78-145.35,117.71c-11.74-0.68-20.43-8.44-27.51-17.83c-7.08-9.39-3.55-11.81,8.09-13.44
	c5.89-0.83,107.81,45.14,113.3,47.41c124.84,51.61,156.81,54.83,238.06,33.36" id="drawing"/>
</svg>
