<svg
   xmlns:dc="http://purl.org/dc/elements/1.1/"
   xmlns:cc="http://creativecommons.org/ns#"
   xmlns:rdf="http://www.w3.org/1999/02/22-rdf-syntax-ns#"
   xmlns:svg="http://www.w3.org/2000/svg"
   xmlns="http://www.w3.org/2000/svg"
   xmlns:sodipodi="http://sodipodi.sourceforge.net/DTD/sodipodi-0.dtd"
   xmlns:inkscape="http://www.inkscape.org/namespaces/inkscape"
   version="1.1"
   id="mySVG"
   xml:space="preserve"
   width="1277.8083"
   height="691.39685"
   viewBox="0 0 1277.8083 691.39682"
   sodipodi:docname="cherries.svg"
   inkscape:version="0.92.4 (5da689c313, 2019-01-14)"><metadata
     id="metadata8"><rdf:RDF><cc:Work
         rdf:about=""><dc:format>image/svg+xml</dc:format><dc:type
           rdf:resource="http://purl.org/dc/dcmitype/StillImage" /><dc:title></dc:title></cc:Work></rdf:RDF></metadata><defs
     id="defs6" /><sodipodi:namedview
     pagecolor="#ffffff"
     bordercolor="#666666"
     borderopacity="1"
     objecttolerance="10"
     gridtolerance="10"
     guidetolerance="10"
     inkscape:pageopacity="0"
     inkscape:pageshadow="2"
     inkscape:window-width="1920"
     inkscape:window-height="986"
     id="namedview4"
     showgrid="false"
     fit-margin-top="0"
     fit-margin-left="0"
     fit-margin-right="0"
     fit-margin-bottom="0"
     inkscape:zoom="0.22124998"
     inkscape:cx="638.90372"
     inkscape:cy="345.71866"
     inkscape:window-x="-11"
     inkscape:window-y="-11"
     inkscape:window-maximized="1"
     inkscape:current-layer="g12" /><g
     id="g10"
     inkscape:groupmode="layer"
     inkscape:label="ink_ext_XXXXXX"
     transform="matrix(1.3333333,0,0,-1.3333333,-161.09628,879.01152)"><g
       id="g12"
       transform="scale(0.1)"><path
         d="m 6767.99,1913 c -274.69,-28.44 -501.47,64.33 -539.58,102.08 46.18,5.17 233.63,-32.53 448.09,-75.67 37.39,-7.52 76.55,-15.4 117.31,-23.53 -8.53,-1.03 -17.14,-1.98 -25.82,-2.88 z m -93.37,1728.01 c -62.84,-14.22 -116.69,-34.8 -145.95,-61.6 -26.58,-24.34 -35.84,-48.99 -25.4,-67.62 16.6,-29.63 76.49,-29.14 183.06,1.46 28.02,8.04 44.7,20.77 50.98,38.9 6.7,19.31 0.67,41.07 -13.83,67.49 103.1,17.85 222.99,20.95 291.74,4.24 38.17,-9.28 45.12,-20.84 46.34,-24.16 0.94,-2.54 -0.1,-6.97 -2.87,-12.13 -23.21,-43.42 -147.74,-117.43 -273.51,-147.79 -258.45,-62.35 -492.57,-29.1 -569.67,39.08 -18.1,16 -26.27,32.8 -24.31,49.91 8.97,78.14 157.68,159.65 425.04,194.48 9.67,-13.79 19.11,-26.94 28.16,-39.53 10.74,-14.94 21.07,-29.31 30.22,-42.73 z m 34.35,-79.02 c -2.82,-8.12 -13.22,-14.82 -30.92,-19.91 -131.89,-37.85 -148.48,-15.87 -148.61,-15.63 -1.62,2.9 2.53,15.31 19.49,30.84 25.95,23.76 79.73,43.01 143.34,56.38 13.35,-22.37 20.61,-40.44 16.7,-51.68 z m -502.43,1250.12 c -105.49,336.63 -142.52,582.52 -64.97,846.5 27.71,94.31 67.41,178.73 109.93,252.27 3.84,-135.78 27.12,-239.07 37.35,-284.42 l 2.34,-10.46 c 46.44,-211.25 -15.41,-543.16 -84.65,-803.89 z m -66.12,1293.51 c 77.8,190.4 180.85,332.86 243.63,405.14 -26.89,-51.84 -63.28,-130.74 -91.2,-234.55 -9.42,-35.03 -17.41,-71.98 -23.79,-109.9 -37.38,-20.57 -80.21,-41.77 -128.64,-60.69 z m 232.73,87.34 c 25.61,15.79 53.98,33.26 68.84,38.49 -8.52,-14.44 -29.11,-40.61 -49.15,-66.09 -29.47,-37.47 -68.98,-87.69 -110.11,-148.75 0.37,6.93 0.8,13.91 1.27,20.94 2.54,36.75 6.7,73.56 12.34,109.59 29.03,16.39 54.61,32.14 76.81,45.82 z M 5276.93,3233.15 c -37.55,-31.97 -68.34,-50.56 -89.73,-52.3 -85.25,-6.94 -145.38,13.83 -158.69,36.92 -3.27,5.66 -2.98,10.5 0.95,16.18 15.24,21.95 48.9,33.11 92.76,33.11 36.8,0 80.78,-7.86 127.05,-23.78 9.35,-3.22 18.6,-6.61 27.66,-10.13 z m -17.9,38.49 c -115.87,39.89 -218.02,31.59 -254.22,-20.6 -10.45,-15.07 -11.28,-32.66 -2.3,-48.25 22.11,-38.34 97.31,-59.18 187.13,-51.84 28.41,2.31 68.65,27.5 116.79,70.04 74.22,-32.5 131.1,-72.04 136.04,-97.23 0.68,-3.44 0.54,-7.3 -5.01,-12.15 -61.62,-53.9 -277.22,-34.7 -409.15,-0.12 -128.78,33.75 -253.06,75.14 -290.18,148.79 -15.34,30.42 -14.97,64.76 1.13,104.97 7.29,18.22 36.52,37.09 80.18,51.79 54.74,18.42 133.34,30.38 223.04,30.38 115.34,0 249.02,-19.78 373.86,-71.11 -41.55,-48.03 -80.24,-89.01 -114.47,-120.88 -15.33,6.3 -29.92,11.77 -42.84,16.21 z m 177.98,128.86 c -241.44,103.64 -503.91,86.44 -627.13,44.97 -37.34,-12.56 -84.74,-34.75 -98.47,-69.06 -19.21,-48 -19.24,-91.62 -0.08,-129.63 42.48,-84.28 173.8,-128.77 309.37,-164.31 137.09,-35.93 363.12,-57.66 436.51,6.56 12.46,10.9 17.68,25.29 14.7,40.5 -8.2,41.85 -76.37,83.79 -141.45,113.5 34.94,33.15 73.32,74.13 113.9,121.16 26.41,-12.01 52.31,-25.51 77.45,-40.62 470.18,-282.38 397.99,-859.53 294.12,-1125.26 -8.34,-21.34 -210.22,-523.47 -727.49,-592.4 -324.87,-43.3 -580.21,110.06 -650.73,158.08 -251.31,171.18 -423.38,486.7 -449.07,823.44 -22.88,300.15 71.74,565.36 266.43,746.79 232.94,217.06 555.41,259.06 770.12,259.06 100.43,0 177.31,-9.2 210.36,-13.96 l 2.52,-0.36 c 58.14,-8.39 163.53,-23.58 288.77,-67.13 -30.82,-39.79 -60.91,-77.08 -89.83,-111.33 z m 630.25,2589.72 c -23.11,-74.93 -27.68,-111.28 -33.48,-157.3 -5.16,-40.99 -11.58,-92 -33.93,-188.53 -72.54,-313.32 -116.32,-502.44 -269.2,-685.85 -71.79,-86.12 -290.24,-348.21 -601.47,-366.76 -76.93,-4.59 -172.65,1.18 -273.98,7.28 -222.33,13.39 -452.24,27.23 -571.55,-56.89 -20.69,-14.58 -38.44,-31.26 -52.71,-44.66 -6.07,-5.69 -13.26,-12.46 -19.63,-17.8 2.53,4.44 5.36,9.22 8.05,13.78 31.83,53.8 91.08,153.96 84.86,313.7 l -1.05,25.36 c -10.21,242.82 -29.22,694.79 537.61,955.53 361.28,166.19 841.06,213.81 1030.57,226.58 80.99,5.45 153.47,20.76 217.76,40.99 -7.67,-21.34 -14.99,-43.17 -21.85,-65.43 z M 10791.5,1917.35 c -1.6,8.14 -9.5,13.47 -17.6,11.84 -1689.47,-330.55 -3032.77,-152.51 -3404.23,-90.06 -145.69,24.49 -284.68,50.34 -412.41,75.12 359.56,84.95 556.38,288.74 661.05,456.96 157.39,252.94 196.97,584.16 100.84,843.81 -51.04,137.9 -156.15,274.84 -288.35,375.73 -107.19,81.79 -283.8,179.41 -516.54,179.97 -101.92,0.51 -197.42,-5.15 -283.69,-15.48 -16.35,23.78 -33.1,49.41 -49.37,77.25 -77.33,132.34 -120.96,254.04 -207.88,496.52 -57.54,160.5 -108.34,302.22 -150.03,430.65 74.61,269.95 147.45,634.14 97.2,862.78 l -2.37,10.62 c -11.21,49.66 -38.37,170.19 -37.1,326.57 48.54,76.77 97.97,139.61 135.4,187.18 51.77,65.81 71.15,90.44 53.6,108.08 -20.31,20.47 -53.11,0.27 -112.6,-36.38 -16.29,-10.03 -34.42,-21.21 -54.44,-32.93 5.37,28.47 11.68,56.22 18.84,82.83 36.06,134.08 86.74,225.72 111.1,269.76 14.8,26.78 18.78,33.98 16.15,42.86 l -2.28,6.67 -5.53,2.96 c -3.19,1.7 -8.44,3.16 -15.28,0.33 -34.1,-14.05 -210.56,-208.71 -323.37,-499.25 -67.83,-23.26 -145.48,-41.24 -233.27,-47.15 -191.17,-12.88 -675.3,-60.98 -1041.1,-229.25 -585.11,-269.15 -565.55,-734.2 -555.04,-984.05 l 1.04,-25.27 c 5.88,-150.91 -50.44,-246.11 -80.7,-297.26 -15.13,-25.57 -23.46,-39.65 -19.41,-52.77 1.78,-5.76 5.88,-10.38 11.55,-13.04 20.69,-9.65 40.6,9.02 65.79,32.69 14.3,13.43 30.5,28.64 49.46,42.01 110.73,78.05 345.41,63.93 552.47,51.46 102.26,-6.16 198.84,-11.98 277.57,-7.27 324.17,19.32 548.88,288.9 622.73,377.5 157.44,188.89 204.36,391.54 275.37,698.28 22.71,98.03 29.23,149.88 34.47,191.55 5.84,46.31 10.05,79.78 32.39,152.22 9.17,29.74 19.13,58.62 29.69,86.55 51.69,18.57 97.53,39.95 137.74,61.18 -4.09,-29.59 -7.22,-59.57 -9.28,-89.5 -1.71,-24.62 -2.65,-48.58 -2.98,-71.81 -52.78,-84.73 -104.7,-186.31 -138.32,-300.74 -83.17,-283.14 -38.75,-543.19 79.24,-908.29 -31.53,-112.92 -63.14,-208.61 -85.52,-269.31 -103.74,-281.48 -346.09,-671.59 -560.38,-952.57 -131.86,46.97 -243.05,62.99 -303.78,71.74 l -2.5,0.36 c -106.12,15.32 -653.34,75.06 -1005.22,-252.83 -201.5,-187.77 -299.48,-461.59 -275.89,-771.01 26.36,-345.63 203.42,-669.77 462.1,-845.95 63.91,-43.54 274.93,-170.93 552.71,-170.91 38.4,0 78.13,2.43 118.87,7.86 534.6,71.26 742.86,589.22 751.46,611.23 74.37,190.26 98.01,410.67 64.86,604.7 -41.62,243.56 -170.07,436.24 -371.47,557.21 -23.8,14.28 -48.03,27.16 -72.57,38.74 29.52,35.05 60.08,73.05 91.14,113.32 123.19,-46.16 262.81,-120.08 394.46,-240.9 210.25,-192.94 290.11,-415.51 258.95,-721.64 -44.77,-439.84 -247.57,-713.02 -678.13,-913.47 -660.95,-307.69 -2393.66,-274.2 -4302.93,393.98 -7.8,2.73 -16.37,-1.39 -19.11,-9.21 -2.74,-7.82 1.38,-16.38 9.2,-19.11 870.81,-304.75 1767.12,-499.21 2592.03,-562.36 188.39,-14.42 367.84,-21.54 536.87,-21.54 511.42,0 926.42,65.26 1196.61,191.04 441.39,205.5 649.33,485.9 695.3,937.62 32.22,316.5 -50.59,546.82 -268.5,746.8 -132.05,121.17 -271.7,196.27 -395.67,243.7 219.28,288.68 460.13,682.55 559.74,952.83 19.69,53.4 46.42,133.62 74.02,228.9 39.04,-117.52 85.07,-245.9 136.42,-389.14 87.54,-244.2 131.47,-366.77 210.21,-501.51 13.85,-23.71 27.98,-45.76 41.9,-66.4 -255.89,-35.37 -423.96,-115.51 -435.8,-218.74 -3.11,-27.03 8.74,-53.25 34.23,-75.8 81.71,-72.26 318.58,-112.87 596.58,-45.77 125.93,30.4 262.83,106.47 292.94,162.81 7.09,13.27 8.63,25.59 4.58,36.62 -7.23,19.64 -29.28,33.69 -67.43,42.96 -71.55,17.38 -203.27,15.39 -315.87,-5.5 -10.7,16.19 -23.48,33.98 -37.66,53.71 -6.07,8.45 -12.31,17.15 -18.69,26.11 78.69,8.77 167.04,13.72 264.1,13.37 376,-0.92 680.88,-276.9 776.85,-536.11 93.01,-251.29 54.48,-572.19 -98.19,-817.55 -108.02,-173.58 -317.42,-386.23 -711.39,-457.98 -70.66,13.92 -137.27,27.33 -199.03,39.75 -397.96,80.05 -476.93,92.69 -487.82,57.47 -1.76,-5.67 -1.94,-14.72 7.09,-25.73 39.85,-48.61 281.66,-147.15 569.38,-117.42 38.19,3.95 74.88,9.13 110.15,15.39 146.58,-28.85 310.27,-59.88 483.47,-89 301.77,-50.72 801.59,-110.31 1470.42,-105 653.81,5 1308.09,70.67 1944.49,195.22 8.2,1.58 13.5,9.46 11.9,17.59"
         style="fill:none;stroke:#040606;stroke-width:20;stroke-linecap:round;stroke-linejoin:round;stroke-miterlimit:10;stroke-dasharray:none;stroke-opacity:1"
         id="drawing"
         inkscape:connector-curvature="0" /></g></g></svg>