<svg
   xmlns:dc="http://purl.org/dc/elements/1.1/"
   xmlns:cc="http://creativecommons.org/ns#"
   xmlns:rdf="http://www.w3.org/1999/02/22-rdf-syntax-ns#"
   xmlns:svg="http://www.w3.org/2000/svg"
   xmlns="http://www.w3.org/2000/svg"
   xmlns:sodipodi="http://sodipodi.sourceforge.net/DTD/sodipodi-0.dtd"
   xmlns:inkscape="http://www.inkscape.org/namespaces/inkscape"
   version="1.1"
   id="mySVG"
   xml:space="preserve"
   width="1283.1333"
   height="694.1333"
   viewBox="0 0 1283.1333 694.1333"
   sodipodi:docname="cherriesmax.svg"
   inkscape:version="0.92.4 (5da689c313, 2019-01-14)"><metadata
     id="metadata8"><rdf:RDF><cc:Work
         rdf:about=""><dc:format>image/svg+xml</dc:format><dc:type
           rdf:resource="http://purl.org/dc/dcmitype/StillImage" /><dc:title></dc:title></cc:Work></rdf:RDF></metadata><defs
     id="defs6" /><sodipodi:namedview
     pagecolor="#ffffff"
     bordercolor="#666666"
     borderopacity="1"
     objecttolerance="10"
     gridtolerance="10"
     guidetolerance="10"
     inkscape:pageopacity="0"
     inkscape:pageshadow="2"
     inkscape:window-width="1920"
     inkscape:window-height="986"
     id="namedview4"
     showgrid="false"
     inkscape:zoom="0.33999233"
     inkscape:cx="641.56665"
     inkscape:cy="347.06665"
     inkscape:window-x="-11"
     inkscape:window-y="-11"
     inkscape:window-maximized="1"
     inkscape:current-layer="g10" /><g
     id="g10"
     inkscape:groupmode="layer"
     inkscape:label="ink_ext_XXXXXX"
     transform="matrix(1.3333333,0,0,-1.3333333,0,694.13333)"><g
       id="g12"
       transform="scale(0.1)"><path
         d="M 20,612.641 C 792.086,224.859 1679.53,128.75 2528.74,58.4805 c 532.82,-44.0821 1096.84,-81.0508 1616.33,72.4805 583.42,172.43 1064.04,794.57 855.45,1421.519 -175.66,527.98 -845.59,729.84 -1347.8,680.51 -107.75,-10.58 -214.89,-32.98 -316.22,-71.54 -222.7,-84.75 -466.36,-287.62 -529.64,-527.18 -75.4,-285.45 -26.02,-823.559 185.67,-1051 231.72,-248.938 581.73,-459.981 933.96,-380.18 320.48,72.621 673.35,335.43 742.07,668.812 49.31,239.208 105.5,540.388 -9.22,769.588 -100.99,201.75 -295.69,327.09 -508.82,384.8 -129.71,35.12 -276.24,57.62 -410.56,50.35 -140.15,-7.6 -341.69,-151.37 -152.96,-289.57 104.28,-76.36 237.05,-108.81 364.14,-118.08 37.1,-2.7 382.74,1.91 322.6,82.05 -91.32,121.7 -285.31,160.54 -427.6,144.5 -7.72,-0.87 -15.68,-1.99 -22.35,-5.99 -19.89,-11.93 -17.2,-43.99 -0.69,-60.28 29.91,-29.49 89.91,-35.98 128.84,-28.14 73.3,14.76 274.77,153.15 363.22,267.93 88.45,114.77 685.85,1109.93 769.31,1646.45 19.95,128.27 34.35,261.86 32.72,391.94 -1.96,156.07 -56.05,306.09 -55.21,462.02 1.18,220.1 124.42,408.25 171.76,616.56 -20.3,-89.33 -185.77,-226.67 -239.3,-309.2 -75.03,-115.69 -138.61,-230.62 -151.57,-370.23 -27.25,-293.67 -92.45,-610.04 -232.9,-871.69 -124.47,-231.87 -374,-345.23 -620.45,-398.56 -215.81,-46.7 -405.25,-15.99 -620.87,-30.2 -146.17,-9.64 -259.82,-64.62 -381.16,-141.51 91.8,58.17 114.18,282.24 114.39,374.65 0.58,250.54 -33.34,414.75 118.48,625.36 351.57,487.71 921.22,471.59 1452.72,571.65 217.76,40.99 598.67,240.23 598.67,240.23 0,0 -299.86,-376.34 -329.6,-556.83 -29.74,-180.5 -104.71,-448.53 6.61,-791.95 76.63,-236.38 171.59,-466.36 277.05,-691.24 102.23,-218.01 248.37,-418.63 326.23,-647.63 1.76,-5.16 -200.56,-45.35 -218.65,-48.62 45.3,78.48 136.82,121.16 226.96,130.43 90.13,9.27 180.5,-9.96 269.07,-29.07 18.42,-3.97 42.02,-15.91 36.72,-34 -1.91,-6.52 -7.42,-11.26 -12.71,-15.53 -223.09,-180.02 -556.39,-220.22 -810.97,-83.83 -35.25,18.88 -73.41,49.25 -69.22,89.01 2.87,27.22 25.2,47.93 47.25,64.14 94.07,69.17 206.6,94.2 317.92,121.47 131.23,32.16 268.04,46.85 403.02,37.57 334.59,-23.03 651.89,-278.19 775.38,-585.18 98.9,-245.88 50.9,-530.56 -56.98,-765.05 -124.16,-269.868 -314.64,-412.599 -602.64,-481.579 -211.3,-50.61 -745.01,-213.051 -862.78,77.769 173.49,7.403 355.85,-56.328 522.53,-98.07 184.18,-46.121 368.35,-93.731 556.11,-123.277 567.25,-89.254 1179.63,-136.602 1754.57,-115.692 225.72,8.199 1343.55,99.25 1606.39,164.32 262.84,65.071 141.61,57.141 141.61,57.141"
         style="fill:none;stroke:#040606;stroke-width:40;stroke-linecap:round;stroke-linejoin:round;stroke-miterlimit:10;stroke-dasharray:none;stroke-opacity:1"
         id="drawing"
         inkscape:connector-curvature="0" /></g></g></svg>