<!-- Generator: Adobe Adobe Illustrator 24.2.0, SVG Export Plug-In . SVG Version: 6.00 Build 0)  -->
<svg version="1.1" id="mySVG" xmlns="http://www.w3.org/2000/svg" xmlns:xlink="http://www.w3.org/1999/xlink" x="0px" y="0px"
	 width="1200px" height="800px" viewBox="0 0 1200 800" style="enable-background:new 0 0 1200 800;" xml:space="preserve">
<style type="text/css">
	.st0{fill:none;stroke:#000000;stroke-width:3;stroke-linejoin:round;stroke-miterlimit:10;}
</style>
<path class="st0" d="M80.59,191.33c68.37,24.52,143.55,4.81,214.62-10.18c17.24-3.64,34.77-7,52.37-5.98s44.15,6.78,44.14,24.4
	c-0.01,18.91-50.5,15.76-46.28,19.37c7.16,6.12,5.57,14.43,1.26,20.91c-4.31,6.47-10.98,11.16-14.95,17.85s-1.16,33.67,2.97,27.98
	c8.81-12.14,22.15-12.39,26.73-4.26c-0.01,10.54-0.71,20.53,8.84,24.99c8.2,3.82,14.52-3.04,13.69,11.15
	c-0.52,9.03,0.41,26.26,8.06,31.09c-2.16-4.47,6.76-11.76,6.76-11.76s2.4,4.6,2.39,9.56s5.84,13.35,7.19,18.12
	c1.35,4.77,7.2,9.28,11.82,7.49c-0.41-5.96-2.47-8.02,1.66-12.33s13.76-2.1,13.05,3.83c5.51-10.03,9.46-22.65,10.13-34.08
	c8.44,13.67,7.24,34.57,9.2,51.42c0.87,7.5,5.29-13.17,8.81-6.5c2.77,5.24,7.07,28.8,7.64,34.69c0.57,5.9,3.32,17.07,7.62,16
	c5.16-1.28-0.13-17.17,4.45-19.88c3.94-2.33-1.71-13.02,0.85-33.55c1.15-9.25,0.39-17.22,13.67-19.35
	c8.67-1.39-15.5-18.98-8.87-24.73c3.86-3.35,10.44,0.61,10.5-4.5c0.05-5.11-3.53-14.22-4.5-19.23c-2.92-15.1,9.92-35.38,24.87-31.79
	c5.74,1.38,19.22,14.1,19.19,8.2c-0.01-1.07-1.63-8.54-2.05-9.53c-4.38-10.3-14.45-23.89-18.83-34.19
	c-4.44-10.45-2.92-20.98,5.45-28.66c12.49-11.46,25.11-4.87,35.11-3.8c10,1.07,17.61,0.54,18.35-9.49
	c0.55-7.49-4.58-20.31-1.01-26.91c2.57-4.73,6.18-2.9,11.55-3.2c25.92-1.46,51.47-8.98,74.06-21.77c2.15-1.22,11.43-2.87,11.79-5.32
	c0.36-2.45-10.25-8.38-8.91-6.3c5.08,7.88,16.3-3.65,25.37-1.32c9.08,2.33,28.12,6.57,25.83,3.16c-2.43-3.64-38.47-11.3-58.46-13.77
	c7.29-5.32,21.32-6.95,21.88-15.96c0.69-11.14-22.6,1.74-31.17-5.42c-4.94-4.13,12.08-17.51,5.71-18.42
	c-7.37-1.06-28.52-6.7-28.52-6.7s-26.95,12.11-30.6,12.83s-2.45-11.77-4.78-8.87c-17.49,21.83-43.86,30.3-55.17,54.01
	c-1.95,4.09-3.69,8.51-3.28,13.02c0.46,5.1,3.59,9.56,4.82,14.53c1.23,4.97-0.7,11.64-5.77,12.28c-2,0.25-3.97-0.52-5.83-1.28
	c-10.59-4.32-21.58-8.92-29.14-17.5c-9.42-10.68-12.37-26.27-23.02-35.72c-12.33-10.95-13.78-12.48-30.22-11.17
	c-4.87,0.39-23.89-0.73-29.55,4.12c-3.15,2.7-1.81,12.64-4.1,16.1c-3.03,4.59-9.17,4.7-18.48,11.94
	c-7.5,5.83-14.89,25.49-22.98,30.48s-20.05,6.02-26.04-1.36c-0.57-9.2,16.92-4.77,22.45-12.14c4.28-5.71-1.51-14.84,2.55-20.71
	c4.07-5.89,14.38-3.38,19.05-8.81c5.22-6.06-9.15-12.69-6.97-20.38c2.95-10.41,29.77,0.82,30.8-9.94c0.44-4.55-7.38-5.39-11.07-8.09
	c23.14-5.16,46.51-7.79,66.55,4.88c4.5,2.84,10.58,13.11,15.64,14.74c3.58,1.16,7.4,1.44,10.98,2.62
	c14.03,4.6,20.36,21.28,20.39,36.05c0.02,6.98-0.82,14.48,2.8,20.45c2.27,3.75,6.05,6.36,10.03,8.19
	c15.35,7.06,33.2,3.61,50.06,4.62c16.86,1.01,36.43,10.44,37.22,27.32c0.38,8.15-1.48,20.07,6.61,21.19
	c-8.5,16.25-15.84,33.11-21.96,50.4c-2.3,6.5-4.42,13.72-1.86,20.12c2.56,6.4,12.06,10.03,16.52,4.77
	c6.04-7.12-3.87-19.31,1.48-26.96c10.5,1.88,14.46,18.13,6,24.63c-3.11,0.48,0.29-4.7,3.37-4.08c11.98,2.43,20.67,13.95,22.6,26.03
	s-1.82,24.42-7.42,35.3c-2.52,4.91-5.61,9.8-10.32,12.67c-10.07,6.14-24.17,0.16-30.17-9.99c-6-10.15-5.66-22.85-3.43-34.43
	c1.21-6.24,3.22-12.85,8.3-16.67c5.08-3.82,13.99-2.8,16.02,3.22c2.24,6.62-5.64,12.96-12.61,12.4c-6.96-0.56-12.76-5.26-18.57-9.15
	c-10.28-6.88-21.94-11.69-34.08-14.05c-3.91-0.76-7.98-1.27-11.84-0.29c-6.2,1.57-10.89,6.76-13.99,12.35
	c-7.05,12.73-7.38,29.19,0.04,41.71c7.42,12.52,22.66,20.22,37.78,13.86s34.68-10.57,52.13-5.92c17.45,4.65,32.33,18.03,38.81,34.88
	c0.75,1.96,1.41,4.04,1.23,6.14c-0.18,2.11-1.2,4.06-2.36,5.83c-8.91,13.7-27.92,19.8-43.13,13.83c-15.21-5.97-25-23.37-22.21-39.47
	c4.88-1.03,9.13,4.48,8.79,9.46c-0.33,4.98-3.64,9.19-6.86,13c-12.91,15.29-28.05,30.62-47.69,34.51
	c-19.63,3.89-43.61-9.59-43.1-29.6c0.28-11.12,7.8-20.9,16.72-27.53c4.86-3.61,10.33-6.59,16.29-7.62
	c14.91-2.59,30.56,9.19,32.81,24.16c2.25,14.96-8.69,30.53-23.39,34.1c-1.33,0.32-2.73,0.56-4.05,0.19c-4.51-1.27-3.97-8.63,0-11.11
	c3.97-2.48,9.09-1.58,13.67-0.6c9.89,2.12,20.09,4.38,28.3,10.28c8.22,5.9,13.97,16.47,11.13,26.17
	c-2.12,7.23-8.43,12.48-15.08,16.04c-6.24,3.34-13.68,5.6-20.35,3.23c-11.66-4.14-14.49-19.15-22.51-28.57
	c-9.71-11.4-28.69-13.29-40.46-4.02c-11.76,9.27-14.37,28.17-5.56,40.28s27.6,15.43,40.03,7.08c-15.1-9.68-34.58,1.05-49.15,11.51
	c-6.92,4.97-9.01,14.63-10.39,23.05c-2.3,14.01,8.27,20.43,22.35,22.18c17.73,2.2,38.81-5,44.12-22.06c1.02-3.28,1.35-7-0.29-10.02
	s-5.76-4.81-8.69-3.03c-3.1,1.88-3.3,6.34-2.41,9.86c3.17,12.56,16.34,21.77,29.23,20.44c12.89-1.33,23.89-13.03,24.43-25.98
	c0.54-12.95-9.45-25.52-22.19-27.92c-4.61-0.87-9.52-0.57-13.78-2.53c-4.26-1.96-7.44-7.55-4.7-11.36
	c3.35-4.66,11.29-1.32,13.69,3.89c2.41,5.21,1.86,11.35,3.88,16.73c4.3,11.47,20.58,15.58,30.74,8.73
	c10.16-6.85,13.03-21.81,7.62-32.8c-7.34,14.99,3.16,35,19.25,39.42c16.1,4.42,34.64,1,41.55-14.19s6.93-35.3-5.81-46.08
	c-5.73-4.85-24.23-10.95-31.69-11.76c-4.35-0.47-6.38,3.79-7.72,7.96c-1.4,4.35,11.44,5.82,15.98,5.33s16.12-5.13,18.62-8.96
	c9.78-15,16.44-27.85,32.38-23.3c8.84,2.52,15.05,10.48,19.12,18.72c4.88,9.89,7.57,21.42,4.49,32
	c-3.08,10.59-13.11,19.58-24.11,18.83c-5.27-0.36-11.19-4.56-9.95-9.69c1.67-6.88,12.25-5.18,17.65-0.6
	c14.16,12.03,19.3,34.41,9.67,50.3c-9.63,15.89-34.17,21.09-48.1,8.79c-6.46-5.71-9.61-17.03-2.97-22.53
	c9.07,18.94-1.67,44.88-21.71,51.13c-20.05,6.25-44.04-9.87-45.08-30.84c-0.29-5.79,1.16-12,5.39-15.96s11.67-4.68,15.65-0.47
	c5.02,5.32,1.64,14.69-4.48,18.69c-6.12,4-13.8,4.4-21.01,5.62c-13.48,2.27-27.71,9.19-32.15,22.11
	c-3.96,11.5,1.66,25.08,11.82,31.78c10.16,6.69,23.81,6.89,34.95,2c5.53-2.42,10.76-6.26,13.17-11.79
	c2.42-5.53,1.18-12.9-3.89-16.17c-7.29-0.99-11.09,8.96-9.56,16.15c2.36,11.06,11.28,20.46,22.21,23.38
	c10.93,2.92,23.35-0.77,30.92-9.18c-8.17-5.43-20.93-1.34-24.43,7.82c-5.04,13.2,7.83,27.12,6.27,41.17
	c20.77,11.2,40.62,32.99,34.39,55.75c-4.1,14.98-22.41,20.07-37.87,18.63c-13.69-1.28-17.94-16.98-19.79-30.61
	c-1.85-13.63,6.69-27.97,19.55-32.85c2.96,2.07,2.32,7-0.35,9.44s-6.49,3.04-10.08,3.46c-17.38,2-39.35-0.71-45.39-17.12
	c-3.69-10.03,0.55-21.31,6.55-30.16c3.89-5.74,8.96-11.23,15.67-12.98c10.08-2.62,20.78,4.51,25.16,13.96
	c4.38,9.45,3.72,20.46,1.68,30.67c11.7,10.57,28.65,21.69,41.75,12.93c5.27-3.52,16.59-13.59,19.18-19.38
	c6.25-14,21.33-42.22,6.28-39.29c-13.56,2.64-30.3-9.09-35.69-24.51c-3.63-10.37-4.15-22.05-0.05-32.24
	c4.1-10.19,13.19-18.57,24-20.48c14.33-2.54,28.7,6.48,36.9,18.5c5.91,8.66,9.43,19.39,7.62,29.72
	c-1.81,10.33-9.73,19.86-20.07,21.66c-1-8.91,8.61-15.69,17.52-16.66c13.33-1.46,27.19,5.88,33.49,17.71
	c6.3,11.83,6.8,21.3-1.85,31.54c-2.17,2.57-9.19,12.52-12.4,13.51c-11.76,3.62-18.25-12.12-28.68-18.65
	c-12.47-7.8-31.08-2.88-38.79,10.01c-7.71,12.89-7.39,28.62,0.22,39.88s22.09,17.41,35.48,15.08c6.34-1.1,12.59-4.16,16.27-9.44
	c6.49-9.29,5.27-33.28-2.51-36.87c-17.5-8.07-17.34-12.67-22.7-22.65c-13.08-24.39,2.92-58.61,29.23-67.18
	c3.53,5.44-2.97,13.82-9.11,11.75c-3.13-2.17-1.62-8.15,2.17-8.56c4.38,12.93,23.78,17.4,33.37,7.68
	c4.22-4.27,6.32-10.22,7.28-16.15c1.61-9.96-0.05-21.06-7.07-28.31c-7.02-7.25-33.5-7.53-40.27-0.05
	c-1.38,1.53,4.24,8.07,4.48,10.11c0.59,4.97,14.24-0.03,18.99-1.61c20.8-6.87,32.94-32.77,24.91-53.15
	c-2.95-7.5-8.89-14.48-16.83-15.83c-7.94-1.35-26.97,5.98-25.78,13.95c7.65,3.02,24.59-5.92,28.63-13.09
	c3.57-6.33,7.14-12.65,10.71-18.98c4.82-8.55,10.3-17.7,19.42-21.35c14.66-5.88,32.71,9.08,30.33,24.68s-23.03,24.72-36.54,16.56
	c-1.79-1.08-3.65-3-2.95-4.98c0.45-1.27,1.82-1.97,3.11-2.36c10.52-3.21,20.77,4.97,31.41,7.78c19.54,5.16,41.57-12.15,41.18-32.36
	c-0.4-20.21-23.09-36.64-42.42-30.72c-3.83,1.17-7.68,3.3-9.39,6.92c-1.71,3.62-0.21,8.86,3.67,9.85c3.45,0.89,6.74-1.69,9.38-4.1
	c7.27-6.63,14.73-13.51,18.87-22.44s4.13-20.54-2.65-27.67c-4.21-4.42-10.26-6.47-16.07-8.34c-6.68-2.14-13.73-4.25-20.61-2.87
	s-13.34,7.52-12.49,14.49c9.09-2.96,15.27-13,13.82-22.45c-6.61-12.8-20.16-21.73-34.52-22.78c-14.37-1.05-29.06,5.83-37.46,17.53
	c-2.68,3.73-4.8,8.23-4.14,12.77c0.88,6.07,6.53,10.45,12.4,12.22c5.87,1.77,12.12,1.57,18.21,2.28
	c19.79,2.33,38.71,16.14,43.67,35.45c4.96,19.3-7.22,42.34-26.78,46.19c-16.12,3.17-32.24-6.25-43.59-18.12
	c-11.91-12.45-20.46-32.5-10.24-46.37c4.16-5.65,10.82-9.19,14.55-15.13c4.66-7.41,3.71-17.46-0.89-24.91
	c-4.6-7.45-12.3-12.55-20.46-15.72c-7.17-2.78-15.65-4.12-22.26-0.19c-7.19,4.28-9.83,13.24-11.6,21.42
	c-2.85,13.17-4.64,28.17,3.36,39.01c8.63,11.68,27.57,13.34,38.65,3.95c11.08-9.39,12.88-27.53,4.58-39.44
	c-5.39-7.73-13.89-12.56-21.55-18.04c-23.65-16.92-41.13-42.28-48.52-70.4c-6.32-24.08-5.37-49.55-1.43-74.13
	c1.37-8.52,3.46-17.66,10.01-23.27c6.55-5.62,18.89-4.8,21.72,3.35c5.3,15.25-25.63,23.75-22.51,39.59
	c6.81-0.66,16.24,0.75,16.6,7.59c0.51,9.62-18.91,14-14.46,22.54c8.4-0.5,15.2,10.01,11.3,17.47c-2.12,4.05-6.57,8.69-3.65,12.2
	c1.27,1.52,3.44,1.86,5.11,2.92c6.41,4.1,1.84,14.63,5.4,21.36c3.75,7.11,14.47,6.4,21.38,2.31c6.92-4.09,12.68-10.54,20.51-12.38
	c1.89-0.44,4.01-0.56,5.65,0.48c5.58,3.53-1.07,11.31-4,17.23c-3.57,7.2,0.73,17.12,8.42,19.45c7.69,2.33,16.76-3.54,17.79-11.51
	c3.39-1.44,6.97,2.08,7.98,5.62c1.01,3.55,0.72,7.49,2.49,10.73c2.54,4.67,8.95,6.32,13.93,4.47c4.99-1.85,8.54-6.49,10.31-11.51
	c5.55,1.41,9.96,6.5,10.56,12.19c5.56-2.48,10.72-5.88,15.19-10.01c1.18,19.49,17.49,36.98,36.85,39.52
	c0.41-6.2-4.29-15.74,1.23-18.6c4.1-2.12,8.59-2.91,8.41-7.52s-5.8-10.02-2.79-13.51c2.69-3.13,10.23,1.79,12.24-1.81
	c5.03-9.03-8.21-18.97-12.32-28.46c-2.29-5.28-3.27-13.51,2.32-14.88c1.83-0.45,3.76,0.17,5.47,0.98
	c9.66,4.61,15.22,14.93,23.88,21.22c8.66,6.29,24.76,5.01,25.86-5.63c0.83-8.03-8.33-13.8-9.64-21.76
	c-2.48-15.08,14.52-8.11,12.17-15.29c-2.48-7.57-24.11-23.58-16.19-24.43c4.4-0.48,8.6,3.32,10.59-0.63c2-3.95,0.06-8.94-3.15-11.98
	c-3.22-3.05-10.36-14.59-14.31-16.58c-9.45-4.76-20.03-8.39-26.19-16.99c-1.1-1.53,0.51-4.4,2.28-5.05
	c9.84-3.63,18.57-3.85,22.37-10.77c4.04-7.37-10.18-11.47-16.51-16.99c-7.18-6.27-14.65-22.87-21.76-29.22
	c-12.56-11.2-27.87-3.65-44.68-2.83c1.19-5.53,14.46-6.59,13.56-12.17c-2.46-15.14-25.14-10.61-35.43,0.78
	c-3.54,3.92-9.76,18.99-13.77,22.43c-4.01,3.44-7.94-4.05-13.1-2.93c-16.37,3.56-6.78,35.3,3.73,48.36
	c3.51,4.36,7.67,8.24,10.43,13.11s3.89,11.18,0.99,15.96c-2.9,4.78-10.78,6.28-14.09,1.78c-2.01-2.72-1.78-6.42-1.77-9.8
	c0.02-19.94-11.91-39.42-29.68-48.47c-17.77-9.04-40.55-7.23-56.65,4.52c28.47,9.37,58.93-3.92,101.2-7.48
	c42.27-3.56,96.09,14.17,151.1,25.47c81.61,16.77,166.13,19.28,248.59,7.38" id="drawing"/>
</svg>
