<svg
   xmlns:dc="http://purl.org/dc/elements/1.1/"
   xmlns:cc="http://creativecommons.org/ns#"
   xmlns:rdf="http://www.w3.org/1999/02/22-rdf-syntax-ns#"
   xmlns:svg="http://www.w3.org/2000/svg"
   xmlns="http://www.w3.org/2000/svg"
   xmlns:sodipodi="http://sodipodi.sourceforge.net/DTD/sodipodi-0.dtd"
   xmlns:inkscape="http://www.inkscape.org/namespaces/inkscape"
   version="1.1"
   id="mySVG"
   xml:space="preserve"
   width="1600"
   height="1066.6667"
   viewBox="0 0 1600 1066.6667"
   sodipodi:docname="grapes.svg"
   inkscape:version="0.92.4 (5da689c313, 2019-01-14)"><metadata
     id="metadata8"><rdf:RDF><cc:Work
         rdf:about=""><dc:format>image/svg+xml</dc:format><dc:type
           rdf:resource="http://purl.org/dc/dcmitype/StillImage" /><dc:title></dc:title></cc:Work></rdf:RDF></metadata><defs
     id="defs6" /><sodipodi:namedview
     pagecolor="#ffffff"
     bordercolor="#666666"
     borderopacity="1"
     objecttolerance="10"
     gridtolerance="10"
     guidetolerance="10"
     inkscape:pageopacity="0"
     inkscape:pageshadow="2"
     inkscape:window-width="1920"
     inkscape:window-height="986"
     id="namedview4"
     showgrid="false"
     inkscape:zoom="0.22124998"
     inkscape:cx="800"
     inkscape:cy="533.33337"
     inkscape:window-x="-11"
     inkscape:window-y="-11"
     inkscape:window-maximized="1"
     inkscape:current-layer="g12" /><g
     id="g10"
     inkscape:groupmode="layer"
     inkscape:label="ink_ext_XXXXXX"
     transform="matrix(1.3333333,0,0,-1.3333333,0,1066.6667)"><g
       id="g12"
       transform="scale(0.1)"><path
         d="m 7718.18,4371.94 c -20.99,-65.64 -66.59,-123.26 -119.11,-140.18 -16.41,-5.28 -20.15,-2.03 -20.19,-1.99 -0.59,0.54 -1.7,3.6 0.16,11.08 9.87,39.62 74.3,113.65 116.94,125.16 7.16,1.93 14.58,3.93 22.2,5.93 z m 321.28,-504.74 c -88.57,-81.76 -197.86,-121.49 -254.5,-107.07 -22.24,5.64 -35.98,19.01 -40.85,39.74 -2.49,10.62 -0.65,20.3 5.64,29.6 14.64,21.72 53.12,39.27 102.92,46.95 22.5,3.46 45.6,5.17 68.91,5.17 39.42,0 79.39,-4.88 117.88,-14.39 z m 90.25,346.52 c 32.91,-117.16 -11.48,-261.55 -57.78,-313.51 -5.17,-5.8 -10.47,-11.45 -15.87,-16.94 -67.33,18.51 -139.53,23.22 -206.44,12.91 -56.03,-8.63 -98.48,-28.88 -116.46,-55.52 -9.3,-13.79 -12.25,-29.47 -8.52,-45.36 6.62,-28.17 25.77,-47.04 55.4,-54.56 72.36,-18.38 193.14,34.5 281.95,120.3 112.68,-33.72 208.64,-108.04 233.97,-216.25 20.67,-88.33 3.69,-296.1 -180.81,-374.6 -96.15,-40.9 -195.07,-26.28 -216.29,-20.15 l -15.6,4.53 c -25.73,7.45 -46.59,13.5 -64.95,19.11 78.76,56.96 116.08,150.58 102.9,260.74 -11.83,98.94 -102.2,188.13 -201.43,198.81 -22.73,2.45 -44.24,0.55 -64.4,-4.35 5.4,48.29 3.61,92.36 2.36,123.24 -6.34,156.55 -68.12,262.84 -118.82,324.43 -59.36,72.08 -205.16,166.35 -343.74,112.32 -50.68,-19.76 -93.02,-31.25 -126.77,-34.45 11.63,46.66 9.52,112.77 -19.29,213.68 -4.49,15.71 -11.41,32.16 -20.54,48.68 29.92,40.82 72.68,83.31 132.17,121.3 63.98,40.85 133.01,58.71 198.77,62.06 16.29,-41.58 34.22,-77.07 68.87,-81.15 34.94,-4.05 64.38,27.01 92.55,61.73 50.27,-14.81 91.06,-35.82 115.4,-55.95 20.39,-16.88 82.46,-68.24 92.7,-152.71 3.08,-25.36 1.15,-51.96 -4.77,-77.89 -11.64,-2.95 -22.83,-5.97 -33.52,-8.86 -53.26,-14.37 -120.65,-97.59 -131.12,-139.63 -4.22,-16.96 0.71,-25.96 5.59,-30.53 8.2,-7.66 21.26,-8.46 39.99,-2.43 61.1,19.69 113.79,88.57 135.12,164.8 73.49,17.69 163.39,29.75 252.55,-15.9 27.53,-14.1 111.3,-56.99 136.83,-147.9 z m -495.32,-491.15 c -66.55,-23.83 -115.89,-77.99 -141,-105.55 -10.08,-11.05 -59.43,-79.94 -117.32,-160.85 -27.75,-3.16 -56.95,-3.32 -87.14,-0.31 -115.23,11.48 -233.7,81.12 -316.92,186.3 -72.26,91.34 -106.81,195.31 -94.8,285.27 1.87,14.08 4.52,27.54 7.71,40.3 45.66,29.79 82.2,63.94 101.66,92.41 17.88,26.15 34.53,73.22 45.58,124.03 11.74,13.68 22.19,29.65 29.83,49.71 37.28,2.2 83.89,14.3 140.45,36.35 128.73,50.18 265.23,-38.62 321.03,-106.4 48.76,-59.22 108.16,-161.52 114.29,-312.54 1.29,-31.88 3.18,-78.42 -3.37,-128.72 z m -94.63,-197.27 c -36.77,-32.63 -83.28,-54.58 -136.05,-64.87 49.09,68.58 95.85,133.66 104.46,143.12 22.51,24.7 65.69,72.09 122.67,96.07 -11.13,-61.33 -36.32,-125.7 -91.08,-174.32 z M 4986.1,3080.76 c 144.34,25.41 267.22,-15.47 282.26,-32.35 -16.42,-13.24 -121.59,-42.18 -211.48,-4.23 -26.68,11.27 -50.15,23.57 -70.78,36.58 z m 444.03,5.63 c -3.38,-0.3 -6.67,-0.6 -9.86,-0.89 -31.36,-2.87 -49.35,-4.03 -54.36,5.5 -5.31,10.08 -1.17,25.45 11.07,41.09 13.37,17.08 30.29,26.87 37.22,26.87 0.48,0 0.91,-0.05 1.28,-0.14 4.8,-1.18 7.3,-20.96 9.32,-36.84 1.31,-10.34 2.84,-22.39 5.33,-35.59 z m 297.7,-202.97 c -44.09,-1.32 -104.49,5.7 -162.77,41.9 -17.75,11.03 -54.68,33.98 -82.97,79.02 -13.7,21.81 -22,43.5 -27.39,63.74 50.23,2.43 115.59,-2.58 185.32,-54.45 23.05,-17.14 63.14,-71.99 87.81,-130.21 z m 626.93,646.67 c -20.8,-13.33 -43.85,-25 -68.2,-34.2 -66.21,-25.04 -130.04,-26.86 -175.09,-5.03 -26.71,12.96 -30.45,40.13 -26.46,55.22 1.57,5.95 8.92,12.2 20.15,17.13 17.89,7.86 43.08,12.29 72.56,12.29 51.36,0 115.71,-13.42 177.04,-45.41 z m 1006.97,-852.73 c -114.68,-70.47 -252.88,-82.69 -325.77,-65.76 -25.96,6.03 -43.43,15.7 -47.93,26.55 -6.63,15.96 11.51,44.85 32.16,60.02 29.6,21.75 85.78,29.41 142.05,29.41 27.26,0 54.56,-1.8 78.84,-4.66 40.99,-4.82 82.46,-20.91 120.65,-45.56 z m -100.42,619.43 c -19.3,-26.34 -33.6,-45.28 -38.81,-50.84 -80.54,-86.07 -121.71,-95.35 -138.85,-93.23 -9.52,1.17 -16.66,6.23 -21.82,15.48 -5.45,9.77 -5.68,21.14 -0.66,32.87 6.94,16.2 35.26,57.02 148.19,86.2 18.3,4.73 35.61,7.81 51.95,9.52 z m 15.53,21.28 c -22.34,-1.16 -46.51,-4.72 -72.49,-11.45 -86.82,-22.42 -144.2,-57.12 -161.57,-97.67 -7.44,-17.4 -6.88,-35.33 1.59,-50.49 8.25,-14.8 20.99,-23.66 36.85,-25.59 37.43,-4.51 89.86,28.87 155.89,99.41 6.61,7.07 25.28,32 50.16,66.14 61.08,1.27 107.07,-17.07 137.33,-35.68 133.04,-81.81 128.02,-263.35 127,-283.78 -4.72,-96.33 -52.12,-188.7 -133.44,-260.07 -12.25,-10.77 -25.04,-20.65 -38.24,-29.7 -42.75,29.08 -89.89,48.1 -136.49,53.59 -28.26,3.34 -172.37,17.6 -235.08,-28.49 -23.42,-17.21 -50.94,-54.58 -38.8,-83.81 7.22,-17.36 28.61,-30.64 61.89,-38.36 77.96,-18.13 227,-4.58 348.16,72.91 39.99,-29.46 75.44,-68.4 101.54,-113.4 49.19,-84.8 58.03,-178.97 24.24,-258.38 -27.47,-64.55 -172.59,-213.1 -396.98,-120.98 -13.81,5.67 -23.9,17.07 -30.92,30.81 59.85,51.23 100.81,89.67 99.15,120.03 -0.39,7.14 -3.43,17.4 -15.66,25.67 -35.17,23.75 -60.34,18.53 -75.23,9.97 -32.05,-18.4 -43.75,-67.04 -41.11,-107.08 1.03,-15.71 3.96,-30.2 8.55,-43.03 -3.28,-2.8 -6.59,-5.6 -9.91,-8.43 -5.14,54.27 -20.27,112.31 -48.65,171.53 -49.6,103.52 -119.34,171.05 -208.15,201.87 98.36,37.43 155.54,98.96 175.45,143.99 0.86,1.95 83.11,199.58 -25.46,363.97 -18.03,27.31 -40.47,51.49 -64.9,72.08 53.03,28.83 90.54,80.56 109.12,151 32.41,122.81 0.79,284.92 -49.13,347.81 -115.94,146.08 -289.57,180.11 -378.96,120.24 -10.76,-7.21 -20.67,-16.16 -24.39,-19.52 -48.87,-44.02 -69.45,-95.64 -78.23,-117.69 -0.91,-2.28 -1.7,-4.27 -2.39,-5.93 -12.77,-30.49 -39.4,-60.95 -74.32,-86.74 -2.91,1.62 -5.61,3.09 -8.11,4.4 -102.37,53.81 -214.52,57.85 -268.04,34.3 -17.33,-7.61 -28.2,-18.1 -31.44,-30.32 -7.04,-26.58 3.44,-62.02 37.07,-78.33 49.99,-24.24 119.55,-22.66 190.89,4.31 29.03,10.97 56.37,25.35 80.6,41.92 44.69,-27.16 119.87,-86.09 154.16,-189.35 43.46,-130.87 18.97,-243.47 -9.22,-314.88 -24.26,-61.47 -73,-109.52 -140.96,-138.94 -88.54,-38.34 -197.99,-38.79 -292.75,-1.17 -8.75,3.46 -68.06,44.18 -115.55,106.64 5.75,9.29 10.66,19.07 14.73,29.34 25.27,63.76 9.09,126.55 0.39,160.29 -22.12,85.84 -43.62,84.85 -50.69,84.54 -29.19,-1.36 -42.92,-69.19 -44.99,-101.82 -4.16,-65.47 21.95,-124.73 56.05,-172.84 -31.49,-42.67 -85.04,-72.96 -159.83,-90.29 -7.57,-1.76 -20.28,-4.26 -36.64,-5.84 -26.33,65.22 -71.84,126.21 -96.98,144.91 -76.87,57.18 -148.01,61.31 -201.77,58.19 -2.58,13.29 -4.15,25.65 -5.54,36.61 -3.62,28.61 -6.25,49.28 -24.37,53.74 -17.97,4.48 -43.27,-13.66 -59.04,-33.82 -17.5,-22.35 -22.24,-45.22 -13.02,-62.73 11.48,-21.8 39.02,-19.3 73.88,-16.09 3.97,0.36 8.1,0.73 12.36,1.09 5.77,-22.82 14.97,-47.93 30.71,-72.99 30.74,-48.94 71.81,-74.46 89.35,-85.36 65.52,-40.69 133.5,-47.02 180.98,-44.57 6.23,-17.52 10.75,-35.01 12.68,-51.51 5.57,-47.42 -5.34,-123.25 -54.39,-180.89 -41.96,-49.34 -102.54,-76.09 -180.06,-79.51 -74.11,-3.28 -166.22,31 -231.51,78.06 8.5,12.97 14.91,25.39 19.74,36.51 31.34,72.12 20.79,141.32 -5.05,169.81 -24.27,26.76 -65.16,47.42 -93.08,32.99 -39.15,-20.22 -35.37,-100.16 -20.19,-150.47 10.08,-33.38 36.16,-65.39 70.84,-93.22 -42.66,-54.73 -127.72,-113.86 -296.32,-116.3 -26.79,-0.44 -261.28,2.48 -267.24,219.77 -4.06,148.39 111.86,305.25 253.14,342.53 4.79,1.27 9.59,2.45 14.36,3.57 25.43,-17.76 55.4,-34.44 90.69,-49.34 87.2,-36.82 185.35,-16.01 219.23,-0.17 11.92,5.58 18.4,11.21 20.39,17.7 1.32,4.36 1.38,11.14 -5.91,18.71 -29.9,31.06 -173.91,65.71 -319.97,34.56 -78.29,57.38 -108.25,125.06 -118.79,177.6 -19.2,95.7 15.19,193.01 57.29,235.98 52.4,53.46 203.66,136.03 336.77,49.97 130.64,-84.48 143.26,-135.9 163.43,-285.74 5.05,-37.44 26.5,-68.62 62.06,-90.17 67.99,-41.2 188.73,-45.27 287.09,-9.67 129.97,47.05 253.24,181.12 234.57,324.04 -16.97,129.95 -142.34,213.14 -156.58,222.2 -17.57,11.18 -37.03,21.03 -57.88,29.25 16.46,12.3 32.05,24.8 46.62,37.28 48.18,41.27 87.92,83.78 117.12,124.47 9.11,-12.93 18.61,-25.37 28.39,-37.09 42.05,-50.44 105.62,-126.67 216.87,-150.62 118.83,-25.58 278.57,13.78 354.08,138.46 11.81,19.51 20.69,39.65 26.98,60.12 33.93,-18.5 72.18,-27.48 114.58,-26.87 64.09,0.96 130.03,25.16 185.72,57.35 -1.45,-7.48 -2.72,-15.16 -3.78,-23.04 -12.72,-95.3 23.34,-204.77 98.95,-300.32 86.51,-109.35 210.11,-181.79 330.62,-193.8 25.31,-2.52 49.95,-2.93 73.74,-1.27 -29.06,-40.62 -59.08,-82.5 -83.85,-116.62 z M 7064.59,2252.98 c -2.64,40.04 10.16,76.4 31.11,88.43 5.3,3.04 11.08,4.56 17.34,4.56 10.88,0 23.16,-4.6 36.74,-13.76 5.82,-3.94 6.73,-7.52 6.88,-10.21 1.11,-20.35 -38.53,-57.53 -86.87,-99.16 -2.89,10.02 -4.57,20.39 -5.2,30.14 z m -48.52,-178.11 c -15.67,-75.38 -51.25,-133.41 -90.65,-160.08 -47.69,-32.27 -57.3,-25.76 -57.37,-25.65 -9.73,12.39 33.46,97.93 81.98,141.9 24.8,22.5 45.29,35.9 66.04,43.83 z m 100.62,10.93 c 126.68,-1.57 235.11,-117.76 262.92,-224.52 12.22,-46.88 49.37,-189.53 -33.49,-289 -61.5,-73.83 -139.79,-119.38 -195.08,-113.12 -28.66,3.2 -50.88,19.9 -66.05,49.62 -53.89,105.61 -140.16,177.96 -230.76,193.54 -9.73,1.68 -19.47,2.74 -29.23,3.18 -0.18,0.73 -0.34,1.45 -0.52,2.19 -26.52,113.79 7.82,246.04 56.34,308.16 39.43,50.48 92.79,98.49 143.72,142.15 -0.04,-21.1 -1.61,-41.42 -4.48,-60.77 -26.61,-8.04 -52.38,-23.19 -83.47,-51.36 -37.81,-34.29 -108.84,-137.8 -84.28,-169.08 16.35,-20.8 55.95,2.24 84.32,21.44 45.76,30.98 86.42,97.37 101.96,183.2 22.29,4.63 46.63,4.75 78.1,4.37 z m -144.85,-590.87 c 193.02,-93.17 174.8,-244.85 125.52,-355.68 -31.35,-70.52 -120.69,-137.11 -249.56,-127.07 -127.59,10 -256.65,143.45 -289.44,230.94 -8.19,21.88 -14.14,45.05 -17.95,68.71 25.92,17.02 49.05,37.07 70.28,57.47 90.84,87.29 129.74,200.26 133.88,212.85 5.31,16.18 12.17,54.08 17.31,97.01 15.94,3.93 31.85,6.08 47.69,6.47 24.76,-85.56 80.55,-151.26 162.27,-190.7 z m -434.37,-160.8 c -10.2,98.6 15.48,201.38 69.18,252.25 44.89,42.52 89.84,71.46 134.48,86.69 -4.22,-35.24 -9.71,-66.89 -15.56,-84.68 -3.98,-12.11 -41.38,-120.72 -128.74,-204.68 -18.13,-17.42 -37.71,-34.57 -59.36,-49.58 z M 5780.85,2565.1 c -5.56,32.44 -5.27,65.73 1.56,97.96 5.67,26.69 30.43,116.9 111.27,157.52 14.53,7.29 25.8,10.47 34.95,10.47 19.15,0 28.96,-13.95 39.73,-33.15 3.91,-6.95 -4.83,-42.69 -43.46,-97.48 -35.43,-50.26 -86.83,-103.33 -144.05,-135.32 z m 676.8,60.67 c -50.87,47.79 -85.55,104.9 -73.23,126.94 1.62,2.87 3.28,6.25 5.03,9.85 6.11,12.5 13.71,28.06 23.98,29.22 0.39,0.05 0.82,0.07 1.28,0.07 6.1,0 18.51,-4.49 39.38,-30.27 19.46,-24.05 19.14,-78.05 3.56,-135.81 z m 142.15,-59.63 c 19.01,4.18 38.97,6.54 59.84,6.8 15.05,0.15 29.74,-0.42 44.01,-1.85 -38.25,-6.92 -73.48,-7.59 -103.85,-4.95 z m 204.66,-860.63 c -13.4,-0.59 -26.82,-2.34 -40.24,-5.23 6.96,68.28 8.56,142.18 -7.21,159.94 -3.51,3.96 -8.1,6.08 -12.94,6.08 -1.1,0 -2.22,-0.11 -3.36,-0.33 -199.17,-40.24 -348.12,96.43 -392.21,252.26 -19.53,69.01 -11.46,129.56 -4.93,159.52 24.83,113.71 97.59,228.83 211.57,274.61 49.49,-10.23 117.6,-12.9 193.26,8.64 1.69,0.47 3.36,0.96 5.03,1.46 96.47,-24.39 171.31,-91.14 223.16,-199.36 29.67,-61.93 44.01,-122.97 47.24,-179.41 -55.23,-47.03 -114.97,-99.46 -158.77,-155.54 -50.38,-64.49 -88.5,-199.16 -60.6,-322.64 z m 28.52,1452.81 c -88.31,-34.09 -152.44,-37.89 -176.77,-10.24 -12.68,14.42 -18.49,25.83 -17.74,34.87 0.53,6.5 4.52,12.68 12.16,18.92 9,7.34 22.78,11.13 39.86,11.13 6.6,0 13.7,-0.57 21.2,-1.71 35.54,-5.43 79.9,-23.88 121.29,-52.97 z M 5957.13,2999.2 c -29.54,43.74 -51.44,96.32 -47.82,153.28 2.85,44.86 18.85,81.25 25.78,83.12 4.37,-0.97 17.61,-19.25 30.57,-69.57 8.7,-33.74 23.26,-90.22 0.39,-147.92 -2.58,-6.52 -5.56,-12.83 -8.92,-18.91 z m -189.09,-184.63 c -1.94,16.54 -6.16,33.72 -11.94,50.87 15,1.68 26.72,4 33.99,5.69 76.94,17.83 133.13,49.06 167.79,93.09 50.07,-63.69 110.66,-104.27 120.2,-108.06 99.6,-39.53 214.79,-38.98 308.08,1.41 72.94,31.58 125.36,83.44 151.62,149.96 29.41,74.49 54.93,191.95 9.59,328.52 -34.51,103.93 -108.04,165.34 -155.73,195.76 34.64,26.96 61.14,58.4 74.39,90.03 0.73,1.75 1.57,3.85 2.52,6.25 8.97,22.51 27.63,69.33 73.04,110.24 3.44,3.11 12.57,11.34 22.13,17.74 80.28,53.79 244.69,19.37 352.17,-116.05 40.57,-51.11 78.46,-205.19 45.46,-330.27 -18.27,-69.25 -54.23,-117.11 -106.95,-142.46 -46.93,35.21 -98.75,57.51 -139.69,63.76 -33.07,5.03 -59.56,0.32 -76.72,-13.68 -11.92,-9.71 -18.46,-20.73 -19.45,-32.77 -1.63,-19.64 12.14,-37.78 22.65,-49.73 40.58,-46.16 136.37,-20.61 209.58,8.98 0.31,0.12 0.64,0.25 0.96,0.38 25.63,-20.59 49.32,-45.34 68.04,-73.67 101.05,-153.02 24.67,-343.03 23.85,-344.88 -19.98,-45.2 -81.68,-108.72 -190.51,-142.42 -29.38,6.87 -60.72,10.01 -93.73,9.68 -38.25,-0.49 -73.57,-7.5 -105.84,-19.67 -30.16,6.81 -51.43,16.25 -60.41,22.87 -6.44,4.73 -12.75,9.71 -18.89,14.88 19.31,64.73 22.07,130.18 -4.6,163.14 -22.01,27.2 -41.15,39.47 -58.47,37.49 -21.17,-2.4 -31.87,-24.32 -39.69,-40.31 -1.58,-3.24 -3.06,-6.29 -4.51,-8.87 -21.52,-38.46 29.23,-108.63 84.29,-157.95 -9.44,-28.59 -22.43,-57.31 -38.44,-83.07 -96.18,-154.82 -276.39,-178.11 -296.63,-180.26 -51.3,-5.43 -146.75,-15.6 -231.03,49.35 -50.19,38.67 -85.14,94.32 -100.07,154.35 62.51,33.41 118.22,90.19 156.16,144.01 29.93,42.47 57.36,95.97 44.56,118.79 -17.28,30.78 -40.78,61.08 -101.1,30.76 -88.82,-44.63 -115.73,-142.35 -121.86,-171.23 -7.8,-36.75 -7.67,-74.79 -0.54,-111.63 -35.45,-16.55 -72.66,-24.36 -109.34,-18.13 -21.73,3.7 -42.93,5.64 -63.51,5.85 48.52,13.55 88.57,38.66 119.56,75.09 53.15,62.48 65.34,142.3 59.02,196.17 z m 376.06,-974.81 c 13.06,40.19 31.6,73.58 55.4,92.59 6.97,5.57 13.72,11.1 20.27,16.45 53.78,44.02 83.16,65.78 111.42,40.43 14.03,-12.6 19.47,-39.56 12.37,-61.38 -24.5,-75.28 -147.19,-90.02 -169.11,-90.02 -0.42,0 -0.81,0 -1.15,0.02 -9.99,0.3 -19.72,0.96 -29.2,1.91 z m 374.79,-517.65 c -27.22,-16.3 -57.59,-28.84 -92.13,-34.44 -29.27,22.63 -61.27,39.12 -91.38,54.63 -30.32,15.63 -58.96,30.39 -78.39,49.04 l -6.27,6.01 c -54.66,52.4 -79.6,76.3 -109.86,156.64 -25.71,68.29 -25.89,179.23 -2.53,266.26 11.1,-1.21 22.56,-2.03 34.35,-2.4 1.23,-0.24 157.69,4.84 189.91,103.81 8.29,25.49 4.75,61.99 -18.04,82.45 -42.36,38 -86.41,1.93 -137.45,-39.83 -6.48,-5.32 -13.17,-10.78 -20.08,-16.3 -27.46,-21.94 -48.52,-60.18 -62.93,-105.73 -92.12,13.71 -157.09,54.32 -183.99,71.13 -29.41,18.39 -53.46,49.41 -69.89,87.96 72.19,53.15 105.35,130.25 94.92,225.42 -6.67,60.85 -23.34,91.34 -49.68,89.54 -45.24,-2.47 -89.47,-110.94 -89.47,-190.09 0,-41.96 7.12,-82.17 20,-117.62 -33.46,-21.71 -71.34,-36.33 -107.3,-46.2 -140.34,-38.46 -316.03,21.54 -383.63,131.06 -59.73,96.78 -58.19,223.62 3.84,315.61 60.78,90.18 166.74,129.76 290.72,108.69 39.58,-6.75 79.39,1.15 117.2,18.15 16.59,-62.75 53.56,-120.69 106.14,-161.2 90.64,-69.85 195.15,-58.75 245.35,-53.39 21.23,2.24 210.31,26.7 311.51,189.59 14.82,23.85 27.79,51.37 37.79,79.7 4.58,-3.72 9.16,-7.25 13.67,-10.57 8.33,-6.13 23.08,-13.34 42.91,-19.64 -107.19,-53.9 -175.78,-166.78 -200.14,-278.38 -6.94,-31.78 -15.5,-96.03 5.22,-169.23 45.32,-160.17 205.58,-307.7 413.59,-266.78 9.11,-12.85 7.39,-84.48 0.69,-151.09 -50.29,-15.27 -100.65,-46.67 -150.64,-94.02 -59.57,-56.42 -87.43,-171.22 -74.01,-278.78 z m -28.76,-149.38 c 52.23,-130.96 34.42,-257.191 -50.17,-355.429 -77.87,-90.43 -240.27,-118.801 -340.74,-59.551 -135.03,79.672 -178.84,207.488 -130.24,379.94 8.71,30.89 22.87,64.36 40.35,95.96 89.49,22.71 164.75,62.97 180.49,95.49 25.36,-20.65 59.67,-38.53 109.07,-52.18 45.65,-12.6 86.05,-15.12 122.26,-10.6 27.98,-23.1 52.61,-52.61 68.98,-93.63 z m -596.92,63.52 c -112.67,-4.58 -268.08,31.33 -335.45,147.82 -65.53,113.31 -68.81,234.83 -8.77,325.05 58.65,88.14 169.77,135.66 311.85,135.66 29.16,0 59.62,-2.01 91.19,-6.07 95.67,-12.3 108.03,-123.03 119.98,-230.11 6.37,-56.99 12.38,-110.83 31.11,-147.74 4.27,-8.44 8.29,-16.79 12.23,-25 8.04,-16.7 15.95,-33.15 25.44,-48.97 -2.68,-0.63 -5.46,-1.35 -8.31,-2.12 -49.85,-13.61 -100.19,-69.38 -137.06,-134.19 -31.89,-7.57 -66.43,-12.87 -102.21,-14.33 z m 280.27,107.76 c -0.22,-1.14 -0.45,-2.34 -0.72,-3.59 -3.9,-18.54 -64.21,-57.57 -149.03,-82.35 33.4,53.06 75.23,96.81 114.02,107.4 5.57,1.52 10.51,2.68 14.8,3.49 6.16,-8.6 13.04,-16.94 20.93,-24.95 z m -327.5,782.2 c 0,82.46 45.27,168.74 70.56,170.12 0.15,0.01 0.29,0.01 0.43,0.01 9.95,0 22.47,-18.79 28.27,-71.77 10.77,-98.2 -27.57,-162.28 -82.36,-204.08 -10.9,31.96 -16.9,68.03 -16.9,105.72 z m -579.72,515.89 c -31.7,25.73 -55.02,54.4 -63.48,82.43 -15,49.68 -13.82,114.51 10.21,126.92 3.26,1.67 7.07,2.44 11.23,2.44 17.99,0 42.61,-14.28 57.87,-31.1 21.46,-23.66 28.14,-87.13 1.52,-148.41 -4.28,-9.86 -9.93,-20.82 -17.35,-32.28 z m 605.45,1539.55 c 7.09,6.53 17.59,9.38 28.81,9.38 13.31,0 27.63,-4.01 38.47,-10.58 20.1,-12.19 41.95,-45.22 31.93,-133.31 -0.26,-2.27 -0.43,-3.89 -0.49,-4.76 -1.66,-27.25 -14.3,-59.71 -35.96,-94.55 -61.32,96.6 -93.46,205.51 -62.76,233.82 z m 624.46,-174.26 c -72.8,99.94 -93.25,204.68 -85.8,296.96 0.88,-0.77 1.76,-1.55 2.63,-2.32 80.94,-72.32 161.18,-215.24 135.27,-347.64 -19.13,13.93 -36.52,31.62 -52.1,53 z m -171.41,375.58 c 71.82,62.23 100.07,137.63 117.47,184.05 11.97,31.97 48.83,146.64 20.22,280.05 -0.94,4.4 -1.95,8.71 -3.03,12.95 17.16,-21.46 33.63,-39.62 49.32,-56.93 52.8,-58.26 106.63,-104.87 151.03,-137.55 -46.79,-15.92 -98.01,-44.66 -152.1,-92.46 -46.06,-40.7 -95.72,-126.29 -112.52,-231.07 -22.07,15.97 -45.76,29.67 -70.39,40.96 z m 673.21,-116.75 c -27.49,18.2 -28.53,53.25 -29.2,76.44 -0.16,5.22 -0.3,9.74 -0.69,13.26 -1.91,17.13 1.86,44.79 14.5,77.85 15.7,-23.88 28.51,-50.78 37.26,-81.41 6.92,-24.16 7.48,-58.97 3.71,-96.36 -9.91,2.09 -18.44,5.5 -25.58,10.22 z m -291.13,391.1 c 49.31,9.46 91.85,4.24 125.18,-5.51 76.15,-22.26 137.87,-78.07 172.5,-133.86 -10.35,-15 -19.13,-29.82 -26.45,-44.18 -56.29,68.29 -134.86,109.58 -202.21,145 -18.11,9.52 -35.21,18.51 -50.83,27.48 -5.65,3.25 -11.74,6.94 -18.19,11.07 z m 298.21,-500.14 c -9.78,-35.68 -22.11,-66.93 -34.97,-85.75 -15.5,-22.67 -42.44,-49.14 -76.34,-73.75 24.04,70.84 61.63,113.95 62.12,114.5 10.63,11.97 22.68,22.26 35.46,33.15 4.55,3.88 9.15,7.8 13.73,11.85 z m -26.72,3.36 c -12.71,-10.85 -25.87,-22.07 -37.42,-35.08 -2.36,-2.64 -49.79,-56.86 -73.58,-145.66 -55.89,-35.21 -125.09,-63.03 -192.19,-64.03 -40.64,-0.62 -76.88,8.44 -108.95,26.95 32.03,142.45 -53.37,296.93 -139.87,374.22 -4.37,3.9 -8.82,7.7 -13.36,11.39 14.09,104.31 62.79,189.86 107.95,229.76 57.44,50.75 111.19,78.96 159.37,92.86 12.78,-8.75 24.48,-16.12 34.79,-22.04 15.95,-9.16 33.2,-18.24 51.48,-27.85 67.88,-35.68 147.57,-77.59 201.96,-147.63 -17.31,-40.21 -22.99,-75.57 -20.32,-99.71 0.35,-3.09 0.45,-7.06 0.58,-11.64 0.71,-23.98 2.02,-68.61 38.16,-92.53 9.68,-6.42 21.08,-10.91 34.24,-13.48 -1.93,-14.09 -4.41,-28.36 -7.34,-42.37 -11.05,-12.31 -23.32,-22.77 -35.5,-33.16 z m 60.75,197.32 c -10.76,37.63 -27.1,69.85 -47.12,97.85 6.42,13.59 14.27,27.83 23.73,42.41 6.17,-12.15 10.94,-24.11 14.19,-35.51 29.11,-101.94 30.33,-165.4 17.59,-209.09 -1.41,0.02 -2.79,0.05 -4.16,0.11 4.04,40.11 3.36,77.69 -4.23,104.23 z m -795.56,1083.49 c -10.52,42.73 -25.79,133.79 -9.93,263.51 60.91,498.22 158.46,582.82 211.19,588.9 23.13,2.64 51.07,-7.87 76.68,-28.92 33.17,-27.29 55.5,-65.88 58.27,-100.73 5.48,-69.13 -89.33,-138.16 -165.5,-193.63 -67.18,-48.92 -120.25,-87.56 -107.86,-123.44 9.97,-28.89 54.37,-32.03 101.37,-35.35 42.46,-2.99 90.57,-6.4 99.59,-29.76 9.73,-25.2 -28.42,-65.82 -65.32,-105.1 -47.93,-51.02 -97.5,-103.79 -80.9,-153.54 9.74,-29.2 37.68,-41.63 62.33,-52.59 23.14,-10.29 43.12,-19.19 46.89,-38.67 4.9,-25.38 -20.67,-49.7 -47.75,-75.44 -29.13,-27.7 -59.26,-56.34 -52.68,-91.08 5.31,-28.05 30.65,-37.47 57.47,-47.43 26.23,-9.75 55.97,-20.79 81.82,-49.88 39.56,-44.52 42.27,-101.14 44.67,-151.1 2.24,-46.89 4.36,-91.18 40.28,-110.18 28.58,-15.11 61.32,-4.08 126.55,17.87 41.82,14.08 78.27,32.54 130.02,65.84 55.17,35.49 93.38,65.45 121.27,87.32 21.48,16.83 45.94,35.94 50.5,32.96 5.23,-3.36 -1.88,-33.17 -7.61,-57.13 -4.68,-19.6 -10.51,-43.99 -15.1,-71.61 -18.96,-113.85 -18.44,-293.13 42.83,-316.34 35.4,-13.38 70.73,26.04 111.67,71.7 40,44.62 85.27,95.15 126.89,85.23 35.22,-8.46 53.23,-56.25 70.66,-102.46 0.11,-0.3 0.22,-0.58 0.33,-0.88 -67.1,-4.2 -137.17,-22.98 -202.16,-64.48 -57.95,-37.01 -101.29,-78.54 -132.69,-119.44 -37.54,57.47 -100.81,112.45 -179.66,135.51 -22.72,6.64 -49.38,11.35 -79.29,11.35 -22.99,0 -47.9,-2.78 -74.42,-9.6 -45.48,32.06 -103.43,80.95 -160.37,143.75 -77.24,85.22 -173.38,191.26 -280.04,624.84 z m 1256.24,-754.91 c -22.88,-27.49 -46.28,-50.34 -69.03,-47.59 -22.25,2.62 -36.67,29.17 -49.92,61.88 42.16,0.36 82.58,-5.34 118.95,-14.29 z m 109.84,71.6 c 14.43,-3.79 22.52,-22.66 31.07,-42.63 10.64,-24.83 22.7,-52.96 51.5,-59.25 25.59,-5.58 44.3,10.51 60.8,24.71 13.45,11.59 26.1,22.58 40.96,21.36 24.61,-1.95 38.19,-37.34 57,-86.33 17.84,-46.48 40.05,-104.33 81.88,-159.57 25.81,-34.08 55.53,-62.6 85.68,-85.62 -6.55,3.62 -12.16,6.5 -16.49,8.71 -49.41,25.3 -98.53,34.07 -145.08,34.07 -39.45,0 -77.07,-6.31 -111.39,-14.18 4.95,25.17 6.34,50.7 3.37,75.15 -11.2,92.4 -77.89,147.58 -99.84,165.74 -24.57,20.32 -65.06,41.52 -114.96,57.01 26.14,32.99 53.09,66.72 75.5,60.83 z m -30.29,-1490.33 c -61.46,44.13 -68.85,70.65 -64.17,78.51 2.99,5.03 11.91,8.16 25.66,8.16 21.09,0 53.57,-7.39 93.47,-26.73 63.34,-30.71 98.03,-46.1 136.2,-59.47 -67,-32.85 -144.91,-33.66 -191.16,-0.47 z m -2082,363.17 c 6.02,3.5 11.64,6.9 16.7,10.08 50.96,31.92 99.15,71.28 137.1,115.87 26.33,-1.89 52.03,-6.44 76.38,-13.27 -67.64,-46.39 -147.21,-88.01 -230.18,-112.68 z m -84.45,-18.66 c -13.28,-1.88 -26.56,-3.24 -39.82,-4.02 -5.57,18.6 7.51,54.82 50.74,86.48 60.71,44.45 131.65,63.11 200.19,63.11 0.46,0 0.92,0 1.39,0 -70.21,-76.5 -161.04,-126.35 -212.5,-145.57 z m -60.14,-4.77 c -15.08,-0.2 -30.1,0.34 -45.01,1.74 -3.36,0.31 -7.51,0.56 -12.35,0.85 -24.97,1.5 -66.77,4.02 -111.12,22.05 -16.55,6.72 -162.45,69.97 -186.47,218.35 -16.52,102.05 33.27,181.32 48.93,203.18 70.43,98.31 161.81,151.27 296.3,171.72 13.46,2.04 27.63,3.1 42.29,3.1 100.44,0 223.62,-49.5 293.34,-168.9 65.98,-113 19.49,-213.92 -36.4,-282.3 -78.09,3.5 -160.54,-15.37 -230.26,-66.43 -46.12,-33.77 -64.34,-75.06 -59.25,-103.36 z m 654.91,717.89 c -9.07,3.97 -17.69,8.49 -25.9,13.53 3.41,2.57 6.62,5.05 9.72,7.44 17.42,13.43 31.17,24.03 55.64,34.27 69.83,29.2 157.54,26.43 238.45,-2.99 -51.84,-37.17 -165.41,-101.52 -277.91,-52.25 z m -120.62,-20.24 c -64.75,-31.16 -131.74,-63.39 -206.43,-59.26 -117.49,6.51 -209.89,46.03 -290.78,124.37 -96.79,93.75 -144.74,195 -155.48,328.3 -7.03,87.27 21.43,201.09 100.53,244.81 43.54,24.05 111.63,48.5 175.82,48.5 12.08,0 24.04,-0.87 35.66,-2.77 91.49,-14.96 176.15,-34.69 285.83,-125.03 19.4,-15.98 37.26,-30.03 53.76,-42.38 -41.01,-75.67 -50.45,-162.49 -50.8,-224.28 -0.51,-90.15 34.42,-196.5 112.04,-258.59 -15.01,-9.97 -33.86,-21.01 -60.15,-33.67 z m 191.87,644.01 c 63,17.19 107.11,0.53 127.33,-20.78 14.38,-15.14 18.79,-34.13 12.43,-53.47 -5.91,-17.98 -47.12,-88.8 -104.73,-100.41 -7.91,-1.6 -15.04,-4.52 -21.93,-7.35 -28.11,-11.55 -62.12,-25.51 -179.6,59.78 33.48,54.14 85.72,100.21 166.5,122.23 z m 181.22,50.12 c -10.39,-9.93 -30.51,1.55 -45.56,12.91 -11.72,8.86 -13.47,14.78 -12.75,16.68 1.59,4.2 13.14,9.47 33.5,9.47 3.05,0 6.3,-0.12 9.75,-0.38 7.73,-0.58 16.32,-1.87 25.46,-4.02 -0.59,-15.28 -3.73,-28.29 -10.4,-34.66 z m -638.26,1234.26 c -269.63,-29.74 -403,62.05 -416.32,80.18 -12.94,17.6 -24.36,37.76 -24.39,37.76 -1.81,3.87 -3.51,7.36 -5.09,10.52 70.24,-45.23 127.97,-69.4 157.15,-70.87 10.95,-0.57 19.11,1.88 24.28,7.23 12.76,13.17 1.72,31.61 -14.97,59.51 -23.84,39.83 -59.87,100.01 -56.41,183.26 3.18,76.54 39.26,145.26 65.6,195.44 23.71,45.17 53.19,88.63 85.26,125.68 44.82,51.77 121.28,123.63 231.08,171.93 57.8,25.43 155.06,98.72 229.93,172.86 0.41,-3.07 0.78,-6.36 1.1,-9.23 2.37,-21.19 5.05,-45.21 19.57,-53.09 4.47,-2.44 11.9,-4.28 21.79,0.69 39.07,19.57 85.36,41.17 130.13,62.06 53.68,25.04 104.38,48.7 130.62,63.46 8.4,4.7 13.76,1.75 33.08,-13.08 37.63,-28.88 107.65,-82.66 306.12,-60.58 7.16,0.79 12.18,-0.02 13.74,-2.24 7.35,-10.39 -13.39,-53.28 -27.12,-81.66 -21.16,-43.76 -39.44,-81.55 -22.87,-99.38 13.11,-14.12 31.5,-10.42 54.82,-5.72 16.2,3.26 36.37,7.33 61.99,7.76 80.91,1.11 163.86,-32.62 167.07,-58.93 2.79,-22.94 -61.39,-51.03 -108.25,-71.54 -58.43,-25.57 -108.89,-47.66 -106.08,-77.8 3.84,-41 88.43,-49.86 237.61,-61.99 122.64,-9.98 272.65,-22.18 313.38,-67.6 -9.17,1.04 -21.25,2.58 -33.7,4.17 -90.86,11.62 -279.91,35.78 -436.35,17.81 -10.67,-1.23 -13.84,-6.55 -14.61,-10.79 -2.1,-11.54 10.16,-17.83 39.78,-33.04 14.24,-7.31 42.66,-21.91 49.34,-29.98 -3.91,-1.85 -15.17,-5.24 -46.14,-6.25 -78.06,-2.55 -348,-139.55 -386.03,-160.14 -78.71,-42.6 -153.05,-82.83 -243.86,-102.27 -88.33,-18.91 -157.48,-10.42 -207.96,-4.23 -50.77,6.24 -87.43,10.74 -106.8,-19.26 -16.86,-26.12 -4.95,-55.59 8.84,-89.7 0.09,-0.22 0.18,-0.44 0.27,-0.67 -49.12,-1.85 -93.2,-6.71 -125.6,-10.28 z m -726.89,413.63 c -33.61,42.58 -56.69,77.76 -77.05,108.79 -39.29,59.88 -67.68,103.15 -137.71,145.94 -139.21,85.05 -283.75,71.85 -338.14,66.86 -44.77,-4.09 -269.41,-29.97 -294.74,-138.56 -5.63,-24.17 0.81,-43.04 6.49,-59.69 5.82,-17.07 10.85,-31.82 3.19,-51.06 -10.52,-26.38 -34.73,-35.05 -71.39,-48.17 -25.05,-8.97 -56.22,-20.13 -90.43,-40.4 -36.37,-21.56 -77.41,-68.13 -159.18,-160.91 -27.19,-30.84 -48.79,-56.4 -66.15,-76.95 -53.13,-62.88 -69.17,-81.86 -103.38,-88.08 -47.52,-8.67 -99.88,13.43 -127,39.71 -11.37,11.02 -13.67,18.71 -13.29,21.23 1.62,10.83 41.81,23.87 71.15,33.39 50.16,16.27 107,34.72 126.8,70.8 12.83,23.39 12.47,38.6 12.08,54.71 -0.3,12.65 -0.61,25.73 5.58,45.96 20.84,68.1 82.28,103.47 136.48,134.68 51.75,29.8 100.65,57.95 106.09,109.6 3.62,34.36 -14.57,58.5 -29.2,77.9 -14.24,18.9 -22.73,31.25 -17.92,46.34 13.28,41.67 107.78,50.28 183.71,57.2 70.81,6.45 117.59,10.7 121.66,37.32 3.85,25.24 -37,43.81 -84.29,65.31 -24.35,11.06 -65.1,29.59 -66.72,38.14 10.7,22.91 217.78,23.02 368.98,23.09 0.08,0 0.17,0 0.26,0 9.33,0 18.38,-0.29 18.71,-0.29 l 3.14,-0.14 c 102.32,-4.69 199.56,-56.93 203.62,-59.14 60.24,-33.11 83.58,-62.53 102.33,-86.16 19.12,-24.1 35.63,-44.91 80.62,-56.36 25.21,-6.41 48.42,-7.18 68.9,-7.86 33.81,-1.13 60.51,-2.01 85.15,-25.62 10.71,-10.26 19.15,-24.61 35.97,-53.21 13.03,-22.15 18.54,-35.15 24.92,-50.2 5.3,-12.48 11.29,-26.62 22.49,-48.28 11.57,-22.38 18.84,-33.76 25.87,-44.76 7.06,-11.07 13.73,-21.52 24.42,-42.9 17.25,-34.52 27.07,-61.69 33.58,-79.7 23.03,-63.71 39.68,-109.75 42.63,-168.86 0.42,-8.38 0.89,-15.33 1.48,-21.26 -76.99,56.66 -163.47,134.98 -239.71,231.59 z M 8429.73,6364.3 c -277.75,82.14 -517.62,153.08 -716.89,161.19 -28.75,1.18 -57.63,1.73 -86.54,1.73 -130.09,0 -261.25,-11.19 -387.07,-27.69 -0.87,11.39 -1.09,23.07 -0.52,35.02 2.82,60.19 22.15,109 36.89,110.84 6,0.68 13.22,-10.66 20.19,-21.67 11.09,-17.52 24.88,-39.32 50.13,-43.08 57.55,-8.49 115.47,82.01 165.5,167.51 11.92,20.38 16.16,29.72 18.96,35.9 2.38,5.25 3.47,7.64 7.67,13.41 60.4,82.82 214.82,94.03 305.15,75.54 47.67,-9.75 67.27,-24.88 69.57,-34.88 3.5,-15.19 -27.18,-39.14 -49.6,-56.62 -27.48,-21.43 -49.19,-38.37 -41.05,-56.3 9.78,-21.53 54.48,-18.85 146.58,-11.29 84.68,6.97 190.01,15.6 231.34,-11.45 15.88,-10.39 29.11,-23.76 29.24,-23.89 24.87,-25.29 35.83,-52.33 43.06,-70.23 1.04,-2.55 2.01,-4.92 2.91,-7.09 9.92,-23.49 35.71,-52.36 87.13,-109.9 26.76,-29.96 68.49,-71.54 148.66,-151.06 -27.49,8.08 -54.6,16.11 -81.31,24.01 z m -1127.15,-75.44 c 29.9,-44.43 50.81,-70.85 71.02,-96.41 20.31,-25.67 39.49,-49.92 65.84,-90.23 3.18,-4.85 6.91,-10.3 11,-16.26 32.93,-48.07 88.05,-128.53 52.5,-193.87 -26.85,-49.31 -67.98,-55.65 -90.2,-55.01 -39.5,1.11 -77.67,24.22 -92.83,56.21 -14.97,31.61 -15.85,84.85 -16.87,146.51 -2.33,140.57 -5.57,336.78 -198.97,419.61 38.45,6.24 77.71,12.17 117.49,17.58 12.28,-85.98 57.22,-152.77 81.02,-188.13 z m -536.52,127.77 c -155.54,-31.23 -316.23,-63.49 -332.69,-39.15 16.51,20.92 164.4,101.31 437.86,101.31 3.49,0 6.99,-0.01 10.51,-0.04 52.2,-0.39 97.57,-5.15 136.98,-13.55 -90.7,-16.06 -175.9,-33.16 -252.66,-48.57 z m 4481.54,-160.81 c -1.6,5.26 -7.2,8.22 -12.5,6.59 -1131.8,-350.36 -2019.22,-128.12 -2683.73,66.06 -2.39,2.36 -4.81,4.77 -7.26,7.2 l -0.03,2.04 -4.09,2.05 c -89.62,88.87 -134.71,133.59 -162.72,164.95 -49.92,55.86 -74.98,83.89 -83.59,104.31 -0.88,2.09 -1.8,4.38 -2.79,6.82 -7.84,19.37 -19.69,48.63 -47.35,76.76 -0.6,0.6 -14.82,14.98 -32.54,26.59 -47.08,30.83 -151.67,22.24 -243.93,14.65 -49.46,-4.05 -116.94,-9.61 -126.47,-0.56 1.69,6.56 22.37,22.7 34.88,32.46 29.6,23.09 63.14,49.26 56.79,76.87 -6.86,29.75 -56.23,44.09 -85.05,49.98 -95.59,19.55 -259.71,6.63 -325.34,-83.35 -5.41,-7.42 -7.21,-11.41 -9.71,-16.93 -2.64,-5.81 -6.61,-14.58 -18.02,-34.06 -31.35,-53.58 -96.53,-165.19 -145.29,-157.82 -16.19,2.4 -26.35,18.46 -36.17,33.98 -10.31,16.28 -20.96,33.21 -39.56,30.82 -35.65,-4.43 -52.07,-80.02 -54.4,-129.74 -0.62,-13.21 -0.36,-26.09 0.63,-38.61 -52.22,-7.1 -103.47,-15.07 -153.27,-23.48 -49.98,15.67 -110.61,24.8 -184.2,25.35 -3.41,0.03 -6.79,0.04 -10.17,0.04 -264.36,0 -430.06,-77.4 -454.94,-110.25 -3.76,-4.97 -5,-9.8 -3.68,-14.37 12.8,-44.25 118.66,-24.97 356.9,22.85 88.54,17.77 188.35,37.81 294.85,55.88 212.5,-69.27 215.72,-263.81 218.2,-413.43 1.05,-63.98 1.97,-119.23 18.8,-154.75 18.24,-38.51 63.61,-66.32 110.34,-67.63 45.89,-1.25 84.99,22.59 108.31,65.44 41.41,76.1 -18.04,162.88 -53.57,214.73 -3.99,5.83 -7.64,11.16 -10.75,15.91 -26.84,41.06 -46.3,65.65 -66.89,91.68 -19.98,25.27 -40.64,51.39 -70.12,95.17 -22.84,33.95 -66.01,98.1 -77.75,179.62 152.97,20.07 313.74,32.28 470.6,25.87 196.8,-8.01 435.57,-78.63 712.03,-160.39 38.13,-11.28 77.09,-22.81 116.81,-34.42 33.48,-33.41 64.3,-65.75 65.49,-81.77 1.66,-22.33 -62.5,-47.14 -114.06,-67.07 -67.85,-26.24 -131.93,-51.02 -132.45,-89.35 -0.31,-23.33 21.32,-34.09 60.59,-53.65 32.3,-16.08 81.12,-40.38 144.55,-84.26 52.75,-36.47 100.1,-75.46 144.77,-119.2 l 5.69,-5.61 c 81.05,-80.77 154.74,-176.87 138.73,-204.27 -7.27,-12.41 -39.15,-8.83 -64.79,-5.94 -32.04,3.6 -62.31,7.03 -72.44,-13.12 -12.21,-24.24 19.13,-55.37 58.83,-94.78 39.2,-38.92 87.99,-87.36 77.53,-119.42 -5.03,-15.39 -22.66,-20.92 -43.07,-27.32 -24.67,-7.75 -52.64,-16.53 -66.06,-45.62 -15.04,-32.62 1.14,-62.19 21.64,-99.62 18.72,-34.19 42.01,-76.75 50.58,-137.29 11.88,-84.03 0.85,-140.06 -32.8,-166.55 -47.55,-37.43 -129.2,-5.46 -145.08,1.34 -40.09,17.14 -57.71,39.03 -84.37,72.17 -19.86,24.68 -44.59,55.41 -86.37,92.66 -67.3,60.02 -136.36,116.66 -175.97,93.71 -48.29,-27.98 -31.65,-161.66 14.32,-253.7 19.54,-39.13 42.81,-68.17 61.5,-91.51 22.58,-28.2 35.09,-44.76 29.58,-57.3 -5.35,-12.19 -25.18,-15.33 -46.16,-18.65 -27.41,-4.34 -58.46,-9.26 -72.27,-36.35 -11.61,-22.78 -2.15,-43.76 7,-64.05 8.56,-18.95 16.64,-36.85 10.56,-58.01 -7.37,-25.64 -30.2,-36.48 -56.63,-49.02 -26.9,-12.77 -57.4,-27.24 -70.86,-61.09 -16.19,-40.69 3.38,-80.59 17.67,-109.72 6.47,-13.19 15.33,-31.25 11.64,-35.26 -0.6,-0.66 -4.36,-3.97 -17.87,-3.3 -51.08,2.42 -159.96,56.11 -231.53,150.62 -40.12,52.98 -61.76,109.36 -79.15,154.67 -21.43,55.82 -36.91,96.15 -74.09,99.09 -23.15,1.9 -40.37,-13.02 -55.59,-26.13 -14.83,-12.77 -27.65,-23.76 -43.49,-20.33 -18.73,4.09 -27.79,25.21 -37.38,47.58 -10.07,23.52 -20.49,47.83 -44.37,54.11 -35.17,9.23 -65.22,-28.6 -96.98,-68.67 -1.46,-1.85 -2.92,-3.7 -4.39,-5.54 -42.27,11.16 -90,17.97 -140.11,17.09 -0.89,2.35 -1.77,4.72 -2.66,7.08 -19.27,51.1 -39.19,103.92 -84.71,114.86 -53.16,12.79 -102.71,-42.54 -146.45,-91.32 -33.01,-36.81 -67.17,-74.85 -89.69,-66.35 -41.96,15.88 -50.68,171.28 -30.2,294.35 4.48,26.93 10.22,50.94 14.84,70.25 10.06,42.14 16.14,67.58 -1.06,78.6 -16.57,10.64 -34.47,-3.36 -73.62,-34.05 -27.59,-21.63 -65.37,-51.25 -119.76,-86.24 -50.24,-32.34 -85.46,-50.2 -125.58,-63.7 -59.83,-20.15 -89.86,-30.25 -110.81,-19.15 -25.84,13.66 -27.53,48.88 -29.67,93.46 -2.42,50.62 -5.44,113.62 -49.69,163.42 -29.16,32.82 -62.78,45.31 -89.8,55.35 -27.32,10.15 -41.71,16.2 -44.79,32.4 -4.55,24.04 20.4,47.75 46.81,72.86 29.78,28.32 60.58,57.6 53.6,93.74 -5.74,29.72 -32.51,41.63 -58.4,53.14 -22.9,10.19 -44.53,19.81 -51.48,40.64 -12.81,38.44 34.64,88.95 76.5,133.53 43.03,45.8 83.66,89.06 69.41,126 -13.6,35.21 -66.08,38.92 -116.84,42.51 -36.66,2.58 -78.22,5.52 -83.88,21.91 -7.56,21.91 47.49,61.99 100.73,100.75 84.38,61.45 180.04,131.09 173.67,211.38 -3.19,40.07 -28.29,83.98 -65.51,114.6 -29.76,24.47 -63.13,36.62 -91.67,33.34 -104.06,-12 -181.03,-216.01 -228.74,-606.34 -16.26,-132.89 -0.5,-226.66 10.35,-270.72 50.09,-203.64 98.07,-336.04 142.97,-428.14 -25.36,20.01 -52.2,32.98 -76.63,40.66 -1.54,30.42 -10.6,62.1 -21.04,77.31 -37.71,54.95 -59.9,94.73 -74.58,121.06 -15.47,27.75 -23.24,41.69 -34.4,47.99 -19.9,11.23 -33.9,7.27 -42.15,1.94 -35.98,-23.25 -30.6,-114.9 -28.09,-142.44 1.87,-20.55 6.79,-41.9 11.56,-62.55 6.41,-27.81 13.05,-56.56 7.02,-67.2 -7.54,-13.31 -19.06,-22.51 -32.45,-25.9 -14.05,-3.58 -28.96,-0.76 -43.13,8.11 -45.37,28.4 -37.71,163.89 -17.37,271.29 11.78,62.18 24.94,95.27 38.88,130.31 10.42,26.19 21.19,53.26 31.89,93.66 31.62,119.34 103.46,499.15 42.46,601.78 -71.56,120.44 -229.73,142.39 -360.28,139.92 -1.03,2.58 -2.05,5.11 -3.05,7.57 -13.93,34.46 -21.29,54.76 -10.58,71.35 12.04,18.63 36.92,16.48 87.56,10.26 51.9,-6.37 122.99,-15.1 214.58,4.52 93.62,20.05 169.19,60.94 249.19,104.24 58.21,31.5 309.76,155.54 377.17,157.74 44.5,1.45 63.06,7.51 66.22,21.6 3.97,17.66 -20.38,31.58 -60.94,52.41 -4.74,2.44 -10.2,5.24 -15.19,7.92 150.61,14.23 327.88,-8.43 414.7,-19.52 56.18,-7.19 57.22,-7.32 61.95,-1.42 l 3.56,4.65 -1.9,5.27 c -24.8,69.13 -184.6,82.13 -339.13,94.69 -91.52,7.45 -216.86,17.64 -219.31,43.92 -1.47,15.75 53.81,39.95 94.17,57.61 64.12,28.07 124.69,54.57 120.08,92.29 -5.37,44.01 -106.51,77.82 -187.24,76.51 -27.46,-0.46 -48.62,-4.73 -65.62,-8.16 -20.74,-4.18 -30.96,-5.94 -36.21,-0.27 -7.27,7.82 13.7,51.16 26.23,77.06 21.25,43.94 39.61,81.89 25.45,101.92 -6.16,8.7 -17.04,12.28 -32.29,10.56 -190.42,-21.14 -256.33,29.41 -291.73,56.57 -18.41,14.13 -34.32,26.32 -55.06,14.66 -25.59,-14.4 -75.95,-37.9 -129.28,-62.78 -44.89,-20.95 -91.31,-42.61 -130.62,-62.3 -2.02,-1.02 -3.1,-1.06 -3.27,-1.01 -5.26,1.91 -8.28,28.89 -9.27,37.75 -2.08,18.68 -3.34,29.96 -12.85,33.25 -2.31,0.79 -8.28,1.98 -14.33,-4.15 -73,-73.99 -174.81,-151.58 -231.77,-176.64 -113.21,-49.8 -191.99,-123.83 -238.15,-177.15 -33.06,-38.2 -63.44,-82.97 -87.85,-129.47 -27.22,-51.86 -64.5,-122.88 -67.87,-203.91 -3.71,-89.22 35.69,-155.04 59.22,-194.36 8.31,-13.87 18.64,-31.14 17.78,-35.33 -0.02,-0.02 -2.16,-1.72 -10.41,-1.06 -30.54,2.48 -96.42,33.04 -174.93,87.81 -2.4,8.18 -3.61,18.72 -4.61,38.81 -3.11,62.11 -20.18,109.32 -43.81,174.71 -6.66,18.41 -16.72,46.23 -34.49,81.8 -11.16,22.32 -18.1,33.2 -25.46,44.72 -6.78,10.63 -13.8,21.62 -24.95,43.19 -10.85,20.97 -16.69,34.75 -21.84,46.9 -6.66,15.7 -12.4,29.25 -26.11,52.55 -17.75,30.18 -26.66,45.32 -39.37,57.5 -30.16,28.89 -63.26,29.99 -98.32,31.16 -20.41,0.68 -41.52,1.38 -64.63,7.26 -38.45,9.78 -50.96,25.54 -69.88,49.4 -19.87,25.04 -44.6,56.21 -108.43,91.29 -4.25,2.31 -105.41,56.66 -212.28,61.56 l -3.35,0.14 c -0.41,0.02 -9.74,0 -19.68,0.31 -277.13,-0.13 -382.43,-3.57 -388.63,-39.51 -3.9,-22.66 32.29,-39.11 78.1,-59.94 22.26,-10.11 74.36,-33.79 72.8,-44.07 -1.71,-11.13 -68.06,-17.18 -103.7,-20.43 -86.08,-7.84 -183.65,-16.73 -200.95,-71.03 -8.2,-25.72 6.64,-45.41 21,-64.46 13.8,-18.31 28.08,-37.25 25.28,-63.76 -4.37,-41.51 -46.92,-66.01 -96.18,-94.37 -57.41,-33.06 -122.47,-70.52 -145.62,-146.15 -7.14,-23.33 -6.78,-38.72 -6.45,-52.3 0.36,-15.06 0.62,-25.93 -9.63,-44.61 -15.98,-29.13 -71.12,-47.02 -115.43,-61.4 -45.43,-14.73 -81.31,-26.37 -84.76,-49.46 -2.16,-14.42 9.23,-28.92 19.15,-38.55 30.79,-29.82 90.28,-54.89 144.5,-45.02 41.28,7.51 61.38,31.29 115.08,94.86 17.3,20.47 38.82,45.95 65.87,76.63 80.38,91.2 120.73,136.98 154.38,156.92 32.55,19.3 61.46,29.65 86.97,38.78 38.76,13.87 69.37,24.83 83.23,59.6 10.4,26.1 3.37,46.73 -2.84,64.92 -5.28,15.48 -10.27,30.1 -5.94,48.69 22.68,97.21 251.11,120.81 277.08,123.18 52.61,4.8 192.34,17.59 325.89,-64.01 66.21,-40.45 92.15,-79.99 131.42,-139.84 20.59,-31.38 43.92,-66.94 78.07,-110.21 84.9,-107.59 179.75,-191.5 262.21,-249.48 2.08,-4.96 4.68,-9.84 7.97,-15.83 3.58,-6.49 8.02,-14.57 13.93,-27.15 0.5,-0.88 12.3,-21.75 26.04,-40.45 15.23,-20.72 152.08,-119.43 434.63,-88.22 33.5,3.7 79.84,8.81 131.23,10.42 13.68,-35.99 26.04,-79.68 16.54,-135.83 -5.83,-34.5 -14.65,-86.64 -52.65,-113.83 -36.15,-25.86 -78.22,-12.67 -131.5,4.03 -56.22,17.64 -126.21,39.57 -213.77,22.29 -30.13,-5.94 -110.16,-21.73 -165.09,-89.53 -68.9,-85.04 -53.88,-196.11 -47.64,-228.13 9.05,-46.42 25.5,-71.36 52.75,-112.67 9.7,-14.71 20.69,-31.38 33.4,-52.06 89.54,-145.74 146.36,-285.82 124.09,-305.92 -6.6,-5.92 -27.32,6.14 -49.26,18.94 -40.92,23.86 -96.97,56.52 -167.46,46.94 -80.21,-10.93 -160.07,-75.28 -194.19,-156.49 -37.73,-89.79 -7.68,-193.58 14.26,-269.36 10.47,-36.19 21.31,-73.61 14.54,-83.15 -0.4,-0.57 -1.34,-1.89 -5.46,-2.12 -70.82,-3.91 -73.59,-4.06 -95.12,-25.89 -39.81,-40.35 4.73,-110.5 44.03,-172.39 20.62,-32.47 46.28,-72.89 39.95,-85.05 -2.04,-3.92 -10.18,-4.85 -14.85,-5.06 -33.61,-1.51 -80.48,-20.84 -101.15,-53.71 -35.27,-56.09 -22.18,-137 -12.62,-196.08 3.81,-23.56 8.55,-52.88 5.52,-57.85 -23.84,-12.65 -31.45,-47.05 -30.65,-65.75 0.72,-16.88 6.06,-41.35 12.8,-72.33 4.88,-22.41 10.41,-47.81 15.26,-75.39 -0.88,-1.32 -6.03,-3.61 -9.44,-5.13 -12.7,-5.65 -31.89,-14.2 -38.93,-41.49 -14.06,-54.54 -16.25,-92.83 -17.7,-118.18 -0.51,-9 -1.05,-18.26 -2.08,-22.89 -18.29,12.4 -69.9,112.78 -99.34,274.98 -29,159.74 -55.73,184.18 -75.77,187.63 -14.77,2.54 -28.73,-7.56 -41.57,-30 -0.68,-1.18 -1.26,-1.99 -1.7,-2.54 -10.76,9.35 -28.83,71.02 -31.87,134.66 -10.47,219.23 -57.04,359.79 -78.03,370.56 -3.98,2.05 -8.49,1.88 -12.08,-0.44 -6.35,-4.11 -6.8,-12.36 -6.4,-19.88 7.48,-141.48 -26.04,-286.97 -67.66,-293.72 -14.62,-2.43 -29.63,14.11 -44.18,30.04 -17.53,19.18 -35.66,38.99 -58.74,32.32 -45.22,-13.13 -54.02,-54.17 -73.33,-144.09 l -5.56,-25.78 c -0.06,-0.26 -0.56,-2.5 -1.24,-2.71 -0.67,-0.22 -16.7,-4.31 -78.83,53.36 -54.34,50.44 -73.17,128.97 -94.97,219.89 -5.99,24.99 -12.19,50.84 -19.36,76.83 -1.84,6.68 -6.15,22.31 -18.61,22.62 -14.38,0.3 -21.19,-18.43 -34.06,-57.53 -5.82,-17.66 -15.55,-47.21 -21.15,-51.14 -1.04,-0.5 -2.59,-0.18 -4.65,0.92 -18.22,9.77 -51.39,68.71 -68.07,191.09 -4.47,32.8 -2.98,61.78 -1.66,87.36 2.17,41.97 3.88,75.11 -23.03,97.6 -36.26,30.3 -63.83,27.3 -113.91,13.92 -9.57,-2.56 -17.51,-1.71 -24.27,2.63 -24.35,15.58 -34.35,73.55 -44.01,129.6 -12.18,70.58 -24.77,143.57 -68.62,163.45 -66.72,30.26 -147.1,4.78 -232.4,-73.68 -0.83,-0.76 -1.38,-1.08 -1.48,-1.22 -0.81,0.51 -4.39,3.27 -8.68,14.92 -18.76,51.03 -22.57,199.14 27.48,288.01 31.51,55.94 73.31,90.03 110.2,120.11 41.35,33.72 77.07,62.84 73.94,109.79 -2.46,36.96 -32.75,66.49 -54.87,88.04 -9.21,8.98 -23.12,22.54 -23.19,26.77 0,0 0.27,0.44 1.35,1.16 22.7,15.25 70.03,37.07 218.35,50.46 95.61,8.63 192.19,21.36 230.94,72.9 28.92,38.48 37.39,84.5 23.82,129.6 -18.58,61.77 -75.43,112.36 -160.09,142.47 -228.8,81.37 -367.97,83.5 -670.09,48.64 -274.38,-31.68 -490,-91.11 -698.52,-148.58 -450.61,-124.21 -839.77,-231.47 -1638.227,-0.65 -5.312,1.51 -10.851,-1.54 -12.39,-6.83 -1.532,-5.31 1.531,-10.85 6.832,-12.39 803.885,-232.37 1195.565,-124.42 1649.105,0.59 207.78,57.27 422.64,116.49 695.49,147.99 298.64,34.47 436.05,32.43 661.1,-47.62 78.5,-27.91 130.94,-73.87 147.64,-129.38 11.69,-38.85 4.35,-78.56 -20.66,-111.82 -33.82,-44.98 -129.61,-57.14 -216.75,-65 -151.18,-13.65 -201.11,-35.91 -227.71,-53.78 -7.56,-5.08 -9.61,-11.28 -10,-15.59 -1.25,-13.74 11.45,-26.12 29.04,-43.26 20.9,-20.37 46.93,-45.73 48.87,-75.05 2.44,-36.65 -26.52,-60.27 -66.62,-92.96 -36.36,-29.65 -81.62,-66.56 -114.98,-125.79 -58.13,-103.2 -52.23,-298.01 -14.24,-328.12 8.7,-6.89 19.12,-6.19 27.87,1.87 55.05,50.62 136.24,103.87 210.62,70.18 34.19,-15.5 46.4,-86.23 57.16,-148.63 10.88,-63.1 21.16,-122.71 52.94,-143.05 11.59,-7.42 25.12,-9.15 40.21,-5.1 46.19,12.36 66.43,14.68 95.93,-9.95 19.24,-16.08 17.83,-43.4 15.88,-81.22 -1.37,-26.45 -2.91,-56.44 1.82,-91.1 14.65,-107.46 45.43,-188.32 78.44,-206.01 9.99,-5.36 17.92,-3.65 22.82,-1.28 12.13,5.88 19.84,27.73 31.41,62.88 3.95,12 9.4,28.53 13.8,37.93 0.19,-0.64 0.39,-1.34 0.6,-2.09 7.08,-25.67 13.24,-51.34 19.19,-76.17 21.62,-90.17 42.04,-175.33 100.99,-230.05 63.84,-59.25 86.65,-61.31 98.24,-57.63 4.41,1.38 12.18,5.5 14.8,17.54 l 5.57,25.84 c 18.64,86.81 25.61,119.29 59.36,129.08 11.07,3.24 24.37,-11.26 38.39,-26.61 17.3,-18.92 36.82,-40.38 62.16,-36.28 61.67,10.01 88,169.78 85.24,292.82 18.48,-47.56 47.72,-162.67 55.74,-330.55 1.84,-38.45 16.67,-146.36 48.18,-153.94 5.04,-1.22 14.7,-1.16 22.73,12.84 7.77,13.58 15.62,21.06 20.82,20.22 6.87,-1.18 31.45,-17.03 59.48,-171.5 28.8,-158.64 87.99,-297.75 123.46,-292.32 15.3,2.42 16.22,18.43 17.6,42.68 1.41,24.56 3.53,61.68 17.11,114.31 4.63,17.95 16.36,23.17 27.7,28.22 9.47,4.22 23.79,10.59 20.85,27.48 -4.77,27.34 -10.34,52.96 -15.27,75.57 -6.28,28.85 -11.7,53.77 -12.36,68.93 -0.64,15 5.96,39.75 20.04,47.22 16.19,8.6 11.92,34.99 4.85,78.71 -9.05,55.94 -21.45,132.54 9.82,182.25 18.1,28.78 60.67,43.27 85.11,44.36 15.94,0.72 26.6,6.04 31.69,15.82 11.66,22.38 -11.49,58.84 -40.8,105 -33.56,52.84 -75.31,118.61 -46.69,147.62 16.11,16.34 16.11,16.34 81.99,19.97 11.36,0.63 17.52,6.06 20.67,10.52 12.35,17.41 2.8,50.38 -11.64,100.28 -21.11,72.92 -50.02,172.78 -15.03,256.05 31.51,75.01 104.9,134.4 178.45,144.42 63.7,8.68 116.28,-22 154.68,-44.4 30.89,-18.02 55.31,-32.23 72.74,-16.51 51.93,46.85 -102.65,302.27 -120.44,331.23 -12.88,20.97 -23.97,37.78 -33.76,52.61 -26.77,40.59 -41.52,62.95 -49.81,105.49 -5.82,29.86 -19.9,133.4 43.55,211.71 50.37,62.17 122.58,76.42 153.42,82.5 82.58,16.28 147.04,-3.92 203.92,-21.75 56.26,-17.64 104.87,-32.88 149.12,-1.21 44.7,31.98 54.73,91.31 60.73,126.76 9.69,57.28 -1.89,103.24 -15.1,139.61 124.15,1.37 270.23,-20.52 335.44,-130.23 54.57,-91.83 -8.94,-451.81 -44.61,-586.45 -10.4,-39.24 -20.95,-65.75 -31.15,-91.39 -14.3,-35.95 -27.81,-69.91 -39.93,-133.98 -14.03,-74.04 -39.53,-250.7 26.41,-291.96 18.63,-11.67 39.46,-15.43 58.64,-10.55 18.73,4.75 34.7,17.33 44.94,35.43 9.87,17.42 3.01,47.14 -4.93,81.55 -4.62,20 -9.38,40.68 -11.13,59.88 -5.57,61.03 2.44,113.11 19.03,123.83 1.94,1.26 7.88,5.09 21.46,-2.56 6.26,-3.54 14.42,-18.18 26.76,-40.32 14.87,-26.65 37.33,-66.92 75.57,-122.64 8.26,-12.04 14.9,-36.73 16.99,-60.61 -8.33,1.75 -16.19,2.84 -23.38,3.39 -33.5,2.51 -57.31,-5.7 -63.45,-21.98 -3.35,-8.89 -2.71,-22.98 19.41,-39.69 38.47,-29.08 60.09,-22.25 71.43,-11.42 9.91,9.47 14.84,25.38 16.29,43.4 57.92,-20.02 128.58,-72.86 152.69,-185.3 27.47,-128.09 -7.91,-238.15 -19.4,-268.84 -17.3,-46.15 -45.78,-122.16 -119.36,-182.25 -88.8,35.18 -187.07,39.74 -264.76,7.25 -26.9,-11.25 -42.3,-23.13 -60.14,-36.88 -4.75,-3.66 -9.65,-7.44 -14.97,-11.37 -75.67,57.22 -109.64,159.73 -109.15,246.47 0.33,58.53 9.13,140.67 47.28,212.28 125.53,-90.38 164.78,-74.26 197.18,-60.93 6.3,2.58 12.25,5.02 18.27,6.24 66.53,13.41 111.71,89.18 119.8,113.78 8.63,26.27 2.47,53.05 -16.94,73.48 -30.88,32.53 -87.26,42.62 -147.09,26.31 -86.2,-23.5 -141.91,-72.26 -177.6,-129.42 -15.64,11.81 -32.64,25.23 -51.15,40.47 -113.38,93.38 -204.39,114.46 -295.31,129.33 -78.36,12.81 -169.85,-17.83 -224.38,-47.97 -86.86,-48 -118.32,-170.45 -110.8,-263.91 11.17,-138.5 60.98,-243.69 161.51,-341.06 83.38,-80.76 182.68,-123.28 303.58,-129.98 79.78,-4.44 149.19,28.94 216.22,61.21 30.75,14.8 52.08,27.78 68.63,39.18 11.01,-7.3 22.76,-13.76 35.28,-19.24 129.44,-56.69 257.96,24.07 307.24,61.43 0.2,0.15 0.4,0.3 0.59,0.46 29.93,-12.9 58.6,-29.5 84.64,-49.54 -11.1,-99.82 8.44,-214.62 87.93,-323.75 18.7,-25.67 39.8,-46.44 63.21,-62.24 -5.9,-20.65 -14.58,-40.91 -26.44,-60.5 -70.67,-116.66 -220.86,-153.35 -332.75,-129.27 -104.52,22.5 -165.44,95.54 -205.74,143.89 -11.11,13.32 -21.7,27.4 -31.66,41.91 26.45,40.65 41.77,78.96 43.78,111.75 0.04,0.68 0.19,1.95 0.39,3.72 11.21,98.6 -16.33,137.44 -41.42,152.67 -26.65,16.18 -68.07,20.14 -91.22,-1.2 -43.06,-39.69 -2.75,-164.4 64.3,-266.77 -28.68,-41.28 -69.04,-85.12 -118.04,-127.09 -17.37,-14.87 -36.22,-29.78 -56.28,-44.36 -25.93,8.39 -53.55,14.31 -82.02,17.3 65.32,85.77 91.43,188.63 29.79,294.19 -84.6,144.88 -243.76,192.49 -355.9,175.49 -140.26,-21.32 -235.73,-76.78 -309.56,-179.85 -16.78,-23.43 -70.16,-108.42 -52.42,-218.02 25.77,-159.16 181.07,-226.53 198.69,-233.69 47.4,-19.25 92.96,-22 117.45,-23.47 4.58,-0.28 8.52,-0.51 11.69,-0.81 18.83,-1.76 37.8,-2.24 56.81,-1.56 10.47,-7.56 32.09,-3.71 56.77,5.31 120.03,17.9 238.39,76.5 332.06,142.94 24.15,-8.58 46.58,-19.42 66.45,-32.06 13.44,-8.55 131.69,-86.99 147.49,-207.92 17.14,-131.19 -101.66,-259.24 -221.54,-302.64 -93.15,-33.72 -206.66,-30.37 -269.93,7.97 -30.63,18.56 -48.33,44.04 -52.59,75.74 -21,155.94 -39,213.6 -172.41,299.85 -143.47,92.75 -305.78,4.51 -361.9,-52.76 -45.7,-46.64 -83.17,-151.47 -62.62,-253.92 10.68,-53.23 39.8,-120.93 113.28,-179.67 -149.03,-40.05 -271.09,-205.54 -266.8,-362.09 5.27,-192.07 183.49,-240.63 287.52,-239.23 176.58,2.56 266.51,65.62 312,124.21 65.86,-47.11 155.37,-79.65 227.02,-81.69 -63.91,-17.76 -117.48,-55.63 -155.16,-111.51 -66.34,-98.39 -68.05,-233.94 -4.27,-337.3 71.85,-116.42 257.72,-180.43 405.94,-139.83 42.29,11.6 78.91,27.32 109.54,46.8 18.04,-40.67 44.17,-73.6 76,-93.48 27.69,-17.32 94.23,-58.91 188.97,-73.57 -24.04,-90.85 -23.44,-203.94 3.67,-275.92 31.85,-84.59 59.55,-111.13 114.73,-164.03 l 6.26,-6.01 c 21.53,-20.66 51.43,-36.06 83.08,-52.37 23.06,-11.88 47.29,-24.36 70.32,-39.88 -28.1,-1.11 -58.7,2.29 -92.32,11.59 -51.7,14.28 -85.38,33.09 -109.54,55.17 0.96,11.53 -0.36,23.65 -8.57,31.39 -6.02,5.69 -13.93,7.68 -23.82,7.41 -10.99,17.06 -19.76,35.3 -28.91,54.32 -4.01,8.34 -8.09,16.81 -12.43,25.37 -17.08,33.68 -22.9,85.77 -29.06,140.93 -12.22,109.4 -26.07,233.41 -137.31,247.72 -193.27,24.84 -347.18,-25.55 -422.24,-138.35 -64.35,-96.69 -61.32,-226.1 8.11,-346.15 71.83,-124.2 235.27,-162.64 353.58,-157.78 29.72,1.21 59.89,5.26 89.07,11.33 -14.16,-28.07 -25.64,-57.07 -33.37,-84.48 -50.65,-179.718 -2.47,-318.929 139.33,-402.589 38.58,-22.761 85.62,-33.519 133.99,-33.519 87.05,0.008 178.34,34.847 232.07,97.25 89.69,104.16 108.72,237.648 53.58,375.878 -15.4,38.62 -37.21,67.61 -62.07,90.71 27.63,6.3 52.62,16.76 75.51,29.77 3.97,-22.21 9.77,-43.91 17.49,-64.51 34.62,-92.35 171.27,-233.27 306.61,-243.868 138.55,-10.73 235.19,61.918 269.4,138.878 74.73,168.1 26.74,303.69 -135.11,381.82 -74.45,35.94 -125.9,95.17 -149.91,172.17 6.75,-0.5 13.49,-1.34 20.22,-2.49 84.42,-14.52 165.29,-82.9 216.34,-182.92 18.15,-35.59 46.38,-56.48 81.65,-60.42 62.39,-6.8 146,40.19 212.66,120.2 89.44,107.36 50.33,257.5 37.47,306.85 -30.32,116.37 -144.1,237.75 -282.02,239.47 -28.92,0.36 -52.82,0.23 -75.12,-3.52 2.98,23.22 4.15,47.69 3.12,73.12 2.75,2.32 5.47,4.64 8.18,6.93 2.93,2.5 5.84,4.96 8.71,7.4 9.64,-16.89 22.93,-29.37 38.97,-35.96 238.32,-97.9 393.44,62.25 422.98,131.65 36.28,85.25 27.04,185.95 -25.34,276.25 -26.21,45.18 -61.45,84.59 -101.36,115.14 11.78,8.35 23.25,17.36 34.29,27.05 85.42,74.98 135.21,172.33 140.21,274.11 1.07,21.64 6.34,213.97 -136.51,301.81 -30.26,18.6 -74.62,36.95 -133.31,38.59 25.57,35.33 55.74,77.49 85.49,119.06 64.61,8.93 121.63,33.72 165.79,72.91 62.47,55.46 88.87,128.98 99.47,196.98 20.32,5.9 42.16,8.51 65.12,6.03 90.51,-9.75 172.93,-91.07 183.72,-181.31 12.97,-108.29 -26.11,-199.18 -107.36,-250.68 -45.01,14.75 -79.51,29.63 -150.99,64.27 -70.3,34.09 -128.6,38.45 -145.05,10.82 -8.56,-14.38 -10.88,-47.13 69.7,-104.99 56.08,-40.24 152.19,-36.85 228.9,8.04 22.29,-7.09 47.64,-14.43 81.15,-24.14 l 15.59,-4.53 c 27.84,-8.06 129.79,-21.54 229.69,20.96 196.19,83.47 214.38,303.89 192.45,397.56 -26.28,112.25 -123.11,190.33 -237.82,227.49 3.13,3.31 6.22,6.67 9.25,10.07 49.34,55.37 96.84,208.53 62.1,332.22 -15.27,54.4 -49.07,92.77 -81.35,118.83 44.46,-25.62 85.64,-38.92 111.73,-40.16 15.66,-0.74 26.91,2.54 33.54,9.76 12.93,14.07 3.04,34.24 -8.42,57.59 -13.34,27.2 -29.95,61.07 -17.04,93.52 10.57,26.54 34.99,38.14 60.85,50.41 28.23,13.4 57.41,27.25 67.28,61.56 8.11,28.22 -2.34,51.36 -11.55,71.77 -9.09,20.16 -14.31,33.2 -7.42,46.74 9.19,18.01 32.7,21.73 57.58,25.67 25.37,4.02 51.61,8.18 61.36,30.37 10.63,24.24 -7.38,46.72 -32.3,77.84 -18.09,22.6 -40.61,50.72 -59.21,87.95 -47.07,94.23 -52.5,209.89 -22.19,227.45 30.52,17.64 112.98,-55.96 152.65,-91.34 40.54,-36.14 64.68,-66.15 84.08,-90.26 26.5,-32.92 47.42,-58.92 92.09,-78.02 24.88,-10.64 110.32,-41.98 165.32,1.34 59.75,47.04 45.06,150.92 40.23,185.06 -9.07,64.15 -33.34,108.48 -52.84,144.09 -19.18,35.03 -31.85,58.17 -21.02,81.64 9.71,21.04 31.18,27.78 53.89,34.91 23.54,7.39 47.87,15.03 56.08,40.2 14.3,43.77 -37.09,94.8 -82.44,139.82 -25.63,25.46 -60.75,60.32 -55.06,71.6 3.88,7.69 33.06,4.4 52.35,2.24 34.62,-3.9 70.48,-7.94 84.29,15.72 29.04,49.72 -89.55,176.38 -141.9,228.54 l -5.81,5.72 c -45.48,44.54 -93.68,84.24 -147.36,121.36 -64.61,44.69 -114.21,69.38 -147.02,85.72 -34.43,17.14 -49.64,25.15 -49.51,35.47 0.34,24.82 66.5,50.4 119.66,70.96 69.52,26.88 129.56,50.09 126.79,87.22 -1.34,18.01 -18.96,40.45 -46.07,68.81 663.08,-192.34 1542.78,-402.02 2660.78,-55.92 5.3,1.63 8.3,7.23 6.6,12.51"
         style="fill:none;stroke:#040606;stroke-width:20;stroke-linecap:round;stroke-linejoin:round;stroke-miterlimit:10;stroke-dasharray:none;stroke-opacity:1"
         id="drawing"
         inkscape:connector-curvature="0" /></g></g></svg>