<svg
   xmlns:dc="http://purl.org/dc/elements/1.1/"
   xmlns:cc="http://creativecommons.org/ns#"
   xmlns:rdf="http://www.w3.org/1999/02/22-rdf-syntax-ns#"
   xmlns:svg="http://www.w3.org/2000/svg"
   xmlns="http://www.w3.org/2000/svg"
   xmlns:sodipodi="http://sodipodi.sourceforge.net/DTD/sodipodi-0.dtd"
   xmlns:inkscape="http://www.inkscape.org/namespaces/inkscape"
   version="1.1"
   id="mySVG"
   xml:space="preserve"
   width="1600"
   height="1066.6667"
   viewBox="0 0 1600 1066.6667"
   sodipodi:docname="kiwi.svg"
   inkscape:version="0.92.4 (5da689c313, 2019-01-14)"><metadata
     id="metadata8"><rdf:RDF><cc:Work
         rdf:about=""><dc:format>image/svg+xml</dc:format><dc:type
           rdf:resource="http://purl.org/dc/dcmitype/StillImage" /><dc:title></dc:title></cc:Work></rdf:RDF></metadata><defs
     id="defs6" /><sodipodi:namedview
     pagecolor="#ffffff"
     bordercolor="#666666"
     borderopacity="1"
     objecttolerance="10"
     gridtolerance="10"
     guidetolerance="10"
     inkscape:pageopacity="0"
     inkscape:pageshadow="2"
     inkscape:window-width="1920"
     inkscape:window-height="986"
     id="namedview4"
     showgrid="false"
     inkscape:zoom="0.22124998"
     inkscape:cx="800"
     inkscape:cy="533.33337"
     inkscape:window-x="-11"
     inkscape:window-y="-11"
     inkscape:window-maximized="1"
     inkscape:current-layer="g12" /><g
     id="g10"
     inkscape:groupmode="layer"
     inkscape:label="ink_ext_XXXXXX"
     transform="matrix(1.3333333,0,0,-1.3333333,0,1066.6667)"><g
       id="g12"
       transform="scale(0.1)"><path
         d="m 5378.74,2609.52 c -177.03,90.47 -484.81,363.22 -609.86,540.45 -520.74,738.1 -374.9,1476.13 -288.02,1759.19 159.77,520.51 549.57,1077.19 1484.13,1093.67 -66.1,-8 -131.11,-18.52 -194.63,-31.6 -240.44,-49.52 -803.51,-165.49 -1074.32,-652.03 -119.69,-215.03 -115.81,-579.41 9.87,-928.29 154.49,-428.81 474.58,-798.69 901.32,-1041.52 724.03,-411.99 1469.07,-423.61 1848.73,-393.87 521.81,40.87 990.14,207.28 1138.88,404.69 111.64,148.16 142.04,341.71 85.56,545.02 -53.83,193.82 -181.12,380.79 -359.02,527.69 163.54,49.57 258.17,110.65 281.34,181.65 25.5,78.12 11.74,164.4 -40.9,256.43 -264.68,462.68 -1488.03,993.01 -1852.11,1072.94 -57.92,12.72 -147.86,32.46 -259.39,49.78 388.71,-20.98 790.28,-117.91 1150.65,-283.76 621.41,-285.98 1038.8,-725.73 1175.26,-1238.26 115.86,-435.18 34.64,-936.28 -217.29,-1340.44 -189.16,-303.49 -566.7,-695.4 -1291.03,-839.05 -517.83,-102.7 -1006.68,-24.06 -1493.93,131.66 -128.88,55.17 -260.67,116.88 -395.24,185.65 z m 2540.86,1958.4 c -88.76,-25.34 -183.34,-49.8 -265.81,-68.42 -263.95,-59.57 -286.15,-34.59 -286.78,-34.08 0,0 0,0.1 0.03,0.31 11.55,14.79 127.3,68.19 295.16,93.4 75.51,11.33 164.59,17.55 257.4,8.79 z m -157.17,120.11 c -69.46,-30.16 -145.03,-46.32 -218.42,-62.01 -30.91,-6.62 -63.3,-16.05 -94.62,-25.17 -83.82,-24.41 -163.05,-47.5 -198.01,-13.46 7.13,8.56 57.06,39.78 402.89,86.69 36.07,4.9 72.45,9.56 108.16,13.95 z m -653.48,403.26 c -80.04,-141.16 -172.07,-253.85 -193.05,-251.37 -2.24,1.56 -2.99,5.22 -2.21,10.87 5.89,42.98 92.41,147.4 195.26,240.5 z m -262.16,-85.19 c -0.61,-2.87 -1.22,-5.68 -1.84,-8.43 -11.56,-51.39 -22.16,-68.93 -27.74,-74.9 0.79,14.33 11.69,44.37 29.58,83.33 z m -77.52,310.95 c 1.94,-68.39 1.2,-137.78 -2.37,-199.04 -8.14,-139.76 -26.46,-167.14 -31.51,-172.1 -9.6,15.38 -11.95,100.37 12.17,253.76 6.4,40.7 13.77,80.35 21.71,117.38 z m -120.03,-194.63 c 2.35,-83.56 0.41,-152.11 -5.26,-183.85 -3.24,28.86 -2.28,89.96 5.26,183.85 z m -163.27,68.52 c 13.82,-100.21 14.78,-192.78 8.48,-234.64 -6.57,43.28 -11.74,135.77 -8.48,234.64 z m -206.49,-54.47 c 34.51,-55.29 62.29,-107.74 75.72,-148.53 9.29,-28.27 10.07,-48.54 2.09,-54.23 -3.46,-2.46 -6.29,-3.12 -11.16,0.4 -25.39,18.34 -50.5,102.33 -66.65,202.36 z m -143.73,-47.66 c 61.5,-86.61 98.79,-149.84 106.43,-174.79 -10.37,8.46 -33.59,34.68 -76.62,115.98 -10.09,19.04 -20.06,38.75 -29.81,58.81 z m -146.94,-55.57 c 85.85,-62.48 172.58,-131.42 177.58,-163.37 0.11,-0.71 0.15,-1.33 0.15,-1.85 -23.27,6.92 -92.17,72.75 -177.73,165.22 z m -77.7,-138.68 c 111.62,-32.9 199.58,-73.66 210.36,-105.91 1.01,-3.01 3.69,-10.99 -16,-21.2 -0.79,-0.41 -20.74,-9.15 -123.85,69.91 -22.98,17.62 -46.67,36.9 -70.51,57.2 z m 117.8,-254.48 c 14.85,0 24.87,-2.68 29.41,-8.26 -5.54,-9.23 -43.52,-34.67 -155.83,-73.76 -126.24,-43.94 -277.17,-82.47 -400.14,-102.56 244.65,113.17 449.91,184.58 526.56,184.58 z m -399.38,2.82 c 134.36,37.63 269.85,56.62 356.37,56.62 34.12,0 60.65,-2.96 76.47,-8.89 1.8,-0.67 3.3,-1.3 4.55,-1.87 -38.7,-18.79 -234.4,-39.84 -437.39,-45.86 z m 0.73,-23.84 c 81.56,2.44 174.4,7.7 255.18,15.33 -23.81,-7.32 -50.57,-16.27 -80.65,-27.1 -156.84,-56.49 -325.77,-135.81 -381.39,-162.49 -69.78,-7.14 -122.74,-5.27 -144.4,9.18 -1.5,1.01 -2.02,1.88 -2.09,3.57 -0.36,8.04 9.57,23.08 21.7,32.86 64.4,51.9 153.6,94.26 248.73,126.95 29.68,0.31 58.03,0.96 82.92,1.7 z m 109.67,-245.16 c 178.72,102.02 363.12,188.34 406.25,188.34 2.38,0 4.34,-0.27 5.83,-0.81 0.31,-2.1 -3.37,-6.94 -3.53,-7.17 -34.1,-44.62 -219.84,-122.05 -408.55,-180.36 z m 122.76,-143.64 c 35.31,48.37 92.47,93.64 139.11,121.1 100.1,58.93 211.71,106.98 277.07,106.98 14.15,0 26.14,-2.25 35.37,-7.14 -45.31,-28.81 -245.8,-131.12 -451.55,-220.94 z m 119.57,-98.9 c 116.29,111.03 293.2,237.22 399.33,284.76 -60.18,-58.95 -267.54,-216.98 -372.97,-271.18 l -9.21,-4.75 c -5.4,-2.81 -11.15,-5.79 -17.15,-8.83 z m 151.62,-62.16 c 1.01,1.07 2.03,2.12 3.03,3.16 18.08,18.74 35.15,36.45 48.96,51.35 79.34,85.66 209.53,188.47 274.28,228.3 -37.48,-43.3 -121.3,-124.86 -169.19,-160.19 -28.49,-21.02 -59.09,-45.33 -91.5,-71.05 -21.14,-16.79 -43.23,-34.33 -65.58,-51.57 z m 253.39,-112.69 c 12.75,18.97 25.33,37.92 37.72,56.58 41.4,62.35 83.89,126.36 130.01,187 -33.56,-53.88 -83.08,-128.21 -142.53,-209.53 -8.51,-11.64 -16.91,-23 -25.2,-34.05 z m 178.52,-214.01 c 31.12,144.83 80.86,310.88 105.54,356.79 11.6,-64.69 -34.27,-214.92 -105.54,-356.79 z m 350.92,238.12 c 1.17,26.04 3.58,50.18 7.51,71.15 -1.63,-19.73 -4.18,-43.89 -7.51,-71.15 z m 94.24,15.06 c -3.33,20.63 -6.31,39.88 -8.77,57.02 3.63,-17.54 6.54,-36.72 8.77,-57.02 z m 254.92,-51.24 c -26.21,32.95 -45.52,63.52 -53.88,88.08 13.65,-18.39 32.74,-49.68 53.88,-88.08 z m 256.96,-23.46 c -117.3,76.16 -194.27,135.93 -211.47,159.56 6.28,-0.69 17.57,-2.91 37.26,-9.24 40.48,-13 110.08,-77.73 174.21,-150.32 z m 121.96,302.83 c -107.48,8.83 -193.54,20.74 -240.87,33.6 46.96,-3.36 132.87,-15.01 240.87,-33.6 z m 160.28,146.26 c -196.32,-13.69 -363.91,-4.7 -404.19,27.43 19.33,6.87 90.91,10.44 233.11,-4.53 55.94,-5.89 113.93,-13.64 171.08,-22.9 z m -400.24,52.94 c -11.53,-2.27 -27.24,-6.77 -30.49,-19.7 -2.09,-8.29 1.56,-16.36 10.86,-23.99 54.18,-44.5 276.41,-50.38 513.11,-25.87 168.65,-32.95 314.37,-78.05 354.28,-125.12 -27.81,-15.05 -185.2,-24.8 -416.98,-15.82 -108.77,21.95 -221.29,41.86 -313.15,55.12 -166.8,24.05 -170.51,13.59 -174.42,2.5 -2.82,-7.96 1.15,-15.2 11.79,-21.5 51.74,-30.66 267.76,-53.08 477.07,-60.88 267.4,-54.12 403.9,-97.9 421.16,-117.18 -14.42,-11.09 -109.39,-17.82 -385.41,22.34 -43.21,6.29 -85.17,12.89 -124.59,19.45 -92.91,28.32 -174.94,50.94 -226.37,61.91 -48.3,10.32 -62.88,9.78 -67.85,-2.47 -5.16,-12.74 9.23,-21.73 16.96,-26.56 12.59,-7.87 129.41,-32.36 270.47,-55.88 48.44,-14.78 101.58,-31.66 157.89,-50.32 247.63,-82.04 379,-139.73 404.73,-162.57 -0.71,-0.12 -1.49,-0.25 -2.35,-0.37 -110.93,-15.47 -711.6,181.76 -913.17,257.66 -39.67,22.47 -67.54,37.01 -76.87,39.81 -11.36,3.41 -15.93,-3.6 -17.09,-5.83 -5.34,-10.35 4.21,-17.77 14.32,-25.63 5.08,-3.95 28.87,-13.99 66.03,-28.08 70.73,-40.1 184.64,-108.64 300.82,-183.47 302.25,-194.72 334.7,-246.87 337.99,-257.21 -0.92,-0.24 -2.31,-0.5 -4.3,-0.65 -42.69,-3.13 -197.39,70.66 -384.17,184.12 -11.88,7.21 -23.47,14.32 -34.8,21.35 -78.71,97.97 -181.87,199.12 -234.33,215.98 -40.12,12.89 -59.2,13.88 -68.01,3.52 -2.94,-3.45 -6.95,-11 -0.92,-22.86 17.89,-35.11 144.13,-126.45 287.56,-215.62 54.49,-68.68 95.8,-133.55 95.8,-158.94 0,-32.02 -14.77,-36.87 -27.66,-37.52 -63.05,-3.24 -207.67,102.85 -312.96,210.12 -2.49,4.98 -4.99,9.96 -7.51,14.97 -25.15,49.68 -50.51,95.35 -71.42,128.6 -34.41,54.73 -44.99,57.96 -54.16,56.55 -5.64,-0.86 -14.8,-5.16 -12.87,-24.3 4.75,-47.03 57.84,-120.46 127.79,-192.25 59.61,-121.11 117.44,-264.44 110.24,-321.4 -1.81,-14.32 -7.22,-15.71 -9,-16.17 -16.46,-4.24 -36.67,3.57 -59.96,23.29 -73.38,62.05 -151.95,214.91 -202.47,333.61 -9.62,65.65 -21.14,117.57 -33.28,138.41 -13.33,22.84 -23.02,37.38 -36.24,31.22 -10.66,-4.97 -15.15,-13.51 12.3,-90.11 8.05,-22.44 19.5,-51.89 33.57,-85.09 23.3,-164.2 36.36,-420.42 16.32,-467.6 -17.89,21.11 -51.31,132.6 -63.95,206.21 -5.38,31.34 -13.19,74.42 -21.92,122.58 -5.54,30.55 -11.9,65.61 -18.39,102 4.16,105 -4.56,212.55 -26.63,273.18 -9.49,26.06 -16.13,41.84 -30.03,38.03 -15.73,-4.26 -21.98,-5.94 33.04,-315.21 -4.9,-107.05 -23.43,-208.97 -52.13,-248.62 -13.57,27.99 -33.71,137.14 -42.67,250.95 21,127.12 33.09,242.57 28.98,273.62 -0.55,4.16 -2.22,16.82 -13.57,18.49 -11.88,1.8 -17.56,-10.94 -20.3,-17.04 -23.7,-52.65 -27,-162.76 -19.7,-270.96 -24.85,-152.03 -61.48,-321.56 -96.66,-374.51 -7.23,-10.88 -11.22,-11.54 -11.21,-11.54 -0.29,0.05 -1.55,0.73 -3.39,2.96 -38.02,46.47 -31.97,247.39 -15.44,428.3 31.25,101.95 52.2,204.36 52.7,279.16 0.25,38.98 -2.05,48.68 -12.38,51.86 -4.56,1.41 -11.06,0.52 -15.58,-6.18 -14.17,-21.07 -36.64,-183.17 -49.11,-324.59 -46.25,-149.71 -114.63,-296.65 -171.4,-346.77 -11.54,-10.2 -21.74,-15.26 -29.69,-14.7 -1.15,1.54 -5.51,9.19 -5.16,37.25 0.34,28.09 4.92,65.85 12.27,108.52 99.98,173.08 169.57,382.94 138.81,456.78 -4.1,9.86 -12.39,11.77 -18.16,10.46 -26.33,-6 -67.15,-140.38 -96.76,-252.05 -17.52,-66.06 -35.3,-142.34 -46.95,-208.89 -56.5,-97.62 -123.23,-182.82 -188.45,-221.12 -3.26,-1.91 -5.41,-2.73 -6.67,-3.08 -3.12,9.45 -3.8,59.71 109.82,317.21 10.34,23.44 21.08,47.33 32.03,71.4 86.12,124.89 162.76,266.18 181.47,377.28 0.97,5.84 -2.45,11.53 -8.08,13.39 -5.59,1.85 -11.76,-0.67 -14.45,-5.95 -47.2,-92.67 -118.44,-237.97 -181.22,-375.79 -89.44,-128.92 -188.69,-239.31 -241.36,-276.93 -0.67,-0.48 -1.28,-0.89 -1.83,-1.24 -1.98,30.47 42.61,146.41 84.66,234.7 56.32,64.2 112.33,138.7 151.03,192.28 77.25,107 183.35,267.83 181.63,291.52 -0.41,5.62 -3.86,10.12 -9,11.77 -9.48,3.05 -16.99,-2.77 -40.37,-30.95 -62.99,-75.92 -118.38,-159.33 -171.93,-239.99 -26.64,-40.14 -54.19,-81.63 -82.28,-121.58 -9.9,-14.09 -27.92,-47.15 -47.69,-87.89 -60.82,-69.2 -109.55,-112.07 -140.65,-122.66 -15.69,-5.35 -21.19,-0.41 -22.99,1.22 -6.05,5.44 -9.19,13.41 -9.62,24.36 -2.02,51.19 55.01,144.35 116.1,223.37 131.03,129.09 261.18,284.5 293.22,336.39 15.82,25.61 22.37,36.21 11.44,43.95 -11.88,8.44 -11.91,8.41 -97.78,-98 -49.51,-61.34 -111.11,-137.67 -151.71,-180.48 -21.92,-23.11 -47.4,-52.59 -72.55,-84.89 -100.17,-98.55 -198.88,-180.43 -248.44,-185.6 -12.64,-1.28 -17.06,3.32 -18.5,4.83 -27.43,28.8 41.1,117.17 113.85,197.86 53.11,34.29 110.46,79.83 167,124.72 32.23,25.59 62.67,49.76 90.82,70.53 28.84,21.28 78.25,65.65 122.95,110.41 83.2,83.31 77.6,92.71 72.67,101.01 -7.31,12.27 -22.78,5.01 -27.87,2.62 -51.98,-24.32 -212.54,-147.02 -304.7,-246.52 -13.64,-14.73 -30.63,-32.34 -48.62,-51 -30.85,-32 -60.36,-63.01 -87.1,-92.49 -63.99,-41.04 -121.37,-65.35 -154.6,-45.47 -8.36,5 -11.8,11.81 -11.17,22.08 1.63,26.78 27.83,66.01 68.49,110.47 26.27,9.93 52.65,23.59 75.19,35.26 l 9.15,4.72 c 65.58,33.72 174.17,110.59 247.24,166.18 165.29,125.73 157.9,141.18 153.49,150.41 -7.65,15.97 -31.2,5.54 -46.79,-1.37 -112.77,-49.99 -331.22,-206.54 -449.69,-333.82 -25.2,-9.29 -49.4,-14.43 -66.57,-8.89 -8.79,2.84 -15.22,8.47 -19.66,17.23 -12.69,25.05 -9.46,53.03 3.59,81.17 50.85,21.64 97.88,42.61 136.31,60.13 89.97,41 179.28,84.2 251.48,121.62 110.74,57.4 113.55,65.57 115.41,70.98 1.46,4.25 0.32,9.84 -2.79,13.08 -67.63,70.61 -286.52,-49.71 -352,-88.27 -60.24,-35.47 -132.05,-95.31 -165.33,-158.37 -176,-75.18 -349.06,-137.31 -425.49,-132.71 -13.5,0.83 -22.88,4.01 -26.42,8.97 -3.01,4.21 -0.18,15.92 16.81,36.14 44.38,52.83 146.57,125.15 262.36,195.73 221.48,59.18 470.75,158.68 516,217.89 14.07,18.42 7.8,31.39 2.81,37.49 -7.28,8.92 -29.58,36.04 -295.44,-101.75 -78.25,-40.55 -156.84,-84.98 -228.25,-128.67 -146.98,-40.02 -280.44,-62.67 -326.47,-42.13 -9.42,4.21 -9.49,8.68 -9.52,10.58 -0.37,25.59 65.73,80.34 118.09,105.55 0.3,0.15 0.58,0.28 0.88,0.43 90.44,9.59 192.51,32.57 249.74,46.63 161.76,39.71 348.32,101.5 391.88,142.74 15.43,14.6 12.12,26.29 8.77,31.95 -4.06,6.87 -10.85,13.59 -24.48,17.41 3.61,1 6.97,2.02 10.06,3.06 13.8,4.64 29.68,11.75 29.93,25.74 0.26,15.01 -17.91,21.82 -24.76,24.39 -68.3,25.61 -312.49,2.24 -528.94,-71.83 -27.25,-0.19 -54.23,-0.04 -80.59,0.46 -167.69,3.18 -186.48,20.07 -188.06,21.97 -15.15,19.33 -9.88,29.48 -8.15,32.82 24.61,47.41 217.08,64.39 340.69,58.01 45.72,-2.37 121.98,-6.43 198.18,-10.5 60.04,-3.21 120.04,-6.41 165.03,-8.77 22.5,-1.18 41.26,-2.15 54.38,-2.81 7.05,-0.36 12.64,-0.63 17.05,-0.64 1.41,-0.1 2.3,-0.16 2.71,-0.2 l 0.03,0.24 c 10.2,0.32 12.95,2.8 13.41,10.98 0.51,9.01 -5.95,11.65 -12.13,12.59 v 0.07 c -0.13,0.01 -0.34,0.01 -0.59,0.02 -1.8,0.25 -3.56,0.36 -5.08,0.46 l -20.99,1.29 c -41.4,2.48 -192.13,41.19 -337.91,78.63 -73.24,18.81 -148.98,38.27 -210.23,52.94 -24.64,5.91 -37.1,13.67 -39.21,24.44 -0.9,4.57 -0.01,8.59 2.8,12.64 6.79,9.81 24.66,18.65 44.47,21.99 95.03,15.99 247.43,-4.75 380.23,-38.72 92.32,-82.35 218.57,-183.95 258.63,-163.04 32.98,17.11 31.52,38.74 27.72,50.11 -15.39,46.02 -134.88,98.2 -274.78,134.67 -149.82,133.86 -292.38,293.66 -286.33,321.28 5,11.86 12.23,18.89 22.08,21.5 42.5,11.24 125.31,-52.23 185.79,-98.57 14.81,-11.35 28.79,-22.07 41.14,-30.92 17.1,-12.27 36.98,-26.19 58.37,-41.17 2.44,-1.71 4.92,-3.45 7.44,-5.21 91.44,-103.56 180.38,-196.39 232.26,-235.1 12.21,-9.1 40.76,-30.4 54.59,-12.21 4.83,6.36 6.66,14.33 5.3,23.05 -7.78,49.68 -128.53,138.77 -275.62,241.98 -104.16,117.89 -219.27,258.23 -304.03,375.01 -108.96,150.11 -105.63,176.71 -105.3,178.49 4.58,6.25 18.55,25.31 66.88,5.92 88.06,-35.33 243.96,-182.86 417.02,-394.64 28.08,-34.36 54.15,-67.38 78.06,-98.62 38.75,-90.18 80.95,-174.72 114.35,-228.04 32.81,-52.37 54.85,-72.31 73.54,-66.81 7.71,2.28 12.41,9.07 12.59,18.15 0.68,35.42 -81.15,159.76 -179.87,289.07 -56.96,132.99 -96.72,256.75 -89.61,280.13 32.09,-5.8 155.43,-148.66 250.12,-289.58 15.58,-126.5 47.13,-243.46 83.85,-269.98 12.73,-9.21 26.64,-9.39 39.12,-0.5 13.59,9.67 18.33,27.47 14.07,52.9 -8.35,49.79 -54.94,135.68 -113.51,224.05 -13.53,110.95 -15.14,230.09 5.62,297.51 6,19.48 16.71,42.8 33.66,43.27 44.63,1.42 84.31,-37.62 117.59,-115.52 16.41,-38.41 29.43,-81.85 39.55,-126.56 -16.45,-166.81 -4.66,-358.89 15.99,-375.21 4.77,-3.76 11.1,-4.14 16.17,-0.94 33.62,21.21 26.77,218.44 -8.03,376.95 7.84,79.73 22.73,154.28 48.43,200.88 16.07,29.13 34.96,44.45 56.18,45.56 3.63,-4.39 19.24,-30.54 34.79,-166.01 3.39,-29.46 6.28,-59.41 8.71,-89.15 -20.02,-173.75 -31.28,-348.08 -11.46,-375.34 4.05,-5.57 9.97,-8.3 16.17,-7.56 13.44,1.65 25.74,11.68 28.54,114.95 1.61,59.24 -0.56,140.38 -5.97,222.61 -0.93,14.15 -1.94,28.11 -3.01,41.81 0.18,1.63 0.37,3.24 0.55,4.87 20.96,181.74 45.55,321.96 57.74,353.69 9.58,-10.86 28.1,-57.78 39.49,-194.91 1.07,-13.03 2.05,-26.34 2.91,-39.85 -45.57,-172.27 -78.5,-429.04 -48.69,-471.22 5.93,-8.39 14.96,-11.79 24.19,-9.07 30.69,9.06 48.4,95.93 52.6,258.2 1.93,74.21 0.41,151.39 -3.97,221.26 14.31,52.91 29.24,95.02 42.88,119.06 10.76,18.96 17.62,21.48 18.66,21.09 7.07,-3.03 26.92,-48.34 25.58,-211.08 -0.67,-82.64 -6.69,-169.76 -16.25,-242.52 -44.29,-84.77 -72.01,-155.6 -65.7,-177.77 2.46,-8.67 9.02,-14.04 17.53,-14.35 19.19,-0.82 43.44,14.8 64.87,141.41 2.14,12.66 4.24,26.91 6.25,42.4 70.35,132.85 182.75,306.42 266.28,365.81 26.31,18.7 45.92,23.21 58.3,13.47 31.4,-24.71 22.7,-103.25 -23.86,-215.46 -12.72,-30.66 -27.1,-61.39 -42.41,-91.42 -125.94,-103.24 -243.49,-237.72 -251.73,-297.92 -2.62,-19.07 5.24,-28.92 12.28,-33.83 9.2,-6.39 33.57,-23.41 125.46,100.65 40.62,54.85 89.94,133.04 131.79,214.06 66.02,54.34 134.34,99.84 189.62,119.12 36.9,12.87 63.02,12.29 77.69,-1.72 8.02,-7.67 8.15,-27.39 0.36,-55.53 -26.37,-95.32 -124.79,-246.21 -203.24,-348.3 -97.32,-79.86 -115.3,-107.69 -115.34,-117.34 -0.03,-6.83 4.2,-12.51 10.8,-14.49 20.88,-6.25 70.26,46.75 122.55,115.21 44.32,36.3 100.48,80.04 165.55,128.06 161.28,119.03 267.5,183.43 296.72,190.2 -12.98,-49.3 -224.54,-288.22 -376.11,-412.38 -27.14,-12.75 -52.94,-25.29 -75.81,-36.9 -61.84,-31.36 -62.62,-34.58 -64.05,-40.42 -1.06,-4.38 0.47,-9.22 3.89,-12.16 14.71,-12.65 44.91,-15.27 146.43,67.73 198.39,92.65 559.34,238.63 626.42,159.73 8.25,-9.7 11.2,-19.8 9.02,-30.87 -8.78,-44.56 -92.46,-95.08 -147.96,-125.08 -57.15,-6.64 -117.75,-14.15 -177.44,-22.26 -402.03,-54.68 -414.96,-88.47 -420.48,-102.9 -3.11,-8.12 -1.06,-16.71 5.62,-23.59 43.99,-45.23 130.67,-19.97 222.42,6.77 30.91,9 62.87,18.31 92.93,24.74 86.28,18.45 175.5,37.53 256.16,79.19 9.18,4.74 18.53,9.66 27.92,14.72 136.76,15.83 253,26.66 288.58,29.1 35.29,2.42 79.27,-0.59 93.31,-27.48 -22.01,-40.21 -71.48,-59.74 -120.48,-76.27 -35.14,-11.86 -74.82,-24.37 -116.88,-36.95 -211.79,33.73 -411.68,-16.6 -488.59,-40.14 -13.88,-4.25 -135.94,-42.36 -144.78,-71.27 -2.89,-9.46 -0.78,-18.26 5.94,-24.79 47.6,-46.27 412.62,47.99 627.95,111.72 99.12,-16.3 200.06,-51.56 291.19,-117.35 -113.56,-30.47 -245.7,-52.19 -372.53,-65.08 -15.17,2.93 -29.63,5.6 -43.09,8 -190.6,33.95 -383.55,49.89 -448.9,37.06 z M 6195.48,5996.44 c 156,-10.99 325.43,-35.63 509.09,-75.94 361.4,-79.34 1574.94,-604.34 1836.41,-1061.41 49.14,-85.91 62.23,-165.67 38.93,-237.08 -20.94,-64.15 -117.64,-123.05 -279.66,-170.33 -0.55,-0.16 -1.13,-0.33 -1.69,-0.49 -84.74,65.06 -178.09,103.39 -270.84,124.12 30.41,9.33 55.91,17.49 74.48,23.76 55.76,18.82 112.25,41.53 136.9,93.46 1.38,2.9 1.53,6.23 0.44,9.25 -13.18,36.19 -53.29,52.26 -119.49,47.72 -30.95,-2.12 -121.97,-10.49 -234.43,-22.94 56.14,34.59 104.01,73.81 111.87,113.67 3.63,18.46 -1.17,35.63 -14.29,51.05 -30.14,35.45 -99.68,39.66 -212.61,12.86 -121.63,-28.87 -265.55,-87.09 -367.5,-132.18 69.45,63.14 147.8,142.95 211.81,216.14 129.83,148.43 116.43,169.5 110.71,178.5 -5.16,8.09 -15.08,10.08 -29.5,5.92 -53.88,-15.55 -211.24,-124.51 -329.61,-213.09 -26.43,-19.79 -50.22,-37.9 -71.62,-54.47 31.85,45.99 61.39,92.29 82.4,128.4 74.25,127.71 96.48,207.22 66.05,236.32 -21.7,20.75 -56.07,23.13 -102.18,7.03 -45.93,-16.03 -101.06,-49.43 -156.77,-91.18 59.25,126.56 92.33,249.7 38.37,292.18 -20.79,16.38 -48.5,13.15 -82.33,-9.52 -74.4,-49.87 -176.08,-194.74 -250.07,-325.31 15.93,168.55 18.49,405.91 -32.18,421.52 -13.29,4.07 -26.26,-2.5 -38.61,-19.53 -11.6,-16 -23.55,-43.51 -35.18,-78.33 -3.38,35.22 -7.57,67.23 -12.48,94.31 -13.17,72.71 -29.4,104.49 -54.18,102.64 -9.17,-0.66 -13.28,-9.51 -14.83,-12.83 -12.25,-26.32 -31.85,-135.22 -49.08,-262.08 -2.9,23.77 -6.02,45.65 -9.27,65.07 -14.9,89.02 -29.01,107.46 -45.59,107.46 -0.07,0 -0.14,0 -0.22,-0.01 -42.08,-0.39 -75.26,-35.19 -98.61,-103.43 -10.05,-29.38 -17.93,-64.97 -23.92,-103.72 -0.61,2.08 -1.23,4.13 -1.85,6.17 -39.56,129.97 -96.63,197.59 -163.99,195.76 -25.02,-0.7 -43.83,-20.95 -55.92,-60.2 -18.41,-59.8 -20.38,-160.89 -11.35,-262.47 -90.03,128.82 -196.71,251.57 -238.53,263.87 -12.98,3.84 -20.33,-1.53 -23.54,-5.07 -6.36,-6.99 -25.63,-28.15 52.63,-228.69 -11.81,14.78 -23.7,29.43 -35.55,43.82 -85.58,103.92 -298.48,350.3 -426.68,393.64 -48.18,16.29 -73.16,-0.55 -85.63,-17.53 -9.72,-13.26 -8.88,-40.11 62.45,-145.85 44.78,-66.38 109.69,-152.23 187.71,-248.27 29.88,-36.79 62.27,-75.69 95.43,-114.56 -8.14,6.1 -16.81,12.74 -25.79,19.62 -68.01,52.11 -152.65,116.98 -206.52,102.72 -17.26,-4.57 -30.07,-16.47 -38.05,-35.36 -23.23,-54.98 228.97,-290.23 257.8,-316.88 0.69,-0.63 1.38,-1.27 2.07,-1.91 -126.36,28.7 -261.18,43.28 -347.21,28.81 -10.12,-1.7 -44.35,-9.05 -60.23,-32 -6.46,-9.34 -8.75,-20.02 -6.61,-30.91 5.43,-27.7 35.23,-37.9 57.17,-43.16 61.06,-14.63 136.7,-34.06 209.85,-52.84 67.03,-17.22 132.44,-34.02 188.51,-47.7 -19.04,1.01 -38.32,2.04 -57.17,3.04 -76.22,4.07 -152.49,8.14 -198.22,10.5 -82.48,4.23 -326.22,0.37 -363.23,-70.92 -6.44,-12.4 -9.84,-32.66 10.56,-58.67 18.03,-22.99 119.35,-30.32 223.22,-31.55 -73.64,-29.73 -141.28,-65.8 -193.98,-108.27 -15.33,-12.36 -31.45,-34.09 -30.62,-52.62 0.42,-9.27 4.95,-17.25 12.75,-22.45 21.6,-14.41 61.63,-18.63 109.37,-16.89 -42.5,-28.44 -88.83,-69.88 -88.37,-102.26 0.12,-8.11 3.36,-23.06 23.73,-32.15 42.9,-19.16 146.33,-7.29 267.36,20.66 -45.32,-29.41 -86.05,-57.75 -119.7,-83.49 -91.78,-70.2 -125.21,-115.93 -105.22,-143.92 12.98,-18.17 41.83,-23.32 90.8,-16.18 91.67,13.33 238.32,68.05 367.38,121.98 -8.07,-27.03 -7.62,-54.02 5.19,-79.29 7.37,-14.56 18.71,-24.39 33.69,-29.22 13.36,-4.31 28.68,-4.23 44.95,-1.32 -31.04,-37.88 -50.48,-71.71 -52.05,-97.33 -1.17,-19.25 6.72,-34.51 22.81,-44.13 30.79,-18.43 71.97,-11.15 119.08,11.15 -66.5,-80.3 -101.28,-144.41 -68.55,-178.78 9.3,-9.75 22.21,-13.89 38.38,-12.16 41.12,4.29 106.62,49.99 178.64,113.29 -33.37,-54.38 -56.88,-107.4 -55.4,-145.1 0.7,-17.51 6.6,-31.4 17.55,-41.25 14.29,-12.87 34.21,-13.15 59.27,-0.89 25.51,12.49 56.12,38.09 88.41,70.5 -38.13,-87.83 -70.18,-181.7 -50.74,-201 4.52,-4.48 14.75,-10.16 32.49,2.51 41.39,29.56 110.94,103.15 182.46,195.55 -123.44,-284.4 -101.43,-305.14 -90.71,-315.24 5.82,-5.48 16.6,-9.77 34.91,0.99 55.74,32.74 114.48,101.04 167.42,183.13 -3.46,-28.06 -5.04,-52.47 -4.05,-71 0.56,-10.74 2.31,-43.42 25.35,-46.14 15.24,-1.78 31.7,5.1 49.1,20.47 47.83,42.23 103.61,150.12 148.55,271.7 -8.9,-144.99 -9.01,-305.19 28.21,-350.68 12.81,-15.66 26.7,-11.94 32.07,-9.6 37.58,16.27 77.21,162.27 106.6,315.38 12.01,-96.8 31,-176.4 48.66,-188.18 7.24,-4.82 15.85,-3.79 21.92,2.68 27.37,29.16 46.19,99.14 56.17,181.38 0.72,-3.98 1.45,-8.04 2.19,-12.1 8.71,-48.07 16.52,-91.08 21.89,-122.36 0.38,-2.21 41.51,-221.5 86.12,-228.5 4.18,-0.65 14.57,-0.65 21.77,13.14 20.81,39.88 15.08,240.02 -2.74,405.05 66.18,-140.26 161.9,-300.71 243.31,-300.69 5.01,0 10,0.62 14.9,1.88 39.22,10.11 26.59,71.82 22.44,92.1 -10.85,53.03 -40.13,132.57 -81.05,221.54 102.22,-93.9 222.13,-173.7 283.72,-170.48 18.83,0.95 50.44,10.19 50.44,61.48 0,24.93 -25.67,71.69 -63.51,124.59 160.2,-95.93 327.04,-180.22 380.21,-176.07 22.31,1.71 26.11,14.78 26.7,20.32 1.56,14.34 5.68,52.42 -342.52,277.32 -67.91,43.85 -137.02,86.76 -197.7,123.3 260.81,-90.83 708.75,-231.07 807.26,-217.38 17.46,2.43 26.53,9.3 26.93,20.41 0.45,12.5 1.51,41.77 -337.03,159.25 -32.93,11.42 -66.52,22.77 -100,33.81 171.14,-23.88 337.24,-38.25 375.05,-15.96 12.07,7.1 13.41,16.73 13.14,21.84 -0.68,13.09 -2.12,40.33 -287.3,106.33 -9.83,2.27 -19.81,4.55 -29.93,6.82 157.45,-1.2 288,7.74 307.88,29.7 6.52,7.2 6.92,16.63 1.05,24.61 -39.29,53.37 -177.96,95.18 -301.83,122.98 112.63,14.56 224.91,35.73 320.6,62.63 1.03,-0.82 2.05,-1.64 3.07,-2.47 179.18,-144.98 307.32,-330.88 360.81,-523.47 54.42,-195.95 25.44,-382.1 -81.6,-524.16 -144.91,-192.32 -606.13,-354.84 -1121.6,-395.21 -376.94,-29.5 -1116.53,-18 -1834.99,390.81 -421.77,240 -738.05,605.37 -890.59,1028.8 -123.45,342.64 -127.95,699.24 -11.5,908.48 265.47,476.92 800.89,587.2 1058.21,640.19 134.52,27.71 275.6,43.82 420.27,48.72 z m 4511.92,-3312.4 c -2.9,5.92 -10.1,8.31 -16.1,5.36 -706.83,-353.42 -1527.43,-576.72 -1884.37,-622.41 -779.38,-99.74 -1688.96,-161.28 -2816.18,269.1 4.35,-1.15 8.72,-2.3 13.08,-3.44 461.69,-120.79 876.71,-141.73 1268.75,-63.98 732.75,145.32 1115.05,542.38 1306.73,849.89 129.61,207.93 217.05,447.76 252.87,693.54 33.44,229.48 22.11,459.7 -32.77,665.78 -71.17,267.33 -217.41,515.18 -434.65,736.66 -202.09,206.04 -455.69,380.05 -753.75,517.23 -435.89,200.6 -931.93,301.22 -1393.27,289.31 -183.43,14.39 -394.7,13.14 -606.97,-27.83 C 5030.8,5881.33 4642.92,5518.96 4457.92,4916.2 4370,4629.76 4222.4,3882.91 4749.27,3136.14 c 126.74,-179.63 438.9,-456.19 618.55,-547.99 55.07,-28.14 109.75,-55.14 163.85,-80.95 -246.41,90.19 -493.63,195.7 -744.97,302.98 -1067.19,455.5 -2170.73,926.48 -3488.73,271.72 -5.93,-2.94 -8.36,-10.15 -5.41,-16.09 2.96,-5.94 10.16,-8.39 16.09,-5.4 1308.11,649.84 2406.44,181.05 3468.63,-272.3 321.05,-137.04 650.88,-277.82 981.4,-383.8 781.3,-335.48 1460.76,-433.73 2065.52,-433.72 352.18,0.01 679.1,33.35 985.78,72.59 358.61,45.9 1182.72,270.07 1892.12,624.76 5.9,2.96 8.3,10.17 5.3,16.1"
         style="fill:none;stroke:#040606;stroke-width:20;stroke-linecap:round;stroke-linejoin:round;stroke-miterlimit:10;stroke-dasharray:none;stroke-opacity:1"
         id="drawing"
         inkscape:connector-curvature="0" /></g></g></svg>