<?xml version="1.0" encoding="UTF-8" standalone="no"?>
<!-- Generator: Adobe Adobe Illustrator 24.2.0, SVG Export Plug-In . SVG Version: 6.00 Build 0)  -->

<svg
   xmlns:dc="http://purl.org/dc/elements/1.1/"
   xmlns:cc="http://creativecommons.org/ns#"
   xmlns:rdf="http://www.w3.org/1999/02/22-rdf-syntax-ns#"
   xmlns:svg="http://www.w3.org/2000/svg"
   xmlns="http://www.w3.org/2000/svg"
   xmlns:sodipodi="http://sodipodi.sourceforge.net/DTD/sodipodi-0.dtd"
   xmlns:inkscape="http://www.inkscape.org/namespaces/inkscape"
   version="1.1"
   id="mySVG"
   x="0px"
   y="0px"
   width="946.1452"
   height="403.24002"
   viewBox="0 0 946.1452 403.24002"
   xml:space="preserve"
   sodipodi:docname="kiwi.svg"
   inkscape:version="0.92.4 (5da689c313, 2019-01-14)"><metadata
   id="metadata14"><rdf:RDF><cc:Work
       rdf:about=""><dc:format>image/svg+xml</dc:format><dc:type
         rdf:resource="http://purl.org/dc/dcmitype/StillImage" /><dc:title></dc:title></cc:Work></rdf:RDF></metadata><defs
   id="defs12" /><sodipodi:namedview
   pagecolor="#ffffff"
   bordercolor="#666666"
   borderopacity="1"
   objecttolerance="10"
   gridtolerance="10"
   guidetolerance="10"
   inkscape:pageopacity="0"
   inkscape:pageshadow="2"
   inkscape:window-width="1920"
   inkscape:window-height="986"
   id="namedview10"
   showgrid="false"
   fit-margin-top="0"
   fit-margin-left="0"
   fit-margin-right="0"
   fit-margin-bottom="0"
   inkscape:zoom="1.18"
   inkscape:cx="403.63665"
   inkscape:cy="202.23839"
   inkscape:window-x="-11"
   inkscape:window-y="-11"
   inkscape:window-maximized="1"
   inkscape:current-layer="Layer_2" />
<style
   type="text/css"
   id="style2">
	.st0{display:none;}
	.st1{display:inline;fill:#FFFFFF;}
	.st2{display:inline;}
	.st3{fill:none;stroke:#000000;stroke-width:3;stroke-miterlimit:10;}
</style>
<g
   id="XMLID_1_"
   class="st0"
   style="display:none"
   transform="translate(-131.33369,-195.90826)">
	<path
   class="st2"
   d="m 1070.74,531.6 c -0.3,-0.59 -1.02,-0.83 -1.61,-0.54 -70.68,35.34 -152.75,57.67 -188.44,62.24 -77.94,9.97 -168.9,16.13 -281.62,-26.91 0.43,0.12 0.87,0.23 1.31,0.34 46.17,12.08 87.67,14.17 126.88,6.4 73.28,-14.53 111.5,-54.24 130.67,-84.99 12.96,-20.79 21.7,-44.78 25.29,-69.35 3.34,-22.95 2.21,-45.97 -3.28,-66.58 -7.12,-26.73 -21.74,-51.52 -43.47,-73.67 -20.21,-20.6 -45.57,-38.01 -75.38,-51.72 -43.59,-20.06 -93.19,-30.12 -139.33,-28.93 -18.34,-1.44 -39.47,-1.31 -60.7,2.78 -58,11.19 -96.78,47.43 -115.28,107.71 -8.79,28.64 -23.55,103.33 29.14,178.01 12.67,17.96 43.89,45.62 61.86,54.8 5.51,2.81 10.97,5.51 16.38,8.1 -24.64,-9.02 -49.36,-19.57 -74.5,-30.3 -106.72,-45.55 -217.07,-92.65 -348.87,-27.17 -0.59,0.29 -0.84,1.02 -0.54,1.61 0.3,0.59 1.02,0.84 1.61,0.54 130.81,-64.98 240.64,-18.11 346.86,27.23 32.11,13.7 65.09,27.78 98.14,38.38 78.13,33.55 146.08,43.37 206.55,43.37 35.22,0 67.91,-3.33 98.58,-7.26 35.86,-4.59 118.27,-27.01 189.21,-62.48 0.6,-0.3 0.84,-1.02 0.54,-1.61 z M 619.55,200.36 c 15.6,1.1 32.54,3.56 50.91,7.59 36.14,7.93 157.49,60.43 183.64,106.14 4.91,8.59 6.22,16.57 3.89,23.71 -2.09,6.42 -11.76,12.31 -27.97,17.03 -0.06,0.02 -0.11,0.03 -0.17,0.05 -8.47,-6.51 -17.81,-10.34 -27.08,-12.41 3.04,-0.93 5.59,-1.75 7.45,-2.38 5.58,-1.88 11.23,-4.15 13.69,-9.35 0.14,-0.29 0.15,-0.62 0.04,-0.93 -1.32,-3.62 -5.33,-5.23 -11.95,-4.77 -3.09,0.21 -12.2,1.05 -23.44,2.29 5.61,-3.46 10.4,-7.38 11.19,-11.37 0.36,-1.85 -0.12,-3.56 -1.43,-5.11 -3.01,-3.54 -9.97,-3.97 -21.26,-1.29 -12.16,2.89 -26.55,8.71 -36.75,13.22 6.95,-6.31 14.78,-14.29 21.18,-21.61 12.98,-14.84 11.64,-16.95 11.07,-17.85 -0.52,-0.81 -1.51,-1.01 -2.95,-0.59 -5.39,1.56 -21.12,12.45 -32.96,21.31 -2.64,1.98 -5.02,3.79 -7.16,5.45 3.18,-4.6 6.14,-9.23 8.24,-12.84 7.43,-12.77 9.65,-20.72 6.61,-23.63 -2.17,-2.08 -5.61,-2.31 -10.22,-0.7 -4.59,1.6 -10.11,4.94 -15.68,9.12 5.92,-12.66 9.23,-24.97 3.84,-29.22 -2.08,-1.64 -4.85,-1.32 -8.23,0.95 -7.44,4.99 -17.61,19.47 -25.01,32.53 1.59,-16.86 1.85,-40.59 -3.22,-42.15 -1.33,-0.41 -2.63,0.25 -3.86,1.95 -1.16,1.6 -2.36,4.35 -3.52,7.83 -0.34,-3.52 -0.76,-6.72 -1.25,-9.43 -1.32,-7.27 -2.94,-10.45 -5.42,-10.26 -0.92,0.07 -1.33,0.95 -1.48,1.28 -1.22,2.63 -3.19,13.52 -4.91,26.21 -0.29,-2.38 -0.6,-4.56 -0.93,-6.51 -1.49,-8.9 -2.9,-10.75 -4.56,-10.75 -0.01,0 -0.01,0 -0.02,0 -4.21,0.04 -7.53,3.52 -9.86,10.34 -1,2.94 -1.79,6.5 -2.39,10.37 -0.06,-0.21 -0.12,-0.41 -0.19,-0.62 -3.96,-13 -9.66,-19.76 -16.4,-19.58 -2.5,0.07 -4.38,2.1 -5.59,6.02 -1.84,5.98 -2.04,16.09 -1.14,26.25 -9,-12.88 -19.67,-25.16 -23.85,-26.39 -1.3,-0.38 -2.03,0.15 -2.35,0.51 -0.64,0.7 -2.56,2.82 5.26,22.87 -1.18,-1.48 -2.37,-2.94 -3.56,-4.38 -8.56,-10.39 -29.85,-35.03 -42.67,-39.36 -4.82,-1.63 -7.32,0.05 -8.56,1.75 -0.97,1.33 -0.89,4.01 6.25,14.58 4.48,6.64 10.97,15.22 18.77,24.83 2.99,3.68 6.23,7.57 9.54,11.46 -0.81,-0.61 -1.68,-1.27 -2.58,-1.96 -6.8,-5.21 -15.26,-11.7 -20.65,-10.27 -1.73,0.46 -3.01,1.65 -3.81,3.54 -2.32,5.5 22.9,29.02 25.78,31.69 0.07,0.06 0.14,0.13 0.21,0.19 -12.64,-2.87 -26.12,-4.33 -34.72,-2.88 -1.01,0.17 -4.43,0.9 -6.02,3.2 -0.65,0.93 -0.88,2 -0.66,3.09 0.54,2.77 3.52,3.79 5.72,4.32 6.11,1.46 13.67,3.41 20.98,5.28 6.7,1.72 13.24,3.4 18.85,4.77 -1.9,-0.1 -3.83,-0.2 -5.72,-0.3 -7.62,-0.41 -15.25,-0.81 -19.82,-1.05 -8.25,-0.42 -32.62,-0.04 -36.32,7.09 -0.64,1.24 -0.98,3.27 1.06,5.87 1.8,2.3 11.94,3.03 22.32,3.15 -7.36,2.97 -14.13,6.58 -19.4,10.83 -1.53,1.24 -3.14,3.41 -3.06,5.26 0.04,0.93 0.49,1.73 1.28,2.25 2.16,1.44 6.16,1.86 10.94,1.69 -4.25,2.84 -8.88,6.99 -8.84,10.23 0.01,0.81 0.34,2.31 2.37,3.21 4.29,1.92 14.63,0.73 26.74,-2.07 -4.53,2.94 -8.6,5.77 -11.97,8.35 -9.18,7.02 -12.52,11.59 -10.52,14.39 1.3,1.82 4.18,2.33 9.08,1.62 9.17,-1.33 23.83,-6.8 36.74,-12.2 -0.81,2.7 -0.76,5.4 0.52,7.93 0.74,1.46 1.87,2.44 3.37,2.92 1.34,0.43 2.87,0.42 4.49,0.13 -3.1,3.79 -5.05,7.17 -5.2,9.73 -0.12,1.92 0.67,3.45 2.28,4.41 3.08,1.84 7.2,1.12 11.91,-1.12 -6.65,8.03 -10.13,14.44 -6.85,17.88 0.93,0.98 2.22,1.39 3.84,1.22 4.11,-0.43 10.66,-5 17.86,-11.33 -3.34,5.44 -5.69,10.74 -5.54,14.51 0.07,1.75 0.66,3.14 1.75,4.12 1.43,1.29 3.42,1.31 5.93,0.09 2.55,-1.25 5.61,-3.81 8.84,-7.05 -3.81,8.78 -7.02,18.17 -5.07,20.1 0.45,0.45 1.48,1.02 3.25,-0.25 4.14,-2.96 11.09,-10.32 18.25,-19.55 -12.34,28.44 -10.14,30.51 -9.07,31.52 0.58,0.55 1.66,0.98 3.49,-0.1 5.57,-3.27 11.45,-10.1 16.74,-18.31 -0.35,2.81 -0.5,5.25 -0.41,7.1 0.06,1.07 0.23,4.34 2.54,4.61 1.52,0.18 3.17,-0.51 4.91,-2.05 4.78,-4.22 10.36,-15.01 14.86,-27.17 -0.89,14.5 -0.9,30.52 2.82,35.07 1.28,1.57 2.67,1.19 3.21,0.96 3.76,-1.63 7.72,-16.23 10.66,-31.54 1.2,9.68 3.1,17.64 4.87,18.82 0.72,0.48 1.58,0.38 2.19,-0.27 2.74,-2.92 4.62,-9.91 5.62,-18.14 0.07,0.4 0.15,0.8 0.22,1.21 0.87,4.81 1.65,9.11 2.19,12.24 0.04,0.22 4.15,22.15 8.61,22.85 0.42,0.07 1.46,0.07 2.18,-1.31 2.08,-3.99 1.51,-24 -0.27,-40.5 6.62,14.03 16.19,30.07 24.33,30.07 0.5,0 1,-0.06 1.49,-0.19 3.92,-1.01 2.66,-7.18 2.24,-9.21 -1.09,-5.3 -4.01,-13.26 -8.1,-22.15 10.22,9.39 22.21,17.37 28.37,17.05 1.88,-0.09 5.04,-1.02 5.04,-6.15 0,-2.49 -2.57,-7.17 -6.35,-12.46 16.02,9.59 32.7,18.02 38.02,17.61 2.23,-0.17 2.61,-1.48 2.67,-2.03 0.16,-1.43 0.57,-5.24 -34.25,-27.73 -6.79,-4.39 -13.7,-8.68 -19.77,-12.33 26.08,9.08 70.88,23.11 80.73,21.74 1.75,-0.24 2.65,-0.93 2.69,-2.04 0.04,-1.25 0.15,-4.18 -33.7,-15.92 -3.29,-1.14 -6.65,-2.28 -10,-3.38 17.11,2.39 33.72,3.82 37.51,1.6 1.21,-0.71 1.34,-1.67 1.31,-2.18 -0.07,-1.31 -0.21,-4.03 -28.73,-10.63 -0.98,-0.23 -1.98,-0.46 -2.99,-0.68 15.75,0.12 28.8,-0.77 30.79,-2.97 0.65,-0.72 0.69,-1.66 0.1,-2.46 -3.93,-5.34 -17.8,-9.52 -30.18,-12.3 11.26,-1.46 22.49,-3.57 32.06,-6.26 0.1,0.08 0.21,0.16 0.31,0.25 17.92,14.5 30.73,33.09 36.08,52.35 5.44,19.59 2.55,38.21 -8.16,52.42 -14.49,19.23 -60.61,35.48 -112.16,39.52 -37.69,2.95 -111.65,1.8 -183.5,-39.08 -42.18,-24 -73.81,-60.54 -89.06,-102.88 -12.34,-34.26 -12.79,-69.92 -1.15,-90.85 26.55,-47.69 80.09,-58.72 105.82,-64.02 13.41,-2.79 27.52,-4.4 41.99,-4.89 z M 740.48,357.7 c -1.15,0.23 -2.72,0.68 -3.05,1.97 -0.21,0.83 0.16,1.64 1.09,2.4 5.42,4.45 27.64,5.04 51.31,2.59 16.87,3.3 31.44,7.81 35.43,12.51 -2.78,1.5 -18.52,2.48 -41.7,1.58 -10.88,-2.19 -22.13,-4.19 -31.31,-5.51 -16.68,-2.41 -17.05,-1.36 -17.44,-0.25 -0.28,0.8 0.12,1.52 1.18,2.15 5.17,3.07 26.78,5.31 47.71,6.09 26.74,5.41 40.39,9.79 42.12,11.72 -1.44,1.11 -10.94,1.78 -38.54,-2.23 -4.32,-0.63 -8.52,-1.29 -12.46,-1.94 -9.29,-2.83 -17.49,-5.09 -22.64,-6.19 -4.83,-1.03 -6.29,-0.98 -6.79,0.25 -0.52,1.27 0.92,2.17 1.7,2.66 1.26,0.79 12.94,3.24 27.05,5.59 4.84,1.48 10.16,3.17 15.79,5.03 24.76,8.2 37.9,13.97 40.47,16.26 -0.07,0.01 -0.15,0.03 -0.23,0.04 -11.09,1.55 -71.16,-18.18 -91.32,-25.77 -3.97,-2.25 -6.75,-3.7 -7.69,-3.98 -1.14,-0.34 -1.59,0.36 -1.71,0.58 -0.53,1.03 0.42,1.78 1.43,2.56 0.51,0.39 2.89,1.4 6.6,2.81 7.07,4.01 18.46,10.86 30.08,18.35 30.23,19.47 33.47,24.69 33.8,25.72 -0.09,0.02 -0.23,0.05 -0.43,0.07 -4.27,0.31 -19.74,-7.07 -38.42,-18.41 -1.19,-0.72 -2.35,-1.43 -3.48,-2.14 -7.87,-9.8 -18.19,-19.91 -23.43,-21.6 -4.01,-1.29 -5.92,-1.39 -6.8,-0.35 -0.29,0.34 -0.7,1.1 -0.09,2.29 1.79,3.51 14.41,12.65 28.76,21.56 5.45,6.87 9.58,13.35 9.58,15.89 0,3.2 -1.48,3.69 -2.77,3.75 -6.31,0.32 -20.77,-10.28 -31.3,-21.01 -0.25,-0.5 -0.5,-1 -0.75,-1.5 -2.51,-4.97 -5.05,-9.54 -7.14,-12.86 -3.44,-5.47 -4.5,-5.8 -5.42,-5.66 -0.56,0.09 -1.48,0.52 -1.29,2.43 0.48,4.7 5.78,12.05 12.78,19.23 5.96,12.11 11.74,26.44 11.02,32.14 -0.18,1.43 -0.72,1.57 -0.9,1.62 -1.65,0.42 -3.67,-0.36 -6,-2.33 -7.34,-6.21 -15.2,-21.49 -20.25,-33.36 -0.96,-6.56 -2.11,-11.76 -3.33,-13.84 -1.33,-2.28 -2.3,-3.74 -3.62,-3.12 -1.07,0.5 -1.51,1.35 1.23,9.01 0.8,2.24 1.95,5.19 3.36,8.51 2.33,16.42 3.64,42.04 1.63,46.76 -1.79,-2.11 -5.13,-13.26 -6.39,-20.62 -0.54,-3.13 -1.32,-7.44 -2.19,-12.26 -0.55,-3.06 -1.19,-6.56 -1.84,-10.2 0.42,-10.5 -0.46,-21.26 -2.66,-27.32 -0.95,-2.61 -1.61,-4.18 -3,-3.8 -1.57,0.43 -2.2,0.59 3.3,31.52 -0.49,10.71 -2.34,20.9 -5.21,24.86 -1.36,-2.8 -3.37,-13.71 -4.27,-25.09 2.1,-12.71 3.31,-24.26 2.9,-27.36 -0.06,-0.42 -0.22,-1.68 -1.36,-1.85 -1.19,-0.18 -1.76,1.09 -2.03,1.7 -2.37,5.27 -2.7,16.28 -1.97,27.1 -2.49,15.2 -6.15,32.16 -9.67,37.45 -0.72,1.09 -1.12,1.15 -1.12,1.15 -0.03,-0.01 -0.16,-0.07 -0.34,-0.3 -3.8,-4.65 -3.2,-24.74 -1.54,-42.83 3.12,-10.2 5.22,-20.44 5.27,-27.92 0.03,-3.9 -0.2,-4.87 -1.24,-5.19 -0.46,-0.14 -1.11,-0.05 -1.56,0.62 -1.42,2.11 -3.66,18.32 -4.91,32.46 -4.62,14.97 -11.46,29.67 -17.14,34.68 -1.15,1.02 -2.17,1.53 -2.97,1.47 -0.12,-0.15 -0.55,-0.92 -0.52,-3.72 0.03,-2.81 0.49,-6.58 1.23,-10.85 10,-17.31 16.96,-38.29 13.88,-45.68 -0.41,-0.99 -1.24,-1.18 -1.82,-1.05 -2.63,0.6 -6.71,14.04 -9.68,25.21 -1.75,6.61 -3.53,14.23 -4.69,20.89 -5.65,9.76 -12.32,18.28 -18.85,22.11 -0.33,0.19 -0.54,0.27 -0.67,0.31 -0.31,-0.95 -0.38,-5.97 10.98,-31.72 1.03,-2.34 2.11,-4.73 3.2,-7.14 8.61,-12.49 16.28,-26.62 18.15,-37.73 0.1,-0.58 -0.25,-1.15 -0.81,-1.34 -0.56,-0.18 -1.18,0.07 -1.45,0.6 -4.72,9.27 -11.84,23.8 -18.12,37.58 -8.94,12.89 -18.87,23.93 -24.14,27.69 -0.07,0.05 -0.13,0.09 -0.18,0.12 -0.2,-3.05 4.26,-14.64 8.47,-23.47 5.63,-6.42 11.23,-13.87 15.1,-19.23 7.73,-10.7 18.33,-26.78 18.16,-29.15 -0.04,-0.56 -0.39,-1.01 -0.9,-1.18 -0.95,-0.3 -1.7,0.28 -4.04,3.1 -6.3,7.59 -11.84,15.93 -17.19,24 -2.66,4.01 -5.42,8.16 -8.23,12.16 -0.99,1.41 -2.79,4.71 -4.77,8.79 -6.08,6.92 -10.95,11.21 -14.07,12.27 -1.57,0.54 -2.12,0.04 -2.3,-0.12 -0.6,-0.54 -0.92,-1.34 -0.96,-2.44 -0.2,-5.12 5.5,-14.43 11.61,-22.34 13.1,-12.91 26.12,-28.45 29.32,-33.64 1.58,-2.56 2.24,-3.62 1.14,-4.39 -1.19,-0.84 -1.19,-0.84 -9.78,9.8 -4.95,6.13 -11.11,13.77 -15.17,18.05 -2.19,2.31 -4.74,5.26 -7.25,8.49 -10.02,9.85 -19.89,18.04 -24.84,18.56 -1.26,0.13 -1.71,-0.33 -1.85,-0.48 -2.74,-2.88 4.11,-11.72 11.39,-19.79 5.31,-3.43 11.05,-7.98 16.7,-12.47 3.22,-2.56 6.27,-4.98 9.08,-7.05 2.88,-2.13 7.83,-6.56 12.3,-11.04 8.32,-8.33 7.76,-9.27 7.27,-10.1 -0.73,-1.23 -2.28,-0.5 -2.79,-0.26 -5.2,2.43 -21.25,14.7 -30.47,24.65 -1.36,1.47 -3.06,3.23 -4.86,5.1 -3.09,3.2 -6.04,6.3 -8.71,9.25 -6.4,4.1 -12.14,6.54 -15.46,4.55 -0.84,-0.5 -1.18,-1.18 -1.12,-2.21 0.16,-2.68 2.78,-6.6 6.85,-11.05 2.63,-0.99 5.26,-2.36 7.52,-3.53 l 0.92,-0.47 c 6.56,-3.37 17.42,-11.06 24.72,-16.62 16.53,-12.57 15.79,-14.12 15.35,-15.04 -0.77,-1.6 -3.12,-0.55 -4.68,0.14 -11.28,5 -33.12,20.65 -44.97,33.38 -2.52,0.93 -4.94,1.44 -6.66,0.89 -0.88,-0.28 -1.52,-0.85 -1.97,-1.72 -1.27,-2.5 -0.95,-5.3 0.36,-8.12 5.08,-2.16 9.79,-4.26 13.63,-6.01 9,-4.1 17.93,-8.42 25.15,-12.16 11.07,-5.74 11.35,-6.56 11.54,-7.1 0.15,-0.42 0.03,-0.98 -0.28,-1.31 -6.76,-7.06 -28.65,4.97 -35.2,8.83 -6.02,3.55 -13.21,9.53 -16.53,15.84 -17.6,7.52 -34.91,13.73 -42.55,13.27 -1.35,-0.08 -2.29,-0.4 -2.64,-0.9 -0.3,-0.42 -0.02,-1.59 1.68,-3.61 4.44,-5.28 14.66,-12.51 26.24,-19.57 22.15,-5.92 47.08,-15.87 51.6,-21.79 1.41,-1.84 0.78,-3.14 0.28,-3.75 -0.73,-0.89 -2.96,-3.6 -29.54,10.17 -7.82,4.06 -15.68,8.5 -22.83,12.87 -14.7,4 -28.04,6.27 -32.65,4.21 -0.94,-0.42 -0.95,-0.87 -0.95,-1.06 -0.04,-2.56 6.57,-8.03 11.81,-10.55 0.03,-0.01 0.06,-0.03 0.09,-0.04 9.04,-0.96 19.25,-3.26 24.97,-4.66 16.18,-3.97 34.83,-10.15 39.19,-14.27 1.54,-1.46 1.21,-2.63 0.88,-3.2 -0.41,-0.69 -1.09,-1.36 -2.45,-1.74 0.36,-0.1 0.7,-0.2 1.01,-0.31 1.38,-0.46 2.97,-1.17 2.99,-2.57 0.03,-1.5 -1.79,-2.18 -2.48,-2.44 -6.83,-2.56 -31.25,-0.22 -52.89,7.18 -2.72,0.02 -5.42,0 -8.06,-0.05 -16.77,-0.32 -18.65,-2.01 -18.81,-2.2 -1.52,-1.93 -0.99,-2.95 -0.81,-3.28 2.46,-4.74 21.71,-6.44 34.07,-5.8 4.57,0.24 12.2,0.64 19.82,1.05 6,0.32 12,0.64 16.5,0.88 2.25,0.12 4.13,0.22 5.44,0.28 0.71,0.04 1.26,0.06 1.71,0.06 0.14,0.01 0.23,0.02 0.27,0.02 v -0.02 c 1.02,-0.03 1.3,-0.28 1.34,-1.1 0.05,-0.9 -0.6,-1.17 -1.21,-1.26 v -0.01 c -0.01,0 -0.03,0 -0.06,0 -0.18,-0.02 -0.36,-0.04 -0.51,-0.05 l -2.1,-0.13 c -4.14,-0.25 -19.21,-4.12 -33.79,-7.86 -7.32,-1.88 -14.9,-3.83 -21.02,-5.29 -2.46,-0.59 -3.71,-1.37 -3.92,-2.44 -0.09,-0.46 0,-0.86 0.28,-1.26 0.68,-0.98 2.47,-1.86 4.45,-2.2 9.5,-1.6 24.74,0.47 38.02,3.87 9.23,8.23 21.86,18.39 25.86,16.3 3.3,-1.71 3.15,-3.87 2.77,-5.01 -1.54,-4.6 -13.49,-9.82 -27.48,-13.47 -14.98,-13.39 -29.24,-29.37 -28.63,-32.13 0.5,-1.19 1.22,-1.89 2.21,-2.15 4.25,-1.12 12.53,5.22 18.58,9.86 1.48,1.13 2.88,2.21 4.11,3.09 1.71,1.23 3.7,2.62 5.84,4.12 0.24,0.17 0.49,0.35 0.74,0.52 9.14,10.36 18.04,19.64 23.23,23.51 1.22,0.91 4.08,3.04 5.46,1.22 0.48,-0.64 0.67,-1.43 0.53,-2.31 -0.78,-4.97 -12.85,-13.88 -27.56,-24.2 -10.42,-11.79 -21.93,-25.82 -30.4,-37.5 -10.9,-15.01 -10.56,-17.67 -10.53,-17.85 0.46,-0.63 1.86,-2.53 6.69,-0.59 8.81,3.53 24.4,18.29 41.7,39.46 2.81,3.44 5.41,6.74 7.81,9.86 3.88,9.02 8.09,17.47 11.44,22.8 3.28,5.24 5.48,7.23 7.35,6.68 0.77,-0.23 1.24,-0.91 1.26,-1.81 0.07,-3.54 -8.12,-15.98 -17.99,-28.91 -5.7,-13.3 -9.67,-25.67 -8.96,-28.01 3.21,0.58 15.54,14.87 25.01,28.96 1.56,12.65 4.71,24.35 8.38,27 1.27,0.92 2.66,0.94 3.91,0.05 1.36,-0.97 1.83,-2.75 1.41,-5.29 -0.83,-4.98 -5.49,-13.57 -11.35,-22.41 -1.35,-11.09 -1.51,-23.01 0.56,-29.75 0.6,-1.95 1.67,-4.28 3.37,-4.33 4.46,-0.14 8.43,3.76 11.76,11.55 1.64,3.84 2.94,8.18 3.96,12.66 -1.65,16.68 -0.47,35.89 1.6,37.52 0.48,0.38 1.11,0.41 1.62,0.09 3.36,-2.12 2.68,-21.84 -0.8,-37.69 0.78,-7.97 2.27,-15.43 4.84,-20.09 1.61,-2.91 3.5,-4.45 5.62,-4.56 0.36,0.44 1.92,3.05 3.48,16.6 0.34,2.95 0.63,5.94 0.87,8.92 -2,17.37 -3.13,34.81 -1.15,37.53 0.41,0.56 1,0.83 1.62,0.76 1.34,-0.16 2.57,-1.17 2.85,-11.49 0.16,-5.92 -0.06,-14.04 -0.6,-22.26 -0.09,-1.42 -0.19,-2.81 -0.3,-4.18 0.02,-0.16 0.04,-0.32 0.06,-0.49 2.1,-18.17 4.55,-32.2 5.77,-35.37 0.96,1.09 2.81,5.78 3.95,19.49 0.11,1.3 0.21,2.63 0.29,3.98 -4.56,17.23 -7.85,42.9 -4.87,47.12 0.59,0.84 1.5,1.18 2.42,0.91 3.07,-0.91 4.84,-9.59 5.26,-25.82 0.19,-7.42 0.04,-15.14 -0.4,-22.13 1.43,-5.29 2.92,-9.5 4.29,-11.91 1.08,-1.9 1.76,-2.15 1.87,-2.11 0.71,0.3 2.69,4.83 2.56,21.11 -0.07,8.26 -0.67,16.98 -1.62,24.25 -4.43,8.48 -7.2,15.56 -6.57,17.78 0.25,0.87 0.9,1.4 1.75,1.43 1.92,0.08 4.34,-1.48 6.49,-14.14 0.21,-1.27 0.42,-2.69 0.62,-4.24 7.04,-13.29 18.28,-30.64 26.63,-36.58 2.63,-1.87 4.59,-2.32 5.83,-1.35 3.14,2.47 2.27,10.32 -2.39,21.55 -1.27,3.07 -2.71,6.14 -4.24,9.14 -12.59,10.32 -24.35,23.77 -25.17,29.79 -0.26,1.91 0.52,2.89 1.23,3.38 0.92,0.64 3.36,2.34 12.55,-10.06 4.06,-5.49 8.99,-13.3 13.18,-21.41 6.6,-5.43 13.43,-9.98 18.96,-11.91 3.69,-1.29 6.3,-1.23 7.77,0.17 0.8,0.77 0.82,2.74 0.04,5.55 -2.64,9.53 -12.48,24.62 -20.32,34.83 -9.73,7.99 -11.53,10.77 -11.53,11.73 0,0.68 0.42,1.25 1.08,1.45 2.09,0.63 7.03,-4.67 12.26,-11.52 4.43,-3.63 10.05,-8 16.55,-12.81 16.13,-11.9 26.75,-18.34 29.67,-19.02 -1.3,4.93 -22.45,28.82 -37.61,41.24 -2.71,1.27 -5.29,2.53 -7.58,3.69 -6.18,3.14 -6.26,3.46 -6.4,4.04 -0.11,0.44 0.05,0.92 0.39,1.22 1.47,1.26 4.49,1.53 14.64,-6.77 19.84,-9.26 55.93,-23.86 62.64,-15.97 0.83,0.97 1.12,1.98 0.9,3.09 -0.88,4.46 -9.25,9.51 -14.8,12.51 -5.71,0.66 -11.77,1.41 -17.74,2.23 -40.2,5.47 -41.5,8.85 -42.05,10.29 -0.31,0.81 -0.11,1.67 0.56,2.36 4.4,4.52 13.07,2 22.24,-0.68 3.09,-0.9 6.29,-1.83 9.29,-2.47 8.63,-1.84 17.55,-3.75 25.62,-7.92 0.92,-0.47 1.85,-0.97 2.79,-1.47 13.68,-1.58 25.3,-2.67 28.86,-2.91 3.53,-0.24 7.93,0.06 9.33,2.75 -2.2,4.02 -7.15,5.97 -12.05,7.63 -3.51,1.19 -7.48,2.44 -11.69,3.69 -21.18,-3.37 -41.17,1.66 -48.86,4.01 -1.39,0.42 -13.59,4.24 -14.48,7.13 -0.29,0.95 -0.08,1.83 0.59,2.48 4.76,4.63 41.26,-4.8 62.8,-11.17 9.91,1.63 20.01,5.16 29.12,11.73 -11.36,3.05 -24.57,5.22 -37.25,6.51 -1.52,-0.29 -2.96,-0.56 -4.31,-0.8 -19.07,-3.42 -38.36,-5.01 -44.9,-3.73 z m 40.03,5.29 c -19.63,1.37 -36.39,0.47 -40.42,-2.74 1.93,-0.69 9.09,-1.04 23.31,0.45 5.59,0.59 11.39,1.37 17.11,2.29 z m -16.03,14.63 c -10.75,-0.88 -19.35,-2.07 -24.09,-3.36 4.7,0.33 13.29,1.5 24.09,3.36 z m -12.2,30.28 c -11.73,-7.62 -19.43,-13.59 -21.15,-15.96 0.63,0.07 1.76,0.29 3.73,0.92 4.05,1.31 11.01,7.78 17.42,15.04 z m -25.69,-2.34 c -2.62,-3.29 -4.55,-6.35 -5.39,-8.81 1.36,1.84 3.27,4.97 5.39,8.81 z m -25.5,-5.13 c -0.33,-2.06 -0.63,-3.99 -0.88,-5.7 0.37,1.75 0.66,3.67 0.88,5.7 z m -9.42,1.51 c 0.12,-2.6 0.36,-5.02 0.75,-7.11 -0.16,1.97 -0.42,4.38 -0.75,7.11 z m -35.09,23.81 c 3.11,-14.48 8.09,-31.09 10.55,-35.68 1.16,6.47 -3.42,21.49 -10.55,35.68 z m -17.85,-21.4 c 1.28,-1.9 2.53,-3.79 3.77,-5.66 4.14,-6.24 8.39,-12.64 13,-18.7 -3.36,5.39 -8.31,12.82 -14.25,20.95 -0.85,1.17 -1.69,2.3 -2.52,3.41 z m -25.34,-11.27 c 0.1,-0.11 0.2,-0.21 0.3,-0.32 1.81,-1.87 3.51,-3.65 4.9,-5.14 7.93,-8.57 20.95,-18.85 27.43,-22.83 -3.75,4.33 -12.13,12.49 -16.92,16.02 -2.85,2.1 -5.91,4.53 -9.15,7.1 -2.12,1.69 -4.33,3.45 -6.56,5.17 z m -15.16,-6.22 c 11.63,-11.1 29.32,-23.72 39.93,-28.48 -6.02,5.9 -26.75,21.7 -37.3,27.12 l -0.92,0.48 c -0.54,0.28 -1.11,0.58 -1.71,0.88 z m -11.96,-9.89 c 3.53,-4.84 9.25,-9.36 13.91,-12.11 10.01,-5.89 21.17,-10.7 27.71,-10.7 1.42,0 2.61,0.23 3.54,0.71 -4.54,2.89 -24.59,13.12 -45.16,22.1 z m -12.28,-14.36 c 17.87,-10.2 36.31,-18.83 40.63,-18.83 0.24,0 0.43,0.03 0.58,0.08 0.03,0.21 -0.34,0.69 -0.35,0.72 -3.41,4.46 -21.99,12.2 -40.86,18.03 z m -10.96,-24.52 c 8.16,-0.24 17.44,-0.77 25.52,-1.53 -2.38,0.73 -5.06,1.63 -8.07,2.71 -15.68,5.65 -32.58,13.58 -38.14,16.25 -6.98,0.71 -12.27,0.53 -14.44,-0.92 -0.15,-0.1 -0.2,-0.19 -0.21,-0.36 -0.04,-0.8 0.96,-2.31 2.17,-3.29 6.44,-5.19 15.36,-9.43 24.87,-12.7 2.97,-0.02 5.81,-0.08 8.3,-0.16 z m -0.08,-2.38 c 13.44,-3.76 26.98,-5.66 35.64,-5.66 3.41,0 6.07,0.3 7.65,0.89 0.18,0.07 0.33,0.13 0.46,0.19 -3.88,1.87 -23.45,3.98 -43.75,4.58 z m 39.94,0.28 c 1.49,0 2.49,0.27 2.94,0.83 -0.55,0.92 -4.35,3.47 -15.58,7.38 -12.62,4.39 -27.72,8.25 -40.01,10.26 24.46,-11.33 44.99,-18.47 52.65,-18.47 z m -11.78,-25.45 c 11.16,3.29 19.96,7.37 21.04,10.59 0.1,0.3 0.37,1.1 -1.6,2.12 -0.08,0.04 -2.07,0.92 -12.39,-6.99 -2.3,-1.76 -4.67,-3.69 -7.05,-5.72 z m 7.77,-13.86 c 8.58,6.25 17.26,13.14 17.76,16.34 0.01,0.07 0.02,0.13 0.02,0.19 -2.33,-0.7 -9.22,-7.29 -17.78,-16.53 z m 14.7,-5.56 c 6.15,8.66 9.88,14.98 10.64,17.48 -1.04,-0.85 -3.36,-3.47 -7.66,-11.6 -1.01,-1.9 -2.01,-3.88 -2.98,-5.88 z m 14.37,-4.77 c 3.45,5.53 6.23,10.77 7.57,14.85 0.93,2.83 1.01,4.85 0.21,5.42 -0.35,0.25 -0.63,0.31 -1.12,-0.04 -2.54,-1.82 -5.05,-10.22 -6.66,-20.23 z m 20.65,-5.44 c 1.38,10.02 1.48,19.28 0.85,23.46 -0.66,-4.33 -1.18,-13.58 -0.85,-23.46 z m 16.32,6.85 c 0.24,8.36 0.04,15.21 -0.53,18.38 -0.32,-2.88 -0.22,-8.99 0.53,-18.38 z m 12.01,-19.46 c 0.19,6.84 0.12,13.78 -0.24,19.9 -0.81,13.98 -2.65,16.71 -3.15,17.21 -0.96,-1.54 -1.2,-10.04 1.22,-25.38 0.64,-4.07 1.37,-8.03 2.17,-11.73 z m 7.75,31.09 c -0.06,0.29 -0.12,0.57 -0.18,0.84 -1.16,5.14 -2.22,6.89 -2.77,7.49 0.07,-1.43 1.16,-4.43 2.95,-8.33 z m 26.21,-8.52 c -8,14.12 -17.21,25.38 -19.3,25.14 -0.22,-0.16 -0.3,-0.52 -0.22,-1.09 0.59,-4.3 9.24,-14.74 19.52,-24.05 z m 65.35,40.33 c -6.95,3.02 -14.5,4.63 -21.84,6.2 -3.09,0.66 -6.33,1.6 -9.46,2.52 -8.38,2.44 -16.31,4.75 -19.8,1.35 0.71,-0.86 5.71,-3.98 40.29,-8.67 3.6,-0.5 7.24,-0.96 10.81,-1.4 z m 15.72,12.01 c -8.88,2.53 -18.33,4.98 -26.58,6.84 -26.39,5.96 -28.62,3.46 -28.68,3.41 0,0 0,-0.01 0,-0.03 1.16,-1.48 12.73,-6.82 29.52,-9.34 7.55,-1.14 16.46,-1.76 25.74,-0.88 z M 537.87,539.05 C 520.17,530 489.39,502.73 476.88,485.01 424.81,411.2 439.39,337.4 448.08,309.09 c 15.98,-52.05 54.96,-107.72 148.41,-109.37 -6.61,0.8 -13.11,1.85 -19.46,3.16 -24.04,4.95 -80.35,16.55 -107.43,65.2 -11.97,21.5 -11.58,57.94 0.99,92.83 15.45,42.88 47.46,79.87 90.13,104.15 72.4,41.2 146.91,42.36 184.87,39.39 52.18,-4.09 99.01,-20.73 113.89,-40.47 11.16,-14.82 14.2,-34.17 8.56,-54.5 -5.38,-19.38 -18.11,-38.08 -35.9,-52.77 16.35,-4.96 25.82,-11.06 28.13,-18.16 2.55,-7.81 1.17,-16.44 -4.09,-25.64 -26.47,-46.27 -148.8,-99.3 -185.21,-107.29 -5.79,-1.27 -14.79,-3.25 -25.94,-4.98 38.87,2.1 79.03,11.79 115.06,28.38 62.14,28.6 103.88,72.57 117.53,123.83 11.59,43.52 3.46,93.63 -21.73,134.04 -18.92,30.35 -56.67,69.54 -129.1,83.91 -51.78,10.27 -100.67,2.41 -149.39,-13.17 -12.89,-5.53 -26.07,-11.71 -39.53,-18.58 z"
   id="path4"
   inkscape:connector-curvature="0"
   style="display:inline" />
</g>
<g
   id="Layer_2"
   transform="translate(-131.33369,-195.90826)">
	<path
   class="st3"
   d="m 131.98,492.6 c 80.32,-38.35 176.89,-41.02 259.21,-7.18 15.91,6.54 31.26,14.36 46.84,21.66 49.79,23.36 102,41.58 155.51,54.28 50.89,12.08 104.3,19.12 155.36,7.76 51.06,-11.35 99.64,-43.79 119.41,-92.21 8,-19.58 11.04,-40.81 13.01,-61.88 1.89,-20.27 2.84,-40.89 -1.36,-60.81 -8.51,-40.4 -37.68,-74.09 -72.27,-96.63 -34.59,-22.54 -74.48,-35.34 -114.07,-47.06 -25.93,-7.67 -52.68,-15.06 -79.61,-12.66 -15.27,1.36 -30.07,5.84 -44.72,10.36 -22.07,6.81 -44.36,13.88 -64.01,26.01 -19.65,12.14 -36.69,30.05 -43.1,52.24 -10.61,36.75 2.60034,72.15763 22.22034,104.98763 8.5,14.21 23.93966,31.06237 35.42966,42.98237 18.23,18.91 42.5,30.71 66.77,40.75 72.56,29.99 156.07,47.21 228.85,17.78 18.3,-7.4 36.41,-18.6 45.03,-36.36 5.63,-11.6 6.66,-25.04 4.78,-37.8 -4.17,-28.25 -22.94,-53.94 -48.58,-66.5 -25.65,-12.56 -83.41,-0.29 -82.32,2.39 1.84,4.54 90.52,-16.66 88,-24.23 -1.89,-5.69 -99.37,7.01 -98.41,10.48 0.89,3.22 78.32,-23.89 75.86,-28.34 -4.18,-7.53 -79.93,16.02 -78.5,21.2 0.77,2.82 55.88,-48.02 52.42,-51.26 -5.65,-5.3 -58.74,44.6 -57.46,48.75 0.83,2.7 25.46,-26.12 29.13,-43.67 0.53,-2.54 0.91,-5.25 -0.03,-7.66 -2.91,-7.48 -14.17,-5.51 -20.88,-1.1 -14.74,9.7 -32.46,40.05 -30.41,41.93 2.66,2.44 32.98,-70.57 27.39,-74.18 -4.75,-3.07 -39.44,66.76 -35.4,67.22 4.18,0.48 7.52,-69.68 3.18,-70.18 -4.38,-0.5 -19.52,64.08 -15.03,63.68 3.88,-0.35 1.34,-67.95 -2.72,-68.32 -3.72,-0.34 -13.07,68.12 -10.36,68.37 4.25,0.39 -3.27,-62.06 -6.14,-61.67 -4.28,0.58 -9.14,65.05 -5.75,64.59 2.95,-0.4 -1.56,-41.17 -13.07,-57.83 -0.98,-1.41 -2.21,-2.92 -3.92,-3.06 -2.67,-0.22 -4.27,2.85 -5,5.42 -5.44,19.11 2.65,59.51 5.42,57.99 3.82,-2.1 -21.88,-66.07 -28.62,-63.99 -3.89,1.2 15.71,61.77 18.14,60.33 3.45,-2.06 -71.07,-82.33 -74.25,-79.14 -4.58,4.58 29.34,61.34 52.27,86.21 3.99,4.33 11.28,8.49 14.95,3.89 3.2,-4.03 -0.75,-9.74 -4.65,-13.1 -13.98,-12.05 -45.38,-29.82 -47.84,-27.16 -2.54,2.75 47.02,40.49 47.25,38.11 0.33,-3.5 -25.38,-8.88 -38.33,-12.89 -13.66,-4.22 -39.62,-1.79 -39.62,3.7 0,3.87 71.26,17.3 70.35,15.38 -1,-2.12 -36.87,-5.14 -54.93,-1.17 -6.36,1.4 -13.03,3.62 -16.95,8.82 -3.92,5.2 -3.32,14.12 2.61,16.81 2.37,1.07 5.09,0.99 7.68,0.8 19.68,-1.4 57.47,-15.06 56.04,-17.37 -2.08,-3.38 -72.68,30.85 -65.55,37.33 5.41,4.92 72.91,-30.74 70.72,-32.93 -1.57,-1.57 -42.48,14.21 -54.73,32.37 -3.57,5.29 -6.15,15.66 -1.41,19.93 3.13,2.82 7.92,-0.03 12.04,-0.9 22.96,-4.84 55.34,-40.56 53.19,-42.2 -1.72,-1.31 -37.25,16.44 -49.96,32.03 -1.89,2.32 -3.74,4.88 -4.13,7.84 -0.82,6.22 5.41,11.59 11.66,12.15 6.25,0.56 12.25,-2.32 17.76,-5.34 17.53,-9.6 50.08,-33.03 48.51,-34.99 -2.78,-3.49 -28.69,17.95 -41.01,29.5 -2.33,2.18 -4.69,4.57 -5.52,7.65 -2.02,7.56 7.04,14.36 14.79,13.18 7.74,-1.18 13.67,-7.33 18.66,-13.36 6.87,-8.3 20.86,-25.6 18.85,-26.23 -4.72,-1.49 -41.26,60.66 -36.86,62.05 3.45,1.09 49.04,-57.92 47.29,-59.23 -2.75,-2.06 -18.03,20.6 -23.48,33.02 -5.46,12.41 -8.44,37.95 -4.27,38.26 4.09,0.31 35.72,-61.07 33.83,-61.86 -3.46,-1.44 -23.22,31.9 -26.74,51.1 -1.5,8.16 1.41,20 9.64,18.93 4.29,-0.56 7.06,-4.73 9.04,-8.58 7.46,-14.49 15.74,-45.54 13.68,-46.64 -2.17,-1.16 -10.78,60.29 -5.55,62.28 1.5,0.57 25.05,-65.69 24,-66.75 -1.58,-1.58 -18.1,41.93 -12.5,63.54 0.77,2.99 2.05,6.29 4.92,7.42 4.5,1.77 8.79,-2.94 11.05,-7.22 9.48,-17.88 11.73,-59.15 9.08,-58.88 -4.86,0.5 -3.78,66.62 1.78,65.54 6.9,-1.34 12.35,-57.93 10.09,-57.93 -1.3,0 -8.47,18.03 -9.07,27.83 -0.6,9.8 3.33,20.54 12,25.16 8.66,4.62 21.73,0.03 22.18,-14.84 0.45,-14.87 -12.49,-45.19 -13.39,-45.48 -2.43,-0.78 -2.37,30.2 2.71,44.32 2.97,8.25 11.09,17.37 18.9,13.37 4.66,-2.39 6.12,-8.28 6.58,-13.5 1.52,-17.47 -9.66,-49.54 -12.01,-50.3 -2.9,-0.94 0.18,36.06 10.52,50.39 4.53,6.28 13.2,12.05 19.42,7.44 3.06,-2.27 4.2,-6.32 4.56,-10.11 1.81,-19.11 -13.25,-38.29 -32.25,-41.06 -3.03,6.57 3.74,13.31 9.91,17.09 21.06,12.88 59.29,8.55 59.29,8.55 0,0 13.14,-2.28 13.73,-3.7 1.67,-4.02 -3.27,-7.46 -7.33,-9.04 -24.14,-9.38 -72.11,-21.58 -72.28,-19.51 -0.18,2.21 86.07,14.53 86.56,8.49 0.25,-3.14 -86.9,-22.09 -88.08,-15.58 -0.42,2.34 52.31,7.33 77.98,-0.92 -19.37,-19.68 -76.13,-20.89 -76.46,-17.92 -0.3,2.77 10.7,7.51 17.41,7.79 19.72,0.84 39.54,-0.85 58.82,-5.04 16.51,-3.58 34.77,-10.99 40.12,-27.02 6.95,-20.8 -11.85,-40.7 -29.27,-54.02 -51.12,-39.08 -108.47,-72.79 -171.93,-83.44 -63.46,-10.65 -134,5.11 -177.61,52.42 -17.14,18.6 -27.82508,42.03746 -37.00508,65.60746 -6.31,16.2 -8.66763,37.37729 -9.60763,54.74729 -3.08,57.03 32.47271,102.88525 77.96271,137.41525 103.12,78.25 242.02,99.33 369.51,76.91 36.65,-6.45 72.62,-16.2 108.54,-25.94 30.53,-8.28 61.09,-16.57 90.92,-27.09"
   id="drawing"
   inkscape:connector-curvature="0"
   style="fill:none;stroke:#000000;stroke-width:3;stroke-miterlimit:10"
   sodipodi:nodetypes="ccccccccsccccccccccccccccccccccccccccccccccccccccccccsccsccccsccccccscccccccccccccccccccccccsscsccccccccccccccccccccccsccccccc" />
</g>
</svg>