<!-- Generator: Adobe Adobe Illustrator 24.2.0, SVG Export Plug-In . SVG Version: 6.00 Build 0)  -->
<svg version="1.1" id="mySVG" xmlns="http://www.w3.org/2000/svg" xmlns:xlink="http://www.w3.org/1999/xlink" x="0px" y="0px" width="1200px"
	 height="800px" viewBox="0 0 1200 800" style="enable-background:new 0 0 1200 800;" xml:space="preserve">
<style type="text/css">
	.st0{display:none;}
	.st1{display:inline;fill:#FFFFFF;}
	.st2{display:inline;}
	.st3{fill:none;stroke:#000000;stroke-width:3;stroke-miterlimit:10;}
</style>
<g id="XMLID_1_" class="st0">
	<path class="st2" d="M1070.74,531.6c-0.3-0.59-1.02-0.83-1.61-0.54c-70.68,35.34-152.75,57.67-188.44,62.24
		c-77.94,9.97-168.9,16.13-281.62-26.91c0.43,0.12,0.87,0.23,1.31,0.34c46.17,12.08,87.67,14.17,126.88,6.4
		c73.28-14.53,111.5-54.24,130.67-84.99c12.96-20.79,21.7-44.78,25.29-69.35c3.34-22.95,2.21-45.97-3.28-66.58
		c-7.12-26.73-21.74-51.52-43.47-73.67c-20.21-20.6-45.57-38.01-75.38-51.72c-43.59-20.06-93.19-30.12-139.33-28.93
		c-18.34-1.44-39.47-1.31-60.7,2.78c-58,11.19-96.78,47.43-115.28,107.71c-8.79,28.64-23.55,103.33,29.14,178.01
		c12.67,17.96,43.89,45.62,61.86,54.8c5.51,2.81,10.97,5.51,16.38,8.1c-24.64-9.02-49.36-19.57-74.5-30.3
		c-106.72-45.55-217.07-92.65-348.87-27.17c-0.59,0.29-0.84,1.02-0.54,1.61c0.3,0.59,1.02,0.84,1.61,0.54
		c130.81-64.98,240.64-18.11,346.86,27.23c32.11,13.7,65.09,27.78,98.14,38.38c78.13,33.55,146.08,43.37,206.55,43.37
		c35.22,0,67.91-3.33,98.58-7.26c35.86-4.59,118.27-27.01,189.21-62.48C1070.8,532.91,1071.04,532.19,1070.74,531.6z M619.55,200.36
		c15.6,1.1,32.54,3.56,50.91,7.59c36.14,7.93,157.49,60.43,183.64,106.14c4.91,8.59,6.22,16.57,3.89,23.71
		c-2.09,6.42-11.76,12.31-27.97,17.03c-0.06,0.02-0.11,0.03-0.17,0.05c-8.47-6.51-17.81-10.34-27.08-12.41
		c3.04-0.93,5.59-1.75,7.45-2.38c5.58-1.88,11.23-4.15,13.69-9.35c0.14-0.29,0.15-0.62,0.04-0.93c-1.32-3.62-5.33-5.23-11.95-4.77
		c-3.09,0.21-12.2,1.05-23.44,2.29c5.61-3.46,10.4-7.38,11.19-11.37c0.36-1.85-0.12-3.56-1.43-5.11c-3.01-3.54-9.97-3.97-21.26-1.29
		c-12.16,2.89-26.55,8.71-36.75,13.22c6.95-6.31,14.78-14.29,21.18-21.61c12.98-14.84,11.64-16.95,11.07-17.85
		c-0.52-0.81-1.51-1.01-2.95-0.59c-5.39,1.56-21.12,12.45-32.96,21.31c-2.64,1.98-5.02,3.79-7.16,5.45
		c3.18-4.6,6.14-9.23,8.24-12.84c7.43-12.77,9.65-20.72,6.61-23.63c-2.17-2.08-5.61-2.31-10.22-0.7c-4.59,1.6-10.11,4.94-15.68,9.12
		c5.92-12.66,9.23-24.97,3.84-29.22c-2.08-1.64-4.85-1.32-8.23,0.95c-7.44,4.99-17.61,19.47-25.01,32.53
		c1.59-16.86,1.85-40.59-3.22-42.15c-1.33-0.41-2.63,0.25-3.86,1.95c-1.16,1.6-2.36,4.35-3.52,7.83c-0.34-3.52-0.76-6.72-1.25-9.43
		c-1.32-7.27-2.94-10.45-5.42-10.26c-0.92,0.07-1.33,0.95-1.48,1.28c-1.22,2.63-3.19,13.52-4.91,26.21
		c-0.29-2.38-0.6-4.56-0.93-6.51c-1.49-8.9-2.9-10.75-4.56-10.75c-0.01,0-0.01,0-0.02,0c-4.21,0.04-7.53,3.52-9.86,10.34
		c-1,2.94-1.79,6.5-2.39,10.37c-0.06-0.21-0.12-0.41-0.19-0.62c-3.96-13-9.66-19.76-16.4-19.58c-2.5,0.07-4.38,2.1-5.59,6.02
		c-1.84,5.98-2.04,16.09-1.14,26.25c-9-12.88-19.67-25.16-23.85-26.39c-1.3-0.38-2.03,0.15-2.35,0.51
		c-0.64,0.7-2.56,2.82,5.26,22.87c-1.18-1.48-2.37-2.94-3.56-4.38c-8.56-10.39-29.85-35.03-42.67-39.36
		c-4.82-1.63-7.32,0.05-8.56,1.75c-0.97,1.33-0.89,4.01,6.25,14.58c4.48,6.64,10.97,15.22,18.77,24.83
		c2.99,3.68,6.23,7.57,9.54,11.46c-0.81-0.61-1.68-1.27-2.58-1.96c-6.8-5.21-15.26-11.7-20.65-10.27c-1.73,0.46-3.01,1.65-3.81,3.54
		c-2.32,5.5,22.9,29.02,25.78,31.69c0.07,0.06,0.14,0.13,0.21,0.19c-12.64-2.87-26.12-4.33-34.72-2.88c-1.01,0.17-4.43,0.9-6.02,3.2
		c-0.65,0.93-0.88,2-0.66,3.09c0.54,2.77,3.52,3.79,5.72,4.32c6.11,1.46,13.67,3.41,20.98,5.28c6.7,1.72,13.24,3.4,18.85,4.77
		c-1.9-0.1-3.83-0.2-5.72-0.3c-7.62-0.41-15.25-0.81-19.82-1.05c-8.25-0.42-32.62-0.04-36.32,7.09c-0.64,1.24-0.98,3.27,1.06,5.87
		c1.8,2.3,11.94,3.03,22.32,3.15c-7.36,2.97-14.13,6.58-19.4,10.83c-1.53,1.24-3.14,3.41-3.06,5.26c0.04,0.93,0.49,1.73,1.28,2.25
		c2.16,1.44,6.16,1.86,10.94,1.69c-4.25,2.84-8.88,6.99-8.84,10.23c0.01,0.81,0.34,2.31,2.37,3.21c4.29,1.92,14.63,0.73,26.74-2.07
		c-4.53,2.94-8.6,5.77-11.97,8.35c-9.18,7.02-12.52,11.59-10.52,14.39c1.3,1.82,4.18,2.33,9.08,1.62c9.17-1.33,23.83-6.8,36.74-12.2
		c-0.81,2.7-0.76,5.4,0.52,7.93c0.74,1.46,1.87,2.44,3.37,2.92c1.34,0.43,2.87,0.42,4.49,0.13c-3.1,3.79-5.05,7.17-5.2,9.73
		c-0.12,1.92,0.67,3.45,2.28,4.41c3.08,1.84,7.2,1.12,11.91-1.12c-6.65,8.03-10.13,14.44-6.85,17.88c0.93,0.98,2.22,1.39,3.84,1.22
		c4.11-0.43,10.66-5,17.86-11.33c-3.34,5.44-5.69,10.74-5.54,14.51c0.07,1.75,0.66,3.14,1.75,4.12c1.43,1.29,3.42,1.31,5.93,0.09
		c2.55-1.25,5.61-3.81,8.84-7.05c-3.81,8.78-7.02,18.17-5.07,20.1c0.45,0.45,1.48,1.02,3.25-0.25c4.14-2.96,11.09-10.32,18.25-19.55
		c-12.34,28.44-10.14,30.51-9.07,31.52c0.58,0.55,1.66,0.98,3.49-0.1c5.57-3.27,11.45-10.1,16.74-18.31
		c-0.35,2.81-0.5,5.25-0.41,7.1c0.06,1.07,0.23,4.34,2.54,4.61c1.52,0.18,3.17-0.51,4.91-2.05c4.78-4.22,10.36-15.01,14.86-27.17
		c-0.89,14.5-0.9,30.52,2.82,35.07c1.28,1.57,2.67,1.19,3.21,0.96c3.76-1.63,7.72-16.23,10.66-31.54c1.2,9.68,3.1,17.64,4.87,18.82
		c0.72,0.48,1.58,0.38,2.19-0.27c2.74-2.92,4.62-9.91,5.62-18.14c0.07,0.4,0.15,0.8,0.22,1.21c0.87,4.81,1.65,9.11,2.19,12.24
		c0.04,0.22,4.15,22.15,8.61,22.85c0.42,0.07,1.46,0.07,2.18-1.31c2.08-3.99,1.51-24-0.27-40.5c6.62,14.03,16.19,30.07,24.33,30.07
		c0.5,0,1-0.06,1.49-0.19c3.92-1.01,2.66-7.18,2.24-9.21c-1.09-5.3-4.01-13.26-8.1-22.15c10.22,9.39,22.21,17.37,28.37,17.05
		c1.88-0.09,5.04-1.02,5.04-6.15c0-2.49-2.57-7.17-6.35-12.46c16.02,9.59,32.7,18.02,38.02,17.61c2.23-0.17,2.61-1.48,2.67-2.03
		c0.16-1.43,0.57-5.24-34.25-27.73c-6.79-4.39-13.7-8.68-19.77-12.33c26.08,9.08,70.88,23.11,80.73,21.74
		c1.75-0.24,2.65-0.93,2.69-2.04c0.04-1.25,0.15-4.18-33.7-15.92c-3.29-1.14-6.65-2.28-10-3.38c17.11,2.39,33.72,3.82,37.51,1.6
		c1.21-0.71,1.34-1.67,1.31-2.18c-0.07-1.31-0.21-4.03-28.73-10.63c-0.98-0.23-1.98-0.46-2.99-0.68c15.75,0.12,28.8-0.77,30.79-2.97
		c0.65-0.72,0.69-1.66,0.1-2.46c-3.93-5.34-17.8-9.52-30.18-12.3c11.26-1.46,22.49-3.57,32.06-6.26c0.1,0.08,0.21,0.16,0.31,0.25
		c17.92,14.5,30.73,33.09,36.08,52.35c5.44,19.59,2.55,38.21-8.16,52.42c-14.49,19.23-60.61,35.48-112.16,39.52
		c-37.69,2.95-111.65,1.8-183.5-39.08c-42.18-24-73.81-60.54-89.06-102.88c-12.34-34.26-12.79-69.92-1.15-90.85
		c26.55-47.69,80.09-58.72,105.82-64.02C590.97,202.46,605.08,200.85,619.55,200.36z M740.48,357.7c-1.15,0.23-2.72,0.68-3.05,1.97
		c-0.21,0.83,0.16,1.64,1.09,2.4c5.42,4.45,27.64,5.04,51.31,2.59c16.87,3.3,31.44,7.81,35.43,12.51c-2.78,1.5-18.52,2.48-41.7,1.58
		c-10.88-2.19-22.13-4.19-31.31-5.51c-16.68-2.41-17.05-1.36-17.44-0.25c-0.28,0.8,0.12,1.52,1.18,2.15
		c5.17,3.07,26.78,5.31,47.71,6.09c26.74,5.41,40.39,9.79,42.12,11.72c-1.44,1.11-10.94,1.78-38.54-2.23
		c-4.32-0.63-8.52-1.29-12.46-1.94c-9.29-2.83-17.49-5.09-22.64-6.19c-4.83-1.03-6.29-0.98-6.79,0.25c-0.52,1.27,0.92,2.17,1.7,2.66
		c1.26,0.79,12.94,3.24,27.05,5.59c4.84,1.48,10.16,3.17,15.79,5.03c24.76,8.2,37.9,13.97,40.47,16.26
		c-0.07,0.01-0.15,0.03-0.23,0.04c-11.09,1.55-71.16-18.18-91.32-25.77c-3.97-2.25-6.75-3.7-7.69-3.98
		c-1.14-0.34-1.59,0.36-1.71,0.58c-0.53,1.03,0.42,1.78,1.43,2.56c0.51,0.39,2.89,1.4,6.6,2.81c7.07,4.01,18.46,10.86,30.08,18.35
		c30.23,19.47,33.47,24.69,33.8,25.72c-0.09,0.02-0.23,0.05-0.43,0.07c-4.27,0.31-19.74-7.07-38.42-18.41
		c-1.19-0.72-2.35-1.43-3.48-2.14c-7.87-9.8-18.19-19.91-23.43-21.6c-4.01-1.29-5.92-1.39-6.8-0.35c-0.29,0.34-0.7,1.1-0.09,2.29
		c1.79,3.51,14.41,12.65,28.76,21.56c5.45,6.87,9.58,13.35,9.58,15.89c0,3.2-1.48,3.69-2.77,3.75c-6.31,0.32-20.77-10.28-31.3-21.01
		c-0.25-0.5-0.5-1-0.75-1.5c-2.51-4.97-5.05-9.54-7.14-12.86c-3.44-5.47-4.5-5.8-5.42-5.66c-0.56,0.09-1.48,0.52-1.29,2.43
		c0.48,4.7,5.78,12.05,12.78,19.23c5.96,12.11,11.74,26.44,11.02,32.14c-0.18,1.43-0.72,1.57-0.9,1.62c-1.65,0.42-3.67-0.36-6-2.33
		c-7.34-6.21-15.2-21.49-20.25-33.36c-0.96-6.56-2.11-11.76-3.33-13.84c-1.33-2.28-2.3-3.74-3.62-3.12
		c-1.07,0.5-1.51,1.35,1.23,9.01c0.8,2.24,1.95,5.19,3.36,8.51c2.33,16.42,3.64,42.04,1.63,46.76c-1.79-2.11-5.13-13.26-6.39-20.62
		c-0.54-3.13-1.32-7.44-2.19-12.26c-0.55-3.06-1.19-6.56-1.84-10.2c0.42-10.5-0.46-21.26-2.66-27.32c-0.95-2.61-1.61-4.18-3-3.8
		c-1.57,0.43-2.2,0.59,3.3,31.52c-0.49,10.71-2.34,20.9-5.21,24.86c-1.36-2.8-3.37-13.71-4.27-25.09c2.1-12.71,3.31-24.26,2.9-27.36
		c-0.06-0.42-0.22-1.68-1.36-1.85c-1.19-0.18-1.76,1.09-2.03,1.7c-2.37,5.27-2.7,16.28-1.97,27.1c-2.49,15.2-6.15,32.16-9.67,37.45
		c-0.72,1.09-1.12,1.15-1.12,1.15c-0.03-0.01-0.16-0.07-0.34-0.3c-3.8-4.65-3.2-24.74-1.54-42.83c3.12-10.2,5.22-20.44,5.27-27.92
		c0.03-3.9-0.2-4.87-1.24-5.19c-0.46-0.14-1.11-0.05-1.56,0.62c-1.42,2.11-3.66,18.32-4.91,32.46
		c-4.62,14.97-11.46,29.67-17.14,34.68c-1.15,1.02-2.17,1.53-2.97,1.47c-0.12-0.15-0.55-0.92-0.52-3.72
		c0.03-2.81,0.49-6.58,1.23-10.85c10-17.31,16.96-38.29,13.88-45.68c-0.41-0.99-1.24-1.18-1.82-1.05
		c-2.63,0.6-6.71,14.04-9.68,25.21c-1.75,6.61-3.53,14.23-4.69,20.89c-5.65,9.76-12.32,18.28-18.85,22.11
		c-0.33,0.19-0.54,0.27-0.67,0.31c-0.31-0.95-0.38-5.97,10.98-31.72c1.03-2.34,2.11-4.73,3.2-7.14
		c8.61-12.49,16.28-26.62,18.15-37.73c0.1-0.58-0.25-1.15-0.81-1.34c-0.56-0.18-1.18,0.07-1.45,0.6
		c-4.72,9.27-11.84,23.8-18.12,37.58c-8.94,12.89-18.87,23.93-24.14,27.69c-0.07,0.05-0.13,0.09-0.18,0.12
		c-0.2-3.05,4.26-14.64,8.47-23.47c5.63-6.42,11.23-13.87,15.1-19.23c7.73-10.7,18.33-26.78,18.16-29.15
		c-0.04-0.56-0.39-1.01-0.9-1.18c-0.95-0.3-1.7,0.28-4.04,3.1c-6.3,7.59-11.84,15.93-17.19,24c-2.66,4.01-5.42,8.16-8.23,12.16
		c-0.99,1.41-2.79,4.71-4.77,8.79c-6.08,6.92-10.95,11.21-14.07,12.27c-1.57,0.54-2.12,0.04-2.3-0.12c-0.6-0.54-0.92-1.34-0.96-2.44
		c-0.2-5.12,5.5-14.43,11.61-22.34c13.1-12.91,26.12-28.45,29.32-33.64c1.58-2.56,2.24-3.62,1.14-4.39
		c-1.19-0.84-1.19-0.84-9.78,9.8c-4.95,6.13-11.11,13.77-15.17,18.05c-2.19,2.31-4.74,5.26-7.25,8.49
		c-10.02,9.85-19.89,18.04-24.84,18.56c-1.26,0.13-1.71-0.33-1.85-0.48c-2.74-2.88,4.11-11.72,11.39-19.79
		c5.31-3.43,11.05-7.98,16.7-12.47c3.22-2.56,6.27-4.98,9.08-7.05c2.88-2.13,7.83-6.56,12.3-11.04c8.32-8.33,7.76-9.27,7.27-10.1
		c-0.73-1.23-2.28-0.5-2.79-0.26c-5.2,2.43-21.25,14.7-30.47,24.65c-1.36,1.47-3.06,3.23-4.86,5.1c-3.09,3.2-6.04,6.3-8.71,9.25
		c-6.4,4.1-12.14,6.54-15.46,4.55c-0.84-0.5-1.18-1.18-1.12-2.21c0.16-2.68,2.78-6.6,6.85-11.05c2.63-0.99,5.26-2.36,7.52-3.53
		l0.92-0.47c6.56-3.37,17.42-11.06,24.72-16.62c16.53-12.57,15.79-14.12,15.35-15.04c-0.77-1.6-3.12-0.55-4.68,0.14
		c-11.28,5-33.12,20.65-44.97,33.38c-2.52,0.93-4.94,1.44-6.66,0.89c-0.88-0.28-1.52-0.85-1.97-1.72c-1.27-2.5-0.95-5.3,0.36-8.12
		c5.08-2.16,9.79-4.26,13.63-6.01c9-4.1,17.93-8.42,25.15-12.16c11.07-5.74,11.35-6.56,11.54-7.1c0.15-0.42,0.03-0.98-0.28-1.31
		c-6.76-7.06-28.65,4.97-35.2,8.83c-6.02,3.55-13.21,9.53-16.53,15.84c-17.6,7.52-34.91,13.73-42.55,13.27
		c-1.35-0.08-2.29-0.4-2.64-0.9c-0.3-0.42-0.02-1.59,1.68-3.61c4.44-5.28,14.66-12.51,26.24-19.57
		c22.15-5.92,47.08-15.87,51.6-21.79c1.41-1.84,0.78-3.14,0.28-3.75c-0.73-0.89-2.96-3.6-29.54,10.17
		c-7.82,4.06-15.68,8.5-22.83,12.87c-14.7,4-28.04,6.27-32.65,4.21c-0.94-0.42-0.95-0.87-0.95-1.06
		c-0.04-2.56,6.57-8.03,11.81-10.55c0.03-0.01,0.06-0.03,0.09-0.04c9.04-0.96,19.25-3.26,24.97-4.66
		c16.18-3.97,34.83-10.15,39.19-14.27c1.54-1.46,1.21-2.63,0.88-3.2c-0.41-0.69-1.09-1.36-2.45-1.74c0.36-0.1,0.7-0.2,1.01-0.31
		c1.38-0.46,2.97-1.17,2.99-2.57c0.03-1.5-1.79-2.18-2.48-2.44c-6.83-2.56-31.25-0.22-52.89,7.18c-2.72,0.02-5.42,0-8.06-0.05
		c-16.77-0.32-18.65-2.01-18.81-2.2c-1.52-1.93-0.99-2.95-0.81-3.28c2.46-4.74,21.71-6.44,34.07-5.8c4.57,0.24,12.2,0.64,19.82,1.05
		c6,0.32,12,0.64,16.5,0.88c2.25,0.12,4.13,0.22,5.44,0.28c0.71,0.04,1.26,0.06,1.71,0.06c0.14,0.01,0.23,0.02,0.27,0.02l0-0.02
		c1.02-0.03,1.3-0.28,1.34-1.1c0.05-0.9-0.6-1.17-1.21-1.26v-0.01c-0.01,0-0.03,0-0.06,0c-0.18-0.02-0.36-0.04-0.51-0.05l-2.1-0.13
		c-4.14-0.25-19.21-4.12-33.79-7.86c-7.32-1.88-14.9-3.83-21.02-5.29c-2.46-0.59-3.71-1.37-3.92-2.44c-0.09-0.46,0-0.86,0.28-1.26
		c0.68-0.98,2.47-1.86,4.45-2.2c9.5-1.6,24.74,0.47,38.02,3.87c9.23,8.23,21.86,18.39,25.86,16.3c3.3-1.71,3.15-3.87,2.77-5.01
		c-1.54-4.6-13.49-9.82-27.48-13.47c-14.98-13.39-29.24-29.37-28.63-32.13c0.5-1.19,1.22-1.89,2.21-2.15
		c4.25-1.12,12.53,5.22,18.58,9.86c1.48,1.13,2.88,2.21,4.11,3.09c1.71,1.23,3.7,2.62,5.84,4.12c0.24,0.17,0.49,0.35,0.74,0.52
		c9.14,10.36,18.04,19.64,23.23,23.51c1.22,0.91,4.08,3.04,5.46,1.22c0.48-0.64,0.67-1.43,0.53-2.31
		c-0.78-4.97-12.85-13.88-27.56-24.2c-10.42-11.79-21.93-25.82-30.4-37.5c-10.9-15.01-10.56-17.67-10.53-17.85
		c0.46-0.63,1.86-2.53,6.69-0.59c8.81,3.53,24.4,18.29,41.7,39.46c2.81,3.44,5.41,6.74,7.81,9.86c3.88,9.02,8.09,17.47,11.44,22.8
		c3.28,5.24,5.48,7.23,7.35,6.68c0.77-0.23,1.24-0.91,1.26-1.81c0.07-3.54-8.12-15.98-17.99-28.91c-5.7-13.3-9.67-25.67-8.96-28.01
		c3.21,0.58,15.54,14.87,25.01,28.96c1.56,12.65,4.71,24.35,8.38,27c1.27,0.92,2.66,0.94,3.91,0.05c1.36-0.97,1.83-2.75,1.41-5.29
		c-0.83-4.98-5.49-13.57-11.35-22.41c-1.35-11.09-1.51-23.01,0.56-29.75c0.6-1.95,1.67-4.28,3.37-4.33
		c4.46-0.14,8.43,3.76,11.76,11.55c1.64,3.84,2.94,8.18,3.96,12.66c-1.65,16.68-0.47,35.89,1.6,37.52c0.48,0.38,1.11,0.41,1.62,0.09
		c3.36-2.12,2.68-21.84-0.8-37.69c0.78-7.97,2.27-15.43,4.84-20.09c1.61-2.91,3.5-4.45,5.62-4.56c0.36,0.44,1.92,3.05,3.48,16.6
		c0.34,2.95,0.63,5.94,0.87,8.92c-2,17.37-3.13,34.81-1.15,37.53c0.41,0.56,1,0.83,1.62,0.76c1.34-0.16,2.57-1.17,2.85-11.49
		c0.16-5.92-0.06-14.04-0.6-22.26c-0.09-1.42-0.19-2.81-0.3-4.18c0.02-0.16,0.04-0.32,0.06-0.49c2.1-18.17,4.55-32.2,5.77-35.37
		c0.96,1.09,2.81,5.78,3.95,19.49c0.11,1.3,0.21,2.63,0.29,3.98c-4.56,17.23-7.85,42.9-4.87,47.12c0.59,0.84,1.5,1.18,2.42,0.91
		c3.07-0.91,4.84-9.59,5.26-25.82c0.19-7.42,0.04-15.14-0.4-22.13c1.43-5.29,2.92-9.5,4.29-11.91c1.08-1.9,1.76-2.15,1.87-2.11
		c0.71,0.3,2.69,4.83,2.56,21.11c-0.07,8.26-0.67,16.98-1.62,24.25c-4.43,8.48-7.2,15.56-6.57,17.78c0.25,0.87,0.9,1.4,1.75,1.43
		c1.92,0.08,4.34-1.48,6.49-14.14c0.21-1.27,0.42-2.69,0.62-4.24c7.04-13.29,18.28-30.64,26.63-36.58c2.63-1.87,4.59-2.32,5.83-1.35
		c3.14,2.47,2.27,10.32-2.39,21.55c-1.27,3.07-2.71,6.14-4.24,9.14c-12.59,10.32-24.35,23.77-25.17,29.79
		c-0.26,1.91,0.52,2.89,1.23,3.38c0.92,0.64,3.36,2.34,12.55-10.06c4.06-5.49,8.99-13.3,13.18-21.41
		c6.6-5.43,13.43-9.98,18.96-11.91c3.69-1.29,6.3-1.23,7.77,0.17c0.8,0.77,0.82,2.74,0.04,5.55c-2.64,9.53-12.48,24.62-20.32,34.83
		c-9.73,7.99-11.53,10.77-11.53,11.73c0,0.68,0.42,1.25,1.08,1.45c2.09,0.63,7.03-4.67,12.26-11.52c4.43-3.63,10.05-8,16.55-12.81
		c16.13-11.9,26.75-18.34,29.67-19.02c-1.3,4.93-22.45,28.82-37.61,41.24c-2.71,1.27-5.29,2.53-7.58,3.69
		c-6.18,3.14-6.26,3.46-6.4,4.04c-0.11,0.44,0.05,0.92,0.39,1.22c1.47,1.26,4.49,1.53,14.64-6.77
		c19.84-9.26,55.93-23.86,62.64-15.97c0.83,0.97,1.12,1.98,0.9,3.09c-0.88,4.46-9.25,9.51-14.8,12.51
		c-5.71,0.66-11.77,1.41-17.74,2.23c-40.2,5.47-41.5,8.85-42.05,10.29c-0.31,0.81-0.11,1.67,0.56,2.36c4.4,4.52,13.07,2,22.24-0.68
		c3.09-0.9,6.29-1.83,9.29-2.47c8.63-1.84,17.55-3.75,25.62-7.92c0.92-0.47,1.85-0.97,2.79-1.47c13.68-1.58,25.3-2.67,28.86-2.91
		c3.53-0.24,7.93,0.06,9.33,2.75c-2.2,4.02-7.15,5.97-12.05,7.63c-3.51,1.19-7.48,2.44-11.69,3.69
		c-21.18-3.37-41.17,1.66-48.86,4.01c-1.39,0.42-13.59,4.24-14.48,7.13c-0.29,0.95-0.08,1.83,0.59,2.48
		c4.76,4.63,41.26-4.8,62.8-11.17c9.91,1.63,20.01,5.16,29.12,11.73c-11.36,3.05-24.57,5.22-37.25,6.51
		c-1.52-0.29-2.96-0.56-4.31-0.8C766.31,358.01,747.02,356.42,740.48,357.7z M780.51,362.99c-19.63,1.37-36.39,0.47-40.42-2.74
		c1.93-0.69,9.09-1.04,23.31,0.45C768.99,361.29,774.79,362.07,780.51,362.99z M764.48,377.62c-10.75-0.88-19.35-2.07-24.09-3.36
		C745.09,374.59,753.68,375.76,764.48,377.62z M752.28,407.9c-11.73-7.62-19.43-13.59-21.15-15.96c0.63,0.07,1.76,0.29,3.73,0.92
		C738.91,394.17,745.87,400.64,752.28,407.9z M726.59,405.56c-2.62-3.29-4.55-6.35-5.39-8.81
		C722.56,398.59,724.47,401.72,726.59,405.56z M701.09,400.43c-0.33-2.06-0.63-3.99-0.88-5.7
		C700.58,396.48,700.87,398.4,701.09,400.43z M691.67,401.94c0.12-2.6,0.36-5.02,0.75-7.11C692.26,396.8,692,399.21,691.67,401.94z
		 M656.58,425.75c3.11-14.48,8.09-31.09,10.55-35.68C668.29,396.54,663.71,411.56,656.58,425.75z M638.73,404.35
		c1.28-1.9,2.53-3.79,3.77-5.66c4.14-6.24,8.39-12.64,13-18.7c-3.36,5.39-8.31,12.82-14.25,20.95
		C640.4,402.11,639.56,403.24,638.73,404.35z M613.39,393.08c0.1-0.11,0.2-0.21,0.3-0.32c1.81-1.87,3.51-3.65,4.9-5.14
		c7.93-8.57,20.95-18.85,27.43-22.83c-3.75,4.33-12.13,12.49-16.92,16.02c-2.85,2.1-5.91,4.53-9.15,7.1
		C617.83,389.6,615.62,391.36,613.39,393.08z M598.23,386.86c11.63-11.1,29.32-23.72,39.93-28.48c-6.02,5.9-26.75,21.7-37.3,27.12
		l-0.92,0.48C599.4,386.26,598.83,386.56,598.23,386.86z M586.27,376.97c3.53-4.84,9.25-9.36,13.91-12.11
		c10.01-5.89,21.17-10.7,27.71-10.7c1.42,0,2.61,0.23,3.54,0.71C626.89,357.76,606.84,367.99,586.27,376.97z M573.99,362.61
		c17.87-10.2,36.31-18.83,40.63-18.83c0.24,0,0.43,0.03,0.58,0.08c0.03,0.21-0.34,0.69-0.35,0.72
		C611.44,349.04,592.86,356.78,573.99,362.61z M563.03,338.09c8.16-0.24,17.44-0.77,25.52-1.53c-2.38,0.73-5.06,1.63-8.07,2.71
		c-15.68,5.65-32.58,13.58-38.14,16.25c-6.98,0.71-12.27,0.53-14.44-0.92c-0.15-0.1-0.2-0.19-0.21-0.36
		c-0.04-0.8,0.96-2.31,2.17-3.29c6.44-5.19,15.36-9.43,24.87-12.7C557.7,338.23,560.54,338.17,563.03,338.09z M562.95,335.71
		c13.44-3.76,26.98-5.66,35.64-5.66c3.41,0,6.07,0.3,7.65,0.89c0.18,0.07,0.33,0.13,0.46,0.19
		C602.82,333,583.25,335.11,562.95,335.71z M602.89,335.99c1.49,0,2.49,0.27,2.94,0.83c-0.55,0.92-4.35,3.47-15.58,7.38
		c-12.62,4.39-27.72,8.25-40.01,10.26C574.7,343.13,595.23,335.99,602.89,335.99z M591.11,310.54c11.16,3.29,19.96,7.37,21.04,10.59
		c0.1,0.3,0.37,1.1-1.6,2.12c-0.08,0.04-2.07,0.92-12.39-6.99C595.86,314.5,593.49,312.57,591.11,310.54z M598.88,296.68
		c8.58,6.25,17.26,13.14,17.76,16.34c0.01,0.07,0.02,0.13,0.02,0.19C614.33,312.51,607.44,305.92,598.88,296.68z M613.58,291.12
		c6.15,8.66,9.88,14.98,10.64,17.48c-1.04-0.85-3.36-3.47-7.66-11.6C615.55,295.1,614.55,293.12,613.58,291.12z M627.95,286.35
		c3.45,5.53,6.23,10.77,7.57,14.85c0.93,2.83,1.01,4.85,0.21,5.42c-0.35,0.25-0.63,0.31-1.12-0.04
		C632.07,304.76,629.56,296.36,627.95,286.35z M648.6,280.91c1.38,10.02,1.48,19.28,0.85,23.46
		C648.79,300.04,648.27,290.79,648.6,280.91z M664.92,287.76c0.24,8.36,0.04,15.21-0.53,18.38
		C664.07,303.26,664.17,297.15,664.92,287.76z M676.93,268.3c0.19,6.84,0.12,13.78-0.24,19.9c-0.81,13.98-2.65,16.71-3.15,17.21
		c-0.96-1.54-1.2-10.04,1.22-25.38C675.4,275.96,676.13,272,676.93,268.3z M684.68,299.39c-0.06,0.29-0.12,0.57-0.18,0.84
		c-1.16,5.14-2.22,6.89-2.77,7.49C681.8,306.29,682.89,303.29,684.68,299.39z M710.89,290.87c-8,14.12-17.21,25.38-19.3,25.14
		c-0.22-0.16-0.3-0.52-0.22-1.09C691.96,310.62,700.61,300.18,710.89,290.87z M776.24,331.2c-6.95,3.02-14.5,4.63-21.84,6.2
		c-3.09,0.66-6.33,1.6-9.46,2.52c-8.38,2.44-16.31,4.75-19.8,1.35c0.71-0.86,5.71-3.98,40.29-8.67
		C769.03,332.1,772.67,331.64,776.24,331.2z M791.96,343.21c-8.88,2.53-18.33,4.98-26.58,6.84c-26.39,5.96-28.62,3.46-28.68,3.41
		c0,0,0-0.01,0-0.03c1.16-1.48,12.73-6.82,29.52-9.34C773.77,342.95,782.68,342.33,791.96,343.21z M537.87,539.05
		c-17.7-9.05-48.48-36.32-60.99-54.04c-52.07-73.81-37.49-147.61-28.8-175.92c15.98-52.05,54.96-107.72,148.41-109.37
		c-6.61,0.8-13.11,1.85-19.46,3.16c-24.04,4.95-80.35,16.55-107.43,65.2c-11.97,21.5-11.58,57.94,0.99,92.83
		c15.45,42.88,47.46,79.87,90.13,104.15c72.4,41.2,146.91,42.36,184.87,39.39c52.18-4.09,99.01-20.73,113.89-40.47
		c11.16-14.82,14.2-34.17,8.56-54.5c-5.38-19.38-18.11-38.08-35.9-52.77c16.35-4.96,25.82-11.06,28.13-18.16
		c2.55-7.81,1.17-16.44-4.09-25.64c-26.47-46.27-148.8-99.3-185.21-107.29c-5.79-1.27-14.79-3.25-25.94-4.98
		c38.87,2.1,79.03,11.79,115.06,28.38c62.14,28.6,103.88,72.57,117.53,123.83c11.59,43.52,3.46,93.63-21.73,134.04
		c-18.92,30.35-56.67,69.54-129.1,83.91c-51.78,10.27-100.67,2.41-149.39-13.17C564.51,552.1,551.33,545.92,537.87,539.05z"/>
</g>
<g id="Layer_2">
	<path class="st3" d="M131.98,492.6c80.32-38.35,176.89-41.02,259.21-7.18c15.91,6.54,31.26,14.36,46.84,21.66
		c49.79,23.36,102,41.58,155.51,54.28c50.89,12.08,104.3,19.12,155.36,7.76c51.06-11.35,99.64-43.79,119.41-92.21
		c8-19.58,11.04-40.81,13.01-61.88c1.89-20.27,2.84-40.89-1.36-60.81c-8.51-40.4-37.68-74.09-72.27-96.63s-74.48-35.34-114.07-47.06
		c-25.93-7.67-52.68-15.06-79.61-12.66c-15.27,1.36-30.07,5.84-44.72,10.36c-22.07,6.81-44.36,13.88-64.01,26.01
		c-19.65,12.14-36.69,30.05-43.1,52.24c-10.61,36.75,9.38,74.7,29,107.53c8.5,14.21,17.16,28.52,28.65,40.44
		c18.23,18.91,42.5,30.71,66.77,40.75c72.56,29.99,156.07,47.21,228.85,17.78c18.3-7.4,36.41-18.6,45.03-36.36
		c5.63-11.6,6.66-25.04,4.78-37.8c-4.17-28.25-22.94-53.94-48.58-66.5c-25.65-12.56-83.41-0.29-82.32,2.39
		c1.84,4.54,90.52-16.66,88-24.23c-1.89-5.69-99.37,7.01-98.41,10.48c0.89,3.22,78.32-23.89,75.86-28.34
		c-4.18-7.53-79.93,16.02-78.5,21.2c0.77,2.82,55.88-48.02,52.42-51.26c-5.65-5.3-58.74,44.6-57.46,48.75
		c0.83,2.7,25.46-26.12,29.13-43.67c0.53-2.54,0.91-5.25-0.03-7.66c-2.91-7.48-14.17-5.51-20.88-1.1
		c-14.74,9.7-32.46,40.05-30.41,41.93c2.66,2.44,32.98-70.57,27.39-74.18c-4.75-3.07-39.44,66.76-35.4,67.22
		c4.18,0.48,7.52-69.68,3.18-70.18c-4.38-0.5-19.52,64.08-15.03,63.68c3.88-0.35,1.34-67.95-2.72-68.32
		c-3.72-0.34-13.07,68.12-10.36,68.37c4.25,0.39-3.27-62.06-6.14-61.67c-4.28,0.58-9.14,65.05-5.75,64.59
		c2.95-0.4-1.56-41.17-13.07-57.83c-0.98-1.41-2.21-2.92-3.92-3.06c-2.67-0.22-4.27,2.85-5,5.42c-5.44,19.11,2.65,59.51,5.42,57.99
		c3.82-2.1-21.88-66.07-28.62-63.99c-3.89,1.2,15.71,61.77,18.14,60.33c3.45-2.06-71.07-82.33-74.25-79.14
		c-4.58,4.58,29.34,61.34,52.27,86.21c3.99,4.33,11.28,8.49,14.95,3.89c3.2-4.03-0.75-9.74-4.65-13.1
		c-13.98-12.05-45.38-29.82-47.84-27.16c-2.54,2.75,47.02,40.49,47.25,38.11c0.33-3.5-25.38-8.88-38.33-12.89
		c-13.66-4.22-39.62-1.79-39.62,3.7c0,3.87,71.26,17.3,70.35,15.38c-1-2.12-36.87-5.14-54.93-1.17c-6.36,1.4-13.03,3.62-16.95,8.82
		c-3.92,5.2-3.32,14.12,2.61,16.81c2.37,1.07,5.09,0.99,7.68,0.8c19.68-1.4,57.47-15.06,56.04-17.37
		c-2.08-3.38-72.68,30.85-65.55,37.33c5.41,4.92,72.91-30.74,70.72-32.93c-1.57-1.57-42.48,14.21-54.73,32.37
		c-3.57,5.29-6.15,15.66-1.41,19.93c3.13,2.82,7.92-0.03,12.04-0.9c22.96-4.84,55.34-40.56,53.19-42.2
		c-1.72-1.31-37.25,16.44-49.96,32.03c-1.89,2.32-3.74,4.88-4.13,7.84c-0.82,6.22,5.41,11.59,11.66,12.15
		c6.25,0.56,12.25-2.32,17.76-5.34c17.53-9.6,50.08-33.03,48.51-34.99c-2.78-3.49-28.69,17.95-41.01,29.5
		c-2.33,2.18-4.69,4.57-5.52,7.65c-2.02,7.56,7.04,14.36,14.79,13.18c7.74-1.18,13.67-7.33,18.66-13.36
		c6.87-8.3,20.86-25.6,18.85-26.23c-4.72-1.49-41.26,60.66-36.86,62.05c3.45,1.09,49.04-57.92,47.29-59.23
		c-2.75-2.06-18.03,20.6-23.48,33.02c-5.46,12.41-8.44,37.95-4.27,38.26c4.09,0.31,35.72-61.07,33.83-61.86
		c-3.46-1.44-23.22,31.9-26.74,51.1c-1.5,8.16,1.41,20,9.64,18.93c4.29-0.56,7.06-4.73,9.04-8.58
		c7.46-14.49,15.74-45.54,13.68-46.64c-2.17-1.16-10.78,60.29-5.55,62.28c1.5,0.57,25.05-65.69,24-66.75
		c-1.58-1.58-18.1,41.93-12.5,63.54c0.77,2.99,2.05,6.29,4.92,7.42c4.5,1.77,8.79-2.94,11.05-7.22
		c9.48-17.88,11.73-59.15,9.08-58.88c-4.86,0.5-3.78,66.62,1.78,65.54c6.9-1.34,12.35-57.93,10.09-57.93
		c-1.3,0-8.47,18.03-9.07,27.83c-0.6,9.8,3.33,20.54,12,25.16c8.66,4.62,21.73,0.03,22.18-14.84s-12.49-45.19-13.39-45.48
		c-2.43-0.78-2.37,30.2,2.71,44.32c2.97,8.25,11.09,17.37,18.9,13.37c4.66-2.39,6.12-8.28,6.58-13.5
		c1.52-17.47-9.66-49.54-12.01-50.3c-2.9-0.94,0.18,36.06,10.52,50.39c4.53,6.28,13.2,12.05,19.42,7.44
		c3.06-2.27,4.2-6.32,4.56-10.11c1.81-19.11-13.25-38.29-32.25-41.06c-3.03,6.57,3.74,13.31,9.91,17.09
		c21.06,12.88,59.29,8.55,59.29,8.55s13.14-2.28,13.73-3.7c1.67-4.02-3.27-7.46-7.33-9.04c-24.14-9.38-72.11-21.58-72.28-19.51
		c-0.18,2.21,86.07,14.53,86.56,8.49c0.25-3.14-86.9-22.09-88.08-15.58c-0.42,2.34,52.31,7.33,77.98-0.92
		c-19.37-19.68-76.13-20.89-76.46-17.92c-0.3,2.77,10.7,7.51,17.41,7.79c19.72,0.84,39.54-0.85,58.82-5.04
		c16.51-3.58,34.77-10.99,40.12-27.02c6.95-20.8-11.85-40.7-29.27-54.02c-51.12-39.08-108.47-72.79-171.93-83.44
		s-134,5.11-177.61,52.42c-17.14,18.6-29.52,41.19-38.7,64.76c-6.31,16.2-11.21,33.14-12.15,50.51
		c-3.08,57.03,36.71,107.97,82.2,142.5c103.12,78.25,242.02,99.33,369.51,76.91c36.65-6.45,72.62-16.2,108.54-25.94
		c30.53-8.28,61.09-16.57,90.92-27.09" id="drawing"/>
</g>
</svg>
