<svg
   xmlns:dc="http://purl.org/dc/elements/1.1/"
   xmlns:cc="http://creativecommons.org/ns#"
   xmlns:rdf="http://www.w3.org/1999/02/22-rdf-syntax-ns#"
   xmlns:svg="http://www.w3.org/2000/svg"
   xmlns="http://www.w3.org/2000/svg"
   xmlns:sodipodi="http://sodipodi.sourceforge.net/DTD/sodipodi-0.dtd"
   xmlns:inkscape="http://www.inkscape.org/namespaces/inkscape"
   version="1.1"
   id="mySVG"
   xml:space="preserve"
   width="6375.7881"
   height="2974.5811"
   viewBox="0 0 6375.7881 2974.5811"
   sodipodi:docname="lightbulb-airplane.svg"
   inkscape:version="0.92.4 (5da689c313, 2019-01-14)"><metadata
     id="metadata8"><rdf:RDF><cc:Work
         rdf:about=""><dc:format>image/svg+xml</dc:format><dc:type
           rdf:resource="http://purl.org/dc/dcmitype/StillImage" /><dc:title></dc:title></cc:Work></rdf:RDF></metadata><defs
     id="defs6" /><sodipodi:namedview
     pagecolor="#ffffff"
     bordercolor="#666666"
     borderopacity="1"
     objecttolerance="10"
     gridtolerance="10"
     guidetolerance="10"
     inkscape:pageopacity="0"
     inkscape:pageshadow="2"
     inkscape:window-width="1920"
     inkscape:window-height="986"
     id="namedview4"
     showgrid="false"
     fit-margin-top="0"
     fit-margin-left="0"
     fit-margin-right="0"
     fit-margin-bottom="0"
     inkscape:zoom="0.05875"
     inkscape:cx="3194.6247"
     inkscape:cy="1492.0327"
     inkscape:window-x="-11"
     inkscape:window-y="-11"
     inkscape:window-maximized="1"
     inkscape:current-layer="g12" /><g
     id="g10"
     inkscape:groupmode="layer"
     inkscape:label="ink_ext_XXXXXX"
     transform="matrix(1.3333333,0,0,-1.3333333,-805.37532,3482.5485)"><g
       id="g12"
       transform="scale(0.1)"><path
         d="m 8697.79,4200.7 c 0,0 201.99,-347 794.52,-347 805.19,0 930.39,107.2 1291.39,408.1 361,300.8 -2258.88,-133.4 -2458.27,381 -75.66,195.2 2783.27,-65.1 2820.07,265.6 30.9,278.3 -2924.78,-58.4 -2940.73,220.7 -13.34,233.5 2998.73,79.7 2990.73,358.9 -7.7,271.2 -3059.24,-108.4 -3070.49,175.4 -12.06,304.7 3094.49,79.8 3095.89,357.5 1.1,201.3 -3115.1,-13.3 -3121.78,53.5 -6.69,66.8 110.29,253.4 3.34,413.8 -106.96,160.5 501.36,26.8 2984.74,34.1 280.8,0.8 427.8,106.9 488,528.1 60.2,421.1 80.2,882.4 300.8,1464 220.6,581.5 1604.4,2366.4 1263.4,4050.9 -340.9,1684.6 -1931.9,2948 -3522.84,2948 -1590.98,0 -3236.42,-1188.4 -3476.09,-2727.4 -304.39,-1954.5 705.25,-3372.4 1126.39,-4094.4 421.14,-722 360.98,-1176.5 474.62,-1530.8 113.64,-354.3 1026.11,-411.1 1433.89,-377.7 407.77,33.4 1209.93,-93.6 1089.63,976 -120.3,1069.5 -955.94,127 -1169.85,588.2 -169.99,366.6 -738.67,2717.4 -922.5,3349.1 -165.65,569.2 1377.06,-494.7 1250.06,-1644.4 -127.02,-1149.8 -548.16,2165.8 133.69,2145.8 681.8,-20.1 630.6,-2396.8 391.06,-2369.8 -272.15,30.7 -18.79,939.8 387.74,1524.2 347.3,499.3 863,744.6 635,187.1 -353.1,-863.7 -324.7,-1922.1 -643.7,-2719.4 -152.8,-382.1 -725.97,-515.8 -974.34,-210.1 -248.38,305.7 19.1,764.2 382.11,649.6 363.03,-114.7 2461.63,-1241 4851.63,-1028.5 4627.9,411.5 6940.1,5887.6 4993,6070.1 -2194.3,205.8 -945.7,-4893.9 2251.3,-3650.7 3285.6,1277.8 1337.9,9243 6692.9,5334.1 3776.5,-2756.6 5819.6,5909.6 8644.1,1056.4 1494.6,-2568.1 -2151.5,-4096.9 -1622.6,-1880.3 638.9,2677.2 6425.3,-160.4 9738.8,3637.2 301.3,345.3 732.4,1237.6 1086,2038 433.5,981.2 1176.1,1793.5 2115.2,2312 l 5250,2898.6 c 48.9,27 101.7,-28.5 72.4,-76 l -3564.9,-5764.4 c -52.6,-85.1 -165.4,-109.4 -248.4,-53.5 l -2277,1534 c -65.7,44.3 -152.8,39.3 -213,-12.1 L 45891,20298 c -114.5,-97.6 -290.8,-16.3 -290.8,134.2 v 2545.2 c 0,72.7 44.7,138 112.6,164.3 l 7294.9,2828.7 c 60.3,23.4 36.4,113.7 -27.6,104.2 l -9546.3,-1422.3 c -171.2,-25.5 -207,-256.7 -51.5,-332.8 l 1950.5,-954"
         style="fill:none;stroke:#000000;stroke-width:200;stroke-linecap:round;stroke-linejoin:round;stroke-miterlimit:10;stroke-dasharray:none;stroke-opacity:1"
         id="drawing"
         inkscape:connector-curvature="0" /></g></g></svg>