<svg
   xmlns:dc="http://purl.org/dc/elements/1.1/"
   xmlns:cc="http://creativecommons.org/ns#"
   xmlns:rdf="http://www.w3.org/1999/02/22-rdf-syntax-ns#"
   xmlns:svg="http://www.w3.org/2000/svg"
   xmlns="http://www.w3.org/2000/svg"
   xmlns:sodipodi="http://sodipodi.sourceforge.net/DTD/sodipodi-0.dtd"
   xmlns:inkscape="http://www.inkscape.org/namespaces/inkscape"
   version="1.1"
   id="mySVG"
   x="0px"
   y="0px"
   width="5150.32px"
   height="2559.33px"
   viewBox="0 0 5150.32 2559.33"
   style="enable-background:new 0 0 5150.32 2559.33;"
   xml:space="preserve"
   sodipodi:docname="mangosteen.svg"
   inkscape:version="0.92.4 (5da689c313, 2019-01-14)"><metadata
   id="metadata12"><rdf:RDF><cc:Work
       rdf:about=""><dc:format>image/svg+xml</dc:format><dc:type
         rdf:resource="http://purl.org/dc/dcmitype/StillImage" /></cc:Work></rdf:RDF></metadata><defs
   id="defs10" /><sodipodi:namedview
   pagecolor="#ffffff"
   bordercolor="#666666"
   borderopacity="1"
   objecttolerance="10"
   gridtolerance="10"
   guidetolerance="10"
   inkscape:pageopacity="0"
   inkscape:pageshadow="2"
   inkscape:window-width="1920"
   inkscape:window-height="986"
   id="namedview8"
   showgrid="false"
   inkscape:zoom="0.16232002"
   inkscape:cx="1955.1711"
   inkscape:cy="1088.6279"
   inkscape:window-x="-11"
   inkscape:window-y="-11"
   inkscape:window-maximized="1"
   inkscape:current-layer="mySVG" />
<style
   type="text/css"
   id="style2">
	.st0{fill:none;stroke:#000000;stroke-width:16;stroke-linecap:round;stroke-linejoin:round;stroke-miterlimit:10;}
</style>
<path
   class="st0"
   d="M837.98,530.53c-9.7,15.08-11.4,42.31-29.09,45.23c-58.66,9.69-80.65-185.23-149.6-288.09  c-78.34-116.86-79.55-111.95-185.38-217.78c-38.52,22.16-79.41,40.2-121.75,53.69c174.21,97.61,305.56,268.84,354.7,462.38  c-102.82-19.9-209.38-20.31-312.35-1.2c-56.47,10.48-114.03,27.96-156.34,66.8s-65.07,103.73-40.7,155.74  c31.93,68.15,120.81,82.49,195.88,87.86c61.62,4.4,124.36,8.72,184.49-5.45c60.13-14.17,74.5-11.99,100.3-68.12  c9.35-20.34,18.8-80.04,29.97-99.43c18.29-31.74,92.94-53.51,129.56-54.58c18.81-0.55,41.47,7.65,44.37,26.24  c3.38,21.68-21.31,35.65-40.9,45.55c-54.85,27.76-63.07,104.43-118.75,128.03c-40.53,17.18-15.43,81.91,15.04,113.69  c24.67,25.73,51.26,43.33,86.89,44.28c62.48,1.67,125.04,0.15,187.36-4.57c43.83-3.32,143.27-45.11,178.79-70.99  c40.03-29.16,28.56-72.02,42.42-119.56c13.86-47.54,2.32-67.98,32.11-107.53s70.8-47.76,118.44-61.26  c24.2-6.86-33.02-125-98.08-154.16c-202.69-90.86-331.73,11.68-363.8-16.17c-34.71-30.14,250.5-51.55,321.94-166.02  c5.96-9.55,10.92-20.96,7.91-31.8c-3.56-12.82-24.12-51.85-36.2-57.42c-103.69-47.77-211.11-39.46-325.22-36.11  c-39.15,1.15-81.22,6.7-109.95,33.32c-28.63,26.53-37.56,69.2-32.44,107.89c5.12,38.69,22.33,74.6,37.42,102.15  c-119.67-64.48-253.54-102.41-389.25-110.29c-36.85-2.14-76.67-1.23-106.52,20.48c-32.69,23.78-58.91,49.47-41.96,86.18  s151.43,54.45,114.52,70.94c-30.78,13.76-261.21,132.63-311.31,280.61s-52,332.88-5.69,482.09  c34.41,110.87,87.57,219.37,174.37,296.45c62.87,55.82,140.43,92.57,219.6,120.87c187.22,66.92,392.92,89.9,586.67,45.31  s374-160.39,478.57-329.49c60.81-98.34,94.89-211.2,114.7-325.11c18.34-105.48,24.73-215.38-4.21-318.45  c-44.57-158.78-170.98-286.36-319.13-358.82c145.66,43.09,294.23,87.56,418.44,175s222,227.05,219.03,378.92  c-88.75,35.77-140.75,126.45-184.16,211.72c-68.75,135.04-133.82,275.11-154.28,425.25c-37.57,275.7,88.32,562.79,303.59,739.09  c215.27,176.3,510.15,243.82,785.05,200.81c69.97-10.95,139.3-28.76,203.41-58.85c238.24-111.82,370.86-380.03,396.52-641.95  c30.17-307.93-73.65-635.65-306.32-839.59s-597.46-259.24-861.76-98.36c-139.8,85.09-286.09,257.58-245.26,416.06  c-61.84-20.66-107.61,101.73-129.22,163.24s-19.86,109.06-1.93,171.74c14.62,51.11,45.15,57.05,32.21,108.61  c-5.26,20.95-3.4,26.52-10.04,47.08c-29.14,90.32,12.56,187.76,62.92,268.2c31.73,50.69,68.41,130.85,119.6,161.77  c51.19,30.92,161.27,4.18,172.07,9.97c27,14.49,46.69,151.15,136.33,187.58c89.64,36.43,224.88,57.44,304.27,2.12  c17.29-12.05,44.98-64.29,64.9-71.19c21.02-7.28,43.9-5.78,66.15-5.92c135.47-0.87,270.54-72.11,340.32-188.22  c69.78-116.12,87.47-263.65,7.29-372.84c32.13,9.75,43.23-28.16,61.97-56.03c83.08-123.56,67.24-304.31-36.07-411.54  c-15.49-16.08-52.31-12.96-64.19-31.86c-15.11-24.04-0.7-70.64-9.35-97.68c-28.42-88.89-99.89-162.91-187.73-194.44  c-87.84-31.52-190.07-19.84-268.53,30.69c-92.67-78.93-238.99-80.28-339.73-11.94c-100.74,68.34-153.42,196.7-141.46,317.84  s83.7,232.49,182.23,303.98c-70.64,13.1-212.4,51.34-199.04,73.18c26.38,43.13,140.9-3.04,207.84,23.19  c-70.6,80.3-106.23,280.4-82.91,297c55.79,39.72,70.72-228.8,174.46-265.27c24.55,76.24,59.9,180.68,84.45,256.92  c18.96,58.88,82.5,159.67,97.19,130.43c15.59-31.05-40.62-225.88-73.69-328.48c-7.38-22.89-13.59-51.27,3.41-68.28  c12.2-12.22,31.56-12.98,48.77-11.63c127.76,10.01,371.93,73.1,375.32,33.98c2.97-34.2-185.2-93.98-287.93-98.17  c-24.76-1.01-50.5-0.5-73-10.87c-22.5-10.37-40.47-35.88-32.86-59.46c4.63-14.35,17.22-24.43,29.18-33.62  c98.53-75.79,300.61-187.31,295.58-227.38c-5.9-46.96-280.93,106.09-390.65,212.28c14.43-154.68,99.75-425.82,78.01-459.03  c-15-22.91-104.04,96.13-139.66,173.93c-35.63,77.8-42.64,168.95-55.41,255.48c-1,6.78-2.48,14.3-8.04,18.31  c-8.45,6.1-20.79-0.12-26.48-8.85c-5.69-8.73-7.58-19.47-12.98-28.39c-9.41-15.53-27.98-23.34-38.71-38  c-6.19-8.45-19.39-48.66-22.48-58.67c-23.05-74.45-36.1-118.91-59.15-193.36"
   id="drawing" />

</svg>