<svg
   xmlns:dc="http://purl.org/dc/elements/1.1/"
   xmlns:cc="http://creativecommons.org/ns#"
   xmlns:rdf="http://www.w3.org/1999/02/22-rdf-syntax-ns#"
   xmlns:svg="http://www.w3.org/2000/svg"
   xmlns="http://www.w3.org/2000/svg"
   xmlns:sodipodi="http://sodipodi.sourceforge.net/DTD/sodipodi-0.dtd"
   xmlns:inkscape="http://www.inkscape.org/namespaces/inkscape"
   version="1.1"
   id="mySVG"
   xml:space="preserve"
   width="6867.0933"
   height="3412.4399"
   viewBox="0 0 6867.0933 3412.4399"
   sodipodi:docname="mangosteen.svg"
   inkscape:version="0.92.4 (5da689c313, 2019-01-14)"><metadata
     id="metadata8"><rdf:RDF><cc:Work
         rdf:about=""><dc:format>image/svg+xml</dc:format><dc:type
           rdf:resource="http://purl.org/dc/dcmitype/StillImage" /><dc:title></dc:title></cc:Work></rdf:RDF></metadata><defs
     id="defs6" /><sodipodi:namedview
     pagecolor="#ffffff"
     bordercolor="#666666"
     borderopacity="1"
     objecttolerance="10"
     gridtolerance="10"
     guidetolerance="10"
     inkscape:pageopacity="0"
     inkscape:pageshadow="2"
     inkscape:window-width="1920"
     inkscape:window-height="986"
     id="namedview4"
     showgrid="false"
     inkscape:zoom="0.06844235"
     inkscape:cx="3433.5466"
     inkscape:cy="1706.22"
     inkscape:window-x="-11"
     inkscape:window-y="-11"
     inkscape:window-maximized="1"
     inkscape:current-layer="g12" /><g
     id="g10"
     inkscape:groupmode="layer"
     inkscape:label="ink_ext_XXXXXX"
     transform="matrix(1.3333333,0,0,-1.3333333,0,3412.44)"><g
       id="g12"
       transform="scale(0.1)"><path
         d="m 14692.93,22350.563 c 341.71,-99.7 630.5,-208 836.88,-298.3 -207.78,320.2 -512.37,756.8 -954.8,1351.4 -530.01,712.4 -1049.83,1370.4 -1201.12,1560.9 l -964.8,-444.6 c 347.6,-194.4 1177.27,-702.6 1760.95,-1417.2 198.68,-243.2 374.38,-505.1 522.89,-752.2 z m -3596.07,-1285.7 c 0.13,0 0.26,-0.1 0.39,-0.1 -0.14,0 -0.26,0.1 -0.39,0.1 z m 6664.69,-164.8 c -0.02,0 -0.04,0 -0.06,0 0,0 0.02,0 0.06,0 z m -749.01,-1609.3 c 239.92,0 401.24,-164.7 457.38,-338.7 59.54,-184.5 15.51,-430.6 -217.09,-564.4 -243.58,-140 -445.22,-329.6 -599.33,-563.3 -203.21,-308.2 -462.76,-586.8 -771.44,-827.9 -173.92,-135.9 -259.56,-347.7 -229.1,-566.5 30.69,-220.6 172.18,-402.4 378.48,-486.4 10.76,-4.4 21.63,-8.8 32.6,-13.2 1067.68,-429.3 2243.66,-429.3 3311.3,0 1175,472.6 1207.9,728.1 1287.2,1345.4 30,233.6 67.3,524.4 175,888.1 340,1148.7 1074.5,1077 1427.5,1042.6 46.4,-4.6 86.8,-8.5 116.8,-8.7 6.5,12.8 17.6,58.1 -2.3,149.7 -19.9,91 -96.2,336.3 -375.8,646.9 -257.4,285.9 -610.2,534.7 -1020.4,719.4 -716.8,322.9 -1396,335.9 -1839.6,290 -510.6,-52.9 -892.53,-198.6 -1024.71,-283.6 -123.69,-79.6 -426.63,-93.1 -530.74,33.1 -30.04,36.5 -85.6,136.1 47.01,274.8 51.31,53.6 206.52,104.5 647.78,243.6 714.06,225.2 1909.26,602.1 2522.26,1075.4 210.4,162.5 286.7,334.2 226.6,510.2 -77.5,227.4 -373.1,457.3 -810.9,630.9 -469.5,186.1 -1049.7,288.5 -1633.9,288.5 -619.01,0 -1259.82,-90.2 -1904.58,-268.2 -221.1,-61 -394.23,-219.1 -475.02,-433.7 -81.19,-215.7 -55.02,-450.1 71.82,-643.1 3.12,-4.7 6.21,-9.5 9.28,-14.2 288.79,-446.1 379.72,-991.9 379.72,-1106.5 0,-31.8 0,-106.3 -65.24,-136 -68.47,-31.3 -119.67,13.2 -212.61,94 -72.41,62.9 -186.09,161.8 -361.24,285.7 42.68,-87.2 72.99,-161.9 88.34,-221.2 l 265.6,-1025.3 c 76.56,-50.5 239.32,-135.7 336.87,-92.6 75.32,33.3 101.77,148.4 110.69,239.1 4.86,49.4 48.86,85.7 98.38,80.7 49.46,-4.8 85.62,-48.9 80.76,-98.3 -19.83,-201.6 -93.02,-331.6 -217.55,-386.3 -225.56,-99.2 -510.27,106.8 -541.98,130.7 -16.31,12.2 -27.97,29.6 -33.08,49.4 l -273.94,1057.5 c -21.46,82.8 -84.81,226.5 -232.12,473.6 -0.38,0.2 -0.77,0.5 -1.15,0.7 -112.57,67.9 -434.13,215.6 -884.7,359.2 80.01,-143.3 149.35,-277.2 207.11,-394 233.02,-471.5 382.88,-876.1 445.44,-1097.5 92.11,-326 82.84,-530.2 -29.19,-642.9 -153.08,-153.9 -431.62,-76.7 -726.52,4.9 -117.58,32.6 -239.16,66.3 -349.61,84 -266.25,42.9 -710.06,18.2 -1187.2,-65.8 -537.31,-94.7 -1083.86,-256.8 -1538.98,-456.5 -784.05,-344 -923.36,-849.5 -998.2,-1121.1 -18.42,-66.9 -32.97,-119.7 -53.78,-159.8 -3.5,-6.8 -7.24,-13.6 -11.18,-20.4 -157.64,-271.4 -111.13,-602.4 113.12,-804.9 48.63,-43.9 97.38,-83.6 144.87,-118 449.85,-325.7 1332.85,-663.6 2984.9,-424.5 682.11,98.8 1103.57,238.4 1326.36,439.5 193.03,174.2 225.83,382.4 267.37,646 17.39,110.3 35.36,224.4 66.93,346.2 93.33,360.4 778.95,868.6 1446.1,948.1 7.92,1 15.83,1.9 23.73,2.7 19.07,1.9 37.7,2.9 55.88,2.9 z M 38885.14,7642.0626 c 0.1,0 0.2,0 0.4,0 -0.2,0 -0.3,0 -0.4,0 z M 33181.94,219.16256 c -751.2,0 -1657.6,73 -2605.9,329.699 -2172,587.90304 -3914.5,1947.80104 -5179,4041.80104 -1452.7,2405.5 -1244.7,4934.4 -814.4,6632.3004 370.1,1460.3 965.1,2593.9 1399,3287.7 532.3,851.2 1132.5,1525.2 1605.5,1803.1 43.7,25.6 69.6,73.1 67.7,123.8 -1.4,35.2 -1.9,74.3 -2.4,115.7 -6.5,517.2 -20.1,1593.3 -1752.4,3155.7 -1171.4,1056.6 -2288.7,1483.3 -3019.7,1655.3 -394.7,92.9 -720.6,123.4 -948.1,130.7 951.2,-492.3 1699.3,-1125 2227.1,-1884.2 639.3,-919.8 963.4,-2037.8 963.4,-3323.2 0,-718.4 -86.4,-1419.5 -256.8,-2083.8 -193.6,-755.1 -496,-1460.1 -898.5,-2095.5 -954.8,-1506.8 -2460.5,-2620.0004 -4475.4,-3308.8004 -970.88,-331.9 -1983.98,-499.6 -3015.44,-499.6 -98.26,0 -196.51,1.5 -295.09,4.6 -1054.99,32.6 -2081.51,236.5 -3051.06,606.2 -923.1,352 -1764.42,851.1 -2433.03,1443.4004 -679,601.4 -1181.8143,1301.3 -1454.0843,2024 -275.894,732.3 -464.449,1386.5 -576.437,1999.9 -110.2817,604.1 -143.8129,1155.4 -102.4887,1685.2 76.1602,976.6 410.9807,1876 1053.7097,2830.4 492.5503,731.4 1148.9403,1205.1 1612.8503,1473.6 248.45,143.8 467.52,245.2 627.49,311.5 -167.32,61.7 -411.61,174.1 -751.24,379 -3.58,2.1 -7.11,4.4 -10.62,6.8 -0.75,0.5 -1.51,1 -2.26,1.5 -180.85,77.4 -294.57,308.7 -276.85,563.8 9.04,130.1 56.71,324.7 232.45,512.5 162.45,173.7 397.14,301.8 697.55,380.6 873.66,229.3 1838.87,96.9 2494.75,-54.6 66.61,-15.3 132.04,-31.3 196,-47.8 -125.15,196.7 -261.43,389.5 -407.6,568.4 -714.8,875.1 -1852.25,1451 -1863.66,1456.7 -30.93,15.5 -50.25,47.4 -49.68,82 0.57,34.6 20.9,65.8 52.31,80.2 l 1193.06,549.8 c 37.56,17.3 82.11,6.8 107.95,-25.5 82.7,-103.4 1698.56,-2127.3 2369.88,-3238 320.36,-196.4 515.13,-357.2 631.06,-457.1 -34.56,192.8 -128.28,564.8 -334,882.6 l -8.64,13.3 c -158.79,241.6 -191.54,535.1 -89.84,805.3 101.29,269.1 318.37,467.3 595.58,543.8 660.37,182.3 1317.28,274.7 1952.48,274.7 606.3,0 1210.2,-106.9 1700.2,-301.2 494.1,-195.9 819,-458.7 915,-740 60.3,-176.7 59.4,-443.4 -287,-710.9 -638.3,-492.8 -1852.6,-875.8 -2578.13,-1104.6 -259,-81.6 -526.72,-166.1 -574.21,-198.9 -17.39,-18.5 -25.42,-31.3 -29.07,-38.7 46.64,-29.8 224.94,-31.2 287.71,9.1 126.23,81.3 519.31,250.8 1103.5,311.3 465.6,48.2 1178.8,34.5 1932.2,-304.9 643.5,-289.8 1012.5,-659.4 1208.7,-918.4 220.3,-290.7 336.9,-597.8 297.2,-782.6 -21.1,-98.2 -89.5,-159.2 -178.5,-159.2 -39.1,0 -84.5,4.5 -137.2,9.6 -351.4,34.3 -939.6,91.7 -1237.4,-914.5 -103.6,-349.8 -138.4,-620.8 -169.1,-859.9 -41.1,-319.9 -73.6,-572.6 -262.1,-806.2 -189.5,-234.8 -529.3,-439.1 -1136.4,-683.3 -556,-223.6 -1135.69,-337 -1722.83,-337 -587.15,0 -1166.78,113.4 -1722.81,337 -11.21,4.5 -22.32,9 -33.33,13.5 -266.48,108.5 -449.24,343.4 -488.89,628.3 -39.42,283.2 71.45,557.3 296.57,733.1 293.26,229.1 539.53,493.3 731.98,785.2 169.71,257.4 391.72,466.1 659.86,620.3 155.3,89.3 170.07,246 135.53,353 -35.32,109.5 -141.32,230.8 -323.57,212 -6.95,-0.7 -13.89,-1.5 -20.84,-2.3 -616.38,-73.5 -1223.44,-545.4 -1293.14,-814.5 -29.36,-113.4 -46.65,-223.1 -63.36,-329.1 -43.33,-275 -84.26,-534.8 -324.58,-751.6 -250.51,-226.1 -702.09,-379.9 -1421.17,-484 -1711.75,-247.8 -2639.43,111.6 -3116.24,456.8 -52.71,38.2 -106.53,82 -159.96,130.2 -139.89,126.4 -231.09,299.5 -256.81,487.7 -25.28,184.8 13.33,377.1 108.69,541.2 2.47,4.3 4.8,8.5 6.99,12.7 12.13,23.5 25.08,70.5 40.08,124.9 76.89,279 236.91,859.7 1099.42,1238.1 1019.84,447.5 2261.52,626.2 2827.08,535.3 120.29,-19.4 246.75,-54.4 369.05,-88.3 221.25,-61.3 472.02,-130.7 550.88,-51.4 33.6,33.8 76.16,139.3 -16.42,467 -84.43,298.8 -343.23,958.2 -729.92,1615.7 -118.15,33.4 -242.85,65.7 -373.07,95.8 -636.13,146.9 -1570.38,275.8 -2408.54,55.8 -685.18,-179.8 -785.01,-571.5 -796.13,-731.5 -13.85,-199.3 77.01,-347.8 169.52,-386.4 13.25,-5.6 23.33,-12.3 29.99,-16.7 1.19,-0.8 2.37,-1.7 3.61,-2.4 668.59,-403.3 942.49,-426.7 958.73,-427.7 44.82,1.2 82.21,-31 89.53,-75.3 7.36,-44.6 -21.02,-87.8 -64.28,-100.9 -3.72,-1.1 -382.09,-117.4 -867.62,-399.1 -446.07,-258.9 -1076.92,-714.6 -1549.1203,-1415.7 -1268.3808,-1883.5 -1368.092,-3664.3 -355.646,-6351.5 528.996,-1404.1 1943.1363,-2661.2004 3782.8163,-3362.7004 1999.17,-762.3 4214.96,-801 6239.15,-109.1 4793.3,1638.5004 5509,5288.1004 5509,7317.8004 0,2407.7 -1149.8,4159.3 -3417.5,5206.1 -36.4,16.8 -57.3,55.7 -51.2,95.3 6.1,39.7 37.7,70.5 77.5,75.6 22.1,2.9 551.1,67.6 1370.1,-125.1 478.7,-112.6 958,-290.6 1424.3,-529 581.9,-297.5 1145.3,-690.4 1674.7,-1167.8 768.3,-693 1297.2,-1380.5 1572,-2043.5 231.1,-557.6 236.5,-987 239.8,-1243.6 0.5,-40.2 1,-78.2 2.2,-111.1 4.5,-117.1 -55.4,-226.6 -156.3,-285.9 -449.2,-263.9 -1026.4,-915.6 -1544.1,-1743.3 -427.1,-683 -1012.7,-1798.8 -1377.1,-3236.5 -421.9,-1664.6004 -626.6,-4142.7004 794,-6495.1004 2943.4,-4874.39804 7651,-4356.80104 9197.9,-4186.80104 1405.1,154.403 3103.6,1077.10104 4327.2,2350.50104 1088.3,1132.6 2349.5,3073.4 2177.2,5886.9 -332.7,5434.0004 -2309.5,8007.8004 -6610.1,8606.2004 -2357.6,328 -3966.6,-156.1 -4901.3,-619.9 -1042,-517.2 -1834.6,-1303.4 -2120.3,-2103.2 -344.5,-964.8 -359.9,-1505 -338.4,-1741.1 12.9,-141.5 -70.8,-275.2 -203.7,-325 -312.4,-117.2 -879.5,-486.4 -1168.4,-1641.8 -318.1,-1272.4004 217.1,-2097.0004 461.9,-2392.4004 77.5,-93.5 95.3,-225 45.3,-335 -191.8,-421.7 -717.3,-1927 571.1,-3593 1047.6,-1354.8 2034.5,-1226.7 2529.5,-1029.7 85.8,34.1 182,29.3 263.9,-13.1 81.8,-42.4 141.2,-118.2 162.7,-208 126.3,-525 601,-1775 2278.2,-2040.3 1481.1,-234.296 2162.1,608.7 2386.2,982 65.5,109.2 189.9,168.1 317.1,150.2 616.4,-87 2710.6,-211.9 3775.3,1835.8 740,1423.2 683.3,2332.9 505.3,2845.3 -122.6,353.3 -300.5,509.4 -339.6,532.3 -33,5.8 -60.3,27.7 -72,59.3 -22.2,60.2 22.8,102.6 39.7,118.5 13.7,12.9 32.7,29.2 56.8,49.8 841.6,719.8 1191,1640.7 1038.5,2737.2004 -234,1681.9 -1072,2138.7 -1421.5,2257 -133.3,45.1 -220,169.8 -215.8,310.3 16.7,556.9 -146.3,1917 -2015,2517.6 -1239.7,398.5 -1923.1,10.8 -2159.4,-174.3 -111,-87 -263.2,-91.2 -378.9,-10.5 -314.5,219.4 -1214.5,682.8 -2776.1,249 -2019.8,-561.1 -1945.7,-2403.8 -1820.1,-3170 202.5,-1235.4 1180.9,-2494 1592.1,-2977.8004 74,-87.1 95.6,-203.5 57.8,-311.3 -37.9,-107.9 -127.6,-185.3 -239.9,-207 -326.4,-63.1 -825,-158.7 -1346.4,-256.1 l -44.4,-8.3 c -95,-17.9 -119.4,-94.3 -111.5,-154.3 8,-59.8 51.3,-127 147.6,-119.6 73.9,5.7 146.2,11.8 214.7,18.1 619.9,56.3 1072.9,52.4 1343.7,39.1 112.2,-5.5 211.1,-67.7 264.5,-166.4 53.3,-98.5 51.4,-215.1 -5.2,-311.8 -175.4,-299.7 -426.5,-772.5 -626.7,-1323.5 -145.8,-401.2 -255.8,-827.9 -327,-1268.4 -11,-67.9 42.6,-88.3 59.2,-93 16.7,-4.7 73.1,-14.9 98.9,48.8 129.1,318.8 281.1,660.2 451.8,1014.9 361.6,751.5 671.6,1215.8 868,1473 77.2,101 202.1,145.5 326,116 124.3,-29.6 216.1,-126 239.5,-251.6 101,-541.4 327.2,-1411.5 830.9,-2481.9 152.8,-324.6 318.4,-635.5 492.3,-923.9 47.4,-78.6 124.9,-77.9 176.8,-53.3 52.3,24.7 102.4,84.4 71.7,171.4 -234.3,662.7 -433.3,1398 -591.6,2185.6 -129.9,646.5 -216.4,1138.6 -266,1437.5 -17.4,105.2 18.6,211.4 96.4,284.2 77.8,72.9 186.2,101.8 290.1,77.4 535.6,-125.7 1522.8,-353.2 2117.1,-464.6 459,-86.1 1019.5,-142.8 1666,-168.7 59.7,-2.5 71.8,46.4 74,61.4 2.2,15 5,65.1 -53.1,80.2 -665,172.6 -1620.9,428.9 -2397.9,670.2 -1185.6,368.1 -1402.9,523.9 -1459,627.6 -24.8,45.9 -20,85.4 -11.5,110.4 111.7,331.4 488.7,736.6004 1152.3,1238.7004 486,367.7 1114.8,777.2 1868.9,1217.2 80.5,46.9 80.2,125.2 55.5,178 -24.7,52.7 -84.7,103.1 -172.3,71.4 -72.4,-26.2 -148.3,-54.2 -225.5,-83.1 -1622.8,-608.6 -2559.5,-1485 -2959.5,-1859.2 -67.1,-62.7 -120,-112.2 -160.3,-145.7 -40.2,-33.5 -101.1,-84.1004 -167.8,-55.1 -14.6,6.3 -62.1,32.4 -62.1,102.2 0,219.6 115.6,1718.4 424.5,2851 162.7,596.5 360,1174.9 496.9,1555 14.7,40.7 -12.8,61.9 -25.4,69.1 -12.4,7.2 -44.3,20.3 -72,-12.6 -382.4,-454.2 -899.3,-1214.5 -1191,-2257.5 -268.2,-958.8 -366,-1633.8 -400.9,-2031.2 -10,-113.9 -77.7,-210.9 -181.1,-259.6 -103.7,-48.9004 -222,-39.2 -316.4,25.8 -287.9,198.1 -695.8,537.9 -1004.5,1031.8 -517,827.2 -826.8,1974.2 -839.8,2022.6 -12.8,48 15.7,97.3 63.8,110.2 48,12.8 97.3,-15.7 110.1,-63.8 3.1,-11.6 316.1,-1169.6 818.6,-1973.6 292.2,-467.7 680,-790.5 953.8,-978.9 41.1,-28.4 92.6,-32.6 137.7,-11.3 44.8,21.1 74.2,63.2 78.5,112.5 35.5,405 134.9,1091.9 406.8,2064 300.4,1074 832.9,1857.1 1226.7,2324.9 75.2,89.3 198.4,111 299.6,52.7 101.4,-58.4 144.5,-176.1 104.9,-286.1 -135.8,-377.1 -331.5,-950.6 -492.6,-1541.4 -262.6,-962.9 -383.4,-2191.6 -411.6,-2648.5 25.6,23.5 53.2,49.4 80.6,75 407.8,381.5 1362.9,1275.1 3019.3,1896.2 77.8,29.2 154.4,57.4 227.4,83.8 187.8,68 337.3,-37.5 396.6,-164.4 59.4,-126.7 44.7,-309.1 -127.8,-409.7 -1698.3,-990.9 -2737.5,-1818.7004 -2933.4,-2335.6004 24.2,-24.2 109.7,-89.1 400.9,-206.2 229.8,-92.3 549.6,-202.2 950.5,-326.6 772.7,-239.7 1722.8,-494.5 2383.7,-666 129,-33.4 205.5,-148.9 186,-280.7 -19.5,-131.9 -126.3,-220.1 -259.3,-214.9 -655.2,26.1 -1224.4,83.9 -1692,171.5 -597.7,112.1 -1588,340.3 -2125.1,466.4 -45.7,10.7 -91.6,-1.5 -125.9,-33.6 -34.2,-32.1 -49.5,-77 -41.8,-123.3 49.4,-297.6 135.4,-787.5 264.9,-1431.6 156.6,-779.2 353.4,-1506.3 584.8,-2161 56.4,-159.7 -11.2,-321.8 -164.5,-394.2 -152.9,-72.2 -320.6,-21.5 -407.9,123.2 -177,293.7 -345.6,610 -500.9,940.1 -511.9,1087.8 -742.1,1973.8 -845.1,2525.6 -10.3,55.5 -49.3,96.4 -104.3,109.5 -54.4,13 -107.2,-5.8 -141.1,-50.2 -191.3,-250.5 -493.9,-703.9 -848.9,-1441.8 -169,-351.2 -319.5,-689.2 -447.2,-1004.4 -52,-128.2 -181.2,-191.7 -314.1,-154.6 -133.1,37.2 -210.6,158.6 -188.5,295.1 73,451.6 185.9,889.4 335.5,1301.2 204.8,563.6 461.4,1046.8 640.5,1352.9 24.9,42.6 25.8,91.9 2.3,135.2 -23.6,43.5 -65.5,69.9 -115,72.3 -265.1,13 -709.1,16.8 -1318.6,-38.6 -69.3,-6.3 -142.4,-12.5 -217.1,-18.3 -197.2,-15.3 -320.2,127 -339.9,275.5 -19.7,148.5 62.1,318.1 256.6,354.8 l 44.7,8.4 c 520.9,97.2 1019.1,192.8 1345.3,255.8 48.8,9.5 87.7,43 104.1,89.9 16.5,46.8 7.1,97.3 -25.1,135.1 -239.8,282.2 -593.1,730.8004 -913.8,1265.2004 -386.7,644.4 -628.5,1250 -718.7,1800.1 -81.6,497.8 -116.5,1236 181.2,1925.7 310.9,720.5 905.9,1207.3 1768.4,1446.8 1635.3,454.3 2591.8,-40.8 2927.2,-274.8 50.3,-35.1 116.6,-33.3 164.9,4.6 148.1,116 404.9,269.9 787.4,344.1 456.1,88.4 973.6,41.3 1538.1,-140.1 864,-277.7 1479.7,-745.4 1830,-1390.1 287.7,-529.4 317.6,-1044.4 309.8,-1304.3 -1.8,-60.8 35.8,-114.8 93.6,-134.4 381.2,-129 1294.3,-621.5 1542.1,-2402.7 103.3,-742.7004 -14.7,-1420.0004 -350.7,-2013.0004 -259.5,-458.2 -581.2,-741.9 -732.7,-871.8 6.9,-6.2 14.1,-13 21.6,-20.3 42.7,-41.6 108.1,-115 177.3,-228.9 132.4,-218.2 287.7,-599.4 274.6,-1176.2 -14.3,-634.2 -228.8,-1354.2 -637.4,-2140 -259.9,-499.8 -599.2,-912.7 -1008.6,-1227.2 -341.4,-262.2 -734.3,-458.5 -1167.9,-583.3 -755,-217.4 -1441.6,-168.8 -1783.7,-120.5 -55.4,7.9 -109.4,-17.6 -137.6,-64.6 -106.5,-177.5 -347.6,-513.2 -765.7,-767.8 -505.7,-307.9 -1112.3,-408.599 -1802.9,-299.4 -767.2,121.4 -1380.3,448 -1822.3,970.8 -361.5,427.6 -527.3,891.4 -602.8,1205.3 -9.5,39.5 -34.5,71.5 -70.6,90.2 -36,18.6 -76.7,20.6 -114.5,5.6 -250.9,-99.8 -651.2,-194.8 -1133.5,-80.4 -570.7,135.4 -1110.7,528.1 -1604.9,1167.3 -575.6,744.3 -871.6,1540.7 -879.8,2366.8 -6.5,663.6 177.1,1168.8 287.2,1410.8 22,48.4 14.4,104.2 -20,145.6 -116.5,140.6 -332.6,441.8 -470.4,878.8 -164.9,522.9 -174.2,1085.5004 -27.5,1672.2004 136,543.8 348.3,981.8 631.2,1301.8 242.2,273.9 486.4,404 648.6,464.8 57.2,21.5 93.2,79.1 87.7,140.1 -22.9,250.9 -8,820.7 348.1,1818 139.6,390.8 400.5,791.5 754.5,1159.1 395,410 884.6,761.6 1455.3,1044.8 643.1,319.2 1368,539.2 2154.7,653.9 884.6,128.9 1844,123.3 2851.4,-16.9 2282,-317.5 3924.5,-1209.5 5021.3,-2726.8 526.2,-727.9 923.6,-1587.5 1214.9,-2628 275.1,-982.4 448.1,-2100.7 528.8,-3418.7004 73.7,-1203.6 -107.8,-2358.7 -539.3,-3433.4 -381.2,-949.2 -949,-1820.4 -1687.8,-2589.2 -647.7,-674.1 -1421.4,-1256.3 -2237.4,-1683.5 -758.1,-397.00004 -1518.8,-646.39804 -2199.9,-721.19924 -339.9,-37.3985 -898.2,-98.69924 -1586.8,-98.8008"
         style="fill:none;stroke:#040606;stroke-width:100;stroke-linecap:round;stroke-linejoin:round;stroke-miterlimit:10;stroke-dasharray:none;stroke-opacity:1"
         id="drawing"
         inkscape:connector-curvature="0" /></g></g></svg>