<?xml version="1.0" encoding="utf-8"?>
<!-- Generator: Adobe Adobe Illustrator 24.2.0, SVG Export Plug-In . SVG Version: 6.00 Build 0)  -->
<svg version="1.1" id="mySVG" xmlns="http://www.w3.org/2000/svg" xmlns:xlink="http://www.w3.org/1999/xlink" x="0px" y="0px"
	 width="1200px" height="800px" viewBox="0 0 1200 800" style="enable-background:new 0 0 1200 800;" xml:space="preserve">
<style type="text/css">
	.st0{fill:none;stroke:#000000;stroke-width:3;stroke-miterlimit:10;}
</style>
<path class="st0" d="M125.32,401.71c101.5,78.45,223.44,130.22,350.38,148.74c45.21,6.6,91.7,9,136.28-1.02
	c44.57-10.02,87.34-33.53,113.78-70.79s34.02-89.14,12.83-129.62c-21.18-40.48-73.35-64.1-115.82-47.28
	c-13.08,5.18-25.71,15.16-27.99,29.04c-2.61,15.95,8.93,30.39,19.72,42.42c14.58,16.27,29.16,32.54,43.74,48.81
	c10.11,11.28,22.96,23.6,37.91,21.21c15.5-2.48,24.1-20.03,24.69-35.72c1.61-43.13-37.48-78.34-78.76-90.95
	c-20.34-6.21-47.11-6.16-57.59,12.35c-5.79,10.21-4.46,22.85-2.39,34.4c5.81,32.43,16.14,64.05,30.59,93.66
	c4.9,10.03,10.53,20.15,19.42,26.89c8.9,6.74,21.87,9.28,31.28,3.29c16.52-10.53,10.96-35.78,2.48-53.44
	c-14.83-30.88-32.68-60.3-53.22-87.72c-8.66-11.56-22.77-24.01-35.66-17.48c-8.64,4.38-11.41,15.16-13.26,24.67
	c-4.67,23.99-9.34,47.98-14.01,71.97c-2.75,14.13-5.5,28.73-2.46,42.8c3.04,14.07,13.44,27.59,27.69,29.63
	c15.76,2.26,30.65-10.47,35.98-25.47s3.27-31.54,0.3-47.18c-4.39-23.07-10.63-45.79-18.64-67.87c-4.71-12.98-13.31-28-27.1-27.46
	c-10.07,0.39-17.5,9.2-23.37,17.39c-15.6,21.8-29.77,44.61-42.39,68.25c-8.99,16.84-15.37,41.59,0.77,51.79
	c9.61,6.07,22.95,2.55,31.22-5.24s12.55-18.83,16.08-29.63c8.66-26.5,14.38-53.97,17.02-81.73c0.69-7.31,0.72-15.8-4.83-20.61
	c-5.49-4.74-13.75-3.58-20.86-2.14c-24.81,5.02-49.62,10.04-74.43,15.07c-15.74,3.19-33.25,7.56-41.63,21.25
	c-12.58,20.54,6.39,49.09,30.03,53.71c23.64,4.62,47.36-7.54,66.39-22.3c28.09-21.8,52.47-58.26,38.97-91.16
	c-10.44-25.45-39.22-37.67-65.92-44.34c-17.07-4.26-35.08-7.3-52.17-3.08s-33.02,17.31-35.7,34.7
	c-3.07,19.96,12.36,39.18,31.11,46.68c18.75,7.49,39.82,5.78,59.76,2.57c19.88-3.21,43.48-11.72,46.64-31.6
	c3.49-21.98-20.52-37.35-40.85-46.41c-37.92-16.9-82.5-33.71-119.19-14.3c-34.87,18.45-47.33,63-45.41,102.41
	c1.9,39.14,14.62,77.69,36.35,110.29c43.73,65.61,125.15,104.04,203.6,96.09c78.45-7.95,150.51-61.93,180.18-134.98
	c8.93-21.99,13.59-49.02-0.66-67.99c-16.78-22.33-49.62-21.85-77.54-21.65c-90.14,0.65-180.31-24.64-256.97-72.06
	c-16.01-9.9-38.44-20.24-51.5-6.69c-8.21,8.52-7.31,22.07-5.28,33.72c11.85,68.18,44.47,133.45,95.68,179.99
	s121.4,73.09,190.32,66.87c51.51-4.65,99.72-26.56,146.16-49.34c46.44-22.77,93.07-47,143.84-56.88
	c50.77-9.88,107.47-3.36,146.99,30.02" id="drawing"/>
</svg>
