<?xml version="1.0" encoding="UTF-8" standalone="no"?>
<!-- Generator: Adobe Adobe Illustrator 24.2.0, SVG Export Plug-In . SVG Version: 6.00 Build 0)  -->

<svg
   xmlns:dc="http://purl.org/dc/elements/1.1/"
   xmlns:cc="http://creativecommons.org/ns#"
   xmlns:rdf="http://www.w3.org/1999/02/22-rdf-syntax-ns#"
   xmlns:svg="http://www.w3.org/2000/svg"
   xmlns="http://www.w3.org/2000/svg"
   xmlns:sodipodi="http://sodipodi.sourceforge.net/DTD/sodipodi-0.dtd"
   xmlns:inkscape="http://www.inkscape.org/namespaces/inkscape"
   version="1.1"
   id="mySVG"
   x="0px"
   y="0px"
   width="964.46521"
   height="321.53735"
   viewBox="0 0 964.46521 321.53735"
   xml:space="preserve"
   sodipodi:docname="orange.svg"
   inkscape:version="0.92.4 (5da689c313, 2019-01-14)"><metadata
   id="metadata10"><rdf:RDF><cc:Work
       rdf:about=""><dc:format>image/svg+xml</dc:format><dc:type
         rdf:resource="http://purl.org/dc/dcmitype/StillImage" /><dc:title></dc:title></cc:Work></rdf:RDF></metadata><defs
   id="defs8" /><sodipodi:namedview
   pagecolor="#ffffff"
   bordercolor="#666666"
   borderopacity="1"
   objecttolerance="10"
   gridtolerance="10"
   guidetolerance="10"
   inkscape:pageopacity="0"
   inkscape:pageshadow="2"
   inkscape:window-width="1920"
   inkscape:window-height="986"
   id="namedview6"
   showgrid="false"
   fit-margin-top="0"
   fit-margin-left="0"
   fit-margin-right="0"
   fit-margin-bottom="0"
   inkscape:zoom="0.295"
   inkscape:cx="475.5973"
   inkscape:cy="159.78577"
   inkscape:window-x="-11"
   inkscape:window-y="-11"
   inkscape:window-maximized="1"
   inkscape:current-layer="mySVG" />
<style
   type="text/css"
   id="style2">
	.st0{fill:none;stroke:#000000;stroke-width:3;stroke-miterlimit:10;}
</style>
<path
   class="st0"
   d="M 0.91730436,163.4616 C 102.4173,241.9116 224.3573,293.6816 351.2973,312.2016 c 45.21,6.6 91.7,9 136.28,-1.02 44.57,-10.02 87.34,-33.53 113.78,-70.79 26.44,-37.26 34.02,-89.14 12.83,-129.62 -21.18,-40.480001 -73.35,-64.100001 -115.82,-47.280001 -13.08,5.18 -25.71,15.16 -27.99,29.04 -2.61,15.950001 8.93,30.390001 19.72,42.420001 14.58,16.27 29.16,32.54 43.74,48.81 10.11,11.28 22.96,23.6 37.91,21.21 15.5,-2.48 24.1,-20.03 24.69,-35.72 1.61,-43.13 -37.48,-78.340001 -78.76,-90.950001 -20.34,-6.21 -47.11,-6.16 -57.59,12.35 -5.79,10.210001 -4.46,22.850001 -2.39,34.400001 5.81,32.43 16.14,64.05 30.59,93.66 4.9,10.03 10.53,20.15 19.42,26.89 8.9,6.74 21.87,9.28 31.28,3.29 16.52,-10.53 10.96,-35.78 2.48,-53.44 -14.83,-30.88 -32.68,-60.3 -53.22,-87.72 -8.66,-11.560001 -22.77,-24.010001 -35.66,-17.480001 -8.64,4.38 -11.41,15.160001 -13.26,24.670001 -4.67,23.99 -9.34,47.98 -14.01,71.97 -2.75,14.13 -5.5,28.73 -2.46,42.8 3.04,14.07 13.44,27.59 27.69,29.63 15.76,2.26 30.65,-10.47 35.98,-25.47 5.33,-15 3.27,-31.54 0.3,-47.18 -4.39,-23.07 -10.63,-45.79 -18.64,-67.87 -4.71,-12.98 -13.31,-28.000001 -27.1,-27.460001 -10.07,0.39 -17.5,9.200001 -23.37,17.390001 -15.6,21.8 -29.77,44.61 -42.39,68.25 -8.99,16.84 -15.37,41.59 0.77,51.79 9.61,6.07 22.95,2.55 31.22,-5.24 8.27,-7.79 12.55,-18.83 16.08,-29.63 8.66,-26.5 14.38,-53.97 17.02,-81.73 0.69,-7.31 0.72,-15.800001 -4.83,-20.610001 -5.49,-4.74 -13.75,-3.58 -20.86,-2.14 -24.81,5.02 -49.62,10.04 -74.43,15.070001 -15.74,3.19 -33.25,7.56 -41.63,21.25 -12.58,20.54 6.39,49.09 30.03,53.71 23.64,4.62 47.36,-7.54 66.39,-22.3 28.09,-21.8 52.47,-58.260001 38.97,-91.160001 -10.44,-25.45 -39.22,-37.67 -65.92,-44.34 -17.07,-4.26 -35.08,-7.3 -52.17,-3.08 -17.09,4.22 -33.02,17.31 -35.7,34.7 -3.07,19.96 12.36,39.18 31.11,46.68 18.75,7.490001 39.82,5.780001 59.76,2.570001 19.88,-3.210001 43.48,-11.720001 46.64,-31.600001 3.49,-21.98 -20.52,-37.35 -40.85,-46.41 -37.92,-16.9000003 -82.5,-33.7100003 -119.19,-14.3 -34.87,18.45 -47.33,63 -45.41,102.410001 1.9,39.14 14.62,77.69 36.35,110.29 43.73,65.61 125.15,104.04 203.6,96.09 78.45,-7.95 150.51,-61.93 180.18,-134.98 8.93,-21.99 13.59,-49.02 -0.66,-67.99 -16.78,-22.330001 -49.62,-21.850001 -77.54,-21.650001 -90.14,0.65 -180.31,-24.64 -256.97,-72.06 -16.01,-9.9 -38.44,-20.2400003 -51.5,-6.69 -8.21,8.52 -7.31,22.07 -5.28,33.72 11.85,68.180001 44.47,133.450001 95.68,179.990001 51.21,46.54 121.4,73.09 190.32,66.87 51.51,-4.65 99.72,-26.56 146.16,-49.34 46.44,-22.77 93.07,-47 143.84,-56.88 50.77,-9.88 107.47,-3.36 146.99,30.02"
   id="drawing"
   inkscape:connector-curvature="0"
   style="fill:none;stroke:#000000;stroke-width:3;stroke-miterlimit:10" />
</svg>