<svg
   xmlns:dc="http://purl.org/dc/elements/1.1/"
   xmlns:cc="http://creativecommons.org/ns#"
   xmlns:rdf="http://www.w3.org/1999/02/22-rdf-syntax-ns#"
   xmlns:svg="http://www.w3.org/2000/svg"
   xmlns="http://www.w3.org/2000/svg"
   xmlns:sodipodi="http://sodipodi.sourceforge.net/DTD/sodipodi-0.dtd"
   xmlns:inkscape="http://www.inkscape.org/namespaces/inkscape"
   version="1.1"
   id="mySVG"
   xml:space="preserve"
   width="1600"
   height="1066.6667"
   viewBox="0 0 1600 1066.6667"
   sodipodi:docname="orange.svg"
   inkscape:version="0.92.4 (5da689c313, 2019-01-14)"><metadata
     id="metadata8"><rdf:RDF><cc:Work
         rdf:about=""><dc:format>image/svg+xml</dc:format><dc:type
           rdf:resource="http://purl.org/dc/dcmitype/StillImage" /><dc:title></dc:title></cc:Work></rdf:RDF></metadata><defs
     id="defs6" /><sodipodi:namedview
     pagecolor="#ffffff"
     bordercolor="#666666"
     borderopacity="1"
     objecttolerance="10"
     gridtolerance="10"
     guidetolerance="10"
     inkscape:pageopacity="0"
     inkscape:pageshadow="2"
     inkscape:window-width="1920"
     inkscape:window-height="986"
     id="namedview4"
     showgrid="false"
     inkscape:zoom="0.22124998"
     inkscape:cx="800"
     inkscape:cy="533.33337"
     inkscape:window-x="-11"
     inkscape:window-y="-11"
     inkscape:window-maximized="1"
     inkscape:current-layer="g12" /><g
     id="g10"
     inkscape:groupmode="layer"
     inkscape:label="ink_ext_XXXXXX"
     transform="matrix(1.3333333,0,0,-1.3333333,0,1066.6667)"><g
       id="g12"
       transform="scale(0.1)"><path
         d="m 6495.05,2601.52 c -166.46,-51.86 -331.49,-95.35 -494.05,-126.81 -241.71,-27.81 -508.81,-18.55 -819.58,8.39 -109.42,9.48 -237.97,25.77 -382.2,49.86 -278.88,102.84 -527.24,275.98 -748.75,520.72 -608.4,672.26 -961.45,1675.1 -378.68,2400.12 6.03,7.51 12.59,14.66 19.61,21.43 -21.32,-40.73 -35.38,-94.02 -41.44,-158.2 -20.39,-215.63 48.55,-540.49 184.41,-868.99 110.26,-266.63 313.41,-657.46 655.01,-1005.24 265.86,-270.67 517.61,-440.85 681.99,-535.94 463.52,-268.19 902.55,-340.56 1304.86,-215.13 598.07,186.44 866.58,736.35 877.72,759.67 l 4.25,8.86 c 268.27,558.83 181.3,899.71 61.1,1087.25 -19.68,30.71 -41.85,59.9 -66.38,87.51 21.6,-0.12 43.22,-0.32 65.39,-0.69 43.96,-0.73 78.42,-18 105.36,-52.81 110.66,-142.9 54.77,-535.56 4.3,-745.05 C 7357.09,3127.15 6770.93,2750.72 6704.66,2710.14 6635.64,2667.88 6566,2631.9 6495.05,2601.52 Z M 4961.78,2481.87 c 78.89,-10.83 151.55,-18.97 217.39,-24.67 192.92,-16.73 369.15,-26.62 533.14,-25.24 -271.02,-26.74 -520.57,-10.32 -750.53,49.91 z M 3763.37,5521.76 c 13.7,9.49 27.54,14.02 43.62,14.02 37.68,0 87.62,-24.92 176.57,-69.32 44.97,-22.45 98.94,-49.38 165.27,-80 -27.09,-17.79 -48.39,-38.05 -62.96,-60.61 -55.2,-85.44 -43.79,-243.52 -37.66,-328.46 4.4,-60.8 24.92,-266.68 104.68,-363.42 42.58,-51.64 111.94,-83.63 197.78,-99.49 -52.17,-7.64 -93.09,-25.91 -122.14,-67.98 -48.67,-70.48 -50.35,-191.09 -4.5,-322.64 60.87,-174.62 185.15,-313.33 316.62,-353.38 108.52,-33.09 237.91,-8.7 367.03,48.89 -39.12,-63.52 -56.67,-120.69 -50.64,-195.2 15.18,-187.68 180.18,-383.6 319.66,-383.58 3.19,0 6.38,0.09 9.54,0.31 198.45,13.04 301.3,424.99 362.75,671.12 32.71,131 109.55,473.01 84.16,700.64 11.41,39.76 19.39,79.72 23.26,119.47 15.8,-7.13 32.26,-18.2 49.21,-32.94 -17.14,-41.58 -8.63,-78.58 15.11,-122.72 -0.5,-6.39 -0.97,-13.19 -1.47,-20.46 -3.87,-55.79 -9.71,-140.09 -37.92,-277.05 -18.53,-89.95 -44.59,-191.91 -74.77,-309.98 -39.78,-155.61 -89.28,-349.29 -138.87,-585.26 -9.17,-43.64 -19.56,-93.1 0.47,-149.46 31.59,-88.87 134.06,-171.3 267.41,-215.13 129.33,-42.49 254.61,-38.53 326.94,10.32 58.94,39.83 93.65,116.45 109.35,215.93 21.27,-47.27 52.34,-85.63 100.49,-114.56 160.61,-96.45 433.42,-46.28 521.36,95.87 38.43,62.11 44.39,144.28 26.06,238.24 45.73,-51.11 87.67,-74.92 138.05,-66.18 217.75,37.67 259.62,641.73 260.01,647.83 8.64,132.57 18.45,282.81 -47.04,418.53 -26.67,55.27 -65.11,106.49 -114.34,152.85 83.23,-2.65 155.02,-2.72 224.3,-2.77 12.33,-0.01 24.46,-0.02 36.52,-0.05 29.73,-31.11 56.61,-64.95 80.12,-101.65 116.63,-181.99 200.44,-513.95 -62.64,-1061.98 l -4.27,-8.9 c -10.94,-22.9 -274.64,-562.96 -861.99,-746.06 -849.51,-264.83 -1654.07,432.42 -1960.58,744.48 -599.54,610.39 -868.46,1468.66 -832.08,1853.55 9.7,102.58 39.97,174.22 87.53,207.18 z m 925.39,-50.58 c -214.21,16.46 -400.33,-9.19 -512.62,-68.64 -73.64,33.61 -132.55,63.01 -180.96,87.18 -64.57,32.22 -110.77,55.28 -147.9,65.87 209.85,55.15 535.43,8.74 841.48,-84.41 z m 120.65,-39.65 c 0.28,-0.05 0.57,-0.08 0.86,-0.13 391.84,-137.37 675.67,-324.8 677.5,-448.53 0.26,-17.15 -4.42,-35.06 -13.64,-53.46 -227.04,74.41 -517.76,177.65 -904.99,315.16 -149,52.91 -267.19,101.58 -362.4,144.15 131.18,60.2 357.18,78.74 602.67,42.81 z m 806.05,-497.88 c 5.08,-17.47 9.01,-35.16 11.87,-53 -40.32,12.38 -82.94,25.89 -128.14,40.58 9.73,20.5 14.89,41.23 14.58,62.02 -2.04,138.01 -260.56,299.72 -554.93,419.69 291.68,-69.19 584.09,-219.73 656.62,-469.29 z m -14.04,-173.86 c 3.73,1 7.64,1.53 11.85,1.72 5.88,0.27 11.82,-0.16 17.92,-1.27 -1.81,-20.91 -4.81,-41.9 -8.91,-62.9 -5.38,22.87 -12.26,43.84 -20.86,62.45 z m -647.96,-898.61 c 126.75,64.12 250.82,157.69 352.09,257.65 124.04,122.45 243.33,282.96 306.65,450.85 5.92,-173.67 -33.48,-411.28 -88.44,-631.37 -55.81,-223.55 -159.7,-639.67 -339.22,-651.47 -129.48,-8.48 -287.04,179.62 -301.59,359.42 -6.5,80.36 18,140.33 70.51,214.92 z m 625.95,885.59 c 13.59,-29.87 22.67,-67.4 27.88,-110.77 -53.79,-183.98 -184.05,-364.46 -320.01,-498.67 -95.96,-94.73 -198.19,-172.14 -298.42,-228.64 19.63,25.25 41.86,52.55 66.61,82.94 76.95,94.52 182.33,223.96 308.62,414.52 70.07,105.74 114.54,181.73 147.01,237.21 33.35,56.99 51.76,87.69 68.31,103.41 z M 4495.72,4513.2 c 126.28,-1.64 299.28,-3.9 515.87,70.97 155.99,53.93 258.16,121.22 332.76,170.35 79,52.03 126.68,83.44 176.13,59.18 18.39,-9.03 33.7,-23.74 46.2,-43.3 -22.21,-18.53 -42.83,-53.78 -78.02,-113.9 -32.32,-55.23 -76.58,-130.86 -146.24,-235.98 -125.58,-189.51 -230.51,-318.38 -307.11,-412.47 -39.84,-48.93 -73.4,-90.14 -100.31,-127.81 -144.9,-71.31 -282.42,-96.69 -386.77,-64.9 -123.81,37.73 -241.42,170.03 -299.65,337.08 -43.13,123.74 -42.63,235.63 1.34,299.31 37.69,54.59 101.43,61.93 194.48,61.93 16.21,0 33.32,-0.22 51.32,-0.46 z m 603.67,133.23 c -29.6,-13.01 -61.6,-25.69 -96.29,-37.68 -75.69,-26.17 -146.03,-42.72 -210.87,-53.12 93.34,19.43 187.74,46.6 277.08,79.43 10,3.68 20.05,7.47 30.08,11.37 z m -39.05,13.03 c -332.9,-122.32 -757.05,-167.04 -887.39,-8.95 -76.79,93.14 -95.78,306.85 -98.8,348.77 -5.49,76.06 -16.92,234.32 33.56,312.46 15.06,23.31 38.68,43.98 69.46,61.77 98.85,-44.76 223.43,-96.68 383.26,-153.44 384.07,-136.39 673.41,-239.13 900.07,-313.54 -57.38,-83.46 -201.85,-174.2 -400.16,-247.07 z m 572.47,126.93 c -6.94,1.04 -13.86,1.41 -20.72,1.1 -8.55,-0.39 -16.18,-1.74 -23.26,-4.23 -14.87,23.93 -33.61,42.35 -56.9,53.78 -15.81,7.77 -31.15,11.26 -46.6,11.26 -16.9,0 -33.91,-4.18 -51.8,-11.52 21.41,19.98 39.29,40.49 52.72,61.33 51.39,-16.73 99.49,-31.96 144.7,-45.74 2.11,-21.82 2.68,-43.84 1.86,-65.98 z m 152.99,21.43 c -29.33,-19.12 -52.13,-40.74 -67.48,-64.5 -19.99,16.59 -40,28.96 -59.89,36.35 1.06,21.66 0.85,43.2 -0.74,64.62 45.57,-13.67 88.11,-25.79 128.11,-36.47 z m 35.3,-9.22 c 16.83,-4.29 33.15,-8.3 49.09,-12.05 -12.53,-14.21 -21.26,-28.91 -25.79,-43.9 -5.89,-19.53 -4.79,-36.95 3.31,-55.34 -15.83,4.19 -30.77,6.41 -44.64,6.41 -11.17,0 -21.65,-1.44 -31.33,-4.45 -11.21,13.31 -22.49,25.5 -33.79,36.41 16.48,27.41 44.89,51.94 83.15,72.92 z m 131.26,48.86 c -23.35,-12.43 -43.44,-25.61 -59.88,-39.38 -11.39,2.59 -22.99,5.32 -34.84,8.2 28,12 59.75,22.45 94.72,31.18 z m 121.35,21.74 c 44.38,5.26 91.81,8.28 141.61,8.84 259.13,2.88 566.06,-63.51 765.24,-210.98 -212.46,10.37 -502.26,39.26 -984.21,120.26 -22.83,3.84 -46.6,8.37 -71.44,13.63 35.84,25.38 86.77,48.71 148.8,68.25 z m 249.08,-553.07 c -134.57,148.43 -307.05,304.21 -436.7,357.99 -17.2,23.21 -22.68,41.52 -16.79,61.02 4.59,15.2 14.78,30.23 29.89,44.78 32.66,-7.24 63.49,-13.3 92.86,-18.24 511.14,-85.9 806.89,-113.37 1023.37,-122.22 56.16,-47.61 101.6,-102.73 131.96,-165.65 62.51,-129.55 52.95,-276.17 44.52,-405.54 -14.85,-227.83 -92.74,-598.69 -238.5,-623.9 -50.26,-8.71 -93.6,27.03 -147.67,98.95 -67.2,237.58 -266.47,534.08 -482.94,772.81 z m -387.19,303.82 c 102.08,-59.75 233.05,-172.51 367.94,-321.28 193.31,-213.21 365.12,-465 447.83,-677.54 -15.73,23.62 -32.48,49.37 -50.53,77.11 -102.09,156.93 -241.9,371.83 -473.18,627.17 -103.32,114.06 -184.38,191.38 -243.57,247.84 -18.35,17.5 -34.51,32.91 -48.49,46.7 z m 208.54,-1088 c -18.91,164.3 -42.43,368.77 -148.09,626.88 -72.85,177.98 -146.54,287.61 -200.34,367.66 -19.72,29.35 -36.17,53.83 -48.44,75.43 2.79,32.87 6.04,46.48 16.57,54.77 87.09,-110.25 180.66,-300.2 258.47,-535.06 75.59,-228.13 122.65,-456.94 132.52,-644.29 0.82,-15.61 1.39,-30.83 1.68,-45.66 -4.4,31 -8.24,64.4 -12.37,100.27 z m -417.88,1167.74 c 6.94,-7.07 13.95,-14.7 21,-22.89 -9.98,-7.9 -15.88,-18.06 -19.7,-31.79 -5.91,19.04 -6.68,36.54 -1.3,54.68 z m 17.76,-142.24 c 9.09,-14.19 19.21,-29.25 30.11,-45.46 53.18,-79.12 126.01,-187.49 197.86,-363.02 104.3,-254.78 127.6,-457.28 146.32,-620 9.32,-80.92 17.45,-151.65 34.7,-211.43 -11.09,-122.98 -46.6,-207.05 -105.04,-246.54 -65.81,-44.47 -182.4,-47.22 -304.27,-7.16 -125.89,41.37 -222.07,117.67 -251.02,199.13 -17.59,49.46 -8.41,93.15 0.47,135.4 49.46,235.43 98.9,428.8 138.61,584.18 30.26,118.38 56.39,220.62 75.05,311.16 25.87,125.6 33.16,207.46 37.21,263.74 z m 302.97,-427.65 c -64.26,193.96 -157.52,407.4 -257.19,537 21.32,3.24 48.35,-1.72 79.89,-14.1 20.88,-26.18 53.03,-56.85 96.45,-98.27 58.9,-56.17 139.56,-133.12 242.24,-246.47 229.9,-253.81 369.05,-467.71 470.66,-623.9 38.74,-59.53 71.77,-110.31 102.04,-151.09 31.03,-110.75 31.7,-206.05 -9.47,-272.61 -79.91,-129.15 -338.72,-175.63 -485.86,-87.25 -57.33,34.44 -87.98,83.68 -107.17,148.88 18.57,223.18 -40.92,534.17 -131.59,807.81 z m 223.95,782.45 c 347.75,48.4 770.39,-15.5 1020.12,-251.07 -3.41,0 -6.84,0 -10.28,0.01 -77.6,0.06 -158.41,0.13 -254.99,3.89 -67.57,56.09 -152.03,104.18 -251.39,142.63 -164.98,63.85 -361.82,98.12 -555.35,96.36 16.9,2.99 34.21,5.72 51.89,8.18 z M 10769.6,3478.23 c -384,239.98 -851.94,297.8 -1430.58,176.68 -515.41,-107.85 -1073.47,-345.64 -1613.16,-575.61 -350.14,-149.2 -706.7,-301.13 -1058.9,-421.54 17.13,9.7 34.23,19.77 51.27,30.21 44.81,27.43 204.38,131.18 376.59,314.17 230.89,245.34 385.13,524 458.42,828.24 14.21,58.98 134.66,581.51 -9,767.06 -31.65,40.87 -73.87,62.03 -125.5,62.89 -30.66,0.51 -60.25,0.7 -90.19,0.78 -107.5,109.68 -254.69,191.82 -433.04,240.66 -193.15,52.87 -416.19,65.74 -628.16,36.23 -73.34,-10.21 -140.12,-24.92 -197.97,-43.01 -102.01,-12.07 -188,-35.7 -251.7,-68.68 -49.86,12.89 -103.81,28.15 -162.88,45.98 -3.06,23.12 -7.8,46.02 -14.37,68.62 -88.16,303.37 -482.75,465.23 -823.92,515.85 -5.24,1.83 -10.45,3.64 -15.69,5.44 -417.69,143.61 -969.3,231.82 -1149.3,7.89 -278.41,-346.37 -367.77,-782.77 -258.39,-1261.99 91.87,-402.55 318.47,-818.73 638.07,-1171.86 201.62,-222.78 416.9,-378.7 642.67,-481.07 -868.35,162.28 -2214.71,585.76 -3428.99,1454.74 -5.83,4.17 -13.96,2.83 -18.14,-3.01 -4.18,-5.84 -2.83,-13.96 3.01,-18.14 1273.86,-911.61 2693,-1334.46 3556.9,-1480.03 216.81,-80.47 442.5,-115 674.73,-114.99 175.61,0 354.8,19.75 536.64,54.38 180.34,20.23 346.85,60.73 507.06,129.37 406.82,126.72 821.09,303.23 1230.97,477.89 538.53,229.47 1095.4,466.76 1608.3,574.08 579.71,121.31 1028.25,66.25 1411.45,-173.28 6.1,-3.81 14.1,-1.96 17.9,4.13 3.8,6.1 2,14.11 -4.1,17.92"
         style="fill:none;stroke:#040606;stroke-width:20;stroke-linecap:round;stroke-linejoin:round;stroke-miterlimit:10;stroke-dasharray:none;stroke-opacity:1"
         id="drawing"
         inkscape:connector-curvature="0" /></g></g></svg>