<!-- Generator: Adobe Adobe Illustrator 24.2.0, SVG Export Plug-In . SVG Version: 6.00 Build 0)  -->
<svg version="1.1" id="mySVG" xmlns="http://www.w3.org/2000/svg" xmlns:xlink="http://www.w3.org/1999/xlink" x="0px" y="0px"
	 width="800px" height="800px" viewBox="0 0 800 800" style="enable-background:new 0 0 800 800;" xml:space="preserve">
<style type="text/css">
	.st0{fill:none;stroke:#000000;stroke-width:3;stroke-linecap:round;stroke-miterlimit:10;}
</style>
<path class="st0" d="M62.78,564.33c49.57-14.23,102.88-6.09,152.46,8.09c49.59,14.17,97.56,34.26,148.14,44.32
	c50.58,10.06,105.8,9.14,150.41-16.73c40.72-23.62,68.69-66.94,76.35-113.39c7.65-46.45-4.32-95.3-30.13-134.67
	c-22.81-34.8-58.13-63.37-99.31-69.32c-18.34-2.65-38.02-0.48-53.49,9.71c6.21,5.16,13.94,8.45,21.96,9.35
	c5.73,0.64,12.5-0.47,15.36-5.47c5.12-8.96-6.34-17.76-12.19-26.26c-8.28-12.02-5.23-28.3-0.87-42.24
	c7.57-24.17,18.13-47.41,31.36-69.01c-16.73,20.76-42.09,33.32-68.22,38.58c-26.14,5.26-53.17,3.77-79.61,0.35
	c-25.06-3.25-51.71-7.99-74.7,2.51c-21.02,9.6-34.56,29.99-50.51,46.72s-39.35,31.09-61.16,23.44
	c35.89,11.6,73.82,16.86,111.51,15.46c19.69-0.73,39.63-3.35,57.67-11.3c28.14-12.39,49.08-36.41,70.97-58
	c21.89-21.59,47.75-42.3,78.39-44.85c5.27-0.44,12.09,0.83,13.13,6.02c0.62,3.09-1.26,6.06-2.95,8.72
	c-14.95,23.49-21.38,52.27-17.86,79.88c0.4,3.16,0.87,6.61-0.81,9.31c-2.58,4.14-8.5,4.16-13.36,3.77
	c-20.44-1.61-41.31-1.54-61.07,3.94c-36.8,10.2-66.98,39.17-82.54,74.04s-17.32,74.97-9.04,112.25
	c10.7,48.19,39.04,93.44,81.31,118.93s98.7,28.68,140.81,2.92c37.92-23.19,60.14-65.69,71.59-108.64c7.4-27.74,11-57.45,2.95-85.01
	c-5.13-17.55-14.77-33.48-25.81-48.05c-18.7-24.69-44.59-47.38-75.53-48.7c-13.62-0.58-27.15,3.1-39.55,8.75
	c-34.52,15.76-60.79,46.81-75.01,82c-14.22,35.19-17.09,74.22-12.98,111.95c2.91,26.65,9.49,53.58,24.64,75.69
	c31.31,45.7,91.53,61.19,146.84,64.36c86.91,4.98,175-12.15,253.71-49.33" id="drawing"/>
</svg>
