<?xml version="1.0" encoding="UTF-8" standalone="no"?>
<!-- Generator: Adobe Adobe Illustrator 24.2.0, SVG Export Plug-In . SVG Version: 6.00 Build 0)  -->

<svg
   xmlns:dc="http://purl.org/dc/elements/1.1/"
   xmlns:cc="http://creativecommons.org/ns#"
   xmlns:rdf="http://www.w3.org/1999/02/22-rdf-syntax-ns#"
   xmlns:svg="http://www.w3.org/2000/svg"
   xmlns="http://www.w3.org/2000/svg"
   xmlns:sodipodi="http://sodipodi.sourceforge.net/DTD/sodipodi-0.dtd"
   xmlns:inkscape="http://www.inkscape.org/namespaces/inkscape"
   version="1.1"
   id="mySVG"
   x="0px"
   y="0px"
   width="705.89984"
   height="488.32556"
   viewBox="0 0 705.89984 488.32556"
   xml:space="preserve"
   sodipodi:docname="peach.svg"
   inkscape:version="0.92.4 (5da689c313, 2019-01-14)"><metadata
   id="metadata10"><rdf:RDF><cc:Work
       rdf:about=""><dc:format>image/svg+xml</dc:format><dc:type
         rdf:resource="http://purl.org/dc/dcmitype/StillImage" /><dc:title></dc:title></cc:Work></rdf:RDF></metadata><defs
   id="defs8" /><sodipodi:namedview
   pagecolor="#ffffff"
   bordercolor="#666666"
   borderopacity="1"
   objecttolerance="10"
   gridtolerance="10"
   guidetolerance="10"
   inkscape:pageopacity="0"
   inkscape:pageshadow="2"
   inkscape:window-width="1920"
   inkscape:window-height="986"
   id="namedview6"
   showgrid="false"
   fit-margin-top="0"
   fit-margin-left="0"
   fit-margin-right="0"
   fit-margin-bottom="0"
   inkscape:zoom="0.295"
   inkscape:cx="338.74054"
   inkscape:cy="246.09434"
   inkscape:window-x="-11"
   inkscape:window-y="-11"
   inkscape:window-maximized="1"
   inkscape:current-layer="mySVG" />
<style
   type="text/css"
   id="style2">
	.st0{fill:none;stroke:#000000;stroke-width:3;stroke-linecap:round;stroke-miterlimit:10;}
</style>
<path
   class="st0"
   d="m 1.5205402,406.56122 c 49.5699998,-14.23 102.8799998,-6.09 152.4599998,8.09 49.59,14.17 97.56,34.26 148.14,44.32 50.58,10.06 105.8,9.14 150.41,-16.73 40.72,-23.62 68.69,-66.94 76.35,-113.39 7.65,-46.45 -4.32,-95.3 -30.13,-134.67 -22.81,-34.8 -58.13,-63.37 -99.31,-69.32 -18.34,-2.65 -38.02,-0.48 -53.49,9.71 6.21,5.16 13.94,8.45 21.96,9.35 5.73,0.64 12.5,-0.47 15.36,-5.47 5.12,-8.96 -6.34,-17.76 -12.19,-26.26 -8.28,-12.02 -5.23,-28.299998 -0.87,-42.239998 7.57,-24.17 18.13,-47.41 31.36,-69.01000025 -16.73,20.76000025 -42.09,33.32000025 -68.22,38.58000025 -26.14,5.26 -53.17,3.77 -79.61,0.35 -25.06,-3.25 -51.71,-7.99 -74.7,2.51 -21.02,9.6 -34.56,29.99 -50.51,46.72 -15.95,16.729998 -39.35,31.089998 -61.16,23.439998 35.89,11.6 73.82,16.86 111.51,15.46 19.69,-0.73 39.63,-3.35 57.67,-11.3 28.14,-12.39 49.08,-36.409998 70.97,-57.999998 21.89,-21.59 47.75,-42.3 78.39,-44.85 5.27,-0.44 12.09,0.83 13.13,6.02 0.62,3.09 -1.26,6.06 -2.95,8.72 -14.95,23.49 -21.38,52.27 -17.86,79.879998 0.4,3.16 0.87,6.61 -0.81,9.31 -2.58,4.14 -8.5,4.16 -13.36,3.77 -20.44,-1.61 -41.31,-1.54 -61.07,3.94 -36.8,10.2 -66.98,39.17 -82.54,74.04 -15.56,34.87 -17.32,74.97 -9.04,112.25 10.7,48.19 39.04,93.44 81.31,118.93 42.27,25.49 98.7,28.68 140.81,2.92 37.92,-23.19 60.14,-65.69 71.59,-108.64 7.4,-27.74 11,-57.45 2.95,-85.01 -5.13,-17.55 -14.77,-33.48 -25.81,-48.05 -18.7,-24.69 -44.59,-47.38 -75.53,-48.7 -13.62,-0.58 -27.15,3.1 -39.55,8.75 -34.52,15.76 -60.79,46.81 -75.01,82 -14.22,35.19 -17.09,74.22 -12.98,111.95 2.91,26.65 9.49,53.58 24.64,75.69 31.31,45.7 91.53,61.19 146.84,64.36 86.91,4.98 175,-12.15 253.71,-49.33"
   id="drawing"
   inkscape:connector-curvature="0"
   style="fill:none;stroke:#000000;stroke-width:3;stroke-linecap:round;stroke-miterlimit:10" />
</svg>