<svg
   xmlns:dc="http://purl.org/dc/elements/1.1/"
   xmlns:cc="http://creativecommons.org/ns#"
   xmlns:rdf="http://www.w3.org/1999/02/22-rdf-syntax-ns#"
   xmlns:svg="http://www.w3.org/2000/svg"
   xmlns="http://www.w3.org/2000/svg"
   xmlns:sodipodi="http://sodipodi.sourceforge.net/DTD/sodipodi-0.dtd"
   xmlns:inkscape="http://www.inkscape.org/namespaces/inkscape"
   version="1.1"
   id="mySVG"
   xml:space="preserve"
   width="1066.6667"
   height="1066.6667"
   viewBox="0 0 1066.6667 1066.6667"
   sodipodi:docname="peach.svg"
   inkscape:version="0.92.4 (5da689c313, 2019-01-14)"><metadata
     id="metadata8"><rdf:RDF><cc:Work
         rdf:about=""><dc:format>image/svg+xml</dc:format><dc:type
           rdf:resource="http://purl.org/dc/dcmitype/StillImage" /><dc:title></dc:title></cc:Work></rdf:RDF></metadata><defs
     id="defs6" /><sodipodi:namedview
     pagecolor="#ffffff"
     bordercolor="#666666"
     borderopacity="1"
     objecttolerance="10"
     gridtolerance="10"
     guidetolerance="10"
     inkscape:pageopacity="0"
     inkscape:pageshadow="2"
     inkscape:window-width="1920"
     inkscape:window-height="986"
     id="namedview4"
     showgrid="false"
     inkscape:zoom="0.22124998"
     inkscape:cx="533.33337"
     inkscape:cy="533.33337"
     inkscape:window-x="-11"
     inkscape:window-y="-11"
     inkscape:window-maximized="1"
     inkscape:current-layer="g12" /><g
     id="g10"
     inkscape:groupmode="layer"
     inkscape:label="ink_ext_XXXXXX"
     transform="matrix(1.3333333,0,0,-1.3333333,0,1066.6667)"><g
       id="g12"
       transform="scale(0.1)"><path
         d="m 4276.45,1765.88 c 154.59,15.95 306.34,54.49 457.5,121.91 227.11,101.32 777.5,413.81 982.37,1125.32 49.87,173.23 188.65,783.14 -119.81,1358.1 -88.89,165.69 -258.72,353.38 -443.21,489.83 -153.75,113.71 -383.54,240.99 -622.72,221.18 -7.02,23.74 -33.09,47.9 -77.9,72.11 -17.25,9.32 -32.36,19.89 -45.54,31.56 621.96,62.94 1025.05,-395.52 1135.99,-541.01 278.04,-364.6 308.31,-855.91 301.61,-1116.32 -17.12,-664.83 -271.11,-1136.51 -823.55,-1529.4 -191.49,-136.18 -462.69,-225.05 -719.3,-239.94 -8.47,2.18 -16.93,4.39 -25.44,6.66 z m -78.96,22.05 c -181.87,53.26 -372.73,126.37 -567.78,227.53 -273.09,391.79 -369.66,1320.38 -178.58,1879.8 151.17,442.55 454.88,911.15 831.22,1088.54 5.45,-0.11 11,-0.2 16.63,-0.25 95.5,-0.97 211.8,17.05 230.87,70.51 231.9,20.36 456.36,-104.27 606.8,-215.53 178.62,-132.11 349.45,-320.74 435.2,-480.56 303.45,-565.65 166.7,-1166.45 117.55,-1337.11 -201.61,-700.22 -743.32,-1007.77 -966.86,-1107.5 -172.71,-77.03 -346.5,-115.6 -525.05,-125.43 z m -28.89,-29.57 c 8.65,0.32 17.32,0.7 25.94,1.16 2.64,-0.77 5.3,-1.54 7.94,-2.3 -11.37,0.22 -22.64,0.59 -33.88,1.14 z m -212.77,32.67 c -105.01,29.18 -196.66,77.87 -264.82,148.9 -7.34,7.65 -14.56,15.65 -21.7,24.02 150.43,-74.55 298.05,-132.82 440.73,-178.58 -50.95,-0.18 -102.35,1.74 -154.21,5.66 z m -667.23,429.31 c -226.97,156.06 -525,600.15 -610.7,1045.52 -142.97,743.01 331.55,1411.32 386.13,1485.08 142.17,192.13 472.69,392.23 752.47,455.55 90.2,20.41 179.13,26.52 259.17,26.52 71.11,0 135.19,-4.82 186.84,-8.7 32.22,-2.43 58.77,-4.42 80.31,-4.97 2.55,-4.14 5.22,-8.2 8.02,-12.21 -0.53,-0.07 -1.07,-0.15 -1.6,-0.23 -149.2,-21.97 -275.32,-44.72 -307.45,-100.78 -9.45,-16.49 -10.31,-34.6 -2.53,-53.83 14.75,-36.53 77.3,-58.67 186.29,-66.05 -363.09,-196.04 -653.79,-651.23 -800.91,-1081.93 -186.6,-546.28 -101,-1441.6 154.58,-1862.08 -96.17,52.12 -193.19,111.14 -290.62,178.11 z m 1054.59,3405.03 3.58,26.92 c 39.52,300.37 123.06,522.09 171.46,642.65 44.42,4.65 74.39,1.26 86.36,-8.3 2.5,-2 6.69,-5.35 0.83,-16.99 -95.78,-190.41 -319.6,-833.05 -218.29,-1008.92 3.22,-5.6 3.5,-8.23 3.76,-8.34 -3.55,-3.55 -15.43,-4.97 -31.91,-5.12 -52.98,99.98 -34.17,240.74 -15.79,378.1 z m 133.14,692.03 c 12.02,10.29 23.11,20.56 33.24,30.79 -1.89,-4.7 -3.87,-9.56 -5.86,-14.47 -1.68,-4.14 -3.42,-8.42 -5.22,-12.88 -7.15,-0.97 -14.53,-2.11 -22.16,-3.44 z m 15.78,-1267.96 c -21.78,-17.06 -71.26,-31.86 -140,-36.46 45.76,16.73 92.47,29.05 140,36.46 z m -52.73,80.25 c 33.66,-18.18 55.31,-35.86 62.47,-50.55 -3.28,-0.43 -6.57,-0.9 -9.84,-1.39 -73.85,-11.06 -145.75,-33.63 -215.19,-65.8 -121.4,3.16 -199.9,21.84 -211.61,50.83 -4.51,11.17 -4.23,20.52 0.86,29.42 27.99,48.83 184.01,71.79 287.25,86.99 6.02,0.89 12.06,1.74 18.04,2.52 18.32,-19.77 40.74,-37.29 68.02,-52.02 z m -424.24,976.74 c 117.8,66.64 225.26,113.21 315.49,143.63 -84.4,-50.19 -191.42,-100.92 -315.49,-143.63 z m -373.31,-224.12 c -74.14,-61.07 -130.65,-146.08 -190.48,-236.09 -131.97,-198.54 -296.2,-445.63 -747.76,-585.39 -268.81,-83.2 -832.91,90.99 -1155.25,196.68 99.78,12.83 204.97,44.92 262.85,96.5 91.26,81.34 125.07,137.87 171.86,216.1 31.2,52.17 66.56,111.3 128.23,194.75 208.59,282.27 620.89,329.02 915.7,253.02 297.89,-76.82 587.37,-45.43 804.22,6.1 -62.77,-42.52 -126.31,-89.73 -189.37,-141.67 z M 1342.47,5294.79 c 7.97,-2.28 17.58,-5.21 28.47,-8.63 -11.34,2.3 -20.96,5.18 -28.47,8.63 z M 7403.61,1983.42 c -3.1,7.08 -11.37,10.29 -18.44,7.2 -648.71,-284.72 -1321.93,-406.66 -2001.15,-362.41 -40.22,2.62 -85.7,4.79 -133.84,7.08 -223.76,10.69 -523.13,24.98 -862.79,103.09 238.42,28.3 477.62,115.35 650.03,237.97 560.32,398.49 817.94,876.99 835.3,1551.49 6.8,264.09 -24.09,762.6 -307.32,1134.03 -114.51,150.15 -533.81,627 -1182.7,549.49 -2.34,2.87 -4.59,5.79 -6.76,8.76 19.69,1.92 32.19,7.03 38.67,17.35 6.32,10.03 5.23,22.56 -3.22,37.24 -89.87,156 110.43,766.43 219.05,982.36 10.2,20.29 7.15,39.04 -8.38,51.45 -16.56,13.23 -48.27,18.51 -92.04,15.58 25.19,62.12 29.69,73.39 16.09,81.96 -13.42,8.46 -25.48,-4.76 -45.48,-26.66 -21.26,-23.25 -50.96,-49.04 -88.2,-75.93 -133.65,-34.39 -314.78,-110.59 -507.6,-231.48 -219.09,-61.57 -540.01,-112.29 -870.86,-27 -165.08,42.56 -345.42,45.38 -507.8,7.9 -186.8,-43.1 -338.05,-136.94 -437.41,-271.39 -62.48,-84.55 -99.77,-146.91 -129.74,-197.01 -45.51,-76.1 -78.4,-131.09 -166.47,-209.57 -67.63,-60.29 -204.76,-90.08 -313.23,-94.66 -0.26,0.09 -0.54,0.18 -0.8,0.27 -48.72,16.1 -87.2,28.83 -114.71,37.14 -36.83,11.12 -55.32,16.7 -61.18,0.4 -5.72,-15.91 0.22,-31.26 16.29,-42.12 27.82,-18.79 87.81,-26.97 158.02,-24.39 309.12,-102.19 939.19,-309.03 1234.94,-217.48 461.07,142.71 628.36,394.4 762.79,596.64 61.19,92.05 114.04,171.56 184.96,229.98 86.91,71.59 172.17,132.74 253.75,184.6 8.75,2.47 17.33,4.95 25.76,7.43 189.92,56.15 367.25,139.2 486.88,225.33 21.8,5.35 41.95,9.49 60.32,12.52 -49.5,-124.58 -128.94,-342.77 -167.33,-634.63 l -3.57,-26.87 c -17.49,-130.77 -36.6,-273.61 12.17,-381.05 -19.81,0.95 -41.95,2.61 -63,4.2 -111.46,8.38 -279.88,21.05 -454.29,-18.43 -290.22,-65.68 -620.74,-266.11 -768.8,-466.21 -58.3,-78.79 -205.29,-295.48 -310.68,-604.99 -107.69,-316.27 -134.76,-619.76 -80.44,-902.03 87.04,-452.34 390.81,-904.12 622.34,-1063.29 113.58,-78.09 226.64,-145.48 338.36,-203.74 19.08,-26.99 39,-51.41 59.71,-73 45.99,-47.93 102.7,-87.3 168.55,-117.65 -344.14,43.74 -712.15,163.9 -1125.95,299.02 -53.63,17.51 -108,35.27 -163.15,53.13 -481.48,155.9 -1080.68,349.89 -1942.662,249.94 -7.68,-0.89 -13.188,-7.84 -12.293,-15.52 0.89,-7.69 7.941,-13.25 15.515,-12.29 792.9,91.99 1321.78,-51.57 1930.82,-248.77 55.12,-17.85 109.46,-35.6 163.08,-53.1 460.37,-150.34 864.29,-282.25 1242.97,-311.93 103.11,-28.92 222.02,-40.24 352.39,-32.7 375.12,-95.96 706.09,-111.76 948.76,-123.35 48.03,-2.28 93.39,-4.45 133.37,-7.06 91.17,-5.93 182.2,-8.9 273.12,-8.9 590.83,0.01 1175.3,125.28 1741.09,373.61 7.08,3.12 10.3,11.37 7.19,18.45"
         style="fill:none;stroke:#040606;stroke-width:20;stroke-linecap:round;stroke-linejoin:round;stroke-miterlimit:10;stroke-dasharray:none;stroke-opacity:1"
         id="drawing"
         inkscape:connector-curvature="0" /></g></g></svg>