<!-- Generator: Adobe Adobe Illustrator 24.2.0, SVG Export Plug-In . SVG Version: 6.00 Build 0)  -->
<svg version="1.1" id="mySVG" xmlns="http://www.w3.org/2000/svg" xmlns:xlink="http://www.w3.org/1999/xlink" x="0px" y="0px" width="800px"
	 height="800px" viewBox="0 0 800 800" style="enable-background:new 0 0 800 800;" xml:space="preserve">
<style type="text/css">
	.st0{fill:none;stroke:#000000;stroke-width:3;stroke-linejoin:round;stroke-miterlimit:10;}
</style>
	<path d="M765.67,609.17c-53.92,3.16-99.43,19.07-147.6,35.91c-48.78,17.05-99.08,34.63-161.84,40.06
		c20.85-6.99,40.38-16.72,58.34-29.07c19.34-13.31,37.59-33.1,51.37-55.74c16.36-26.88,25.78-56.81,27.22-86.56
		c2.65-54.65-28.41-115.08-62.37-172.25c-10.85-18.26-18.1-37.35-25.11-55.8c-9.32-24.53-17.75-46.75-32.74-61.16
		c35.23-3.71,56.32-19.83,74.96-34.08c12.71-9.72,24.9-19.03,40.35-23.64c12.51,7.67,26.15,10.69,43,3.21
		c1.08-0.48,1.62-1.47,1.36-2.52c-0.9-3.73-13.35-7.41-28.05-6.56c-5.72,0.33-11,1.25-15.93,2.62
		c-8.35-5.36-16.34-12.95-24.81-20.99c-16.61-15.76-33.78-32.06-57.69-34.68c-20.75-2.27-37.41-0.52-50.93,5.37
		c-13.66,5.95-24.59,16.31-33.42,31.67c-4.59,7.99-7.95,16.55-10.91,24.1c-0.37,0.95-0.74,1.88-1.1,2.8
		c-1.26-6.66-3.36-13.17-6.25-19.1c-3.58-7.31-5.95-14.88-8.25-22.21c-5.25-16.73-9.78-31.18-26.33-28.89
		c-12.19,1.69-15.76,8.03-16.73,10.68c-1.2,3.29-0.79,6.74,1.06,8.8c0.28,0.31,0.58,0.6,0.9,0.87c0.48,5.69,5,13.84,18.03,27.24
		c11.56,11.89,14.66,24.04,16.71,32.08c1.53,6,2.63,10.33,6.4,11.32c5.56,1.47,9.32-2.55,12.74-9.29
		c0.31,7.09-0.35,13.83-1.75,19.62c-15.71-1-28.41,0.58-34.03,4.86c-2.37,1.81-3.56,4.04-3.54,6.63c0,0.09,0,0.18,0,0.28
		c-5.88,1.06-11.59,2.69-16.98,5.06c-12.18,5.35-19.77,18.07-25.68,34.83c-5.98,0.67-11.12,4.09-14.63,9.91
		c-12.81,21.25-18.55,37.44-24.1,53.09c-2.9,8.18-5.64,15.9-9.27,24c-13.13,29.27-25.08,55.06-44.09,95.15
		c-15.6,32.89-17.38,74.88-4.88,115.2c13.09,42.25,40.34,79.19,76.73,104.02c34.44,23.5,73.28,34.3,121.65,33.65
		c-42.31,8.81-89.93,7.68-142.43-3.45c-33-6.99-63.79-16.39-93.56-25.48c-51.12-15.61-99.41-30.35-153.21-31.6
		c-0.82-0.02-1.51,0.64-1.53,1.46c-0.02,0.83,0.64,1.52,1.46,1.54c53.39,1.24,101.48,15.92,152.4,31.47
		c29.84,9.11,60.69,18.53,93.81,25.55c29.65,6.28,57.87,9.43,84.39,9.43c19.16,0,37.45-1.64,54.76-4.93
		c6.69-1.27,13.27-2.8,19.74-4.57c69.36-3.98,123.41-22.87,175.74-41.16c47.97-16.77,93.29-32.61,146.79-35.75
		c0.83-0.05,1.46-0.76,1.41-1.58C767.2,609.75,766.52,609.12,765.67,609.17z M604.75,163.97c13.08-0.75,21.72,2.13,24.28,3.78
		c-14.19,5.97-25.86,4.05-36.75-1.98C596.2,164.85,600.34,164.22,604.75,163.97z M396.1,189.75c-2.06-0.54-2.99-4.16-4.26-9.16
		c-2.13-8.35-5.35-20.97-17.47-33.43c-11.06-11.38-15.52-18.5-16.79-23.3c4.32,1.49,10.02,0.98,14.39-0.83
		c5.48-2.27,8.48-6.22,8.22-10.83c-0.19-3.37-1.86-5.74-4.71-6.68c-5.52-1.82-13.65,2.07-17.49,6.69l-0.22,0.26
		c-1.28,1.53-2.41,3.14-3.06,5.03c-0.27-1.11-0.25-2.56,0.33-4.13c0.78-2.14,3.75-7.28,14.32-8.74
		c14.04-1.94,17.83,10.12,23.06,26.82c2.22,7.08,4.74,15.11,8.41,22.63c3.65,7.45,5.79,15.44,6.73,23.22
		C404.07,185.5,400.73,190.97,396.1,189.75z M357.19,120.41c0.17-2.76,1.61-4.5,2.89-6.03l0.22-0.27c3.44-4.14,10.5-7,14.24-5.76
		c1.67,0.55,2.53,1.86,2.65,4c0.26,4.63-4.37,7.06-6.38,7.9C366.12,122.2,360.47,122.17,357.19,120.41z M410.68,177.64
		c0.99-2.35,1.97-4.87,3-7.49c2.92-7.45,6.24-15.9,10.72-23.7c16.86-29.33,41.21-39.96,81.42-35.55
		c22.9,2.51,39.7,18.46,55.95,33.88c7.71,7.32,15.26,14.49,23.21,19.93c-14.77,4.94-26.59,13.98-38.9,23.39
		c-19.6,14.98-39.86,30.47-75.48,33.68c-0.23,0.02-0.46,0.04-0.69,0.06c-6.06-5.1-13.14-9.02-21.67-11.43
		c-13.34-3.78-26.85-6.2-38.83-7.19C411.31,195.33,411.71,186.47,410.68,177.64z M406.17,212.7c0.95-2.07,1.77-4.26,2.45-6.55
		c11.95,0.97,25.54,3.37,38.8,7.13c6.76,1.92,12.59,4.86,17.71,8.65c-7.93-0.18-17.87-1.82-29.03-3.67
		c-9.55-1.58-19.95-3.3-30.55-4.3C405.77,213.55,405.97,213.13,406.17,212.7z M374.11,210.23c4.03-3.07,12.43-4.56,23.17-4.56
		c2.62,0,5.37,0.09,8.24,0.26c-0.6,1.99-1.3,3.84-2.07,5.51c-0.36,0.78-0.74,1.53-1.13,2.24c-10.25-0.81-20.64-0.88-30.57,0.58
		C371.79,212.73,372.57,211.4,374.11,210.23z M400.52,216.56c-2.69,3.79-5.94,6.23-9.57,7.16c-3.19,0.82-11.42,0.88-16.02-2.66
		c-1.36-1.05-2.28-2.31-2.77-3.83C381.35,215.89,390.96,215.88,400.52,216.56z M328.26,257.52c1.31,0,2.66,0.15,4.05,0.45
		c18.93,4.06,41.22,34.52,48.35,93.44c3.82,31.57-6.01,119.12-42.44,145.39c-13.44,9.69-29.4,10.28-47.45,1.74
		c-46.5-21.99-23.42-70.91-3.04-114.06c4.62-9.78,8.98-19.01,12.49-27.78c7.83-19.52,12.79-40.26,17.59-60.31
		C321.19,282.29,324.38,268.97,328.26,257.52z M442.23,686.13c-1.49,0.08-2.99,0.16-4.5,0.23c-52.53,2.38-93.91-8.04-130.22-32.82
		c-72.07-49.19-103.84-145.84-70.83-215.46c19.02-40.11,30.98-65.91,44.12-95.21c3.69-8.22,6.44-15.99,9.36-24.23
		c5.5-15.51,11.19-31.56,23.85-52.54c2.75-4.55,6.52-7.36,10.97-8.26c-3.74,11.29-6.83,24.21-10.09,37.85
		c-4.78,19.95-9.71,40.58-17.46,59.9c-3.48,8.68-7.82,17.88-12.42,27.62c-10.56,22.37-21.48,45.49-23.96,66.44
		c-2.88,24.32,6.42,41.2,28.44,51.61c19.11,9.03,36.09,8.35,50.49-2.02c21.29-15.35,32.27-48.53,37.73-73.67
		c6.3-29,7.75-59.44,5.93-74.52c-7.31-60.39-30.73-91.74-50.7-96.01c-1.24-0.26-2.45-0.43-3.64-0.48
		c5.6-15.51,12.69-27.17,23.67-31.99c5.13-2.25,10.57-3.82,16.21-4.84c0.63,2.27,1.94,4.19,3.92,5.71
		c5.47,4.21,14.81,4.16,18.59,3.19c4.8-1.23,8.97-4.58,12.25-9.79c10.97,0.97,21.79,2.76,31.67,4.39
		c13.05,2.16,24.46,4.05,33.2,3.68c15.84,13.91,24.47,36.65,34.06,61.89c7.05,18.57,14.35,37.78,25.33,56.26
		c33.72,56.76,64.56,116.71,61.95,170.57c-3,62.03-40.98,115-77.29,139.97C491.47,668.31,467.9,679.16,442.23,686.13z" id="drawing"/>
</svg>
