<?xml version="1.0" encoding="UTF-8" standalone="no"?>
<!-- Generator: Adobe Adobe Illustrator 24.2.0, SVG Export Plug-In . SVG Version: 6.00 Build 0)  -->

<svg
   xmlns:dc="http://purl.org/dc/elements/1.1/"
   xmlns:cc="http://creativecommons.org/ns#"
   xmlns:rdf="http://www.w3.org/1999/02/22-rdf-syntax-ns#"
   xmlns:svg="http://www.w3.org/2000/svg"
   xmlns="http://www.w3.org/2000/svg"
   xmlns:sodipodi="http://sodipodi.sourceforge.net/DTD/sodipodi-0.dtd"
   xmlns:inkscape="http://www.inkscape.org/namespaces/inkscape"
   version="1.1"
   id="mySVG"
   x="0px"
   y="0px"
   width="727.59241"
   height="600.23218"
   viewBox="0 0 727.59241 600.23218"
   xml:space="preserve"
   sodipodi:docname="pear.svg"
   inkscape:version="0.92.4 (5da689c313, 2019-01-14)"><metadata
   id="metadata10"><rdf:RDF><cc:Work
       rdf:about=""><dc:format>image/svg+xml</dc:format><dc:type
         rdf:resource="http://purl.org/dc/dcmitype/StillImage" /><dc:title /></cc:Work></rdf:RDF></metadata><defs
   id="defs8" /><sodipodi:namedview
   pagecolor="#ffffff"
   bordercolor="#666666"
   borderopacity="1"
   objecttolerance="10"
   gridtolerance="10"
   guidetolerance="10"
   inkscape:pageopacity="0"
   inkscape:pageshadow="2"
   inkscape:window-width="1920"
   inkscape:window-height="986"
   id="namedview6"
   showgrid="false"
   fit-margin-top="0"
   fit-margin-left="0"
   fit-margin-right="0"
   fit-margin-bottom="0"
   inkscape:zoom="0.295"
   inkscape:cx="-503.656"
   inkscape:cy="159.8179"
   inkscape:window-x="-11"
   inkscape:window-y="-11"
   inkscape:window-maximized="1"
   inkscape:current-layer="mySVG" />
<style
   type="text/css"
   id="style2">
	.st0{fill:none;stroke:#000000;stroke-width:3;stroke-miterlimit:10;}
</style>
<path
   class="st0"
   d="m 0.01241376,528.57127 c 106.32999624,0.88 205.18999624,66.44 311.45999624,69.99 23.74,0.79 47.56,-1.16 70.85,-5.82 44.37,-8.87 87.36,-28.06 120.12,-59.27 32.76,-31.21 54.5,-75.07 54.38,-120.32 -0.12,-43.88 -19.91,-85.01 -39.26,-124.39 -21.6,-43.93 -44.46,-74.78 -64.79,-131.8 -4.11,-11.52 -10.95,-22.18 -19.72,-30.7 -21.37,-20.78 -54.97,-20.25 -84.71,-18.37 -10.55,0.67 -24.48,4.86 -23.84,15.42 0.68,11.14 17.69,12.75 26.61,6.04 8.92,-6.71 14.31,-17.71 24.16,-22.96 -11.47,-28.390003 -9.66,-56.830003 -21.12,-85.220003 -3.96,-9.81 -4.65,-18.9400003 -15.21,-19.6400003 -12.66,-0.84000002 -38.12,16.8500003 -28.27,24.8600003 9.84,8.01 33.74,-4.32 34.44,-16.9900003 -5.56,-8 -32.31,2.2100003 -34.16,11.7800003 -1.85,9.57 22.57,20.44 27.99,28.54 8.75,13.07 4.76,24.33 13.52,37.4 1.38,2.06 3.06,4.31 5.52,4.63 2.83,0.37 5.22,-2 6.98,-4.25 17.74,-22.69 23.84,-55.35 48.34,-70.51 22.87,-14.1500003 61.95,-7.8700003 85.14,5.76 23.19,13.63 34.11,33.95 58.28,45.75 11.28,5.51 28.73,6.92 32.77,-4.97 -14.07,-7.65 -31.38,-0.67 -45.39,7.08 -46.68,25.81 -92.5,61.480003 -145.83,60.330003 -30.89,-0.66 -66.11,-12.83 -89.87,6.92 -11.14,9.25 -16.54,23.52 -21.5,37.12 -9.61,26.37 -8.28,34.72 -17.89,61.09 -8.97,24.62 -33.89,61.34 -39.68,86.9 -3.23,14.22 -8.17,33.7 -5.32,48 2.85,14.3 19.37,23.31 32.83,28.92 14.62,6.1 32.01,7.49 44.45,-2.31 12.44,-9.8 20.7,-23.92 27.58,-38.18 26.43,-54.79 27.36,-120.32 -4.29,-172.27 -11.69,-19.18 -28.34,-38.93 -46.97,-26.39 -5.64,3.8 -11.21,8.93 -13.03,15.48 -33.47,120.52 -101.78,173.22 -76.98,272.36 3.18,12.72 9.2,26.72 24.95,53.44 9.92,16.83 29.9,33.17 46.11,44.08 71.38,48.03 160.54,49.94 261,21.54 82.79,-23.4 122,-56.01 207.93,-56.01"
   id="drawing"
   inkscape:connector-curvature="0"
   style="fill:none;stroke:#000000;stroke-width:3;stroke-miterlimit:10" />
</svg>