<svg
   xmlns:dc="http://purl.org/dc/elements/1.1/"
   xmlns:cc="http://creativecommons.org/ns#"
   xmlns:rdf="http://www.w3.org/1999/02/22-rdf-syntax-ns#"
   xmlns:svg="http://www.w3.org/2000/svg"
   xmlns="http://www.w3.org/2000/svg"
   xmlns:sodipodi="http://sodipodi.sourceforge.net/DTD/sodipodi-0.dtd"
   xmlns:inkscape="http://www.inkscape.org/namespaces/inkscape"
   version="1.1"
   id="mySVG"
   xml:space="preserve"
   width="1066.6667"
   height="1066.6667"
   viewBox="0 0 1066.6667 1066.6667"
   sodipodi:docname="pear.svg"
   inkscape:version="0.92.4 (5da689c313, 2019-01-14)"><metadata
     id="metadata8"><rdf:RDF><cc:Work
         rdf:about=""><dc:format>image/svg+xml</dc:format><dc:type
           rdf:resource="http://purl.org/dc/dcmitype/StillImage" /><dc:title></dc:title></cc:Work></rdf:RDF></metadata><defs
     id="defs6" /><sodipodi:namedview
     pagecolor="#ffffff"
     bordercolor="#666666"
     borderopacity="1"
     objecttolerance="10"
     gridtolerance="10"
     guidetolerance="10"
     inkscape:pageopacity="0"
     inkscape:pageshadow="2"
     inkscape:window-width="1920"
     inkscape:window-height="986"
     id="namedview4"
     showgrid="false"
     inkscape:zoom="0.22124998"
     inkscape:cx="533.33337"
     inkscape:cy="533.33337"
     inkscape:window-x="-11"
     inkscape:window-y="-11"
     inkscape:window-maximized="1"
     inkscape:current-layer="g10" /><g
     id="g10"
     inkscape:groupmode="layer"
     inkscape:label="ink_ext_XXXXXX"
     transform="matrix(1.3333333,0,0,-1.3333333,0,1066.6667)"><g
       id="g12"
       transform="scale(0.1)"><path
         d="M 8000,0 H 0 V 8000 H 8000 V 0"
         style="fill:#ffffff;fill-opacity:1;fill-rule:nonzero;stroke:none"
         id="path14"
         inkscape:connector-curvature="0" /><path
         d="m 4402.33,1138.66 c -14.92,-0.82 -29.88,-1.57 -44.95,-2.26 -525.27,-23.83 -939.13,80.4 -1302.18,328.2 -720.71,491.87 -1038.43,1458.41 -708.27,2154.55 190.22,401.06 309.8,659.09 441.2,952.05 36.86,82.16 64.45,159.95 93.65,242.29 55.02,155.14 111.92,315.56 238.46,525.45 27.46,45.55 65.18,73.61 109.71,82.64 -37.36,-112.87 -68.31,-242.15 -100.95,-378.5 -47.75,-199.51 -97.14,-405.79 -174.6,-598.97 -34.82,-86.83 -78.23,-178.79 -124.19,-276.16 -105.58,-223.66 -214.75,-454.94 -239.6,-664.42 -28.84,-243.17 64.17,-412 284.36,-516.13 191.07,-90.34 360.93,-83.54 504.86,20.23 212.87,153.5 322.68,485.34 377.32,736.7 63.04,289.98 77.54,594.36 59.29,745.16 -73.1,603.87 -307.32,917.35 -507.02,960.14 -12.36,2.65 -24.5,4.25 -36.41,4.83 55.97,155.07 126.92,271.69 236.72,319.91 51.33,22.55 105.73,38.17 162.06,48.38 6.31,-22.75 19.44,-41.89 39.25,-57.14 54.73,-42.14 148.13,-41.55 185.95,-31.87 47.96,12.27 89.71,45.82 122.45,97.93 109.75,-9.68 217.89,-27.57 316.75,-43.92 130.52,-21.6 244.55,-40.47 331.96,-36.75 158.36,-139.07 244.73,-366.46 340.6,-618.86 70.54,-185.72 143.49,-377.76 253.31,-562.64 337.2,-567.61 645.63,-1167.11 619.53,-1705.72 -30.05,-620.3 -409.83,-1149.98 -772.91,-1399.74 -213.93,-147.17 -449.67,-255.67 -706.35,-325.38 z m -1139.7,4286.11 c 13.07,-0.02 26.6,-1.5 40.5,-4.48 189.29,-40.55 412.21,-345.21 483.52,-934.41 38.22,-315.73 -60.07,-1191.22 -424.36,-1453.92 -134.4,-96.9 -294.04,-102.78 -474.5,-17.43 -465.05,219.93 -234.16,709.06 -30.45,1140.62 46.16,97.77 89.76,190.13 124.91,277.79 78.28,195.22 127.92,402.6 175.92,603.15 33.75,140.98 65.64,274.21 104.46,388.68 z m 722.58,409.64 c -26.94,-37.9 -59.4,-62.33 -95.66,-71.61 -31.86,-8.16 -114.23,-8.83 -160.21,26.58 -13.61,10.48 -22.79,23.12 -27.68,38.26 91.81,13.48 187.96,13.61 283.55,6.77 z m -264.15,63.29 c 40.3,30.71 124.3,45.64 231.73,45.64 26.17,0 53.72,-0.88 82.39,-2.65 -6.03,-19.88 -12.97,-38.37 -20.73,-55.14 -3.6,-7.8 -7.36,-15.26 -11.28,-22.38 -102.54,8.13 -206.38,8.77 -305.71,-5.8 0.46,15.38 8.2,28.59 23.6,40.33 z m 320.63,-24.74 c 9.54,20.66 17.72,42.59 24.55,65.52 119.52,-9.68 255.43,-33.74 388.04,-71.34 67.63,-19.18 125.94,-48.59 177.12,-86.46 -79.32,1.76 -178.71,18.2 -290.32,36.67 -95.46,15.79 -199.45,33 -305.48,43 2.07,4.12 4.1,8.32 6.09,12.61 z m 45.09,350.6 c 9.85,23.46 19.74,48.65 30.04,74.91 29.23,74.51 62.37,158.97 107.21,236.95 168.62,293.28 412.11,399.62 814.17,355.52 229,-25.11 397.01,-184.56 559.51,-338.77 77.11,-73.19 152.63,-144.87 232.13,-199.33 -147.72,-49.42 -265.93,-139.78 -389.01,-233.86 -195.98,-149.79 -398.61,-304.68 -754.76,-336.75 -2.29,-0.21 -4.6,-0.4 -6.94,-0.56 -60.59,51.04 -131.43,90.16 -216.67,114.33 -133.45,37.84 -268.49,62.01 -388.32,71.92 18.93,78.82 22.99,167.39 12.64,255.64 z m -534.9,572.34 c 1.66,27.64 16.14,45 28.88,60.27 l 2.22,2.67 c 34.43,41.44 104.95,69.99 142.43,57.62 16.66,-5.5 25.34,-18.58 26.53,-39.98 2.58,-46.31 -43.73,-70.65 -63.75,-78.96 -47.02,-19.52 -103.44,-19.26 -136.31,-1.62 z M 3941,6102.54 c -20.65,5.45 -29.87,41.61 -42.64,91.64 -21.3,83.5 -53.49,209.67 -174.66,334.26 -110.62,113.75 -155.21,185.05 -167.87,233.03 43.23,-14.85 100.15,-9.8 143.86,8.34 54.81,22.75 84.77,62.24 82.2,108.33 -1.87,33.68 -18.59,57.4 -47.09,66.81 -55.18,18.2 -136.46,-20.66 -174.89,-66.94 l -2.19,-2.62 c -12.76,-15.3 -24.08,-31.38 -30.55,-50.34 -2.73,11.09 -2.5,25.55 3.25,41.25 7.83,21.41 37.47,72.76 143.22,87.39 140.37,19.45 178.25,-101.19 230.61,-268.16 22.21,-70.83 47.38,-151.11 84.14,-226.27 36.45,-74.54 57.9,-154.4 67.32,-232.19 -35.02,-82.08 -68.44,-136.74 -114.71,-124.53 z m 2086.5,257.77 c 130.81,7.55 217.23,-21.27 242.83,-37.8 -141.92,-59.71 -258.62,-40.49 -367.55,19.79 39.24,9.25 80.63,15.46 124.72,18.01 z M 7636.67,1908.29 c -539.22,-31.62 -994.27,-190.69 -1476.04,-359.1 -487.82,-170.53 -990.75,-346.35 -1618.34,-400.61 208.53,69.95 403.81,167.2 583.4,290.75 193.45,133.07 375.88,331.01 513.69,557.37 163.65,268.77 257.77,568.1 272.17,865.63 26.48,546.54 -284.11,1150.85 -623.69,1722.49 -108.5,182.65 -180.98,373.45 -251.06,557.97 -93.17,245.28 -177.55,467.45 -327.37,611.58 352.3,37.09 563.17,198.26 749.62,340.78 127.14,97.19 248.99,190.32 403.53,236.43 125.06,-76.66 261.5,-106.85 430.04,-32.11 10.83,4.8 16.18,14.68 13.64,25.15 -9.03,37.32 -133.51,74.11 -280.5,65.64 -57.24,-3.31 -109.96,-12.46 -159.3,-26.2 -83.48,53.64 -163.45,129.53 -248.1,209.87 -166.09,157.63 -337.84,320.63 -576.9,346.84 -207.52,22.74 -374.1,5.17 -509.28,-53.73 -136.56,-59.51 -245.86,-163.09 -334.16,-316.66 -45.94,-79.92 -79.51,-165.47 -109.12,-240.96 -3.72,-9.48 -7.39,-18.81 -11.01,-27.96 -12.65,66.58 -33.56,131.7 -62.55,190.98 -35.76,73.13 -59.51,148.84 -82.46,222.07 -52.47,167.31 -97.76,311.79 -263.35,288.9 -121.87,-16.86 -157.59,-80.3 -167.28,-106.79 -12.04,-32.88 -7.88,-67.43 10.59,-88.01 2.79,-3.1 5.81,-5.99 9.04,-8.66 4.8,-56.94 49.98,-138.4 180.32,-272.43 115.58,-118.85 146.58,-240.35 167.09,-320.75 15.3,-59.96 26.35,-103.28 64.05,-113.23 55.59,-14.69 93.15,25.45 127.36,92.85 3.1,-70.9 -3.54,-138.28 -17.53,-196.19 -157.11,9.96 -284.06,-5.79 -340.29,-48.65 -23.72,-18.08 -35.65,-40.39 -35.44,-66.32 0.01,-0.92 0.02,-1.84 0.05,-2.75 -58.85,-10.61 -115.86,-26.93 -169.82,-50.63 -121.77,-53.49 -197.7,-180.68 -256.82,-348.34 -59.81,-6.68 -111.21,-40.87 -146.3,-99.08 -128.11,-212.49 -185.52,-374.36 -241.04,-530.91 -29,-81.76 -56.39,-158.98 -92.75,-240.04 -131.31,-292.75 -250.81,-550.62 -440.94,-951.48 -155.98,-328.88 -173.77,-748.77 -48.79,-1151.98 130.94,-422.47 403.42,-791.89 767.25,-1040.21 344.37,-235.03 732.77,-342.97 1216.5,-336.46 -423.12,-88.06 -899.29,-76.78 -1424.29,34.48 -329.98,69.91 -637.86,163.91 -935.6,254.81 -511.23,156.08 -994.109,303.5 -1532.093,315.98 -8.168,0.16 -15.145,-6.37 -15.34,-14.65 -0.195,-8.29 6.367,-15.15 14.648,-15.35 533.856,-12.37 1014.825,-159.21 1524.025,-314.67 298.36,-91.09 606.88,-185.28 938.14,-255.47 296.53,-62.83 578.66,-94.28 843.94,-94.28 191.64,0 374.51,16.42 547.56,49.3 66.91,12.7 132.74,27.96 197.38,45.73 693.56,39.76 1234.14,228.74 1757.39,411.64 479.73,167.7 932.86,326.1 1467.89,357.48 8.27,0.48 14.58,7.58 14.09,15.85 -0.49,8.26 -7.31,14.63 -15.85,14.09"
         style="fill:#000000;fill-opacity:1;fill-rule:nonzero;stroke:none"
         id="drawing"
         inkscape:connector-curvature="0" /></g></g></svg>