<!-- Generator: Adobe Adobe Illustrator 24.2.0, SVG Export Plug-In . SVG Version: 6.00 Build 0)  -->
<svg version="1.1" id="mySVG" xmlns="http://www.w3.org/2000/svg" xmlns:xlink="http://www.w3.org/1999/xlink" x="0px" y="0px"
	 width="800px" height="800px" viewBox="0 0 800 800" style="enable-background:new 0 0 800 800;" xml:space="preserve">
<style type="text/css">
	.st0{fill:none;stroke:#000000;stroke-width:3;stroke-miterlimit:10;}
</style>
<path class="st0" d="M40.28,627.14c106.33,0.88,205.19,66.44,311.46,69.99c23.74,0.79,47.56-1.16,70.85-5.82
	c44.37-8.87,87.36-28.06,120.12-59.27s54.5-75.07,54.38-120.32c-0.12-43.88-19.91-85.01-39.26-124.39
	c-21.6-43.93-44.46-74.78-64.79-131.8c-4.11-11.52-10.95-22.18-19.72-30.7c-21.37-20.78-54.97-20.25-84.71-18.37
	c-10.55,0.67-24.48,4.86-23.84,15.42c0.68,11.14,17.69,12.75,26.61,6.04s14.31-17.71,24.16-22.96
	c-11.47-28.39-9.66-56.83-21.12-85.22c-3.96-9.81-4.65-18.94-15.21-19.64c-12.66-0.84-38.12,16.85-28.27,24.86
	c9.84,8.01,33.74-4.32,34.44-16.99c-5.56-8-32.31,2.21-34.16,11.78c-1.85,9.57,22.57,20.44,27.99,28.54
	c8.75,13.07,4.76,24.33,13.52,37.4c1.38,2.06,3.06,4.31,5.52,4.63c2.83,0.37,5.22-2,6.98-4.25c17.74-22.69,23.84-55.35,48.34-70.51
	c22.87-14.15,61.95-7.87,85.14,5.76s34.11,33.95,58.28,45.75c11.28,5.51,28.73,6.92,32.77-4.97c-14.07-7.65-31.38-0.67-45.39,7.08
	c-46.68,25.81-92.5,61.48-145.83,60.33c-30.89-0.66-66.11-12.83-89.87,6.92c-11.14,9.25-16.54,23.52-21.5,37.12
	c-9.61,26.37-8.28,34.72-17.89,61.09c-8.97,24.62-33.89,61.34-39.68,86.9c-3.23,14.22-8.17,33.7-5.32,48
	c2.85,14.3,19.37,23.31,32.83,28.92c14.62,6.1,32.01,7.49,44.45-2.31c12.44-9.8,20.7-23.92,27.58-38.18
	c26.43-54.79,27.36-120.32-4.29-172.27c-11.69-19.18-28.34-38.93-46.97-26.39c-5.64,3.8-11.21,8.93-13.03,15.48
	c-33.47,120.52-101.78,173.22-76.98,272.36c3.18,12.72,9.2,26.72,24.95,53.44c9.92,16.83,29.9,33.17,46.11,44.08
	c71.38,48.03,160.54,49.94,261,21.54c82.79-23.4,122-56.01,207.93-56.01" id="drawing"/>
</svg>
