<svg
   xmlns:dc="http://purl.org/dc/elements/1.1/"
   xmlns:cc="http://creativecommons.org/ns#"
   xmlns:rdf="http://www.w3.org/1999/02/22-rdf-syntax-ns#"
   xmlns:svg="http://www.w3.org/2000/svg"
   xmlns="http://www.w3.org/2000/svg"
   xmlns:sodipodi="http://sodipodi.sourceforge.net/DTD/sodipodi-0.dtd"
   xmlns:inkscape="http://www.inkscape.org/namespaces/inkscape"
   version="1.1"
   id="mySVG"
   xml:space="preserve"
   width="1594.0802"
   height="749.52136"
   viewBox="0 0 1594.0802 749.52136"
   sodipodi:docname="world.svg"
   inkscape:version="0.92.4 (5da689c313, 2019-01-14)"><metadata
     id="metadata8"><rdf:RDF><cc:Work
         rdf:about=""><dc:format>image/svg+xml</dc:format><dc:type
           rdf:resource="http://purl.org/dc/dcmitype/StillImage" /><dc:title></dc:title></cc:Work></rdf:RDF></metadata><defs
     id="defs6" /><sodipodi:namedview
     pagecolor="#ffffff"
     bordercolor="#666666"
     borderopacity="1"
     objecttolerance="10"
     gridtolerance="10"
     guidetolerance="10"
     inkscape:pageopacity="0"
     inkscape:pageshadow="2"
     inkscape:window-width="1920"
     inkscape:window-height="986"
     id="namedview4"
     showgrid="false"
     fit-margin-top="0"
     fit-margin-left="0"
     fit-margin-right="0"
     fit-margin-bottom="0"
     inkscape:zoom="0.55625733"
     inkscape:cx="801.14186"
     inkscape:cy="359.74078"
     inkscape:window-x="-11"
     inkscape:window-y="-11"
     inkscape:window-maximized="1"
     inkscape:current-layer="g12" /><g
     id="g10"
     inkscape:groupmode="layer"
     inkscape:label="ink_ext_XXXXXX"
     transform="matrix(1.3333333,0,0,-1.3333333,-2.9574609,974.79362)"><g
       id="g12"
       transform="scale(0.1)"><path
         d="m 41.6641,1722.35 c 1060.0459,0 3439.9859,0 3739.3259,-7.54 120.96,-3.04 103.71,5.89 -19.21,140.87 -108.2,118.8 -182.28,445.37 -145.38,613.74 29.34,133.85 65.38,336.47 68.54,474.81 5.71,250.47 -368.82,315.09 -339.37,601.89 17.5,170.41 252.93,240.13 -73.3,350.18 -89.63,30.23 -239.86,153.76 -301.29,181.29 -172.1,77.13 -277.17,115.74 -495.3,506.7 -0.64,1.15 -2.42,0.36 -1.87,-0.84 38.67,-83.83 144.08,-317.8 93.23,-279.06 -137.13,64.55 -171.92,327.77 -220.37,384.71 -144.05,169.28 -121.71,161.75 -121.68,361.02 0.02,138.42 144.33,276.2 76.86,384.95 -96.54,155.61 -7.82,430.91 -188.9,525.06 -463.64,241.08 -266.37,-11.47 -432.21,-9.61 -75.55,0.85 -98.4,52.98 -102.45,121.66 -3.38,57.42 -90.45,75.97 -76.84,121.67 44.82,150.47 257.14,190.71 259.33,182.49 -5.37,20.2 -200.65,27.25 -96.05,137.66 57.63,60.83 160.97,-10.99 166.49,16.01 27.49,134.6 -143.85,127.57 63.38,219.82 131.91,58.72 125.7,128.36 296.92,77.96 200.31,-58.95 66.06,-192.88 257.6,-208.13 39.23,-3.13 80.61,-117.52 147.28,-99.25 233.71,64.03 298.82,-166.59 403.39,-12.81 54.43,80.04 -179.65,156.08 -76.83,188.89 150.47,48.03 40.99,118.64 118.46,131.27 147.68,24.08 14.27,-19.34 195.29,-179.29 26.46,-23.37 83.76,30.12 153.68,12.81 83.63,-20.71 -50.88,-224.46 -9.6,-265.73 110.45,-110.46 321.85,-8.87 489.84,-115.26 96.05,-60.83 80.04,-113.73 86.45,-169.68 6.66,-58.25 -105.73,-212.16 -48.76,-234.06 125.84,-48.35 259.73,6.56 285.67,141.21 11.42,59.26 -53.42,89.21 -73.63,150.47 -49.35,149.51 -116.71,321.77 -224.11,371.39 -85.78,39.62 -456.15,111.76 -371.39,-97.65 81.64,-201.7 298.24,165.89 118.46,334.56 -125.45,117.7 -800.4,147.28 16.01,323.37 51.4,11.08 107.52,-79.66 163.28,-54.43 118.67,53.69 223.64,201.47 300.94,214.51 531.47,89.64 535.29,-35.93 467.75,-102.81 -107.64,-106.58 -326.64,-147.14 -333.28,-274.98 -12.81,-246.53 -27.15,-195.67 147.28,-297.75 256.16,-149.91 -115.26,-499.45 -6.41,-723.56 50.56,-104.09 80.43,-272.68 192.1,-163.28 108.59,106.38 83.24,224.11 252.93,291.35 101.26,40.12 264.5,87.44 323.36,185.68 55.94,93.39 90.16,275.52 83.24,371.39 -22.2,307.36 281.74,364.98 176.09,409.81 -224.81,95.37 -85.84,177.28 -284.94,256.12 -126.81,50.21 -621.59,-102.5 -672.34,-214.5 -74.64,-164.72 -262.53,-99.25 -393.8,-291.35 -225.52,-330.03 -160.02,350.9 -259.33,214.51 -67.73,-93.03 -406.27,-50.11 -592.29,-179.29 -142.92,-99.25 -287.45,-404.86 -211.31,-435.42 226.39,-90.84 62.79,88.24 214.51,12.81 108.5,-53.94 117.89,-259.95 316.96,-19.21 101.95,-108.86 295.63,21.33 230.51,-89.65 -64.03,-208.1 -293.97,-229.6 -318.81,-288.26 -48.7,-115 -132.61,76.96 -148.62,-211.18 -6.02,-108.3 -27.61,-40.51 105.65,-105.66 120.84,-59.08 73.78,-181 144.08,-233.71 120.84,-90.63 -42.55,91.75 134.46,163.28 36.26,14.65 -52.09,147.44 3.2,144.07 52.51,-3.2 22.41,246.52 150.48,156.88 118.46,-76.84 77.69,-187 105.65,-204.9 30.14,-8.93 69.71,82.88 99.25,92.84 71.26,-56.54 -9.09,-179.55 80.04,-249.72 150.47,-118.46 122.69,-100.97 -25.61,-192.1 -27.48,-16.88 -212.22,-8.85 -180.28,-92.85 20.41,-53.67 135.46,-86.44 74.63,-140.86 -125.22,-112.04 -240.57,218.78 -457.84,-329.77 0,0 -144.03,-78.63 -131.26,-121.66 3.2,-105.65 31.98,-212.8 -35.22,-211.31 -68.13,1.52 -48.02,214.51 -300.95,153.68 -141.04,-33.92 -280.48,-282.35 -87.37,-353.39 67.56,-24.85 142.87,124.48 209.03,87.66 21.85,-12.16 -50.09,-121.76 -35.21,-150.48 -13.14,25.36 132.95,-43.15 124.86,-35.21 41.54,-40.77 8.05,-134.01 32.01,-156.88 55.77,-53.23 150.66,1.08 278.54,25.61 550.85,105.7 603.84,-290.43 742.77,-358.58 114.36,-56.08 486.65,-44.82 249.73,-352.17 -47.77,-61.97 -4.22,-156.85 -96.05,-268.94 -39.79,-48.56 -126.49,-53.06 -160.08,-96.04 -54.91,-70.26 -42.97,-170.81 -96.05,-243.33 -96.44,-131.76 -206.5,-227.37 -294.55,-364.98 -44.16,-69.03 -14.98,-131.88 -38.41,-204.9 -47.53,-148.11 -30.3,-344.64 359.02,-344.64 1966.67,0 1973.34,-85.33 1974.94,568.75 0.11,44.63 -19.48,253.98 -51.23,294.55 -83.37,106.54 -115.88,212.62 -134.49,337.94 -9.48,63.88 -50.45,113.85 -57.6,190.33 -7.92,84.6 59.31,139.77 41.62,246.52 -13.55,81.78 -103.84,165.27 -121.66,214.5 -42.42,117.15 74.4,270.71 -172.89,246.52 -111.76,-10.93 -223.33,-109.36 -371.39,-22.41 -245.42,144.14 -228.94,380.23 -131.26,557.08 59.41,107.56 179.09,156.62 207.86,246.9 16.17,50.73 62.7,85.38 115.89,82.85 165.79,-7.91 234.36,103.78 361.39,51.24 166.63,-68.91 166.49,-295.82 307.36,-128.06 49.57,59.02 397,-117.52 427.59,23.82 40.22,185.69 -306.81,-21.78 -293.13,251.51 -64.69,2.26 -57.44,-57.86 -86.05,-116.01 -115.86,72.65 -33.05,271.38 -221.31,240.88 37.02,-73.21 166.49,-217.71 32.79,-235.4 -32.19,-4.27 -0.37,72.85 -19.97,91.33 -58.8,55.4 -201.53,149.04 -329.77,108.85 -138.02,-43.25 22.28,-322.59 -291.34,-204.9 -73.26,27.49 -55.69,75.34 -44.83,128.06 8.28,40.14 -8.33,89.01 51.23,99.25 33.44,5.75 179.29,-28.81 182.87,40.91 4.16,81.01 -253.3,58.34 102.07,186.4 47.47,17.11 -92.34,112.33 -118.46,201.7 -31.68,108.42 -96.05,195.3 -121.66,144.08 -61.25,-122.5 -75.88,-368.48 107.89,-333.48 101.79,19.39 256.12,154.18 341.93,154.18 244.93,0 218.87,75.24 276.94,166.49 83.15,130.64 181.25,27.58 121.66,102.45 -69.73,87.61 -176.08,-112.06 -192.09,73.64 -7.11,82.41 62.64,90.93 70.43,179.28 -121.45,-17.06 -130.52,-51.26 -160.08,-195.29 -15.41,-75.07 64.96,-47.08 35.22,-108.86 -18.68,-38.79 -31.38,-53.85 -35.22,-86.44 -6.4,-54.43 -90.26,-96.97 -95.25,-67.23 -5.95,35.6 -76.41,104.76 -64.82,140.87 -27.82,-5.06 -54.4,-47.56 -73.64,-48.03 -112.89,-2.71 -83.74,109.63 -19.49,213.17 45.31,73.04 127,159.47 147.98,194.38 127.65,212.38 230.09,309.61 425.38,171.94 54.72,-38.56 133.55,21.51 179.3,-92.85 57.62,-144.07 -60.54,4.62 -112.31,-83.2 -50.97,-86.48 45.07,-147.31 233.97,35.18 61.66,59.58 219.97,109.34 278.53,156.88 36.96,30 -15.57,61.54 0,86.44 64.04,-6.4 241.8,-91.56 195.3,-16 -51.23,83.24 -65.6,239.35 16.39,224.73 7.29,34.22 125.35,-26.86 143.69,2.58 86.44,10.17 12.81,60.83 96.05,108.85 22.41,214.51 222.11,207.92 223.91,302.74 4.23,221.92 99.55,136.89 171.83,22.97 150.08,156.79 273.11,4.86 271.61,-162.91 90.69,101.07 396.69,-13.92 363.33,57.91 8.73,35.62 -68.67,58.12 147.58,75.45 110.37,8.85 132,-155.46 207.99,-117.45 90.51,45.28 69.39,78.11 152.4,101.76 96.92,27.62 -18.86,155.76 42.73,131.48 40.12,-15.82 295.71,53.45 314.91,8.53 39.78,-93.1 240.19,69.81 336.79,0.58 37.3,-26.72 -20.64,-67.84 20.78,-52 172.51,65.97 231.45,98.25 344.04,73.43 -89.73,180.47 303.1,86.03 432.4,70.33 61.3,-7.44 81.7,149 162.5,5.84 7.5,-13.25 15.5,-29.06 24.1,-47.78 14.4,-31.14 12.5,-73.8 -10.1,-125.06 -31.8,-72.17 -74.4,38.24 -120.9,-4.17 -166.2,-151.64 257.9,-223.25 8.8,-313.35 -74.6,-26.98 -58.9,-68.97 -74.8,-218.74 -2.9,-27.9 -65.5,72.13 -94.9,35.06 -40.7,-51.28 -103.5,-36.14 -61,-168.42 63,-196.3 83.6,-222.59 39,-488.16 -216.3,210.67 -229.3,249.3 -212.5,425.07 9.3,96.58 18.7,290.84 -98,199.55 -75.86,-59.41 -107.37,-123.53 -80.26,-179.3 28.41,-58.45 -143.85,34.11 -308.66,-73.98 -255.7,-447.19 154.59,-154.23 49.1,-554.19 -16.05,-60.86 -55.06,-217.08 -111.42,-304.4 -64.06,-99.24 -146.14,-98.71 -139.18,-217.53 13.87,-236.6 45.7,-348.64 142.71,-267.39 39.68,33.23 126.26,58.13 165.61,124.56 35.92,60.64 -86.82,210.17 -39.1,253.39 105.1,95.23 33.34,126.7 -59.96,180.37 -15.04,8.66 16.07,-281.93 -60.72,-381.44 -65.52,-84.94 -127,-153.71 -257.07,-163.57 -150.3,-11.4 -133.12,217.05 -233.18,202.66 -37.36,37.57 -116.06,-20.98 -100.68,-73.54 26.52,-90.67 161.7,-260.74 131.28,-344.41 -68.65,-188.85 -128.18,-238.87 -278.15,-298.2 -208.72,-82.56 -45.23,-66.16 -26.53,-203.33 19.21,-140.87 -113.42,-242.24 -188.9,-67.22 -153.67,38.41 33.15,-218.89 57.63,-323.37 -94.14,-17.65 224.11,-496.24 -160.08,12.81 -74.54,98.77 -25.18,124.06 48.03,70.43 57.03,-9.01 -5.23,11.46 -77.58,99.42 -21.7,26.39 48.76,150.31 -12.07,278.37 -19.13,40.27 -91.93,-93.73 -105.47,-38.94 -67.41,272.65 -193.72,278.46 -339.55,-15.49 -175.63,-354 -97.54,-178.05 -300.95,134.47 -140.87,216.44 -312.7,157.27 -486.64,216.44 -131.22,44.62 -192.16,100.53 -211.31,100.52 -16,-211.31 201.55,-140.22 284.94,-195.3 169.69,-112.06 -198.26,-254.72 -304.15,-320.16 -70.47,-43.55 -348.93,506.41 -397,429.02 -22.92,-36.92 43.46,-125.92 102.45,-220.92 90.77,-146.15 195.31,-396.99 429.02,-262.53 -30.15,-158.14 -283.4,-317.15 -332.96,-480.23 -47.45,-156.14 130.74,-174.58 -45.34,-357.07 -126.37,-130.96 -165.97,-337.68 -303.64,-449.74 -71.07,-57.84 -195.1,-30.09 -185.69,-153.67 51.4,-674.93 -43.6,-796.07 833.31,-796.07 2300.34,0 2667.55,-144.78 2728.37,514.15 12.09,130.96 214.89,442.23 203.39,563.66 -2.4,25.66 -24,108.85 -134.47,214.51 -46.75,44.71 -43.72,100.57 -57.62,147.26 -12.86,43.19 -43.92,77.65 -54.44,108.86 -10.59,31.48 -25.47,154 -73.63,-185.69 -179.29,22.41 -124.48,181.43 -217.7,188.89 -87.21,6.98 -196.05,-34.79 -257.74,-112.06 -158.47,-198.49 -301.46,-146.72 -353.77,-233.71 -70.68,-117.55 26.3,-257.55 -1.6,-395.4 -10.99,-54.26 243.2,20.94 344.17,62.43 233.71,96.05 252.92,-294.55 387.39,-291.34 601.51,14.32 -121.54,-581.56 374.31,-581.56 653.1,0 1367.8,-2.89 1963.3,0"
         style="fill:none;stroke:#000000;stroke-width:50;stroke-linecap:round;stroke-linejoin:round;stroke-miterlimit:10;stroke-dasharray:none;stroke-opacity:1"
         id="drawing"
         inkscape:connector-curvature="0" /></g></g></svg>