<svg
   xmlns:dc="http://purl.org/dc/elements/1.1/"
   xmlns:cc="http://creativecommons.org/ns#"
   xmlns:rdf="http://www.w3.org/1999/02/22-rdf-syntax-ns#"
   xmlns:svg="http://www.w3.org/2000/svg"
   xmlns="http://www.w3.org/2000/svg"
   xmlns:sodipodi="http://sodipodi.sourceforge.net/DTD/sodipodi-0.dtd"
   xmlns:inkscape="http://www.inkscape.org/namespaces/inkscape"
   version="1.1"
   id="mySVG"
   xml:space="preserve"
   width="1594.6667"
   height="750.66669"
   viewBox="0 0 1594.6667 750.66669"
   sodipodi:docname="world.svg"
   inkscape:version="0.92.4 (5da689c313, 2019-01-14)"><metadata
     id="metadata8"><rdf:RDF><cc:Work
         rdf:about=""><dc:format>image/svg+xml</dc:format><dc:type
           rdf:resource="http://purl.org/dc/dcmitype/StillImage" /><dc:title></dc:title></cc:Work></rdf:RDF></metadata><defs
     id="defs6" /><sodipodi:namedview
     pagecolor="#ffffff"
     bordercolor="#666666"
     borderopacity="1"
     objecttolerance="10"
     gridtolerance="10"
     guidetolerance="10"
     inkscape:pageopacity="0"
     inkscape:pageshadow="2"
     inkscape:window-width="1920"
     inkscape:window-height="986"
     id="namedview4"
     showgrid="false"
     inkscape:zoom="0.58946485"
     inkscape:cx="835.03982"
     inkscape:cy="238.96335"
     inkscape:window-x="-11"
     inkscape:window-y="-11"
     inkscape:window-maximized="1"
     inkscape:current-layer="g10" /><g
     id="g10"
     inkscape:groupmode="layer"
     inkscape:label="ink_ext_XXXXXX"
     transform="matrix(1.3333333,0,0,-1.3333333,0,750.66667)"><g
       id="g12"
       transform="scale(0.1)"><path
         d="m 19.4883,41.4102 c 1060.0417,0 3439.9617,0 3739.3417,-7.5391 120.94,-3.0508 103.67,5.8984 -19.22,140.8589 -108.2,118.79 -182.31,445.391 -145.39,613.75 29.33,133.821 65.39,336.44 68.55,474.8 5.71,250.47 -368.82,315.08 -339.37,601.88 17.5,170.43 252.93,240.15 -73.32,350.19 -89.61,30.24 -239.85,153.75 -301.29,181.29 -172.11,77.11 -277.15,115.74 -495.27,506.68 -0.67,1.17 -2.43,0.39 -1.88,-0.82 38.67,-83.83 144.06,-317.81 93.2,-279.06 -137.11,64.53 -171.91,327.77 -220.35,384.72 -144.06,169.26 -121.72,161.72 -121.68,361.02 0,138.4 144.34,276.17 76.88,384.92 -96.56,155.63 -7.85,430.94 -188.91,525.08 -463.63,241.09 -266.37,-11.48 -432.23,-9.61 -75.54,0.86 -98.39,52.97 -102.46,121.64 -3.36,57.42 -90.43,75.98 -76.83,121.68 44.84,150.47 257.15,190.7 259.33,182.5 -5.35,20.2 -200.66,27.27 -96.05,137.66 57.66,60.82 160.98,-10.98 166.48,16.01 27.5,134.61 -143.82,127.58 63.4,219.81 131.92,58.75 125.71,128.36 296.92,77.97 200.31,-58.95 66.05,-192.89 257.61,-208.13 39.22,-3.12 80.59,-117.54 147.27,-99.26 233.71,64.03 298.83,-166.6 403.4,-12.81 54.41,80.04 -179.65,156.09 -76.84,188.91 150.47,48 40.98,118.63 118.48,131.25 147.65,24.1 14.26,-19.34 195.27,-179.3 26.45,-23.36 83.75,30.16 153.67,12.81 83.64,-20.7 -50.86,-224.45 -9.61,-265.7 110.47,-110.47 321.88,-8.87 489.85,-115.27 96.05,-60.82 80.04,-113.72 86.44,-169.69 6.68,-58.24 -105.7,-212.15 -48.75,-234.06 125.86,-48.32 259.73,6.56 285.67,141.21 11.44,59.25 -53.4,89.22 -73.64,150.47 -49.33,149.53 -116.68,321.79 -224.1,371.4 -85.78,39.61 -456.13,111.76 -371.36,-97.65 81.64,-201.68 298.24,165.89 118.43,334.57 -125.43,117.69 -800.39,147.26 16.02,323.36 51.4,11.09 107.54,-79.65 163.28,-54.42 118.67,53.67 223.63,201.45 300.94,214.49 531.48,89.65 535.27,-35.93 467.73,-102.81 -107.62,-106.56 -326.64,-147.15 -333.28,-274.96 -12.77,-246.52 -27.15,-195.66 147.31,-297.77 256.17,-149.89 -115.28,-499.46 -6.41,-723.56 50.55,-104.1 80.43,-272.65 192.11,-163.28 108.55,106.41 83.2,224.1 252.93,291.37 101.25,40.11 264.49,87.42 323.36,185.66 55.93,93.4 90.15,275.51 83.2,371.41 -22.19,307.34 281.76,364.96 176.09,409.8 -224.8,95.35 -85.82,177.27 -284.92,256.14 -126.79,50.19 -621.6,-102.5 -672.34,-214.54 -74.65,-164.68 -262.54,-99.21 -393.79,-291.32 -225.55,-330.04 -160.04,350.89 -259.34,214.49 -67.73,-93.01 -406.29,-50.12 -592.3,-179.3 -142.89,-99.22 -287.42,-404.84 -211.29,-435.39 226.37,-90.86 62.77,88.24 214.49,12.81 108.52,-53.94 117.89,-259.96 316.96,-19.22 101.95,-108.86 295.62,21.33 230.5,-89.64 -64.02,-208.13 -293.94,-229.61 -318.79,-288.29 -48.71,-115 -132.61,77 -148.63,-211.17 -6.01,-108.28 -27.62,-40.5 105.67,-105.66 120.82,-59.06 73.78,-180.98 144.06,-233.71 120.86,-90.63 -42.54,91.76 134.45,163.28 36.29,14.65 -52.07,147.46 3.2,144.06 52.54,-3.2 22.43,246.53 150.51,156.92 118.44,-76.88 77.7,-187.04 105.63,-204.93 30.15,-8.94 69.72,82.89 99.25,92.86 71.25,-56.57 -9.1,-179.57 80.04,-249.73 150.47,-118.48 122.7,-100.98 -25.58,-192.11 -27.5,-16.88 -212.23,-8.83 -180.31,-92.85 20.42,-53.67 135.46,-86.45 74.64,-140.86 -125.23,-112.03 -240.58,218.79 -457.85,-329.77 0,0 -144.02,-78.63 -131.25,-121.64 3.21,-105.66 31.99,-212.81 -35.23,-211.33 -68.13,1.53 -48.01,214.54 -300.94,153.68 -141.05,-33.91 -280.47,-282.35 -87.38,-353.36 67.58,-24.89 142.89,124.45 209.02,87.65 21.88,-12.18 -50.08,-121.75 -35.19,-150.5 -13.13,25.39 132.96,-43.13 124.88,-35.2 41.52,-40.78 8.05,-134.02 31.99,-156.88 55.78,-53.24 150.66,1.06 278.56,25.59 550.82,105.7 603.82,-290.43 742.77,-358.55 114.33,-56.1 486.64,-44.85 249.73,-352.19 -47.78,-61.95 -4.22,-156.84 -96.06,-268.95 -39.8,-48.55 -126.48,-53.04 -160.08,-96.01 -54.92,-70.28 -42.97,-170.82 -96.05,-243.362 -96.45,-131.757 -206.53,-227.347 -294.57,-364.957 -44.14,-69.031 -14.96,-131.882 -38.4,-204.89 -47.54,-148.121 -30.31,-344.6408 359.02,-344.6408 1966.68,0 1973.32,-85.3594 1974.92,568.7498 0.12,44.61 -19.45,253.981 -51.21,294.531 -83.36,106.559 -115.9,212.609 -134.49,337.969 -9.49,63.86 -50.47,113.82 -57.62,190.31 -7.89,84.61 59.34,139.76 41.64,246.52 -13.55,81.76 -103.82,165.28 -121.68,214.49 -42.42,117.15 74.42,270.71 -172.89,246.53 -111.75,-10.94 -223.32,-109.38 -371.36,-22.42 -245.43,144.14 -228.95,380.23 -131.25,557.11 59.37,107.53 179.06,156.6 207.85,246.87 16.17,50.74 62.69,85.39 115.9,82.85 165.78,-7.89 234.33,103.79 361.36,51.25 166.64,-68.9 166.49,-295.82 307.39,-128.05 49.57,58.99 396.99,-117.53 427.58,23.79 40.19,185.71 -306.8,-21.75 -293.13,251.53 -64.69,2.26 -57.46,-57.85 -86.05,-116.02 -115.86,72.66 -33.05,271.37 -221.33,240.9 37.03,-73.2 166.48,-217.73 32.81,-235.43 -32.19,-4.26 -0.39,72.85 -20,91.33 -58.79,55.43 -201.52,149.06 -329.77,108.87 -138,-43.25 22.31,-322.58 -291.32,-204.89 -73.25,27.46 -55.71,75.32 -44.85,128.05 8.28,40.16 -8.32,89.02 51.25,99.26 33.44,5.74 179.3,-28.83 182.85,40.9 4.18,81.01 -253.28,58.36 102.07,186.4 47.5,17.11 -92.34,112.35 -118.43,201.68 -31.68,108.44 -96.06,195.31 -121.68,144.1 -61.25,-122.5 -75.86,-368.47 107.89,-333.47 101.79,19.37 256.13,154.18 341.95,154.18 244.92,0 218.87,75.23 276.91,166.48 83.17,130.63 181.25,27.58 121.68,102.46 -69.72,87.58 -176.09,-112.07 -192.1,73.63 -7.11,82.43 62.65,90.94 70.42,179.26 -121.44,-17.03 -130.5,-51.25 -160.07,-195.27 -15.39,-75.08 64.96,-47.07 35.23,-108.87 -18.67,-38.79 -31.37,-53.83 -35.23,-86.44 -6.41,-54.42 -90.24,-96.96 -95.24,-67.23 -5.94,35.63 -76.4,104.77 -64.8,140.86 -27.85,-5.04 -54.42,-47.54 -73.67,-48.01 -112.89,-2.69 -83.72,109.61 -19.5,213.17 45.32,73.04 127.03,159.45 148.01,194.37 127.66,212.38 230.08,309.61 425.35,171.95 54.73,-38.55 133.56,21.49 179.3,-92.85 57.66,-144.06 -60.51,4.61 -112.3,-83.2 -50.94,-86.49 45.07,-147.31 233.98,35.19 61.64,59.57 219.96,109.34 278.52,156.88 36.99,30 -15.55,61.52 0,86.44 64.06,-6.4 241.79,-91.56 195.31,-16.01 -51.21,83.24 -65.59,239.34 16.4,224.73 7.27,34.21 125.36,-26.88 143.68,2.57 86.44,10.16 12.81,60.82 96.05,108.87 22.42,214.49 222.11,207.89 223.91,302.74 4.22,221.91 99.57,136.87 171.83,22.96 150.08,156.8 273.13,4.85 271.6,-162.93 90.71,101.1 396.68,-13.9 363.32,57.93 8.75,35.63 -68.67,58.13 147.58,75.43 110.39,8.87 132.03,-155.43 208.01,-117.42 90.51,45.28 69.38,78.09 152.38,101.76 96.96,27.62 -18.82,155.74 42.74,131.48 40.11,-15.82 295.7,53.44 314.92,8.52 39.77,-93.09 240.19,69.8 336.8,0.59 37.3,-26.72 -20.67,-67.86 20.78,-52 172.5,65.94 231.44,98.25 344.02,73.4 -89.73,180.47 303.09,86.06 432.39,70.35 61.3,-7.46 81.7,148.99 162.5,5.82 7.5,-13.24 15.5,-29.06 24.1,-47.77 14.4,-31.13 12.5,-73.79 -10.1,-125.04 -31.8,-72.19 -74.4,38.24 -120.9,-4.18 -166.2,-151.64 257.9,-223.24 8.8,-313.36 -74.6,-26.99 -58.9,-68.94 -74.8,-218.75 -2.9,-27.89 -65.5,72.15 -94.9,35.08 -40.7,-51.29 -103.5,-36.13 -61,-168.44 63,-196.29 83.6,-222.58 39,-488.16 -216.3,210.7 -229.3,249.33 -212.5,425.08 9.3,96.6 18.7,290.86 -97.98,199.57 -75.86,-59.42 -107.38,-123.56 -80.27,-179.3 28.43,-58.48 -143.83,34.1 -308.64,-73.98 -255.7,-447.19 154.57,-154.26 49.11,-554.18 -16.06,-60.86 -55.08,-217.11 -111.45,-304.42 -64.06,-99.26 -146.13,-98.71 -139.18,-217.54 13.87,-236.6 45.7,-348.63 142.74,-267.38 39.64,33.24 126.25,58.13 165.58,124.57 35.94,60.63 -86.8,210.16 -39.1,253.36 105.12,95.23 33.36,126.72 -59.96,180.39 -15.04,8.67 16.09,-281.91 -60.7,-381.44 -65.51,-84.93 -127,-153.72 -257.07,-163.56 -150.32,-11.41 -133.13,217.03 -233.21,202.66 -37.34,37.58 -116.05,-20.98 -100.66,-73.56 26.52,-90.66 161.72,-260.74 131.29,-344.41 -68.67,-188.83 -128.21,-238.87 -278.17,-298.2 -208.71,-82.54 -45.23,-66.14 -26.52,-203.33 19.22,-140.85 -113.44,-242.22 -188.91,-67.22 -153.67,38.44 33.17,-218.87 57.62,-323.36 -94.14,-17.66 224.14,-496.25 -160.08,12.81 -74.53,98.75 -25.15,124.06 48.05,70.43 57.03,-9.02 -5.24,11.45 -77.58,99.42 -21.72,26.4 48.75,150.31 -12.07,278.35 -19.14,40.28 -91.91,-93.71 -105.47,-38.94 -67.42,272.66 -193.71,278.48 -339.57,-15.47 -175.62,-353.98 -97.54,-178.05 -300.94,134.45 -140.86,216.45 -312.69,157.27 -486.64,216.45 -131.21,44.61 -192.14,100.55 -211.29,100.55 -16.01,-211.33 201.53,-140.24 284.93,-195.32 169.68,-112.07 -198.25,-254.72 -304.14,-320.15 -70.47,-43.56 -348.95,506.4 -397,429.02 -22.93,-36.91 43.44,-125.94 102.43,-220.94 90.78,-146.13 195.31,-396.99 429.02,-262.54 -30.16,-158.12 -283.4,-317.14 -332.97,-480.23 -47.42,-156.13 130.74,-174.57 -45.31,-357.07 -126.37,-130.94 -165.98,-337.66 -303.64,-449.731 -71.09,-57.848 -195.11,-30.078 -185.7,-153.668 51.41,-674.922 -43.59,-796.0508 833.32,-796.0508 2300.31,0 2667.54,-144.8082 2728.36,514.1408 12.07,130.969 214.87,442.219 203.37,563.669 -2.4,25.66 -23.99,108.83 -134.46,214.49 -46.76,44.73 -43.71,100.59 -57.62,147.27 -12.85,43.2 -43.91,77.65 -54.41,108.86 -10.63,31.49 -25.47,153.99 -73.64,-185.7 -179.29,22.42 -124.49,181.45 -217.69,188.91 -87.23,6.95 -196.06,-34.81 -257.78,-112.07 -158.43,-198.48 -301.44,-146.72 -353.75,-233.71 -70.7,-117.54 26.29,-257.54 -1.6,-395.399 -10.97,-54.25 243.21,20.938 344.18,62.43 233.71,96.049 252.89,-294.531 387.39,-291.332 601.48,14.301 -121.57,-581.5588 374.29,-581.5588 653.09,0 1367.79,-2.8907 1963.29,0"
         style="fill:none;stroke:#000000;stroke-width:38.41910172;stroke-linecap:round;stroke-linejoin:round;stroke-miterlimit:10;stroke-dasharray:none;stroke-opacity:1"
         id="drawing"
         inkscape:connector-curvature="0" /></g></g></svg>