<svg
   xmlns:dc="http://purl.org/dc/elements/1.1/"
   xmlns:cc="http://creativecommons.org/ns#"
   xmlns:rdf="http://www.w3.org/1999/02/22-rdf-syntax-ns#"
   xmlns:svg="http://www.w3.org/2000/svg"
   xmlns="http://www.w3.org/2000/svg"
   xmlns:sodipodi="http://sodipodi.sourceforge.net/DTD/sodipodi-0.dtd"
   xmlns:inkscape="http://www.inkscape.org/namespaces/inkscape"
   version="1.1"
   id="mySVG"
   xml:space="preserve"
   width="2143.9111"
   height="711.84521"
   viewBox="0 0 2143.9111 711.84521"
   sodipodi:docname="triangle.svg"
   inkscape:version="0.92.4 (5da689c313, 2019-01-14)"><metadata
     id="metadata8"><rdf:RDF><cc:Work
         rdf:about=""><dc:format>image/svg+xml</dc:format><dc:type
           rdf:resource="http://purl.org/dc/dcmitype/StillImage" /><dc:title></dc:title></cc:Work></rdf:RDF></metadata><defs
     id="defs6" /><sodipodi:namedview
     pagecolor="#ffffff"
     bordercolor="#666666"
     borderopacity="1"
     objecttolerance="10"
     gridtolerance="10"
     guidetolerance="10"
     inkscape:pageopacity="0"
     inkscape:pageshadow="2"
     inkscape:window-width="1920"
     inkscape:window-height="986"
     id="namedview4"
     showgrid="false"
     fit-margin-top="0"
     fit-margin-left="0"
     fit-margin-right="0"
     fit-margin-bottom="0"
     inkscape:zoom="0.953584"
     inkscape:cx="1303.0396"
     inkscape:cy="298.54531"
     inkscape:window-x="-11"
     inkscape:window-y="-11"
     inkscape:window-maximized="1"
     inkscape:current-layer="g12" /><g
     id="g10"
     inkscape:groupmode="layer"
     inkscape:label="ink_ext_XXXXXX"
     transform="matrix(1.3333333,0,0,-1.3333333,-1346.9537,2469.2041)"><g
       id="g12"
       transform="scale(0.1)"><path
         d="m 10156.9,15321.6 c 1249.4,-1853.9 4944.4,2656.6 5841,1791.4 442.1,-426.5 -998.7,-1934.4 -69.8,-2404.3 1231.8,-623.1 6259.2,2551.7 4762.2,3629.8 -509.6,367 -1910.9,-346.3 -2174.5,-1217.5 -219.7,-726 607.8,-380.6 607.8,558.2 0,648.2 -629.2,1094.5 -1147.9,527.5 -915.2,-1000.6 -778.9,-3653.2 837.7,-3653.2 1402,0 3480.7,2085.8 4366.6,1605.6 439.7,-238.4 165.6,-1246 -674.7,-2086.4 -1658.4,-1658.4 -2506.2,-514 -1520.3,502.6 1341.4,1383.3 4108.5,1487 5141.8,-398.7"
         style="fill:none;stroke:#1f2320;stroke-width:105.00000263;stroke-linecap:round;stroke-linejoin:round;stroke-miterlimit:4;stroke-dasharray:none;stroke-opacity:1;fill-opacity:1"
         id="drawing"
         inkscape:connector-curvature="0" /></g></g></svg>